G04 #@! TF.GenerationSoftware,KiCad,Pcbnew,(5.1.5)-3*
G04 #@! TF.CreationDate,2020-07-18T15:31:23-05:00*
G04 #@! TF.ProjectId,Miasma_Main_smd,4d696173-6d61-45f4-9d61-696e5f736d64,rev?*
G04 #@! TF.SameCoordinates,Original*
G04 #@! TF.FileFunction,Legend,Bot*
G04 #@! TF.FilePolarity,Positive*
%FSLAX46Y46*%
G04 Gerber Fmt 4.6, Leading zero omitted, Abs format (unit mm)*
G04 Created by KiCad (PCBNEW (5.1.5)-3) date 2020-07-18 15:31:23*
%MOMM*%
%LPD*%
G04 APERTURE LIST*
%ADD10C,0.150000*%
%ADD11C,0.200000*%
%ADD12C,0.120000*%
%ADD13C,2.000000*%
%ADD14O,2.100000X2.100000*%
%ADD15R,2.100000X2.100000*%
%ADD16C,0.100000*%
%ADD17R,1.300000X1.600000*%
%ADD18R,2.000000X3.900000*%
%ADD19C,5.100000*%
G04 APERTURE END LIST*
D10*
X130049880Y-143904761D02*
X129907023Y-143952380D01*
X129668928Y-143952380D01*
X129573690Y-143904761D01*
X129526071Y-143857142D01*
X129478452Y-143761904D01*
X129478452Y-143666666D01*
X129526071Y-143571428D01*
X129573690Y-143523809D01*
X129668928Y-143476190D01*
X129859404Y-143428571D01*
X129954642Y-143380952D01*
X130002261Y-143333333D01*
X130049880Y-143238095D01*
X130049880Y-143142857D01*
X130002261Y-143047619D01*
X129954642Y-143000000D01*
X129859404Y-142952380D01*
X129621309Y-142952380D01*
X129478452Y-143000000D01*
X129049880Y-142952380D02*
X129049880Y-143761904D01*
X129002261Y-143857142D01*
X128954642Y-143904761D01*
X128859404Y-143952380D01*
X128668928Y-143952380D01*
X128573690Y-143904761D01*
X128526071Y-143857142D01*
X128478452Y-143761904D01*
X128478452Y-142952380D01*
X128002261Y-143952380D02*
X128002261Y-142952380D01*
X127668928Y-143666666D01*
X127335595Y-142952380D01*
X127335595Y-143952380D01*
X141383214Y-143285714D02*
X141383214Y-143952380D01*
X141621309Y-142904761D02*
X141859404Y-143619047D01*
X141240357Y-143619047D01*
X140192738Y-144047619D02*
X140287976Y-144000000D01*
X140383214Y-143904761D01*
X140526071Y-143761904D01*
X140621309Y-143714285D01*
X140716547Y-143714285D01*
X140668928Y-143952380D02*
X140764166Y-143904761D01*
X140859404Y-143809523D01*
X140907023Y-143619047D01*
X140907023Y-143285714D01*
X140859404Y-143095238D01*
X140764166Y-143000000D01*
X140668928Y-142952380D01*
X140478452Y-142952380D01*
X140383214Y-143000000D01*
X140287976Y-143095238D01*
X140240357Y-143285714D01*
X140240357Y-143619047D01*
X140287976Y-143809523D01*
X140383214Y-143904761D01*
X140478452Y-143952380D01*
X140668928Y-143952380D01*
X139907023Y-142952380D02*
X139240357Y-143952380D01*
X139240357Y-142952380D02*
X139907023Y-143952380D01*
X137844404Y-116911428D02*
X137082500Y-116911428D01*
X137463452Y-117292380D02*
X137463452Y-116530476D01*
X136082500Y-117292380D02*
X136653928Y-117292380D01*
X136368214Y-117292380D02*
X136368214Y-116292380D01*
X136463452Y-116435238D01*
X136558690Y-116530476D01*
X136653928Y-116578095D01*
X135701547Y-116387619D02*
X135653928Y-116340000D01*
X135558690Y-116292380D01*
X135320595Y-116292380D01*
X135225357Y-116340000D01*
X135177738Y-116387619D01*
X135130119Y-116482857D01*
X135130119Y-116578095D01*
X135177738Y-116720952D01*
X135749166Y-117292380D01*
X135130119Y-117292380D01*
X134844404Y-116292380D02*
X134511071Y-117292380D01*
X134177738Y-116292380D01*
X135939642Y-119308571D02*
X135796785Y-119356190D01*
X135749166Y-119403809D01*
X135701547Y-119499047D01*
X135701547Y-119641904D01*
X135749166Y-119737142D01*
X135796785Y-119784761D01*
X135892023Y-119832380D01*
X136272976Y-119832380D01*
X136272976Y-118832380D01*
X135939642Y-118832380D01*
X135844404Y-118880000D01*
X135796785Y-118927619D01*
X135749166Y-119022857D01*
X135749166Y-119118095D01*
X135796785Y-119213333D01*
X135844404Y-119260952D01*
X135939642Y-119308571D01*
X136272976Y-119308571D01*
X134844404Y-119832380D02*
X134844404Y-119308571D01*
X134892023Y-119213333D01*
X134987261Y-119165714D01*
X135177738Y-119165714D01*
X135272976Y-119213333D01*
X134844404Y-119784761D02*
X134939642Y-119832380D01*
X135177738Y-119832380D01*
X135272976Y-119784761D01*
X135320595Y-119689523D01*
X135320595Y-119594285D01*
X135272976Y-119499047D01*
X135177738Y-119451428D01*
X134939642Y-119451428D01*
X134844404Y-119403809D01*
X134225357Y-119832380D02*
X134320595Y-119784761D01*
X134368214Y-119689523D01*
X134368214Y-118832380D01*
X135225357Y-122372380D02*
X135225357Y-121372380D01*
X134749166Y-121705714D02*
X134749166Y-122372380D01*
X134749166Y-121800952D02*
X134701547Y-121753333D01*
X134606309Y-121705714D01*
X134463452Y-121705714D01*
X134368214Y-121753333D01*
X134320595Y-121848571D01*
X134320595Y-122372380D01*
X136415833Y-124912380D02*
X136749166Y-124436190D01*
X136987261Y-124912380D02*
X136987261Y-123912380D01*
X136606309Y-123912380D01*
X136511071Y-123960000D01*
X136463452Y-124007619D01*
X136415833Y-124102857D01*
X136415833Y-124245714D01*
X136463452Y-124340952D01*
X136511071Y-124388571D01*
X136606309Y-124436190D01*
X136987261Y-124436190D01*
X135987261Y-124912380D02*
X135987261Y-124245714D01*
X135987261Y-123912380D02*
X136034880Y-123960000D01*
X135987261Y-124007619D01*
X135939642Y-123960000D01*
X135987261Y-123912380D01*
X135987261Y-124007619D01*
X135558690Y-124864761D02*
X135463452Y-124912380D01*
X135272976Y-124912380D01*
X135177738Y-124864761D01*
X135130119Y-124769523D01*
X135130119Y-124721904D01*
X135177738Y-124626666D01*
X135272976Y-124579047D01*
X135415833Y-124579047D01*
X135511071Y-124531428D01*
X135558690Y-124436190D01*
X135558690Y-124388571D01*
X135511071Y-124293333D01*
X135415833Y-124245714D01*
X135272976Y-124245714D01*
X135177738Y-124293333D01*
X134320595Y-124864761D02*
X134415833Y-124912380D01*
X134606309Y-124912380D01*
X134701547Y-124864761D01*
X134749166Y-124769523D01*
X134749166Y-124388571D01*
X134701547Y-124293333D01*
X134606309Y-124245714D01*
X134415833Y-124245714D01*
X134320595Y-124293333D01*
X134272976Y-124388571D01*
X134272976Y-124483809D01*
X134749166Y-124579047D01*
X136320595Y-126928571D02*
X136653928Y-126928571D01*
X136653928Y-127452380D02*
X136653928Y-126452380D01*
X136177738Y-126452380D01*
X135368214Y-127452380D02*
X135368214Y-126928571D01*
X135415833Y-126833333D01*
X135511071Y-126785714D01*
X135701547Y-126785714D01*
X135796785Y-126833333D01*
X135368214Y-127404761D02*
X135463452Y-127452380D01*
X135701547Y-127452380D01*
X135796785Y-127404761D01*
X135844404Y-127309523D01*
X135844404Y-127214285D01*
X135796785Y-127119047D01*
X135701547Y-127071428D01*
X135463452Y-127071428D01*
X135368214Y-127023809D01*
X134749166Y-127452380D02*
X134844404Y-127404761D01*
X134892023Y-127309523D01*
X134892023Y-126452380D01*
X134225357Y-127452380D02*
X134320595Y-127404761D01*
X134368214Y-127309523D01*
X134368214Y-126452380D01*
X136368214Y-129992380D02*
X136368214Y-128992380D01*
X136034880Y-129706666D01*
X135701547Y-128992380D01*
X135701547Y-129992380D01*
X135225357Y-129992380D02*
X135225357Y-129325714D01*
X135225357Y-128992380D02*
X135272976Y-129040000D01*
X135225357Y-129087619D01*
X135177738Y-129040000D01*
X135225357Y-128992380D01*
X135225357Y-129087619D01*
X134749166Y-129325714D02*
X134749166Y-129992380D01*
X134749166Y-129420952D02*
X134701547Y-129373333D01*
X134606309Y-129325714D01*
X134463452Y-129325714D01*
X134368214Y-129373333D01*
X134320595Y-129468571D01*
X134320595Y-129992380D01*
X136415833Y-132532380D02*
X136892023Y-132532380D01*
X136892023Y-131532380D01*
X136082500Y-131865714D02*
X135320595Y-132151428D01*
X136082500Y-132437142D01*
X134272976Y-132532380D02*
X134606309Y-132056190D01*
X134844404Y-132532380D02*
X134844404Y-131532380D01*
X134463452Y-131532380D01*
X134368214Y-131580000D01*
X134320595Y-131627619D01*
X134272976Y-131722857D01*
X134272976Y-131865714D01*
X134320595Y-131960952D01*
X134368214Y-132008571D01*
X134463452Y-132056190D01*
X134844404Y-132056190D01*
X136177738Y-139152380D02*
X135987261Y-139152380D01*
X135892023Y-139200000D01*
X135796785Y-139295238D01*
X135749166Y-139485714D01*
X135749166Y-139819047D01*
X135796785Y-140009523D01*
X135892023Y-140104761D01*
X135987261Y-140152380D01*
X136177738Y-140152380D01*
X136272976Y-140104761D01*
X136368214Y-140009523D01*
X136415833Y-139819047D01*
X136415833Y-139485714D01*
X136368214Y-139295238D01*
X136272976Y-139200000D01*
X136177738Y-139152380D01*
X134892023Y-139485714D02*
X134892023Y-140152380D01*
X135320595Y-139485714D02*
X135320595Y-140009523D01*
X135272976Y-140104761D01*
X135177738Y-140152380D01*
X135034880Y-140152380D01*
X134939642Y-140104761D01*
X134892023Y-140057142D01*
X134558690Y-139485714D02*
X134177738Y-139485714D01*
X134415833Y-139152380D02*
X134415833Y-140009523D01*
X134368214Y-140104761D01*
X134272976Y-140152380D01*
X134177738Y-140152380D01*
X136796785Y-137088571D02*
X136463452Y-137088571D01*
X136320595Y-137612380D02*
X136796785Y-137612380D01*
X136796785Y-136612380D01*
X136320595Y-136612380D01*
X135701547Y-136612380D02*
X135511071Y-136612380D01*
X135415833Y-136660000D01*
X135320595Y-136755238D01*
X135272976Y-136945714D01*
X135272976Y-137279047D01*
X135320595Y-137469523D01*
X135415833Y-137564761D01*
X135511071Y-137612380D01*
X135701547Y-137612380D01*
X135796785Y-137564761D01*
X135892023Y-137469523D01*
X135939642Y-137279047D01*
X135939642Y-136945714D01*
X135892023Y-136755238D01*
X135796785Y-136660000D01*
X135701547Y-136612380D01*
X134272976Y-137517142D02*
X134320595Y-137564761D01*
X134463452Y-137612380D01*
X134558690Y-137612380D01*
X134701547Y-137564761D01*
X134796785Y-137469523D01*
X134844404Y-137374285D01*
X134892023Y-137183809D01*
X134892023Y-137040952D01*
X134844404Y-136850476D01*
X134796785Y-136755238D01*
X134701547Y-136660000D01*
X134558690Y-136612380D01*
X134463452Y-136612380D01*
X134320595Y-136660000D01*
X134272976Y-136707619D01*
X136368214Y-134120000D02*
X136463452Y-134072380D01*
X136606309Y-134072380D01*
X136749166Y-134120000D01*
X136844404Y-134215238D01*
X136892023Y-134310476D01*
X136939642Y-134500952D01*
X136939642Y-134643809D01*
X136892023Y-134834285D01*
X136844404Y-134929523D01*
X136749166Y-135024761D01*
X136606309Y-135072380D01*
X136511071Y-135072380D01*
X136368214Y-135024761D01*
X136320595Y-134977142D01*
X136320595Y-134643809D01*
X136511071Y-134643809D01*
X135892023Y-135072380D02*
X135892023Y-134072380D01*
X135320595Y-135072380D01*
X135320595Y-134072380D01*
X134844404Y-135072380D02*
X134844404Y-134072380D01*
X134606309Y-134072380D01*
X134463452Y-134120000D01*
X134368214Y-134215238D01*
X134320595Y-134310476D01*
X134272976Y-134500952D01*
X134272976Y-134643809D01*
X134320595Y-134834285D01*
X134368214Y-134929523D01*
X134463452Y-135024761D01*
X134606309Y-135072380D01*
X134844404Y-135072380D01*
X155048928Y-139152380D02*
X154858452Y-139152380D01*
X154763214Y-139200000D01*
X154667976Y-139295238D01*
X154620357Y-139485714D01*
X154620357Y-139819047D01*
X154667976Y-140009523D01*
X154763214Y-140104761D01*
X154858452Y-140152380D01*
X155048928Y-140152380D01*
X155144166Y-140104761D01*
X155239404Y-140009523D01*
X155287023Y-139819047D01*
X155287023Y-139485714D01*
X155239404Y-139295238D01*
X155144166Y-139200000D01*
X155048928Y-139152380D01*
X153763214Y-139485714D02*
X153763214Y-140152380D01*
X154191785Y-139485714D02*
X154191785Y-140009523D01*
X154144166Y-140104761D01*
X154048928Y-140152380D01*
X153906071Y-140152380D01*
X153810833Y-140104761D01*
X153763214Y-140057142D01*
X153429880Y-139485714D02*
X153048928Y-139485714D01*
X153287023Y-139152380D02*
X153287023Y-140009523D01*
X153239404Y-140104761D01*
X153144166Y-140152380D01*
X153048928Y-140152380D01*
X155239404Y-137088571D02*
X154906071Y-137088571D01*
X154763214Y-137612380D02*
X155239404Y-137612380D01*
X155239404Y-136612380D01*
X154763214Y-136612380D01*
X154144166Y-136612380D02*
X153953690Y-136612380D01*
X153858452Y-136660000D01*
X153763214Y-136755238D01*
X153715595Y-136945714D01*
X153715595Y-137279047D01*
X153763214Y-137469523D01*
X153858452Y-137564761D01*
X153953690Y-137612380D01*
X154144166Y-137612380D01*
X154239404Y-137564761D01*
X154334642Y-137469523D01*
X154382261Y-137279047D01*
X154382261Y-136945714D01*
X154334642Y-136755238D01*
X154239404Y-136660000D01*
X154144166Y-136612380D01*
X152715595Y-137517142D02*
X152763214Y-137564761D01*
X152906071Y-137612380D01*
X153001309Y-137612380D01*
X153144166Y-137564761D01*
X153239404Y-137469523D01*
X153287023Y-137374285D01*
X153334642Y-137183809D01*
X153334642Y-137040952D01*
X153287023Y-136850476D01*
X153239404Y-136755238D01*
X153144166Y-136660000D01*
X153001309Y-136612380D01*
X152906071Y-136612380D01*
X152763214Y-136660000D01*
X152715595Y-136707619D01*
X154715595Y-134120000D02*
X154810833Y-134072380D01*
X154953690Y-134072380D01*
X155096547Y-134120000D01*
X155191785Y-134215238D01*
X155239404Y-134310476D01*
X155287023Y-134500952D01*
X155287023Y-134643809D01*
X155239404Y-134834285D01*
X155191785Y-134929523D01*
X155096547Y-135024761D01*
X154953690Y-135072380D01*
X154858452Y-135072380D01*
X154715595Y-135024761D01*
X154667976Y-134977142D01*
X154667976Y-134643809D01*
X154858452Y-134643809D01*
X154239404Y-135072380D02*
X154239404Y-134072380D01*
X153667976Y-135072380D01*
X153667976Y-134072380D01*
X153191785Y-135072380D02*
X153191785Y-134072380D01*
X152953690Y-134072380D01*
X152810833Y-134120000D01*
X152715595Y-134215238D01*
X152667976Y-134310476D01*
X152620357Y-134500952D01*
X152620357Y-134643809D01*
X152667976Y-134834285D01*
X152715595Y-134929523D01*
X152810833Y-135024761D01*
X152953690Y-135072380D01*
X153191785Y-135072380D01*
X154810833Y-131865714D02*
X154810833Y-132532380D01*
X155048928Y-131484761D02*
X155287023Y-132199047D01*
X154667976Y-132199047D01*
X153620357Y-132627619D02*
X153715595Y-132580000D01*
X153810833Y-132484761D01*
X153953690Y-132341904D01*
X154048928Y-132294285D01*
X154144166Y-132294285D01*
X154096547Y-132532380D02*
X154191785Y-132484761D01*
X154287023Y-132389523D01*
X154334642Y-132199047D01*
X154334642Y-131865714D01*
X154287023Y-131675238D01*
X154191785Y-131580000D01*
X154096547Y-131532380D01*
X153906071Y-131532380D01*
X153810833Y-131580000D01*
X153715595Y-131675238D01*
X153667976Y-131865714D01*
X153667976Y-132199047D01*
X153715595Y-132389523D01*
X153810833Y-132484761D01*
X153906071Y-132532380D01*
X154096547Y-132532380D01*
X153334642Y-131532380D02*
X152667976Y-132532380D01*
X152667976Y-131532380D02*
X153334642Y-132532380D01*
X155239404Y-129992380D02*
X155239404Y-128992380D01*
X154906071Y-129706666D01*
X154572738Y-128992380D01*
X154572738Y-129992380D01*
X153667976Y-129992380D02*
X153667976Y-129468571D01*
X153715595Y-129373333D01*
X153810833Y-129325714D01*
X154001309Y-129325714D01*
X154096547Y-129373333D01*
X153667976Y-129944761D02*
X153763214Y-129992380D01*
X154001309Y-129992380D01*
X154096547Y-129944761D01*
X154144166Y-129849523D01*
X154144166Y-129754285D01*
X154096547Y-129659047D01*
X154001309Y-129611428D01*
X153763214Y-129611428D01*
X153667976Y-129563809D01*
X153287023Y-129992380D02*
X152763214Y-129325714D01*
X153287023Y-129325714D02*
X152763214Y-129992380D01*
X154906071Y-126928571D02*
X155239404Y-126928571D01*
X155239404Y-127452380D02*
X155239404Y-126452380D01*
X154763214Y-126452380D01*
X153953690Y-127452380D02*
X153953690Y-126928571D01*
X154001309Y-126833333D01*
X154096547Y-126785714D01*
X154287023Y-126785714D01*
X154382261Y-126833333D01*
X153953690Y-127404761D02*
X154048928Y-127452380D01*
X154287023Y-127452380D01*
X154382261Y-127404761D01*
X154429880Y-127309523D01*
X154429880Y-127214285D01*
X154382261Y-127119047D01*
X154287023Y-127071428D01*
X154048928Y-127071428D01*
X153953690Y-127023809D01*
X153334642Y-127452380D02*
X153429880Y-127404761D01*
X153477500Y-127309523D01*
X153477500Y-126452380D01*
X152810833Y-127452380D02*
X152906071Y-127404761D01*
X152953690Y-127309523D01*
X152953690Y-126452380D01*
X154667976Y-124912380D02*
X155001309Y-124436190D01*
X155239404Y-124912380D02*
X155239404Y-123912380D01*
X154858452Y-123912380D01*
X154763214Y-123960000D01*
X154715595Y-124007619D01*
X154667976Y-124102857D01*
X154667976Y-124245714D01*
X154715595Y-124340952D01*
X154763214Y-124388571D01*
X154858452Y-124436190D01*
X155239404Y-124436190D01*
X154239404Y-124912380D02*
X154239404Y-124245714D01*
X154239404Y-123912380D02*
X154287023Y-123960000D01*
X154239404Y-124007619D01*
X154191785Y-123960000D01*
X154239404Y-123912380D01*
X154239404Y-124007619D01*
X153810833Y-124864761D02*
X153715595Y-124912380D01*
X153525119Y-124912380D01*
X153429880Y-124864761D01*
X153382261Y-124769523D01*
X153382261Y-124721904D01*
X153429880Y-124626666D01*
X153525119Y-124579047D01*
X153667976Y-124579047D01*
X153763214Y-124531428D01*
X153810833Y-124436190D01*
X153810833Y-124388571D01*
X153763214Y-124293333D01*
X153667976Y-124245714D01*
X153525119Y-124245714D01*
X153429880Y-124293333D01*
X152572738Y-124864761D02*
X152667976Y-124912380D01*
X152858452Y-124912380D01*
X152953690Y-124864761D01*
X153001309Y-124769523D01*
X153001309Y-124388571D01*
X152953690Y-124293333D01*
X152858452Y-124245714D01*
X152667976Y-124245714D01*
X152572738Y-124293333D01*
X152525119Y-124388571D01*
X152525119Y-124483809D01*
X153001309Y-124579047D01*
X155239404Y-122372380D02*
X155239404Y-121372380D01*
X154763214Y-121705714D02*
X154763214Y-122372380D01*
X154763214Y-121800952D02*
X154715595Y-121753333D01*
X154620357Y-121705714D01*
X154477500Y-121705714D01*
X154382261Y-121753333D01*
X154334642Y-121848571D01*
X154334642Y-122372380D01*
X154906071Y-119308571D02*
X154763214Y-119356190D01*
X154715595Y-119403809D01*
X154667976Y-119499047D01*
X154667976Y-119641904D01*
X154715595Y-119737142D01*
X154763214Y-119784761D01*
X154858452Y-119832380D01*
X155239404Y-119832380D01*
X155239404Y-118832380D01*
X154906071Y-118832380D01*
X154810833Y-118880000D01*
X154763214Y-118927619D01*
X154715595Y-119022857D01*
X154715595Y-119118095D01*
X154763214Y-119213333D01*
X154810833Y-119260952D01*
X154906071Y-119308571D01*
X155239404Y-119308571D01*
X153810833Y-119832380D02*
X153810833Y-119308571D01*
X153858452Y-119213333D01*
X153953690Y-119165714D01*
X154144166Y-119165714D01*
X154239404Y-119213333D01*
X153810833Y-119784761D02*
X153906071Y-119832380D01*
X154144166Y-119832380D01*
X154239404Y-119784761D01*
X154287023Y-119689523D01*
X154287023Y-119594285D01*
X154239404Y-119499047D01*
X154144166Y-119451428D01*
X153906071Y-119451428D01*
X153810833Y-119403809D01*
X153191785Y-119832380D02*
X153287023Y-119784761D01*
X153334642Y-119689523D01*
X153334642Y-118832380D01*
X155239404Y-116911428D02*
X154477500Y-116911428D01*
X153477500Y-117292380D02*
X154048928Y-117292380D01*
X153763214Y-117292380D02*
X153763214Y-116292380D01*
X153858452Y-116435238D01*
X153953690Y-116530476D01*
X154048928Y-116578095D01*
X153096547Y-116387619D02*
X153048928Y-116340000D01*
X152953690Y-116292380D01*
X152715595Y-116292380D01*
X152620357Y-116340000D01*
X152572738Y-116387619D01*
X152525119Y-116482857D01*
X152525119Y-116578095D01*
X152572738Y-116720952D01*
X153144166Y-117292380D01*
X152525119Y-117292380D01*
X152239404Y-116292380D02*
X151906071Y-117292380D01*
X151572738Y-116292380D01*
X189005595Y-76970000D02*
X189100833Y-76922380D01*
X189243690Y-76922380D01*
X189386547Y-76970000D01*
X189481785Y-77065238D01*
X189529404Y-77160476D01*
X189577023Y-77350952D01*
X189577023Y-77493809D01*
X189529404Y-77684285D01*
X189481785Y-77779523D01*
X189386547Y-77874761D01*
X189243690Y-77922380D01*
X189148452Y-77922380D01*
X189005595Y-77874761D01*
X188957976Y-77827142D01*
X188957976Y-77493809D01*
X189148452Y-77493809D01*
X188529404Y-77922380D02*
X188529404Y-76922380D01*
X187957976Y-77922380D01*
X187957976Y-76922380D01*
X187481785Y-77922380D02*
X187481785Y-76922380D01*
X187243690Y-76922380D01*
X187100833Y-76970000D01*
X187005595Y-77065238D01*
X186957976Y-77160476D01*
X186910357Y-77350952D01*
X186910357Y-77493809D01*
X186957976Y-77684285D01*
X187005595Y-77779523D01*
X187100833Y-77874761D01*
X187243690Y-77922380D01*
X187481785Y-77922380D01*
X189672261Y-74382380D02*
X189100833Y-74382380D01*
X189386547Y-75382380D02*
X189386547Y-74382380D01*
X188767500Y-75382380D02*
X188767500Y-74715714D01*
X188767500Y-74906190D02*
X188719880Y-74810952D01*
X188672261Y-74763333D01*
X188577023Y-74715714D01*
X188481785Y-74715714D01*
X188148452Y-75382380D02*
X188148452Y-74715714D01*
X188148452Y-74382380D02*
X188196071Y-74430000D01*
X188148452Y-74477619D01*
X188100833Y-74430000D01*
X188148452Y-74382380D01*
X188148452Y-74477619D01*
X187243690Y-74715714D02*
X187243690Y-75525238D01*
X187291309Y-75620476D01*
X187338928Y-75668095D01*
X187434166Y-75715714D01*
X187577023Y-75715714D01*
X187672261Y-75668095D01*
X187243690Y-75334761D02*
X187338928Y-75382380D01*
X187529404Y-75382380D01*
X187624642Y-75334761D01*
X187672261Y-75287142D01*
X187719880Y-75191904D01*
X187719880Y-74906190D01*
X187672261Y-74810952D01*
X187624642Y-74763333D01*
X187529404Y-74715714D01*
X187338928Y-74715714D01*
X187243690Y-74763333D01*
X189529404Y-72318571D02*
X189196071Y-72318571D01*
X189053214Y-72842380D02*
X189529404Y-72842380D01*
X189529404Y-71842380D01*
X189053214Y-71842380D01*
X188719880Y-72842380D02*
X188196071Y-72175714D01*
X188719880Y-72175714D02*
X188196071Y-72842380D01*
X187815119Y-72175714D02*
X187815119Y-73175714D01*
X187815119Y-72223333D02*
X187719880Y-72175714D01*
X187529404Y-72175714D01*
X187434166Y-72223333D01*
X187386547Y-72270952D01*
X187338928Y-72366190D01*
X187338928Y-72651904D01*
X187386547Y-72747142D01*
X187434166Y-72794761D01*
X187529404Y-72842380D01*
X187719880Y-72842380D01*
X187815119Y-72794761D01*
X189577023Y-70254761D02*
X189434166Y-70302380D01*
X189196071Y-70302380D01*
X189100833Y-70254761D01*
X189053214Y-70207142D01*
X189005595Y-70111904D01*
X189005595Y-70016666D01*
X189053214Y-69921428D01*
X189100833Y-69873809D01*
X189196071Y-69826190D01*
X189386547Y-69778571D01*
X189481785Y-69730952D01*
X189529404Y-69683333D01*
X189577023Y-69588095D01*
X189577023Y-69492857D01*
X189529404Y-69397619D01*
X189481785Y-69350000D01*
X189386547Y-69302380D01*
X189148452Y-69302380D01*
X189005595Y-69350000D01*
X188672261Y-69635714D02*
X188434166Y-70302380D01*
X188196071Y-69635714D02*
X188434166Y-70302380D01*
X188529404Y-70540476D01*
X188577023Y-70588095D01*
X188672261Y-70635714D01*
X187815119Y-70302380D02*
X187815119Y-69635714D01*
X187815119Y-69730952D02*
X187767500Y-69683333D01*
X187672261Y-69635714D01*
X187529404Y-69635714D01*
X187434166Y-69683333D01*
X187386547Y-69778571D01*
X187386547Y-70302380D01*
X187386547Y-69778571D02*
X187338928Y-69683333D01*
X187243690Y-69635714D01*
X187100833Y-69635714D01*
X187005595Y-69683333D01*
X186957976Y-69778571D01*
X186957976Y-70302380D01*
X186529404Y-69397619D02*
X186481785Y-69350000D01*
X186386547Y-69302380D01*
X186148452Y-69302380D01*
X186053214Y-69350000D01*
X186005595Y-69397619D01*
X185957976Y-69492857D01*
X185957976Y-69588095D01*
X186005595Y-69730952D01*
X186577023Y-70302380D01*
X185957976Y-70302380D01*
X189577023Y-67714761D02*
X189434166Y-67762380D01*
X189196071Y-67762380D01*
X189100833Y-67714761D01*
X189053214Y-67667142D01*
X189005595Y-67571904D01*
X189005595Y-67476666D01*
X189053214Y-67381428D01*
X189100833Y-67333809D01*
X189196071Y-67286190D01*
X189386547Y-67238571D01*
X189481785Y-67190952D01*
X189529404Y-67143333D01*
X189577023Y-67048095D01*
X189577023Y-66952857D01*
X189529404Y-66857619D01*
X189481785Y-66810000D01*
X189386547Y-66762380D01*
X189148452Y-66762380D01*
X189005595Y-66810000D01*
X188672261Y-67095714D02*
X188434166Y-67762380D01*
X188196071Y-67095714D02*
X188434166Y-67762380D01*
X188529404Y-68000476D01*
X188577023Y-68048095D01*
X188672261Y-68095714D01*
X187815119Y-67762380D02*
X187815119Y-67095714D01*
X187815119Y-67190952D02*
X187767500Y-67143333D01*
X187672261Y-67095714D01*
X187529404Y-67095714D01*
X187434166Y-67143333D01*
X187386547Y-67238571D01*
X187386547Y-67762380D01*
X187386547Y-67238571D02*
X187338928Y-67143333D01*
X187243690Y-67095714D01*
X187100833Y-67095714D01*
X187005595Y-67143333D01*
X186957976Y-67238571D01*
X186957976Y-67762380D01*
X186577023Y-66762380D02*
X185957976Y-66762380D01*
X186291309Y-67143333D01*
X186148452Y-67143333D01*
X186053214Y-67190952D01*
X186005595Y-67238571D01*
X185957976Y-67333809D01*
X185957976Y-67571904D01*
X186005595Y-67667142D01*
X186053214Y-67714761D01*
X186148452Y-67762380D01*
X186434166Y-67762380D01*
X186529404Y-67714761D01*
X186577023Y-67667142D01*
X189577023Y-65174761D02*
X189434166Y-65222380D01*
X189196071Y-65222380D01*
X189100833Y-65174761D01*
X189053214Y-65127142D01*
X189005595Y-65031904D01*
X189005595Y-64936666D01*
X189053214Y-64841428D01*
X189100833Y-64793809D01*
X189196071Y-64746190D01*
X189386547Y-64698571D01*
X189481785Y-64650952D01*
X189529404Y-64603333D01*
X189577023Y-64508095D01*
X189577023Y-64412857D01*
X189529404Y-64317619D01*
X189481785Y-64270000D01*
X189386547Y-64222380D01*
X189148452Y-64222380D01*
X189005595Y-64270000D01*
X188672261Y-64555714D02*
X188434166Y-65222380D01*
X188196071Y-64555714D02*
X188434166Y-65222380D01*
X188529404Y-65460476D01*
X188577023Y-65508095D01*
X188672261Y-65555714D01*
X187815119Y-65222380D02*
X187815119Y-64555714D01*
X187815119Y-64650952D02*
X187767500Y-64603333D01*
X187672261Y-64555714D01*
X187529404Y-64555714D01*
X187434166Y-64603333D01*
X187386547Y-64698571D01*
X187386547Y-65222380D01*
X187386547Y-64698571D02*
X187338928Y-64603333D01*
X187243690Y-64555714D01*
X187100833Y-64555714D01*
X187005595Y-64603333D01*
X186957976Y-64698571D01*
X186957976Y-65222380D01*
X185957976Y-65222380D02*
X186529404Y-65222380D01*
X186243690Y-65222380D02*
X186243690Y-64222380D01*
X186338928Y-64365238D01*
X186434166Y-64460476D01*
X186529404Y-64508095D01*
X188957976Y-62682380D02*
X189291309Y-62206190D01*
X189529404Y-62682380D02*
X189529404Y-61682380D01*
X189148452Y-61682380D01*
X189053214Y-61730000D01*
X189005595Y-61777619D01*
X188957976Y-61872857D01*
X188957976Y-62015714D01*
X189005595Y-62110952D01*
X189053214Y-62158571D01*
X189148452Y-62206190D01*
X189529404Y-62206190D01*
X188529404Y-62015714D02*
X188529404Y-62682380D01*
X188529404Y-62110952D02*
X188481785Y-62063333D01*
X188386547Y-62015714D01*
X188243690Y-62015714D01*
X188148452Y-62063333D01*
X188100833Y-62158571D01*
X188100833Y-62682380D01*
X187196071Y-62015714D02*
X187196071Y-62825238D01*
X187243690Y-62920476D01*
X187291309Y-62968095D01*
X187386547Y-63015714D01*
X187529404Y-63015714D01*
X187624642Y-62968095D01*
X187196071Y-62634761D02*
X187291309Y-62682380D01*
X187481785Y-62682380D01*
X187577023Y-62634761D01*
X187624642Y-62587142D01*
X187672261Y-62491904D01*
X187672261Y-62206190D01*
X187624642Y-62110952D01*
X187577023Y-62063333D01*
X187481785Y-62015714D01*
X187291309Y-62015714D01*
X187196071Y-62063333D01*
X186148452Y-62587142D02*
X186196071Y-62634761D01*
X186338928Y-62682380D01*
X186434166Y-62682380D01*
X186577023Y-62634761D01*
X186672261Y-62539523D01*
X186719880Y-62444285D01*
X186767500Y-62253809D01*
X186767500Y-62110952D01*
X186719880Y-61920476D01*
X186672261Y-61825238D01*
X186577023Y-61730000D01*
X186434166Y-61682380D01*
X186338928Y-61682380D01*
X186196071Y-61730000D01*
X186148452Y-61777619D01*
X188957976Y-57602380D02*
X189291309Y-57126190D01*
X189529404Y-57602380D02*
X189529404Y-56602380D01*
X189148452Y-56602380D01*
X189053214Y-56650000D01*
X189005595Y-56697619D01*
X188957976Y-56792857D01*
X188957976Y-56935714D01*
X189005595Y-57030952D01*
X189053214Y-57078571D01*
X189148452Y-57126190D01*
X189529404Y-57126190D01*
X188529404Y-57602380D02*
X188529404Y-56935714D01*
X188529404Y-56602380D02*
X188577023Y-56650000D01*
X188529404Y-56697619D01*
X188481785Y-56650000D01*
X188529404Y-56602380D01*
X188529404Y-56697619D01*
X188100833Y-57554761D02*
X188005595Y-57602380D01*
X187815119Y-57602380D01*
X187719880Y-57554761D01*
X187672261Y-57459523D01*
X187672261Y-57411904D01*
X187719880Y-57316666D01*
X187815119Y-57269047D01*
X187957976Y-57269047D01*
X188053214Y-57221428D01*
X188100833Y-57126190D01*
X188100833Y-57078571D01*
X188053214Y-56983333D01*
X187957976Y-56935714D01*
X187815119Y-56935714D01*
X187719880Y-56983333D01*
X186862738Y-57554761D02*
X186957976Y-57602380D01*
X187148452Y-57602380D01*
X187243690Y-57554761D01*
X187291309Y-57459523D01*
X187291309Y-57078571D01*
X187243690Y-56983333D01*
X187148452Y-56935714D01*
X186957976Y-56935714D01*
X186862738Y-56983333D01*
X186815119Y-57078571D01*
X186815119Y-57173809D01*
X187291309Y-57269047D01*
X185815119Y-57507142D02*
X185862738Y-57554761D01*
X186005595Y-57602380D01*
X186100833Y-57602380D01*
X186243690Y-57554761D01*
X186338928Y-57459523D01*
X186386547Y-57364285D01*
X186434166Y-57173809D01*
X186434166Y-57030952D01*
X186386547Y-56840476D01*
X186338928Y-56745238D01*
X186243690Y-56650000D01*
X186100833Y-56602380D01*
X186005595Y-56602380D01*
X185862738Y-56650000D01*
X185815119Y-56697619D01*
X185529404Y-56602380D02*
X185196071Y-57602380D01*
X184862738Y-56602380D01*
X189196071Y-59618571D02*
X189529404Y-59618571D01*
X189529404Y-60142380D02*
X189529404Y-59142380D01*
X189053214Y-59142380D01*
X188243690Y-60142380D02*
X188243690Y-59618571D01*
X188291309Y-59523333D01*
X188386547Y-59475714D01*
X188577023Y-59475714D01*
X188672261Y-59523333D01*
X188243690Y-60094761D02*
X188338928Y-60142380D01*
X188577023Y-60142380D01*
X188672261Y-60094761D01*
X188719880Y-59999523D01*
X188719880Y-59904285D01*
X188672261Y-59809047D01*
X188577023Y-59761428D01*
X188338928Y-59761428D01*
X188243690Y-59713809D01*
X187624642Y-60142380D02*
X187719880Y-60094761D01*
X187767500Y-59999523D01*
X187767500Y-59142380D01*
X187100833Y-60142380D02*
X187196071Y-60094761D01*
X187243690Y-59999523D01*
X187243690Y-59142380D01*
X186148452Y-60047142D02*
X186196071Y-60094761D01*
X186338928Y-60142380D01*
X186434166Y-60142380D01*
X186577023Y-60094761D01*
X186672261Y-59999523D01*
X186719880Y-59904285D01*
X186767500Y-59713809D01*
X186767500Y-59570952D01*
X186719880Y-59380476D01*
X186672261Y-59285238D01*
X186577023Y-59190000D01*
X186434166Y-59142380D01*
X186338928Y-59142380D01*
X186196071Y-59190000D01*
X186148452Y-59237619D01*
X185862738Y-59142380D02*
X185529404Y-60142380D01*
X185196071Y-59142380D01*
X189196071Y-54538571D02*
X189529404Y-54538571D01*
X189529404Y-55062380D02*
X189529404Y-54062380D01*
X189053214Y-54062380D01*
X188243690Y-55062380D02*
X188243690Y-54538571D01*
X188291309Y-54443333D01*
X188386547Y-54395714D01*
X188577023Y-54395714D01*
X188672261Y-54443333D01*
X188243690Y-55014761D02*
X188338928Y-55062380D01*
X188577023Y-55062380D01*
X188672261Y-55014761D01*
X188719880Y-54919523D01*
X188719880Y-54824285D01*
X188672261Y-54729047D01*
X188577023Y-54681428D01*
X188338928Y-54681428D01*
X188243690Y-54633809D01*
X187624642Y-55062380D02*
X187719880Y-55014761D01*
X187767500Y-54919523D01*
X187767500Y-54062380D01*
X187100833Y-55062380D02*
X187196071Y-55014761D01*
X187243690Y-54919523D01*
X187243690Y-54062380D01*
X188957976Y-52522380D02*
X189291309Y-52046190D01*
X189529404Y-52522380D02*
X189529404Y-51522380D01*
X189148452Y-51522380D01*
X189053214Y-51570000D01*
X189005595Y-51617619D01*
X188957976Y-51712857D01*
X188957976Y-51855714D01*
X189005595Y-51950952D01*
X189053214Y-51998571D01*
X189148452Y-52046190D01*
X189529404Y-52046190D01*
X188529404Y-52522380D02*
X188529404Y-51855714D01*
X188529404Y-51522380D02*
X188577023Y-51570000D01*
X188529404Y-51617619D01*
X188481785Y-51570000D01*
X188529404Y-51522380D01*
X188529404Y-51617619D01*
X188100833Y-52474761D02*
X188005595Y-52522380D01*
X187815119Y-52522380D01*
X187719880Y-52474761D01*
X187672261Y-52379523D01*
X187672261Y-52331904D01*
X187719880Y-52236666D01*
X187815119Y-52189047D01*
X187957976Y-52189047D01*
X188053214Y-52141428D01*
X188100833Y-52046190D01*
X188100833Y-51998571D01*
X188053214Y-51903333D01*
X187957976Y-51855714D01*
X187815119Y-51855714D01*
X187719880Y-51903333D01*
X186862738Y-52474761D02*
X186957976Y-52522380D01*
X187148452Y-52522380D01*
X187243690Y-52474761D01*
X187291309Y-52379523D01*
X187291309Y-51998571D01*
X187243690Y-51903333D01*
X187148452Y-51855714D01*
X186957976Y-51855714D01*
X186862738Y-51903333D01*
X186815119Y-51998571D01*
X186815119Y-52093809D01*
X187291309Y-52189047D01*
X189005595Y-49030000D02*
X189100833Y-48982380D01*
X189243690Y-48982380D01*
X189386547Y-49030000D01*
X189481785Y-49125238D01*
X189529404Y-49220476D01*
X189577023Y-49410952D01*
X189577023Y-49553809D01*
X189529404Y-49744285D01*
X189481785Y-49839523D01*
X189386547Y-49934761D01*
X189243690Y-49982380D01*
X189148452Y-49982380D01*
X189005595Y-49934761D01*
X188957976Y-49887142D01*
X188957976Y-49553809D01*
X189148452Y-49553809D01*
X188529404Y-49982380D02*
X188529404Y-48982380D01*
X187957976Y-49982380D01*
X187957976Y-48982380D01*
X187481785Y-49982380D02*
X187481785Y-48982380D01*
X187243690Y-48982380D01*
X187100833Y-49030000D01*
X187005595Y-49125238D01*
X186957976Y-49220476D01*
X186910357Y-49410952D01*
X186910357Y-49553809D01*
X186957976Y-49744285D01*
X187005595Y-49839523D01*
X187100833Y-49934761D01*
X187243690Y-49982380D01*
X187481785Y-49982380D01*
X103982976Y-60142380D02*
X104316309Y-59666190D01*
X104554404Y-60142380D02*
X104554404Y-59142380D01*
X104173452Y-59142380D01*
X104078214Y-59190000D01*
X104030595Y-59237619D01*
X103982976Y-59332857D01*
X103982976Y-59475714D01*
X104030595Y-59570952D01*
X104078214Y-59618571D01*
X104173452Y-59666190D01*
X104554404Y-59666190D01*
X103554404Y-60142380D02*
X103554404Y-59475714D01*
X103554404Y-59142380D02*
X103602023Y-59190000D01*
X103554404Y-59237619D01*
X103506785Y-59190000D01*
X103554404Y-59142380D01*
X103554404Y-59237619D01*
X103125833Y-60094761D02*
X103030595Y-60142380D01*
X102840119Y-60142380D01*
X102744880Y-60094761D01*
X102697261Y-59999523D01*
X102697261Y-59951904D01*
X102744880Y-59856666D01*
X102840119Y-59809047D01*
X102982976Y-59809047D01*
X103078214Y-59761428D01*
X103125833Y-59666190D01*
X103125833Y-59618571D01*
X103078214Y-59523333D01*
X102982976Y-59475714D01*
X102840119Y-59475714D01*
X102744880Y-59523333D01*
X101887738Y-60094761D02*
X101982976Y-60142380D01*
X102173452Y-60142380D01*
X102268690Y-60094761D01*
X102316309Y-59999523D01*
X102316309Y-59618571D01*
X102268690Y-59523333D01*
X102173452Y-59475714D01*
X101982976Y-59475714D01*
X101887738Y-59523333D01*
X101840119Y-59618571D01*
X101840119Y-59713809D01*
X102316309Y-59809047D01*
X100840119Y-60047142D02*
X100887738Y-60094761D01*
X101030595Y-60142380D01*
X101125833Y-60142380D01*
X101268690Y-60094761D01*
X101363928Y-59999523D01*
X101411547Y-59904285D01*
X101459166Y-59713809D01*
X101459166Y-59570952D01*
X101411547Y-59380476D01*
X101363928Y-59285238D01*
X101268690Y-59190000D01*
X101125833Y-59142380D01*
X101030595Y-59142380D01*
X100887738Y-59190000D01*
X100840119Y-59237619D01*
X100554404Y-59142380D02*
X100221071Y-60142380D01*
X99887738Y-59142380D01*
X102792500Y-62682380D02*
X103125833Y-62206190D01*
X103363928Y-62682380D02*
X103363928Y-61682380D01*
X102982976Y-61682380D01*
X102887738Y-61730000D01*
X102840119Y-61777619D01*
X102792500Y-61872857D01*
X102792500Y-62015714D01*
X102840119Y-62110952D01*
X102887738Y-62158571D01*
X102982976Y-62206190D01*
X103363928Y-62206190D01*
X102363928Y-62015714D02*
X102363928Y-62682380D01*
X102363928Y-62110952D02*
X102316309Y-62063333D01*
X102221071Y-62015714D01*
X102078214Y-62015714D01*
X101982976Y-62063333D01*
X101935357Y-62158571D01*
X101935357Y-62682380D01*
X101030595Y-62015714D02*
X101030595Y-62825238D01*
X101078214Y-62920476D01*
X101125833Y-62968095D01*
X101221071Y-63015714D01*
X101363928Y-63015714D01*
X101459166Y-62968095D01*
X101030595Y-62634761D02*
X101125833Y-62682380D01*
X101316309Y-62682380D01*
X101411547Y-62634761D01*
X101459166Y-62587142D01*
X101506785Y-62491904D01*
X101506785Y-62206190D01*
X101459166Y-62110952D01*
X101411547Y-62063333D01*
X101316309Y-62015714D01*
X101125833Y-62015714D01*
X101030595Y-62063333D01*
X99982976Y-62587142D02*
X100030595Y-62634761D01*
X100173452Y-62682380D01*
X100268690Y-62682380D01*
X100411547Y-62634761D01*
X100506785Y-62539523D01*
X100554404Y-62444285D01*
X100602023Y-62253809D01*
X100602023Y-62110952D01*
X100554404Y-61920476D01*
X100506785Y-61825238D01*
X100411547Y-61730000D01*
X100268690Y-61682380D01*
X100173452Y-61682380D01*
X100030595Y-61730000D01*
X99982976Y-61777619D01*
X103602023Y-65174761D02*
X103459166Y-65222380D01*
X103221071Y-65222380D01*
X103125833Y-65174761D01*
X103078214Y-65127142D01*
X103030595Y-65031904D01*
X103030595Y-64936666D01*
X103078214Y-64841428D01*
X103125833Y-64793809D01*
X103221071Y-64746190D01*
X103411547Y-64698571D01*
X103506785Y-64650952D01*
X103554404Y-64603333D01*
X103602023Y-64508095D01*
X103602023Y-64412857D01*
X103554404Y-64317619D01*
X103506785Y-64270000D01*
X103411547Y-64222380D01*
X103173452Y-64222380D01*
X103030595Y-64270000D01*
X102697261Y-64555714D02*
X102459166Y-65222380D01*
X102221071Y-64555714D02*
X102459166Y-65222380D01*
X102554404Y-65460476D01*
X102602023Y-65508095D01*
X102697261Y-65555714D01*
X101840119Y-65222380D02*
X101840119Y-64555714D01*
X101840119Y-64650952D02*
X101792500Y-64603333D01*
X101697261Y-64555714D01*
X101554404Y-64555714D01*
X101459166Y-64603333D01*
X101411547Y-64698571D01*
X101411547Y-65222380D01*
X101411547Y-64698571D02*
X101363928Y-64603333D01*
X101268690Y-64555714D01*
X101125833Y-64555714D01*
X101030595Y-64603333D01*
X100982976Y-64698571D01*
X100982976Y-65222380D01*
X99982976Y-65222380D02*
X100554404Y-65222380D01*
X100268690Y-65222380D02*
X100268690Y-64222380D01*
X100363928Y-64365238D01*
X100459166Y-64460476D01*
X100554404Y-64508095D01*
X103602023Y-67714761D02*
X103459166Y-67762380D01*
X103221071Y-67762380D01*
X103125833Y-67714761D01*
X103078214Y-67667142D01*
X103030595Y-67571904D01*
X103030595Y-67476666D01*
X103078214Y-67381428D01*
X103125833Y-67333809D01*
X103221071Y-67286190D01*
X103411547Y-67238571D01*
X103506785Y-67190952D01*
X103554404Y-67143333D01*
X103602023Y-67048095D01*
X103602023Y-66952857D01*
X103554404Y-66857619D01*
X103506785Y-66810000D01*
X103411547Y-66762380D01*
X103173452Y-66762380D01*
X103030595Y-66810000D01*
X102697261Y-67095714D02*
X102459166Y-67762380D01*
X102221071Y-67095714D02*
X102459166Y-67762380D01*
X102554404Y-68000476D01*
X102602023Y-68048095D01*
X102697261Y-68095714D01*
X101840119Y-67762380D02*
X101840119Y-67095714D01*
X101840119Y-67190952D02*
X101792500Y-67143333D01*
X101697261Y-67095714D01*
X101554404Y-67095714D01*
X101459166Y-67143333D01*
X101411547Y-67238571D01*
X101411547Y-67762380D01*
X101411547Y-67238571D02*
X101363928Y-67143333D01*
X101268690Y-67095714D01*
X101125833Y-67095714D01*
X101030595Y-67143333D01*
X100982976Y-67238571D01*
X100982976Y-67762380D01*
X100602023Y-66762380D02*
X99982976Y-66762380D01*
X100316309Y-67143333D01*
X100173452Y-67143333D01*
X100078214Y-67190952D01*
X100030595Y-67238571D01*
X99982976Y-67333809D01*
X99982976Y-67571904D01*
X100030595Y-67667142D01*
X100078214Y-67714761D01*
X100173452Y-67762380D01*
X100459166Y-67762380D01*
X100554404Y-67714761D01*
X100602023Y-67667142D01*
X103602023Y-70254761D02*
X103459166Y-70302380D01*
X103221071Y-70302380D01*
X103125833Y-70254761D01*
X103078214Y-70207142D01*
X103030595Y-70111904D01*
X103030595Y-70016666D01*
X103078214Y-69921428D01*
X103125833Y-69873809D01*
X103221071Y-69826190D01*
X103411547Y-69778571D01*
X103506785Y-69730952D01*
X103554404Y-69683333D01*
X103602023Y-69588095D01*
X103602023Y-69492857D01*
X103554404Y-69397619D01*
X103506785Y-69350000D01*
X103411547Y-69302380D01*
X103173452Y-69302380D01*
X103030595Y-69350000D01*
X102697261Y-69635714D02*
X102459166Y-70302380D01*
X102221071Y-69635714D02*
X102459166Y-70302380D01*
X102554404Y-70540476D01*
X102602023Y-70588095D01*
X102697261Y-70635714D01*
X101840119Y-70302380D02*
X101840119Y-69635714D01*
X101840119Y-69730952D02*
X101792500Y-69683333D01*
X101697261Y-69635714D01*
X101554404Y-69635714D01*
X101459166Y-69683333D01*
X101411547Y-69778571D01*
X101411547Y-70302380D01*
X101411547Y-69778571D02*
X101363928Y-69683333D01*
X101268690Y-69635714D01*
X101125833Y-69635714D01*
X101030595Y-69683333D01*
X100982976Y-69778571D01*
X100982976Y-70302380D01*
X100554404Y-69397619D02*
X100506785Y-69350000D01*
X100411547Y-69302380D01*
X100173452Y-69302380D01*
X100078214Y-69350000D01*
X100030595Y-69397619D01*
X99982976Y-69492857D01*
X99982976Y-69588095D01*
X100030595Y-69730952D01*
X100602023Y-70302380D01*
X99982976Y-70302380D01*
X102173452Y-72318571D02*
X101840119Y-72318571D01*
X101697261Y-72842380D02*
X102173452Y-72842380D01*
X102173452Y-71842380D01*
X101697261Y-71842380D01*
X101363928Y-72842380D02*
X100840119Y-72175714D01*
X101363928Y-72175714D02*
X100840119Y-72842380D01*
X100459166Y-72175714D02*
X100459166Y-73175714D01*
X100459166Y-72223333D02*
X100363928Y-72175714D01*
X100173452Y-72175714D01*
X100078214Y-72223333D01*
X100030595Y-72270952D01*
X99982976Y-72366190D01*
X99982976Y-72651904D01*
X100030595Y-72747142D01*
X100078214Y-72794761D01*
X100173452Y-72842380D01*
X100363928Y-72842380D01*
X100459166Y-72794761D01*
X102459166Y-74382380D02*
X101887738Y-74382380D01*
X102173452Y-75382380D02*
X102173452Y-74382380D01*
X101554404Y-75382380D02*
X101554404Y-74715714D01*
X101554404Y-74906190D02*
X101506785Y-74810952D01*
X101459166Y-74763333D01*
X101363928Y-74715714D01*
X101268690Y-74715714D01*
X100935357Y-75382380D02*
X100935357Y-74715714D01*
X100935357Y-74382380D02*
X100982976Y-74430000D01*
X100935357Y-74477619D01*
X100887738Y-74430000D01*
X100935357Y-74382380D01*
X100935357Y-74477619D01*
X100030595Y-74715714D02*
X100030595Y-75525238D01*
X100078214Y-75620476D01*
X100125833Y-75668095D01*
X100221071Y-75715714D01*
X100363928Y-75715714D01*
X100459166Y-75668095D01*
X100030595Y-75334761D02*
X100125833Y-75382380D01*
X100316309Y-75382380D01*
X100411547Y-75334761D01*
X100459166Y-75287142D01*
X100506785Y-75191904D01*
X100506785Y-74906190D01*
X100459166Y-74810952D01*
X100411547Y-74763333D01*
X100316309Y-74715714D01*
X100125833Y-74715714D01*
X100030595Y-74763333D01*
X103887738Y-57078571D02*
X104221071Y-57078571D01*
X104221071Y-57602380D02*
X104221071Y-56602380D01*
X103744880Y-56602380D01*
X102935357Y-57602380D02*
X102935357Y-57078571D01*
X102982976Y-56983333D01*
X103078214Y-56935714D01*
X103268690Y-56935714D01*
X103363928Y-56983333D01*
X102935357Y-57554761D02*
X103030595Y-57602380D01*
X103268690Y-57602380D01*
X103363928Y-57554761D01*
X103411547Y-57459523D01*
X103411547Y-57364285D01*
X103363928Y-57269047D01*
X103268690Y-57221428D01*
X103030595Y-57221428D01*
X102935357Y-57173809D01*
X102316309Y-57602380D02*
X102411547Y-57554761D01*
X102459166Y-57459523D01*
X102459166Y-56602380D01*
X101792500Y-57602380D02*
X101887738Y-57554761D01*
X101935357Y-57459523D01*
X101935357Y-56602380D01*
X100840119Y-57507142D02*
X100887738Y-57554761D01*
X101030595Y-57602380D01*
X101125833Y-57602380D01*
X101268690Y-57554761D01*
X101363928Y-57459523D01*
X101411547Y-57364285D01*
X101459166Y-57173809D01*
X101459166Y-57030952D01*
X101411547Y-56840476D01*
X101363928Y-56745238D01*
X101268690Y-56650000D01*
X101125833Y-56602380D01*
X101030595Y-56602380D01*
X100887738Y-56650000D01*
X100840119Y-56697619D01*
X100554404Y-56602380D02*
X100221071Y-57602380D01*
X99887738Y-56602380D01*
X102125833Y-55062380D02*
X102459166Y-54586190D01*
X102697261Y-55062380D02*
X102697261Y-54062380D01*
X102316309Y-54062380D01*
X102221071Y-54110000D01*
X102173452Y-54157619D01*
X102125833Y-54252857D01*
X102125833Y-54395714D01*
X102173452Y-54490952D01*
X102221071Y-54538571D01*
X102316309Y-54586190D01*
X102697261Y-54586190D01*
X101697261Y-55062380D02*
X101697261Y-54395714D01*
X101697261Y-54062380D02*
X101744880Y-54110000D01*
X101697261Y-54157619D01*
X101649642Y-54110000D01*
X101697261Y-54062380D01*
X101697261Y-54157619D01*
X101268690Y-55014761D02*
X101173452Y-55062380D01*
X100982976Y-55062380D01*
X100887738Y-55014761D01*
X100840119Y-54919523D01*
X100840119Y-54871904D01*
X100887738Y-54776666D01*
X100982976Y-54729047D01*
X101125833Y-54729047D01*
X101221071Y-54681428D01*
X101268690Y-54586190D01*
X101268690Y-54538571D01*
X101221071Y-54443333D01*
X101125833Y-54395714D01*
X100982976Y-54395714D01*
X100887738Y-54443333D01*
X100030595Y-55014761D02*
X100125833Y-55062380D01*
X100316309Y-55062380D01*
X100411547Y-55014761D01*
X100459166Y-54919523D01*
X100459166Y-54538571D01*
X100411547Y-54443333D01*
X100316309Y-54395714D01*
X100125833Y-54395714D01*
X100030595Y-54443333D01*
X99982976Y-54538571D01*
X99982976Y-54633809D01*
X100459166Y-54729047D01*
X102030595Y-51998571D02*
X102363928Y-51998571D01*
X102363928Y-52522380D02*
X102363928Y-51522380D01*
X101887738Y-51522380D01*
X101078214Y-52522380D02*
X101078214Y-51998571D01*
X101125833Y-51903333D01*
X101221071Y-51855714D01*
X101411547Y-51855714D01*
X101506785Y-51903333D01*
X101078214Y-52474761D02*
X101173452Y-52522380D01*
X101411547Y-52522380D01*
X101506785Y-52474761D01*
X101554404Y-52379523D01*
X101554404Y-52284285D01*
X101506785Y-52189047D01*
X101411547Y-52141428D01*
X101173452Y-52141428D01*
X101078214Y-52093809D01*
X100459166Y-52522380D02*
X100554404Y-52474761D01*
X100602023Y-52379523D01*
X100602023Y-51522380D01*
X99935357Y-52522380D02*
X100030595Y-52474761D01*
X100078214Y-52379523D01*
X100078214Y-51522380D01*
X102078214Y-76970000D02*
X102173452Y-76922380D01*
X102316309Y-76922380D01*
X102459166Y-76970000D01*
X102554404Y-77065238D01*
X102602023Y-77160476D01*
X102649642Y-77350952D01*
X102649642Y-77493809D01*
X102602023Y-77684285D01*
X102554404Y-77779523D01*
X102459166Y-77874761D01*
X102316309Y-77922380D01*
X102221071Y-77922380D01*
X102078214Y-77874761D01*
X102030595Y-77827142D01*
X102030595Y-77493809D01*
X102221071Y-77493809D01*
X101602023Y-77922380D02*
X101602023Y-76922380D01*
X101030595Y-77922380D01*
X101030595Y-76922380D01*
X100554404Y-77922380D02*
X100554404Y-76922380D01*
X100316309Y-76922380D01*
X100173452Y-76970000D01*
X100078214Y-77065238D01*
X100030595Y-77160476D01*
X99982976Y-77350952D01*
X99982976Y-77493809D01*
X100030595Y-77684285D01*
X100078214Y-77779523D01*
X100173452Y-77874761D01*
X100316309Y-77922380D01*
X100554404Y-77922380D01*
X102078214Y-49030000D02*
X102173452Y-48982380D01*
X102316309Y-48982380D01*
X102459166Y-49030000D01*
X102554404Y-49125238D01*
X102602023Y-49220476D01*
X102649642Y-49410952D01*
X102649642Y-49553809D01*
X102602023Y-49744285D01*
X102554404Y-49839523D01*
X102459166Y-49934761D01*
X102316309Y-49982380D01*
X102221071Y-49982380D01*
X102078214Y-49934761D01*
X102030595Y-49887142D01*
X102030595Y-49553809D01*
X102221071Y-49553809D01*
X101602023Y-49982380D02*
X101602023Y-48982380D01*
X101030595Y-49982380D01*
X101030595Y-48982380D01*
X100554404Y-49982380D02*
X100554404Y-48982380D01*
X100316309Y-48982380D01*
X100173452Y-49030000D01*
X100078214Y-49125238D01*
X100030595Y-49220476D01*
X99982976Y-49410952D01*
X99982976Y-49553809D01*
X100030595Y-49744285D01*
X100078214Y-49839523D01*
X100173452Y-49934761D01*
X100316309Y-49982380D01*
X100554404Y-49982380D01*
D11*
X159276051Y-105410000D02*
G75*
G03X159276051Y-105410000I-1796051J0D01*
G01*
X144780000Y-70485000D02*
G75*
G02X143510000Y-69215000I0J1270000D01*
G01*
X146050000Y-70485000D02*
X144780000Y-70485000D01*
X146050000Y-65405000D02*
X146050000Y-70485000D01*
X143510000Y-65405000D02*
X143510000Y-69215000D01*
X139700000Y-61595000D02*
X139700000Y-59055000D01*
X149860000Y-61595000D02*
X149860000Y-59055000D01*
X139700000Y-59055000D02*
G75*
G02X143510000Y-55245000I3810000J0D01*
G01*
X143510000Y-65405000D02*
G75*
G02X139700000Y-61595000I0J3810000D01*
G01*
X149860000Y-61595000D02*
G75*
G02X146050000Y-65405000I-3810000J0D01*
G01*
X146050000Y-55245000D02*
G75*
G02X149860000Y-59055000I0J-3810000D01*
G01*
X143510000Y-57785000D02*
X143510000Y-62865000D01*
X146050000Y-57785000D02*
X146050000Y-62865000D01*
X142240000Y-59055000D02*
X142240000Y-61595000D01*
X147320000Y-59055000D02*
X147320000Y-61595000D01*
X143510000Y-62865000D02*
G75*
G02X142240000Y-61595000I0J1270000D01*
G01*
X147320000Y-61595000D02*
G75*
G02X146050000Y-62865000I-1270000J0D01*
G01*
X142240000Y-59055000D02*
G75*
G02X143510000Y-57785000I1270000J0D01*
G01*
X146050000Y-57785000D02*
G75*
G02X147320000Y-59055000I0J-1270000D01*
G01*
X143510000Y-52705000D02*
X143510000Y-55245000D01*
X144780000Y-52705000D02*
X143510000Y-52705000D01*
X146050000Y-55245000D02*
X146050000Y-53975000D01*
X144780000Y-52705000D02*
G75*
G02X146050000Y-53975000I0J-1270000D01*
G01*
D10*
X150637142Y-72859761D02*
X150494285Y-72907380D01*
X150256190Y-72907380D01*
X150160952Y-72859761D01*
X150113333Y-72812142D01*
X150065714Y-72716904D01*
X150065714Y-72621666D01*
X150113333Y-72526428D01*
X150160952Y-72478809D01*
X150256190Y-72431190D01*
X150446666Y-72383571D01*
X150541904Y-72335952D01*
X150589523Y-72288333D01*
X150637142Y-72193095D01*
X150637142Y-72097857D01*
X150589523Y-72002619D01*
X150541904Y-71955000D01*
X150446666Y-71907380D01*
X150208571Y-71907380D01*
X150065714Y-71955000D01*
X149637142Y-72907380D02*
X149637142Y-71907380D01*
X149160952Y-72907380D02*
X149160952Y-71907380D01*
X148589523Y-72907380D01*
X148589523Y-71907380D01*
X147351428Y-72907380D02*
X147351428Y-71907380D01*
X146970476Y-71907380D01*
X146875238Y-71955000D01*
X146827619Y-72002619D01*
X146780000Y-72097857D01*
X146780000Y-72240714D01*
X146827619Y-72335952D01*
X146875238Y-72383571D01*
X146970476Y-72431190D01*
X147351428Y-72431190D01*
X146351428Y-72907380D02*
X146351428Y-71907380D01*
X146351428Y-72383571D02*
X145780000Y-72383571D01*
X145780000Y-72907380D02*
X145780000Y-71907380D01*
X145303809Y-72907380D02*
X145303809Y-71907380D01*
X144065714Y-72907380D02*
X144065714Y-71907380D01*
X143732380Y-72621666D01*
X143399047Y-71907380D01*
X143399047Y-72907380D01*
X142922857Y-72907380D02*
X142922857Y-72240714D01*
X142922857Y-71907380D02*
X142970476Y-71955000D01*
X142922857Y-72002619D01*
X142875238Y-71955000D01*
X142922857Y-71907380D01*
X142922857Y-72002619D01*
X142018095Y-72907380D02*
X142018095Y-72383571D01*
X142065714Y-72288333D01*
X142160952Y-72240714D01*
X142351428Y-72240714D01*
X142446666Y-72288333D01*
X142018095Y-72859761D02*
X142113333Y-72907380D01*
X142351428Y-72907380D01*
X142446666Y-72859761D01*
X142494285Y-72764523D01*
X142494285Y-72669285D01*
X142446666Y-72574047D01*
X142351428Y-72526428D01*
X142113333Y-72526428D01*
X142018095Y-72478809D01*
X141589523Y-72859761D02*
X141494285Y-72907380D01*
X141303809Y-72907380D01*
X141208571Y-72859761D01*
X141160952Y-72764523D01*
X141160952Y-72716904D01*
X141208571Y-72621666D01*
X141303809Y-72574047D01*
X141446666Y-72574047D01*
X141541904Y-72526428D01*
X141589523Y-72431190D01*
X141589523Y-72383571D01*
X141541904Y-72288333D01*
X141446666Y-72240714D01*
X141303809Y-72240714D01*
X141208571Y-72288333D01*
X140732380Y-72907380D02*
X140732380Y-72240714D01*
X140732380Y-72335952D02*
X140684761Y-72288333D01*
X140589523Y-72240714D01*
X140446666Y-72240714D01*
X140351428Y-72288333D01*
X140303809Y-72383571D01*
X140303809Y-72907380D01*
X140303809Y-72383571D02*
X140256190Y-72288333D01*
X140160952Y-72240714D01*
X140018095Y-72240714D01*
X139922857Y-72288333D01*
X139875238Y-72383571D01*
X139875238Y-72907380D01*
X138970476Y-72907380D02*
X138970476Y-72383571D01*
X139018095Y-72288333D01*
X139113333Y-72240714D01*
X139303809Y-72240714D01*
X139399047Y-72288333D01*
X138970476Y-72859761D02*
X139065714Y-72907380D01*
X139303809Y-72907380D01*
X139399047Y-72859761D01*
X139446666Y-72764523D01*
X139446666Y-72669285D01*
X139399047Y-72574047D01*
X139303809Y-72526428D01*
X139065714Y-72526428D01*
X138970476Y-72478809D01*
X150827619Y-74033571D02*
X150684761Y-74081190D01*
X150637142Y-74128809D01*
X150589523Y-74224047D01*
X150589523Y-74366904D01*
X150637142Y-74462142D01*
X150684761Y-74509761D01*
X150780000Y-74557380D01*
X151160952Y-74557380D01*
X151160952Y-73557380D01*
X150827619Y-73557380D01*
X150732380Y-73605000D01*
X150684761Y-73652619D01*
X150637142Y-73747857D01*
X150637142Y-73843095D01*
X150684761Y-73938333D01*
X150732380Y-73985952D01*
X150827619Y-74033571D01*
X151160952Y-74033571D01*
X150160952Y-74033571D02*
X149827619Y-74033571D01*
X149684761Y-74557380D02*
X150160952Y-74557380D01*
X150160952Y-73557380D01*
X149684761Y-73557380D01*
X148922857Y-74033571D02*
X149256190Y-74033571D01*
X149256190Y-74557380D02*
X149256190Y-73557380D01*
X148780000Y-73557380D01*
X148446666Y-74271666D02*
X147970476Y-74271666D01*
X148541904Y-74557380D02*
X148208571Y-73557380D01*
X147875238Y-74557380D01*
X146970476Y-74462142D02*
X147018095Y-74509761D01*
X147160952Y-74557380D01*
X147256190Y-74557380D01*
X147399047Y-74509761D01*
X147494285Y-74414523D01*
X147541904Y-74319285D01*
X147589523Y-74128809D01*
X147589523Y-73985952D01*
X147541904Y-73795476D01*
X147494285Y-73700238D01*
X147399047Y-73605000D01*
X147256190Y-73557380D01*
X147160952Y-73557380D01*
X147018095Y-73605000D01*
X146970476Y-73652619D01*
X146351428Y-73557380D02*
X146160952Y-73557380D01*
X146065714Y-73605000D01*
X145970476Y-73700238D01*
X145922857Y-73890714D01*
X145922857Y-74224047D01*
X145970476Y-74414523D01*
X146065714Y-74509761D01*
X146160952Y-74557380D01*
X146351428Y-74557380D01*
X146446666Y-74509761D01*
X146541904Y-74414523D01*
X146589523Y-74224047D01*
X146589523Y-73890714D01*
X146541904Y-73700238D01*
X146446666Y-73605000D01*
X146351428Y-73557380D01*
X144160952Y-74557380D02*
X144494285Y-74081190D01*
X144732380Y-74557380D02*
X144732380Y-73557380D01*
X144351428Y-73557380D01*
X144256190Y-73605000D01*
X144208571Y-73652619D01*
X144160952Y-73747857D01*
X144160952Y-73890714D01*
X144208571Y-73985952D01*
X144256190Y-74033571D01*
X144351428Y-74081190D01*
X144732380Y-74081190D01*
X143303809Y-74557380D02*
X143303809Y-74033571D01*
X143351428Y-73938333D01*
X143446666Y-73890714D01*
X143637142Y-73890714D01*
X143732380Y-73938333D01*
X143303809Y-74509761D02*
X143399047Y-74557380D01*
X143637142Y-74557380D01*
X143732380Y-74509761D01*
X143780000Y-74414523D01*
X143780000Y-74319285D01*
X143732380Y-74224047D01*
X143637142Y-74176428D01*
X143399047Y-74176428D01*
X143303809Y-74128809D01*
X142827619Y-74557380D02*
X142827619Y-73890714D01*
X142827619Y-73985952D02*
X142780000Y-73938333D01*
X142684761Y-73890714D01*
X142541904Y-73890714D01*
X142446666Y-73938333D01*
X142399047Y-74033571D01*
X142399047Y-74557380D01*
X142399047Y-74033571D02*
X142351428Y-73938333D01*
X142256190Y-73890714D01*
X142113333Y-73890714D01*
X142018095Y-73938333D01*
X141970476Y-74033571D01*
X141970476Y-74557380D01*
X141494285Y-73890714D02*
X141494285Y-74890714D01*
X141494285Y-73938333D02*
X141399047Y-73890714D01*
X141208571Y-73890714D01*
X141113333Y-73938333D01*
X141065714Y-73985952D01*
X141018095Y-74081190D01*
X141018095Y-74366904D01*
X141065714Y-74462142D01*
X141113333Y-74509761D01*
X141208571Y-74557380D01*
X141399047Y-74557380D01*
X141494285Y-74509761D01*
X140160952Y-74557380D02*
X140160952Y-74033571D01*
X140208571Y-73938333D01*
X140303809Y-73890714D01*
X140494285Y-73890714D01*
X140589523Y-73938333D01*
X140160952Y-74509761D02*
X140256190Y-74557380D01*
X140494285Y-74557380D01*
X140589523Y-74509761D01*
X140637142Y-74414523D01*
X140637142Y-74319285D01*
X140589523Y-74224047D01*
X140494285Y-74176428D01*
X140256190Y-74176428D01*
X140160952Y-74128809D01*
X139256190Y-73890714D02*
X139256190Y-74700238D01*
X139303809Y-74795476D01*
X139351428Y-74843095D01*
X139446666Y-74890714D01*
X139589523Y-74890714D01*
X139684761Y-74843095D01*
X139256190Y-74509761D02*
X139351428Y-74557380D01*
X139541904Y-74557380D01*
X139637142Y-74509761D01*
X139684761Y-74462142D01*
X139732380Y-74366904D01*
X139732380Y-74081190D01*
X139684761Y-73985952D01*
X139637142Y-73938333D01*
X139541904Y-73890714D01*
X139351428Y-73890714D01*
X139256190Y-73938333D01*
X138399047Y-74509761D02*
X138494285Y-74557380D01*
X138684761Y-74557380D01*
X138780000Y-74509761D01*
X138827619Y-74414523D01*
X138827619Y-74033571D01*
X138780000Y-73938333D01*
X138684761Y-73890714D01*
X138494285Y-73890714D01*
X138399047Y-73938333D01*
X138351428Y-74033571D01*
X138351428Y-74128809D01*
X138827619Y-74224047D01*
X151018095Y-76112142D02*
X151065714Y-76159761D01*
X151208571Y-76207380D01*
X151303809Y-76207380D01*
X151446666Y-76159761D01*
X151541904Y-76064523D01*
X151589523Y-75969285D01*
X151637142Y-75778809D01*
X151637142Y-75635952D01*
X151589523Y-75445476D01*
X151541904Y-75350238D01*
X151446666Y-75255000D01*
X151303809Y-75207380D01*
X151208571Y-75207380D01*
X151065714Y-75255000D01*
X151018095Y-75302619D01*
X150018095Y-76112142D02*
X150065714Y-76159761D01*
X150208571Y-76207380D01*
X150303809Y-76207380D01*
X150446666Y-76159761D01*
X150541904Y-76064523D01*
X150589523Y-75969285D01*
X150637142Y-75778809D01*
X150637142Y-75635952D01*
X150589523Y-75445476D01*
X150541904Y-75350238D01*
X150446666Y-75255000D01*
X150303809Y-75207380D01*
X150208571Y-75207380D01*
X150065714Y-75255000D01*
X150018095Y-75302619D01*
X148494285Y-75683571D02*
X148351428Y-75731190D01*
X148303809Y-75778809D01*
X148256190Y-75874047D01*
X148256190Y-76016904D01*
X148303809Y-76112142D01*
X148351428Y-76159761D01*
X148446666Y-76207380D01*
X148827619Y-76207380D01*
X148827619Y-75207380D01*
X148494285Y-75207380D01*
X148399047Y-75255000D01*
X148351428Y-75302619D01*
X148303809Y-75397857D01*
X148303809Y-75493095D01*
X148351428Y-75588333D01*
X148399047Y-75635952D01*
X148494285Y-75683571D01*
X148827619Y-75683571D01*
X147637142Y-75731190D02*
X147637142Y-76207380D01*
X147970476Y-75207380D02*
X147637142Y-75731190D01*
X147303809Y-75207380D01*
X146970476Y-75826428D02*
X146208571Y-75826428D01*
X145732380Y-76207380D02*
X145732380Y-75207380D01*
X145160952Y-76207380D01*
X145160952Y-75207380D01*
X144113333Y-76112142D02*
X144160952Y-76159761D01*
X144303809Y-76207380D01*
X144399047Y-76207380D01*
X144541904Y-76159761D01*
X144637142Y-76064523D01*
X144684761Y-75969285D01*
X144732380Y-75778809D01*
X144732380Y-75635952D01*
X144684761Y-75445476D01*
X144637142Y-75350238D01*
X144541904Y-75255000D01*
X144399047Y-75207380D01*
X144303809Y-75207380D01*
X144160952Y-75255000D01*
X144113333Y-75302619D01*
X143684761Y-75826428D02*
X142922857Y-75826428D01*
X142494285Y-76159761D02*
X142351428Y-76207380D01*
X142113333Y-76207380D01*
X142018095Y-76159761D01*
X141970476Y-76112142D01*
X141922857Y-76016904D01*
X141922857Y-75921666D01*
X141970476Y-75826428D01*
X142018095Y-75778809D01*
X142113333Y-75731190D01*
X142303809Y-75683571D01*
X142399047Y-75635952D01*
X142446666Y-75588333D01*
X142494285Y-75493095D01*
X142494285Y-75397857D01*
X142446666Y-75302619D01*
X142399047Y-75255000D01*
X142303809Y-75207380D01*
X142065714Y-75207380D01*
X141922857Y-75255000D01*
X141541904Y-75921666D02*
X141065714Y-75921666D01*
X141637142Y-76207380D02*
X141303809Y-75207380D01*
X140970476Y-76207380D01*
X139446666Y-75540714D02*
X139446666Y-76207380D01*
X139684761Y-75159761D02*
X139922857Y-75874047D01*
X139303809Y-75874047D01*
X138922857Y-76112142D02*
X138875238Y-76159761D01*
X138922857Y-76207380D01*
X138970476Y-76159761D01*
X138922857Y-76112142D01*
X138922857Y-76207380D01*
X138256190Y-75207380D02*
X138160952Y-75207380D01*
X138065714Y-75255000D01*
X138018095Y-75302619D01*
X137970476Y-75397857D01*
X137922857Y-75588333D01*
X137922857Y-75826428D01*
X137970476Y-76016904D01*
X138018095Y-76112142D01*
X138065714Y-76159761D01*
X138160952Y-76207380D01*
X138256190Y-76207380D01*
X138351428Y-76159761D01*
X138399047Y-76112142D01*
X138446666Y-76016904D01*
X138494285Y-75826428D01*
X138494285Y-75588333D01*
X138446666Y-75397857D01*
X138399047Y-75302619D01*
X138351428Y-75255000D01*
X138256190Y-75207380D01*
X149446666Y-76857380D02*
X149113333Y-77857380D01*
X148780000Y-76857380D01*
X148065714Y-77809761D02*
X148160952Y-77857380D01*
X148351428Y-77857380D01*
X148446666Y-77809761D01*
X148494285Y-77714523D01*
X148494285Y-77333571D01*
X148446666Y-77238333D01*
X148351428Y-77190714D01*
X148160952Y-77190714D01*
X148065714Y-77238333D01*
X148018095Y-77333571D01*
X148018095Y-77428809D01*
X148494285Y-77524047D01*
X147589523Y-77857380D02*
X147589523Y-77190714D01*
X147589523Y-77381190D02*
X147541904Y-77285952D01*
X147494285Y-77238333D01*
X147399047Y-77190714D01*
X147303809Y-77190714D01*
X147018095Y-77809761D02*
X146922857Y-77857380D01*
X146732380Y-77857380D01*
X146637142Y-77809761D01*
X146589523Y-77714523D01*
X146589523Y-77666904D01*
X146637142Y-77571666D01*
X146732380Y-77524047D01*
X146875238Y-77524047D01*
X146970476Y-77476428D01*
X147018095Y-77381190D01*
X147018095Y-77333571D01*
X146970476Y-77238333D01*
X146875238Y-77190714D01*
X146732380Y-77190714D01*
X146637142Y-77238333D01*
X146160952Y-77857380D02*
X146160952Y-77190714D01*
X146160952Y-76857380D02*
X146208571Y-76905000D01*
X146160952Y-76952619D01*
X146113333Y-76905000D01*
X146160952Y-76857380D01*
X146160952Y-76952619D01*
X145541904Y-77857380D02*
X145637142Y-77809761D01*
X145684761Y-77762142D01*
X145732380Y-77666904D01*
X145732380Y-77381190D01*
X145684761Y-77285952D01*
X145637142Y-77238333D01*
X145541904Y-77190714D01*
X145399047Y-77190714D01*
X145303809Y-77238333D01*
X145256190Y-77285952D01*
X145208571Y-77381190D01*
X145208571Y-77666904D01*
X145256190Y-77762142D01*
X145303809Y-77809761D01*
X145399047Y-77857380D01*
X145541904Y-77857380D01*
X144780000Y-77190714D02*
X144780000Y-77857380D01*
X144780000Y-77285952D02*
X144732380Y-77238333D01*
X144637142Y-77190714D01*
X144494285Y-77190714D01*
X144399047Y-77238333D01*
X144351428Y-77333571D01*
X144351428Y-77857380D01*
X142589523Y-77857380D02*
X143160952Y-77857380D01*
X142875238Y-77857380D02*
X142875238Y-76857380D01*
X142970476Y-77000238D01*
X143065714Y-77095476D01*
X143160952Y-77143095D01*
X142160952Y-77762142D02*
X142113333Y-77809761D01*
X142160952Y-77857380D01*
X142208571Y-77809761D01*
X142160952Y-77762142D01*
X142160952Y-77857380D01*
X141494285Y-76857380D02*
X141399047Y-76857380D01*
X141303809Y-76905000D01*
X141256190Y-76952619D01*
X141208571Y-77047857D01*
X141160952Y-77238333D01*
X141160952Y-77476428D01*
X141208571Y-77666904D01*
X141256190Y-77762142D01*
X141303809Y-77809761D01*
X141399047Y-77857380D01*
X141494285Y-77857380D01*
X141589523Y-77809761D01*
X141637142Y-77762142D01*
X141684761Y-77666904D01*
X141732380Y-77476428D01*
X141732380Y-77238333D01*
X141684761Y-77047857D01*
X141637142Y-76952619D01*
X141589523Y-76905000D01*
X141494285Y-76857380D01*
X140827619Y-76857380D02*
X140208571Y-76857380D01*
X140541904Y-77238333D01*
X140399047Y-77238333D01*
X140303809Y-77285952D01*
X140256190Y-77333571D01*
X140208571Y-77428809D01*
X140208571Y-77666904D01*
X140256190Y-77762142D01*
X140303809Y-77809761D01*
X140399047Y-77857380D01*
X140684761Y-77857380D01*
X140780000Y-77809761D01*
X140827619Y-77762142D01*
D11*
X132080000Y-106680000D02*
X132080000Y-104140000D01*
X130810000Y-105410000D02*
X133350000Y-105410000D01*
X156210000Y-105410000D02*
X158750000Y-105410000D01*
X133876051Y-105410000D02*
G75*
G03X133876051Y-105410000I-1796051J0D01*
G01*
D12*
X145340000Y-114561252D02*
X145340000Y-114038748D01*
X146760000Y-114561252D02*
X146760000Y-114038748D01*
X144220000Y-114038748D02*
X144220000Y-114561252D01*
X142800000Y-114038748D02*
X142800000Y-114561252D01*
X122630000Y-91178748D02*
X122630000Y-91701252D01*
X121210000Y-91178748D02*
X121210000Y-91701252D01*
X173430000Y-91178748D02*
X173430000Y-91701252D01*
X172010000Y-91178748D02*
X172010000Y-91701252D01*
X125468748Y-74220000D02*
X125991252Y-74220000D01*
X125468748Y-75640000D02*
X125991252Y-75640000D01*
X121360000Y-61968748D02*
X121360000Y-62491252D01*
X119940000Y-61968748D02*
X119940000Y-62491252D01*
X176268748Y-74220000D02*
X176791252Y-74220000D01*
X176268748Y-75640000D02*
X176791252Y-75640000D01*
X172160000Y-61968748D02*
X172160000Y-62491252D01*
X170740000Y-61968748D02*
X170740000Y-62491252D01*
X166930000Y-91701252D02*
X166930000Y-91178748D01*
X168350000Y-91701252D02*
X168350000Y-91178748D01*
X117400000Y-62491252D02*
X117400000Y-61968748D01*
X118820000Y-62491252D02*
X118820000Y-61968748D01*
X163568748Y-74220000D02*
X164091252Y-74220000D01*
X163568748Y-75640000D02*
X164091252Y-75640000D01*
X168200000Y-62491252D02*
X168200000Y-61968748D01*
X169620000Y-62491252D02*
X169620000Y-61968748D01*
X116130000Y-91701252D02*
X116130000Y-91178748D01*
X117550000Y-91701252D02*
X117550000Y-91178748D01*
X112768748Y-74220000D02*
X113291252Y-74220000D01*
X112768748Y-75640000D02*
X113291252Y-75640000D01*
X138370000Y-102810000D02*
X138370000Y-104140000D01*
X139700000Y-102810000D02*
X138370000Y-102810000D01*
X138370000Y-105410000D02*
X138370000Y-108010000D01*
X140970000Y-105410000D02*
X138370000Y-105410000D01*
X140970000Y-102810000D02*
X140970000Y-105410000D01*
X138370000Y-108010000D02*
X151190000Y-108010000D01*
X140970000Y-102810000D02*
X151190000Y-102810000D01*
X151190000Y-102810000D02*
X151190000Y-108010000D01*
X150150000Y-87360000D02*
X154050000Y-87360000D01*
X150150000Y-85360000D02*
X154050000Y-85360000D01*
X150150000Y-87360000D02*
X150150000Y-85360000D01*
X134910000Y-87360000D02*
X138810000Y-87360000D01*
X134910000Y-85360000D02*
X138810000Y-85360000D01*
X134910000Y-87360000D02*
X134910000Y-85360000D01*
D10*
X142085606Y-91147114D02*
G75*
G02X142087600Y-96812100I-1115606J-2832886D01*
G01*
X139852400Y-96812100D02*
G75*
G02X139852400Y-91147900I1117600J2832100D01*
G01*
X144272000Y-97282000D02*
X142087600Y-97282000D01*
X137668000Y-97282000D02*
X139852400Y-97282000D01*
X143510000Y-90678000D02*
X142087600Y-90678000D01*
X138430000Y-90678000D02*
X139852400Y-90678000D01*
X144272000Y-97282000D02*
X144272000Y-91440000D01*
X144272000Y-91440000D02*
X143510000Y-90678000D01*
X138430000Y-90678000D02*
X137668000Y-91440000D01*
X137668000Y-91440000D02*
X137668000Y-97282000D01*
X147474394Y-96812886D02*
G75*
G02X147472400Y-91147900I1115606J2832886D01*
G01*
X149707600Y-91147900D02*
G75*
G02X149707600Y-96812100I-1117600J-2832100D01*
G01*
X145288000Y-90678000D02*
X147472400Y-90678000D01*
X151892000Y-90678000D02*
X149707600Y-90678000D01*
X146050000Y-97282000D02*
X147472400Y-97282000D01*
X151130000Y-97282000D02*
X149707600Y-97282000D01*
X145288000Y-90678000D02*
X145288000Y-96520000D01*
X145288000Y-96520000D02*
X146050000Y-97282000D01*
X151130000Y-97282000D02*
X151892000Y-96520000D01*
X151892000Y-96520000D02*
X151892000Y-90678000D01*
X148057142Y-113657142D02*
X148104761Y-113609523D01*
X148152380Y-113466666D01*
X148152380Y-113371428D01*
X148104761Y-113228571D01*
X148009523Y-113133333D01*
X147914285Y-113085714D01*
X147723809Y-113038095D01*
X147580952Y-113038095D01*
X147390476Y-113085714D01*
X147295238Y-113133333D01*
X147200000Y-113228571D01*
X147152380Y-113371428D01*
X147152380Y-113466666D01*
X147200000Y-113609523D01*
X147247619Y-113657142D01*
X147247619Y-114038095D02*
X147200000Y-114085714D01*
X147152380Y-114180952D01*
X147152380Y-114419047D01*
X147200000Y-114514285D01*
X147247619Y-114561904D01*
X147342857Y-114609523D01*
X147438095Y-114609523D01*
X147580952Y-114561904D01*
X148152380Y-113990476D01*
X148152380Y-114609523D01*
X147580952Y-115180952D02*
X147533333Y-115085714D01*
X147485714Y-115038095D01*
X147390476Y-114990476D01*
X147342857Y-114990476D01*
X147247619Y-115038095D01*
X147200000Y-115085714D01*
X147152380Y-115180952D01*
X147152380Y-115371428D01*
X147200000Y-115466666D01*
X147247619Y-115514285D01*
X147342857Y-115561904D01*
X147390476Y-115561904D01*
X147485714Y-115514285D01*
X147533333Y-115466666D01*
X147580952Y-115371428D01*
X147580952Y-115180952D01*
X147628571Y-115085714D01*
X147676190Y-115038095D01*
X147771428Y-114990476D01*
X147961904Y-114990476D01*
X148057142Y-115038095D01*
X148104761Y-115085714D01*
X148152380Y-115180952D01*
X148152380Y-115371428D01*
X148104761Y-115466666D01*
X148057142Y-115514285D01*
X147961904Y-115561904D01*
X147771428Y-115561904D01*
X147676190Y-115514285D01*
X147628571Y-115466666D01*
X147580952Y-115371428D01*
X142217142Y-113657142D02*
X142264761Y-113609523D01*
X142312380Y-113466666D01*
X142312380Y-113371428D01*
X142264761Y-113228571D01*
X142169523Y-113133333D01*
X142074285Y-113085714D01*
X141883809Y-113038095D01*
X141740952Y-113038095D01*
X141550476Y-113085714D01*
X141455238Y-113133333D01*
X141360000Y-113228571D01*
X141312380Y-113371428D01*
X141312380Y-113466666D01*
X141360000Y-113609523D01*
X141407619Y-113657142D01*
X141407619Y-114038095D02*
X141360000Y-114085714D01*
X141312380Y-114180952D01*
X141312380Y-114419047D01*
X141360000Y-114514285D01*
X141407619Y-114561904D01*
X141502857Y-114609523D01*
X141598095Y-114609523D01*
X141740952Y-114561904D01*
X142312380Y-113990476D01*
X142312380Y-114609523D01*
X141312380Y-114942857D02*
X141312380Y-115609523D01*
X142312380Y-115180952D01*
X120627142Y-90797142D02*
X120674761Y-90749523D01*
X120722380Y-90606666D01*
X120722380Y-90511428D01*
X120674761Y-90368571D01*
X120579523Y-90273333D01*
X120484285Y-90225714D01*
X120293809Y-90178095D01*
X120150952Y-90178095D01*
X119960476Y-90225714D01*
X119865238Y-90273333D01*
X119770000Y-90368571D01*
X119722380Y-90511428D01*
X119722380Y-90606666D01*
X119770000Y-90749523D01*
X119817619Y-90797142D01*
X119817619Y-91178095D02*
X119770000Y-91225714D01*
X119722380Y-91320952D01*
X119722380Y-91559047D01*
X119770000Y-91654285D01*
X119817619Y-91701904D01*
X119912857Y-91749523D01*
X120008095Y-91749523D01*
X120150952Y-91701904D01*
X120722380Y-91130476D01*
X120722380Y-91749523D01*
X119722380Y-92606666D02*
X119722380Y-92416190D01*
X119770000Y-92320952D01*
X119817619Y-92273333D01*
X119960476Y-92178095D01*
X120150952Y-92130476D01*
X120531904Y-92130476D01*
X120627142Y-92178095D01*
X120674761Y-92225714D01*
X120722380Y-92320952D01*
X120722380Y-92511428D01*
X120674761Y-92606666D01*
X120627142Y-92654285D01*
X120531904Y-92701904D01*
X120293809Y-92701904D01*
X120198571Y-92654285D01*
X120150952Y-92606666D01*
X120103333Y-92511428D01*
X120103333Y-92320952D01*
X120150952Y-92225714D01*
X120198571Y-92178095D01*
X120293809Y-92130476D01*
X171427142Y-90797142D02*
X171474761Y-90749523D01*
X171522380Y-90606666D01*
X171522380Y-90511428D01*
X171474761Y-90368571D01*
X171379523Y-90273333D01*
X171284285Y-90225714D01*
X171093809Y-90178095D01*
X170950952Y-90178095D01*
X170760476Y-90225714D01*
X170665238Y-90273333D01*
X170570000Y-90368571D01*
X170522380Y-90511428D01*
X170522380Y-90606666D01*
X170570000Y-90749523D01*
X170617619Y-90797142D01*
X170617619Y-91178095D02*
X170570000Y-91225714D01*
X170522380Y-91320952D01*
X170522380Y-91559047D01*
X170570000Y-91654285D01*
X170617619Y-91701904D01*
X170712857Y-91749523D01*
X170808095Y-91749523D01*
X170950952Y-91701904D01*
X171522380Y-91130476D01*
X171522380Y-91749523D01*
X170522380Y-92654285D02*
X170522380Y-92178095D01*
X170998571Y-92130476D01*
X170950952Y-92178095D01*
X170903333Y-92273333D01*
X170903333Y-92511428D01*
X170950952Y-92606666D01*
X170998571Y-92654285D01*
X171093809Y-92701904D01*
X171331904Y-92701904D01*
X171427142Y-92654285D01*
X171474761Y-92606666D01*
X171522380Y-92511428D01*
X171522380Y-92273333D01*
X171474761Y-92178095D01*
X171427142Y-92130476D01*
X126372857Y-76937142D02*
X126420476Y-76984761D01*
X126563333Y-77032380D01*
X126658571Y-77032380D01*
X126801428Y-76984761D01*
X126896666Y-76889523D01*
X126944285Y-76794285D01*
X126991904Y-76603809D01*
X126991904Y-76460952D01*
X126944285Y-76270476D01*
X126896666Y-76175238D01*
X126801428Y-76080000D01*
X126658571Y-76032380D01*
X126563333Y-76032380D01*
X126420476Y-76080000D01*
X126372857Y-76127619D01*
X125991904Y-76127619D02*
X125944285Y-76080000D01*
X125849047Y-76032380D01*
X125610952Y-76032380D01*
X125515714Y-76080000D01*
X125468095Y-76127619D01*
X125420476Y-76222857D01*
X125420476Y-76318095D01*
X125468095Y-76460952D01*
X126039523Y-77032380D01*
X125420476Y-77032380D01*
X125087142Y-76032380D02*
X124468095Y-76032380D01*
X124801428Y-76413333D01*
X124658571Y-76413333D01*
X124563333Y-76460952D01*
X124515714Y-76508571D01*
X124468095Y-76603809D01*
X124468095Y-76841904D01*
X124515714Y-76937142D01*
X124563333Y-76984761D01*
X124658571Y-77032380D01*
X124944285Y-77032380D01*
X125039523Y-76984761D01*
X125087142Y-76937142D01*
X119357142Y-61587142D02*
X119404761Y-61539523D01*
X119452380Y-61396666D01*
X119452380Y-61301428D01*
X119404761Y-61158571D01*
X119309523Y-61063333D01*
X119214285Y-61015714D01*
X119023809Y-60968095D01*
X118880952Y-60968095D01*
X118690476Y-61015714D01*
X118595238Y-61063333D01*
X118500000Y-61158571D01*
X118452380Y-61301428D01*
X118452380Y-61396666D01*
X118500000Y-61539523D01*
X118547619Y-61587142D01*
X118547619Y-61968095D02*
X118500000Y-62015714D01*
X118452380Y-62110952D01*
X118452380Y-62349047D01*
X118500000Y-62444285D01*
X118547619Y-62491904D01*
X118642857Y-62539523D01*
X118738095Y-62539523D01*
X118880952Y-62491904D01*
X119452380Y-61920476D01*
X119452380Y-62539523D01*
X118547619Y-62920476D02*
X118500000Y-62968095D01*
X118452380Y-63063333D01*
X118452380Y-63301428D01*
X118500000Y-63396666D01*
X118547619Y-63444285D01*
X118642857Y-63491904D01*
X118738095Y-63491904D01*
X118880952Y-63444285D01*
X119452380Y-62872857D01*
X119452380Y-63491904D01*
X177172857Y-76937142D02*
X177220476Y-76984761D01*
X177363333Y-77032380D01*
X177458571Y-77032380D01*
X177601428Y-76984761D01*
X177696666Y-76889523D01*
X177744285Y-76794285D01*
X177791904Y-76603809D01*
X177791904Y-76460952D01*
X177744285Y-76270476D01*
X177696666Y-76175238D01*
X177601428Y-76080000D01*
X177458571Y-76032380D01*
X177363333Y-76032380D01*
X177220476Y-76080000D01*
X177172857Y-76127619D01*
X176791904Y-76127619D02*
X176744285Y-76080000D01*
X176649047Y-76032380D01*
X176410952Y-76032380D01*
X176315714Y-76080000D01*
X176268095Y-76127619D01*
X176220476Y-76222857D01*
X176220476Y-76318095D01*
X176268095Y-76460952D01*
X176839523Y-77032380D01*
X176220476Y-77032380D01*
X175268095Y-77032380D02*
X175839523Y-77032380D01*
X175553809Y-77032380D02*
X175553809Y-76032380D01*
X175649047Y-76175238D01*
X175744285Y-76270476D01*
X175839523Y-76318095D01*
X170157142Y-61587142D02*
X170204761Y-61539523D01*
X170252380Y-61396666D01*
X170252380Y-61301428D01*
X170204761Y-61158571D01*
X170109523Y-61063333D01*
X170014285Y-61015714D01*
X169823809Y-60968095D01*
X169680952Y-60968095D01*
X169490476Y-61015714D01*
X169395238Y-61063333D01*
X169300000Y-61158571D01*
X169252380Y-61301428D01*
X169252380Y-61396666D01*
X169300000Y-61539523D01*
X169347619Y-61587142D01*
X170252380Y-62539523D02*
X170252380Y-61968095D01*
X170252380Y-62253809D02*
X169252380Y-62253809D01*
X169395238Y-62158571D01*
X169490476Y-62063333D01*
X169538095Y-61968095D01*
X170252380Y-63015714D02*
X170252380Y-63206190D01*
X170204761Y-63301428D01*
X170157142Y-63349047D01*
X170014285Y-63444285D01*
X169823809Y-63491904D01*
X169442857Y-63491904D01*
X169347619Y-63444285D01*
X169300000Y-63396666D01*
X169252380Y-63301428D01*
X169252380Y-63110952D01*
X169300000Y-63015714D01*
X169347619Y-62968095D01*
X169442857Y-62920476D01*
X169680952Y-62920476D01*
X169776190Y-62968095D01*
X169823809Y-63015714D01*
X169871428Y-63110952D01*
X169871428Y-63301428D01*
X169823809Y-63396666D01*
X169776190Y-63444285D01*
X169680952Y-63491904D01*
X169647142Y-90797142D02*
X169694761Y-90749523D01*
X169742380Y-90606666D01*
X169742380Y-90511428D01*
X169694761Y-90368571D01*
X169599523Y-90273333D01*
X169504285Y-90225714D01*
X169313809Y-90178095D01*
X169170952Y-90178095D01*
X168980476Y-90225714D01*
X168885238Y-90273333D01*
X168790000Y-90368571D01*
X168742380Y-90511428D01*
X168742380Y-90606666D01*
X168790000Y-90749523D01*
X168837619Y-90797142D01*
X169742380Y-91749523D02*
X169742380Y-91178095D01*
X169742380Y-91463809D02*
X168742380Y-91463809D01*
X168885238Y-91368571D01*
X168980476Y-91273333D01*
X169028095Y-91178095D01*
X168742380Y-92606666D02*
X168742380Y-92416190D01*
X168790000Y-92320952D01*
X168837619Y-92273333D01*
X168980476Y-92178095D01*
X169170952Y-92130476D01*
X169551904Y-92130476D01*
X169647142Y-92178095D01*
X169694761Y-92225714D01*
X169742380Y-92320952D01*
X169742380Y-92511428D01*
X169694761Y-92606666D01*
X169647142Y-92654285D01*
X169551904Y-92701904D01*
X169313809Y-92701904D01*
X169218571Y-92654285D01*
X169170952Y-92606666D01*
X169123333Y-92511428D01*
X169123333Y-92320952D01*
X169170952Y-92225714D01*
X169218571Y-92178095D01*
X169313809Y-92130476D01*
X120117142Y-61587142D02*
X120164761Y-61539523D01*
X120212380Y-61396666D01*
X120212380Y-61301428D01*
X120164761Y-61158571D01*
X120069523Y-61063333D01*
X119974285Y-61015714D01*
X119783809Y-60968095D01*
X119640952Y-60968095D01*
X119450476Y-61015714D01*
X119355238Y-61063333D01*
X119260000Y-61158571D01*
X119212380Y-61301428D01*
X119212380Y-61396666D01*
X119260000Y-61539523D01*
X119307619Y-61587142D01*
X120212380Y-62539523D02*
X120212380Y-61968095D01*
X120212380Y-62253809D02*
X119212380Y-62253809D01*
X119355238Y-62158571D01*
X119450476Y-62063333D01*
X119498095Y-61968095D01*
X119212380Y-63444285D02*
X119212380Y-62968095D01*
X119688571Y-62920476D01*
X119640952Y-62968095D01*
X119593333Y-63063333D01*
X119593333Y-63301428D01*
X119640952Y-63396666D01*
X119688571Y-63444285D01*
X119783809Y-63491904D01*
X120021904Y-63491904D01*
X120117142Y-63444285D01*
X120164761Y-63396666D01*
X120212380Y-63301428D01*
X120212380Y-63063333D01*
X120164761Y-62968095D01*
X120117142Y-62920476D01*
X164472857Y-76937142D02*
X164520476Y-76984761D01*
X164663333Y-77032380D01*
X164758571Y-77032380D01*
X164901428Y-76984761D01*
X164996666Y-76889523D01*
X165044285Y-76794285D01*
X165091904Y-76603809D01*
X165091904Y-76460952D01*
X165044285Y-76270476D01*
X164996666Y-76175238D01*
X164901428Y-76080000D01*
X164758571Y-76032380D01*
X164663333Y-76032380D01*
X164520476Y-76080000D01*
X164472857Y-76127619D01*
X163520476Y-77032380D02*
X164091904Y-77032380D01*
X163806190Y-77032380D02*
X163806190Y-76032380D01*
X163901428Y-76175238D01*
X163996666Y-76270476D01*
X164091904Y-76318095D01*
X163187142Y-76032380D02*
X162568095Y-76032380D01*
X162901428Y-76413333D01*
X162758571Y-76413333D01*
X162663333Y-76460952D01*
X162615714Y-76508571D01*
X162568095Y-76603809D01*
X162568095Y-76841904D01*
X162615714Y-76937142D01*
X162663333Y-76984761D01*
X162758571Y-77032380D01*
X163044285Y-77032380D01*
X163139523Y-76984761D01*
X163187142Y-76937142D01*
X170917142Y-61587142D02*
X170964761Y-61539523D01*
X171012380Y-61396666D01*
X171012380Y-61301428D01*
X170964761Y-61158571D01*
X170869523Y-61063333D01*
X170774285Y-61015714D01*
X170583809Y-60968095D01*
X170440952Y-60968095D01*
X170250476Y-61015714D01*
X170155238Y-61063333D01*
X170060000Y-61158571D01*
X170012380Y-61301428D01*
X170012380Y-61396666D01*
X170060000Y-61539523D01*
X170107619Y-61587142D01*
X171012380Y-62539523D02*
X171012380Y-61968095D01*
X171012380Y-62253809D02*
X170012380Y-62253809D01*
X170155238Y-62158571D01*
X170250476Y-62063333D01*
X170298095Y-61968095D01*
X170107619Y-62920476D02*
X170060000Y-62968095D01*
X170012380Y-63063333D01*
X170012380Y-63301428D01*
X170060000Y-63396666D01*
X170107619Y-63444285D01*
X170202857Y-63491904D01*
X170298095Y-63491904D01*
X170440952Y-63444285D01*
X171012380Y-62872857D01*
X171012380Y-63491904D01*
X118847142Y-90797142D02*
X118894761Y-90749523D01*
X118942380Y-90606666D01*
X118942380Y-90511428D01*
X118894761Y-90368571D01*
X118799523Y-90273333D01*
X118704285Y-90225714D01*
X118513809Y-90178095D01*
X118370952Y-90178095D01*
X118180476Y-90225714D01*
X118085238Y-90273333D01*
X117990000Y-90368571D01*
X117942380Y-90511428D01*
X117942380Y-90606666D01*
X117990000Y-90749523D01*
X118037619Y-90797142D01*
X118942380Y-91749523D02*
X118942380Y-91178095D01*
X118942380Y-91463809D02*
X117942380Y-91463809D01*
X118085238Y-91368571D01*
X118180476Y-91273333D01*
X118228095Y-91178095D01*
X118942380Y-92701904D02*
X118942380Y-92130476D01*
X118942380Y-92416190D02*
X117942380Y-92416190D01*
X118085238Y-92320952D01*
X118180476Y-92225714D01*
X118228095Y-92130476D01*
X113672857Y-76937142D02*
X113720476Y-76984761D01*
X113863333Y-77032380D01*
X113958571Y-77032380D01*
X114101428Y-76984761D01*
X114196666Y-76889523D01*
X114244285Y-76794285D01*
X114291904Y-76603809D01*
X114291904Y-76460952D01*
X114244285Y-76270476D01*
X114196666Y-76175238D01*
X114101428Y-76080000D01*
X113958571Y-76032380D01*
X113863333Y-76032380D01*
X113720476Y-76080000D01*
X113672857Y-76127619D01*
X112720476Y-77032380D02*
X113291904Y-77032380D01*
X113006190Y-77032380D02*
X113006190Y-76032380D01*
X113101428Y-76175238D01*
X113196666Y-76270476D01*
X113291904Y-76318095D01*
X112101428Y-76032380D02*
X112006190Y-76032380D01*
X111910952Y-76080000D01*
X111863333Y-76127619D01*
X111815714Y-76222857D01*
X111768095Y-76413333D01*
X111768095Y-76651428D01*
X111815714Y-76841904D01*
X111863333Y-76937142D01*
X111910952Y-76984761D01*
X112006190Y-77032380D01*
X112101428Y-77032380D01*
X112196666Y-76984761D01*
X112244285Y-76937142D01*
X112291904Y-76841904D01*
X112339523Y-76651428D01*
X112339523Y-76413333D01*
X112291904Y-76222857D01*
X112244285Y-76127619D01*
X112196666Y-76080000D01*
X112101428Y-76032380D01*
X137822380Y-104671904D02*
X136822380Y-104671904D01*
X136822380Y-105052857D01*
X136870000Y-105148095D01*
X136917619Y-105195714D01*
X137012857Y-105243333D01*
X137155714Y-105243333D01*
X137250952Y-105195714D01*
X137298571Y-105148095D01*
X137346190Y-105052857D01*
X137346190Y-104671904D01*
X136822380Y-106148095D02*
X136822380Y-105671904D01*
X137298571Y-105624285D01*
X137250952Y-105671904D01*
X137203333Y-105767142D01*
X137203333Y-106005238D01*
X137250952Y-106100476D01*
X137298571Y-106148095D01*
X137393809Y-106195714D01*
X137631904Y-106195714D01*
X137727142Y-106148095D01*
X137774761Y-106100476D01*
X137822380Y-106005238D01*
X137822380Y-105767142D01*
X137774761Y-105671904D01*
X137727142Y-105624285D01*
X153138095Y-88812380D02*
X153138095Y-87812380D01*
X152900000Y-87812380D01*
X152757142Y-87860000D01*
X152661904Y-87955238D01*
X152614285Y-88050476D01*
X152566666Y-88240952D01*
X152566666Y-88383809D01*
X152614285Y-88574285D01*
X152661904Y-88669523D01*
X152757142Y-88764761D01*
X152900000Y-88812380D01*
X153138095Y-88812380D01*
X152185714Y-87907619D02*
X152138095Y-87860000D01*
X152042857Y-87812380D01*
X151804761Y-87812380D01*
X151709523Y-87860000D01*
X151661904Y-87907619D01*
X151614285Y-88002857D01*
X151614285Y-88098095D01*
X151661904Y-88240952D01*
X152233333Y-88812380D01*
X151614285Y-88812380D01*
X137898095Y-88812380D02*
X137898095Y-87812380D01*
X137660000Y-87812380D01*
X137517142Y-87860000D01*
X137421904Y-87955238D01*
X137374285Y-88050476D01*
X137326666Y-88240952D01*
X137326666Y-88383809D01*
X137374285Y-88574285D01*
X137421904Y-88669523D01*
X137517142Y-88764761D01*
X137660000Y-88812380D01*
X137898095Y-88812380D01*
X136374285Y-88812380D02*
X136945714Y-88812380D01*
X136660000Y-88812380D02*
X136660000Y-87812380D01*
X136755238Y-87955238D01*
X136850476Y-88050476D01*
X136945714Y-88098095D01*
X136882142Y-93813333D02*
X136929761Y-93765714D01*
X136977380Y-93622857D01*
X136977380Y-93527619D01*
X136929761Y-93384761D01*
X136834523Y-93289523D01*
X136739285Y-93241904D01*
X136548809Y-93194285D01*
X136405952Y-93194285D01*
X136215476Y-93241904D01*
X136120238Y-93289523D01*
X136025000Y-93384761D01*
X135977380Y-93527619D01*
X135977380Y-93622857D01*
X136025000Y-93765714D01*
X136072619Y-93813333D01*
X136977380Y-94289523D02*
X136977380Y-94480000D01*
X136929761Y-94575238D01*
X136882142Y-94622857D01*
X136739285Y-94718095D01*
X136548809Y-94765714D01*
X136167857Y-94765714D01*
X136072619Y-94718095D01*
X136025000Y-94670476D01*
X135977380Y-94575238D01*
X135977380Y-94384761D01*
X136025000Y-94289523D01*
X136072619Y-94241904D01*
X136167857Y-94194285D01*
X136405952Y-94194285D01*
X136501190Y-94241904D01*
X136548809Y-94289523D01*
X136596428Y-94384761D01*
X136596428Y-94575238D01*
X136548809Y-94670476D01*
X136501190Y-94718095D01*
X136405952Y-94765714D01*
X144051328Y-89319147D02*
X144051328Y-90081052D01*
X144432280Y-89700100D02*
X143670376Y-89700100D01*
X153392142Y-93337142D02*
X153439761Y-93289523D01*
X153487380Y-93146666D01*
X153487380Y-93051428D01*
X153439761Y-92908571D01*
X153344523Y-92813333D01*
X153249285Y-92765714D01*
X153058809Y-92718095D01*
X152915952Y-92718095D01*
X152725476Y-92765714D01*
X152630238Y-92813333D01*
X152535000Y-92908571D01*
X152487380Y-93051428D01*
X152487380Y-93146666D01*
X152535000Y-93289523D01*
X152582619Y-93337142D01*
X153487380Y-94289523D02*
X153487380Y-93718095D01*
X153487380Y-94003809D02*
X152487380Y-94003809D01*
X152630238Y-93908571D01*
X152725476Y-93813333D01*
X152773095Y-93718095D01*
X152915952Y-94860952D02*
X152868333Y-94765714D01*
X152820714Y-94718095D01*
X152725476Y-94670476D01*
X152677857Y-94670476D01*
X152582619Y-94718095D01*
X152535000Y-94765714D01*
X152487380Y-94860952D01*
X152487380Y-95051428D01*
X152535000Y-95146666D01*
X152582619Y-95194285D01*
X152677857Y-95241904D01*
X152725476Y-95241904D01*
X152820714Y-95194285D01*
X152868333Y-95146666D01*
X152915952Y-95051428D01*
X152915952Y-94860952D01*
X152963571Y-94765714D01*
X153011190Y-94718095D01*
X153106428Y-94670476D01*
X153296904Y-94670476D01*
X153392142Y-94718095D01*
X153439761Y-94765714D01*
X153487380Y-94860952D01*
X153487380Y-95051428D01*
X153439761Y-95146666D01*
X153392142Y-95194285D01*
X153296904Y-95241904D01*
X153106428Y-95241904D01*
X153011190Y-95194285D01*
X152963571Y-95146666D01*
X152915952Y-95051428D01*
X145651528Y-97878947D02*
X145651528Y-98640852D01*
X146032480Y-98259900D02*
X145270576Y-98259900D01*
%LPC*%
D13*
X131445000Y-78105000D03*
X126445000Y-78105000D03*
X163115000Y-78105000D03*
X158115000Y-78105000D03*
D14*
X132080000Y-143510000D03*
X134620000Y-143510000D03*
D15*
X137160000Y-143510000D03*
D16*
G36*
X146646071Y-112501623D02*
G01*
X146678781Y-112506475D01*
X146710857Y-112514509D01*
X146741991Y-112525649D01*
X146771884Y-112539787D01*
X146800247Y-112556787D01*
X146826807Y-112576485D01*
X146851308Y-112598692D01*
X146873515Y-112623193D01*
X146893213Y-112649753D01*
X146910213Y-112678116D01*
X146924351Y-112708009D01*
X146935491Y-112739143D01*
X146943525Y-112771219D01*
X146948377Y-112803929D01*
X146950000Y-112836956D01*
X146950000Y-113713044D01*
X146948377Y-113746071D01*
X146943525Y-113778781D01*
X146935491Y-113810857D01*
X146924351Y-113841991D01*
X146910213Y-113871884D01*
X146893213Y-113900247D01*
X146873515Y-113926807D01*
X146851308Y-113951308D01*
X146826807Y-113973515D01*
X146800247Y-113993213D01*
X146771884Y-114010213D01*
X146741991Y-114024351D01*
X146710857Y-114035491D01*
X146678781Y-114043525D01*
X146646071Y-114048377D01*
X146613044Y-114050000D01*
X145486956Y-114050000D01*
X145453929Y-114048377D01*
X145421219Y-114043525D01*
X145389143Y-114035491D01*
X145358009Y-114024351D01*
X145328116Y-114010213D01*
X145299753Y-113993213D01*
X145273193Y-113973515D01*
X145248692Y-113951308D01*
X145226485Y-113926807D01*
X145206787Y-113900247D01*
X145189787Y-113871884D01*
X145175649Y-113841991D01*
X145164509Y-113810857D01*
X145156475Y-113778781D01*
X145151623Y-113746071D01*
X145150000Y-113713044D01*
X145150000Y-112836956D01*
X145151623Y-112803929D01*
X145156475Y-112771219D01*
X145164509Y-112739143D01*
X145175649Y-112708009D01*
X145189787Y-112678116D01*
X145206787Y-112649753D01*
X145226485Y-112623193D01*
X145248692Y-112598692D01*
X145273193Y-112576485D01*
X145299753Y-112556787D01*
X145328116Y-112539787D01*
X145358009Y-112525649D01*
X145389143Y-112514509D01*
X145421219Y-112506475D01*
X145453929Y-112501623D01*
X145486956Y-112500000D01*
X146613044Y-112500000D01*
X146646071Y-112501623D01*
G37*
G36*
X146646071Y-114551623D02*
G01*
X146678781Y-114556475D01*
X146710857Y-114564509D01*
X146741991Y-114575649D01*
X146771884Y-114589787D01*
X146800247Y-114606787D01*
X146826807Y-114626485D01*
X146851308Y-114648692D01*
X146873515Y-114673193D01*
X146893213Y-114699753D01*
X146910213Y-114728116D01*
X146924351Y-114758009D01*
X146935491Y-114789143D01*
X146943525Y-114821219D01*
X146948377Y-114853929D01*
X146950000Y-114886956D01*
X146950000Y-115763044D01*
X146948377Y-115796071D01*
X146943525Y-115828781D01*
X146935491Y-115860857D01*
X146924351Y-115891991D01*
X146910213Y-115921884D01*
X146893213Y-115950247D01*
X146873515Y-115976807D01*
X146851308Y-116001308D01*
X146826807Y-116023515D01*
X146800247Y-116043213D01*
X146771884Y-116060213D01*
X146741991Y-116074351D01*
X146710857Y-116085491D01*
X146678781Y-116093525D01*
X146646071Y-116098377D01*
X146613044Y-116100000D01*
X145486956Y-116100000D01*
X145453929Y-116098377D01*
X145421219Y-116093525D01*
X145389143Y-116085491D01*
X145358009Y-116074351D01*
X145328116Y-116060213D01*
X145299753Y-116043213D01*
X145273193Y-116023515D01*
X145248692Y-116001308D01*
X145226485Y-115976807D01*
X145206787Y-115950247D01*
X145189787Y-115921884D01*
X145175649Y-115891991D01*
X145164509Y-115860857D01*
X145156475Y-115828781D01*
X145151623Y-115796071D01*
X145150000Y-115763044D01*
X145150000Y-114886956D01*
X145151623Y-114853929D01*
X145156475Y-114821219D01*
X145164509Y-114789143D01*
X145175649Y-114758009D01*
X145189787Y-114728116D01*
X145206787Y-114699753D01*
X145226485Y-114673193D01*
X145248692Y-114648692D01*
X145273193Y-114626485D01*
X145299753Y-114606787D01*
X145328116Y-114589787D01*
X145358009Y-114575649D01*
X145389143Y-114564509D01*
X145421219Y-114556475D01*
X145453929Y-114551623D01*
X145486956Y-114550000D01*
X146613044Y-114550000D01*
X146646071Y-114551623D01*
G37*
G36*
X144106071Y-114551623D02*
G01*
X144138781Y-114556475D01*
X144170857Y-114564509D01*
X144201991Y-114575649D01*
X144231884Y-114589787D01*
X144260247Y-114606787D01*
X144286807Y-114626485D01*
X144311308Y-114648692D01*
X144333515Y-114673193D01*
X144353213Y-114699753D01*
X144370213Y-114728116D01*
X144384351Y-114758009D01*
X144395491Y-114789143D01*
X144403525Y-114821219D01*
X144408377Y-114853929D01*
X144410000Y-114886956D01*
X144410000Y-115763044D01*
X144408377Y-115796071D01*
X144403525Y-115828781D01*
X144395491Y-115860857D01*
X144384351Y-115891991D01*
X144370213Y-115921884D01*
X144353213Y-115950247D01*
X144333515Y-115976807D01*
X144311308Y-116001308D01*
X144286807Y-116023515D01*
X144260247Y-116043213D01*
X144231884Y-116060213D01*
X144201991Y-116074351D01*
X144170857Y-116085491D01*
X144138781Y-116093525D01*
X144106071Y-116098377D01*
X144073044Y-116100000D01*
X142946956Y-116100000D01*
X142913929Y-116098377D01*
X142881219Y-116093525D01*
X142849143Y-116085491D01*
X142818009Y-116074351D01*
X142788116Y-116060213D01*
X142759753Y-116043213D01*
X142733193Y-116023515D01*
X142708692Y-116001308D01*
X142686485Y-115976807D01*
X142666787Y-115950247D01*
X142649787Y-115921884D01*
X142635649Y-115891991D01*
X142624509Y-115860857D01*
X142616475Y-115828781D01*
X142611623Y-115796071D01*
X142610000Y-115763044D01*
X142610000Y-114886956D01*
X142611623Y-114853929D01*
X142616475Y-114821219D01*
X142624509Y-114789143D01*
X142635649Y-114758009D01*
X142649787Y-114728116D01*
X142666787Y-114699753D01*
X142686485Y-114673193D01*
X142708692Y-114648692D01*
X142733193Y-114626485D01*
X142759753Y-114606787D01*
X142788116Y-114589787D01*
X142818009Y-114575649D01*
X142849143Y-114564509D01*
X142881219Y-114556475D01*
X142913929Y-114551623D01*
X142946956Y-114550000D01*
X144073044Y-114550000D01*
X144106071Y-114551623D01*
G37*
G36*
X144106071Y-112501623D02*
G01*
X144138781Y-112506475D01*
X144170857Y-112514509D01*
X144201991Y-112525649D01*
X144231884Y-112539787D01*
X144260247Y-112556787D01*
X144286807Y-112576485D01*
X144311308Y-112598692D01*
X144333515Y-112623193D01*
X144353213Y-112649753D01*
X144370213Y-112678116D01*
X144384351Y-112708009D01*
X144395491Y-112739143D01*
X144403525Y-112771219D01*
X144408377Y-112803929D01*
X144410000Y-112836956D01*
X144410000Y-113713044D01*
X144408377Y-113746071D01*
X144403525Y-113778781D01*
X144395491Y-113810857D01*
X144384351Y-113841991D01*
X144370213Y-113871884D01*
X144353213Y-113900247D01*
X144333515Y-113926807D01*
X144311308Y-113951308D01*
X144286807Y-113973515D01*
X144260247Y-113993213D01*
X144231884Y-114010213D01*
X144201991Y-114024351D01*
X144170857Y-114035491D01*
X144138781Y-114043525D01*
X144106071Y-114048377D01*
X144073044Y-114050000D01*
X142946956Y-114050000D01*
X142913929Y-114048377D01*
X142881219Y-114043525D01*
X142849143Y-114035491D01*
X142818009Y-114024351D01*
X142788116Y-114010213D01*
X142759753Y-113993213D01*
X142733193Y-113973515D01*
X142708692Y-113951308D01*
X142686485Y-113926807D01*
X142666787Y-113900247D01*
X142649787Y-113871884D01*
X142635649Y-113841991D01*
X142624509Y-113810857D01*
X142616475Y-113778781D01*
X142611623Y-113746071D01*
X142610000Y-113713044D01*
X142610000Y-112836956D01*
X142611623Y-112803929D01*
X142616475Y-112771219D01*
X142624509Y-112739143D01*
X142635649Y-112708009D01*
X142649787Y-112678116D01*
X142666787Y-112649753D01*
X142686485Y-112623193D01*
X142708692Y-112598692D01*
X142733193Y-112576485D01*
X142759753Y-112556787D01*
X142788116Y-112539787D01*
X142818009Y-112525649D01*
X142849143Y-112514509D01*
X142881219Y-112506475D01*
X142913929Y-112501623D01*
X142946956Y-112500000D01*
X144073044Y-112500000D01*
X144106071Y-112501623D01*
G37*
G36*
X122516071Y-91691623D02*
G01*
X122548781Y-91696475D01*
X122580857Y-91704509D01*
X122611991Y-91715649D01*
X122641884Y-91729787D01*
X122670247Y-91746787D01*
X122696807Y-91766485D01*
X122721308Y-91788692D01*
X122743515Y-91813193D01*
X122763213Y-91839753D01*
X122780213Y-91868116D01*
X122794351Y-91898009D01*
X122805491Y-91929143D01*
X122813525Y-91961219D01*
X122818377Y-91993929D01*
X122820000Y-92026956D01*
X122820000Y-92903044D01*
X122818377Y-92936071D01*
X122813525Y-92968781D01*
X122805491Y-93000857D01*
X122794351Y-93031991D01*
X122780213Y-93061884D01*
X122763213Y-93090247D01*
X122743515Y-93116807D01*
X122721308Y-93141308D01*
X122696807Y-93163515D01*
X122670247Y-93183213D01*
X122641884Y-93200213D01*
X122611991Y-93214351D01*
X122580857Y-93225491D01*
X122548781Y-93233525D01*
X122516071Y-93238377D01*
X122483044Y-93240000D01*
X121356956Y-93240000D01*
X121323929Y-93238377D01*
X121291219Y-93233525D01*
X121259143Y-93225491D01*
X121228009Y-93214351D01*
X121198116Y-93200213D01*
X121169753Y-93183213D01*
X121143193Y-93163515D01*
X121118692Y-93141308D01*
X121096485Y-93116807D01*
X121076787Y-93090247D01*
X121059787Y-93061884D01*
X121045649Y-93031991D01*
X121034509Y-93000857D01*
X121026475Y-92968781D01*
X121021623Y-92936071D01*
X121020000Y-92903044D01*
X121020000Y-92026956D01*
X121021623Y-91993929D01*
X121026475Y-91961219D01*
X121034509Y-91929143D01*
X121045649Y-91898009D01*
X121059787Y-91868116D01*
X121076787Y-91839753D01*
X121096485Y-91813193D01*
X121118692Y-91788692D01*
X121143193Y-91766485D01*
X121169753Y-91746787D01*
X121198116Y-91729787D01*
X121228009Y-91715649D01*
X121259143Y-91704509D01*
X121291219Y-91696475D01*
X121323929Y-91691623D01*
X121356956Y-91690000D01*
X122483044Y-91690000D01*
X122516071Y-91691623D01*
G37*
G36*
X122516071Y-89641623D02*
G01*
X122548781Y-89646475D01*
X122580857Y-89654509D01*
X122611991Y-89665649D01*
X122641884Y-89679787D01*
X122670247Y-89696787D01*
X122696807Y-89716485D01*
X122721308Y-89738692D01*
X122743515Y-89763193D01*
X122763213Y-89789753D01*
X122780213Y-89818116D01*
X122794351Y-89848009D01*
X122805491Y-89879143D01*
X122813525Y-89911219D01*
X122818377Y-89943929D01*
X122820000Y-89976956D01*
X122820000Y-90853044D01*
X122818377Y-90886071D01*
X122813525Y-90918781D01*
X122805491Y-90950857D01*
X122794351Y-90981991D01*
X122780213Y-91011884D01*
X122763213Y-91040247D01*
X122743515Y-91066807D01*
X122721308Y-91091308D01*
X122696807Y-91113515D01*
X122670247Y-91133213D01*
X122641884Y-91150213D01*
X122611991Y-91164351D01*
X122580857Y-91175491D01*
X122548781Y-91183525D01*
X122516071Y-91188377D01*
X122483044Y-91190000D01*
X121356956Y-91190000D01*
X121323929Y-91188377D01*
X121291219Y-91183525D01*
X121259143Y-91175491D01*
X121228009Y-91164351D01*
X121198116Y-91150213D01*
X121169753Y-91133213D01*
X121143193Y-91113515D01*
X121118692Y-91091308D01*
X121096485Y-91066807D01*
X121076787Y-91040247D01*
X121059787Y-91011884D01*
X121045649Y-90981991D01*
X121034509Y-90950857D01*
X121026475Y-90918781D01*
X121021623Y-90886071D01*
X121020000Y-90853044D01*
X121020000Y-89976956D01*
X121021623Y-89943929D01*
X121026475Y-89911219D01*
X121034509Y-89879143D01*
X121045649Y-89848009D01*
X121059787Y-89818116D01*
X121076787Y-89789753D01*
X121096485Y-89763193D01*
X121118692Y-89738692D01*
X121143193Y-89716485D01*
X121169753Y-89696787D01*
X121198116Y-89679787D01*
X121228009Y-89665649D01*
X121259143Y-89654509D01*
X121291219Y-89646475D01*
X121323929Y-89641623D01*
X121356956Y-89640000D01*
X122483044Y-89640000D01*
X122516071Y-89641623D01*
G37*
G36*
X173316071Y-91691623D02*
G01*
X173348781Y-91696475D01*
X173380857Y-91704509D01*
X173411991Y-91715649D01*
X173441884Y-91729787D01*
X173470247Y-91746787D01*
X173496807Y-91766485D01*
X173521308Y-91788692D01*
X173543515Y-91813193D01*
X173563213Y-91839753D01*
X173580213Y-91868116D01*
X173594351Y-91898009D01*
X173605491Y-91929143D01*
X173613525Y-91961219D01*
X173618377Y-91993929D01*
X173620000Y-92026956D01*
X173620000Y-92903044D01*
X173618377Y-92936071D01*
X173613525Y-92968781D01*
X173605491Y-93000857D01*
X173594351Y-93031991D01*
X173580213Y-93061884D01*
X173563213Y-93090247D01*
X173543515Y-93116807D01*
X173521308Y-93141308D01*
X173496807Y-93163515D01*
X173470247Y-93183213D01*
X173441884Y-93200213D01*
X173411991Y-93214351D01*
X173380857Y-93225491D01*
X173348781Y-93233525D01*
X173316071Y-93238377D01*
X173283044Y-93240000D01*
X172156956Y-93240000D01*
X172123929Y-93238377D01*
X172091219Y-93233525D01*
X172059143Y-93225491D01*
X172028009Y-93214351D01*
X171998116Y-93200213D01*
X171969753Y-93183213D01*
X171943193Y-93163515D01*
X171918692Y-93141308D01*
X171896485Y-93116807D01*
X171876787Y-93090247D01*
X171859787Y-93061884D01*
X171845649Y-93031991D01*
X171834509Y-93000857D01*
X171826475Y-92968781D01*
X171821623Y-92936071D01*
X171820000Y-92903044D01*
X171820000Y-92026956D01*
X171821623Y-91993929D01*
X171826475Y-91961219D01*
X171834509Y-91929143D01*
X171845649Y-91898009D01*
X171859787Y-91868116D01*
X171876787Y-91839753D01*
X171896485Y-91813193D01*
X171918692Y-91788692D01*
X171943193Y-91766485D01*
X171969753Y-91746787D01*
X171998116Y-91729787D01*
X172028009Y-91715649D01*
X172059143Y-91704509D01*
X172091219Y-91696475D01*
X172123929Y-91691623D01*
X172156956Y-91690000D01*
X173283044Y-91690000D01*
X173316071Y-91691623D01*
G37*
G36*
X173316071Y-89641623D02*
G01*
X173348781Y-89646475D01*
X173380857Y-89654509D01*
X173411991Y-89665649D01*
X173441884Y-89679787D01*
X173470247Y-89696787D01*
X173496807Y-89716485D01*
X173521308Y-89738692D01*
X173543515Y-89763193D01*
X173563213Y-89789753D01*
X173580213Y-89818116D01*
X173594351Y-89848009D01*
X173605491Y-89879143D01*
X173613525Y-89911219D01*
X173618377Y-89943929D01*
X173620000Y-89976956D01*
X173620000Y-90853044D01*
X173618377Y-90886071D01*
X173613525Y-90918781D01*
X173605491Y-90950857D01*
X173594351Y-90981991D01*
X173580213Y-91011884D01*
X173563213Y-91040247D01*
X173543515Y-91066807D01*
X173521308Y-91091308D01*
X173496807Y-91113515D01*
X173470247Y-91133213D01*
X173441884Y-91150213D01*
X173411991Y-91164351D01*
X173380857Y-91175491D01*
X173348781Y-91183525D01*
X173316071Y-91188377D01*
X173283044Y-91190000D01*
X172156956Y-91190000D01*
X172123929Y-91188377D01*
X172091219Y-91183525D01*
X172059143Y-91175491D01*
X172028009Y-91164351D01*
X171998116Y-91150213D01*
X171969753Y-91133213D01*
X171943193Y-91113515D01*
X171918692Y-91091308D01*
X171896485Y-91066807D01*
X171876787Y-91040247D01*
X171859787Y-91011884D01*
X171845649Y-90981991D01*
X171834509Y-90950857D01*
X171826475Y-90918781D01*
X171821623Y-90886071D01*
X171820000Y-90853044D01*
X171820000Y-89976956D01*
X171821623Y-89943929D01*
X171826475Y-89911219D01*
X171834509Y-89879143D01*
X171845649Y-89848009D01*
X171859787Y-89818116D01*
X171876787Y-89789753D01*
X171896485Y-89763193D01*
X171918692Y-89738692D01*
X171943193Y-89716485D01*
X171969753Y-89696787D01*
X171998116Y-89679787D01*
X172028009Y-89665649D01*
X172059143Y-89654509D01*
X172091219Y-89646475D01*
X172123929Y-89641623D01*
X172156956Y-89640000D01*
X173283044Y-89640000D01*
X173316071Y-89641623D01*
G37*
G36*
X127226071Y-74031623D02*
G01*
X127258781Y-74036475D01*
X127290857Y-74044509D01*
X127321991Y-74055649D01*
X127351884Y-74069787D01*
X127380247Y-74086787D01*
X127406807Y-74106485D01*
X127431308Y-74128692D01*
X127453515Y-74153193D01*
X127473213Y-74179753D01*
X127490213Y-74208116D01*
X127504351Y-74238009D01*
X127515491Y-74269143D01*
X127523525Y-74301219D01*
X127528377Y-74333929D01*
X127530000Y-74366956D01*
X127530000Y-75493044D01*
X127528377Y-75526071D01*
X127523525Y-75558781D01*
X127515491Y-75590857D01*
X127504351Y-75621991D01*
X127490213Y-75651884D01*
X127473213Y-75680247D01*
X127453515Y-75706807D01*
X127431308Y-75731308D01*
X127406807Y-75753515D01*
X127380247Y-75773213D01*
X127351884Y-75790213D01*
X127321991Y-75804351D01*
X127290857Y-75815491D01*
X127258781Y-75823525D01*
X127226071Y-75828377D01*
X127193044Y-75830000D01*
X126316956Y-75830000D01*
X126283929Y-75828377D01*
X126251219Y-75823525D01*
X126219143Y-75815491D01*
X126188009Y-75804351D01*
X126158116Y-75790213D01*
X126129753Y-75773213D01*
X126103193Y-75753515D01*
X126078692Y-75731308D01*
X126056485Y-75706807D01*
X126036787Y-75680247D01*
X126019787Y-75651884D01*
X126005649Y-75621991D01*
X125994509Y-75590857D01*
X125986475Y-75558781D01*
X125981623Y-75526071D01*
X125980000Y-75493044D01*
X125980000Y-74366956D01*
X125981623Y-74333929D01*
X125986475Y-74301219D01*
X125994509Y-74269143D01*
X126005649Y-74238009D01*
X126019787Y-74208116D01*
X126036787Y-74179753D01*
X126056485Y-74153193D01*
X126078692Y-74128692D01*
X126103193Y-74106485D01*
X126129753Y-74086787D01*
X126158116Y-74069787D01*
X126188009Y-74055649D01*
X126219143Y-74044509D01*
X126251219Y-74036475D01*
X126283929Y-74031623D01*
X126316956Y-74030000D01*
X127193044Y-74030000D01*
X127226071Y-74031623D01*
G37*
G36*
X125176071Y-74031623D02*
G01*
X125208781Y-74036475D01*
X125240857Y-74044509D01*
X125271991Y-74055649D01*
X125301884Y-74069787D01*
X125330247Y-74086787D01*
X125356807Y-74106485D01*
X125381308Y-74128692D01*
X125403515Y-74153193D01*
X125423213Y-74179753D01*
X125440213Y-74208116D01*
X125454351Y-74238009D01*
X125465491Y-74269143D01*
X125473525Y-74301219D01*
X125478377Y-74333929D01*
X125480000Y-74366956D01*
X125480000Y-75493044D01*
X125478377Y-75526071D01*
X125473525Y-75558781D01*
X125465491Y-75590857D01*
X125454351Y-75621991D01*
X125440213Y-75651884D01*
X125423213Y-75680247D01*
X125403515Y-75706807D01*
X125381308Y-75731308D01*
X125356807Y-75753515D01*
X125330247Y-75773213D01*
X125301884Y-75790213D01*
X125271991Y-75804351D01*
X125240857Y-75815491D01*
X125208781Y-75823525D01*
X125176071Y-75828377D01*
X125143044Y-75830000D01*
X124266956Y-75830000D01*
X124233929Y-75828377D01*
X124201219Y-75823525D01*
X124169143Y-75815491D01*
X124138009Y-75804351D01*
X124108116Y-75790213D01*
X124079753Y-75773213D01*
X124053193Y-75753515D01*
X124028692Y-75731308D01*
X124006485Y-75706807D01*
X123986787Y-75680247D01*
X123969787Y-75651884D01*
X123955649Y-75621991D01*
X123944509Y-75590857D01*
X123936475Y-75558781D01*
X123931623Y-75526071D01*
X123930000Y-75493044D01*
X123930000Y-74366956D01*
X123931623Y-74333929D01*
X123936475Y-74301219D01*
X123944509Y-74269143D01*
X123955649Y-74238009D01*
X123969787Y-74208116D01*
X123986787Y-74179753D01*
X124006485Y-74153193D01*
X124028692Y-74128692D01*
X124053193Y-74106485D01*
X124079753Y-74086787D01*
X124108116Y-74069787D01*
X124138009Y-74055649D01*
X124169143Y-74044509D01*
X124201219Y-74036475D01*
X124233929Y-74031623D01*
X124266956Y-74030000D01*
X125143044Y-74030000D01*
X125176071Y-74031623D01*
G37*
G36*
X121246071Y-62481623D02*
G01*
X121278781Y-62486475D01*
X121310857Y-62494509D01*
X121341991Y-62505649D01*
X121371884Y-62519787D01*
X121400247Y-62536787D01*
X121426807Y-62556485D01*
X121451308Y-62578692D01*
X121473515Y-62603193D01*
X121493213Y-62629753D01*
X121510213Y-62658116D01*
X121524351Y-62688009D01*
X121535491Y-62719143D01*
X121543525Y-62751219D01*
X121548377Y-62783929D01*
X121550000Y-62816956D01*
X121550000Y-63693044D01*
X121548377Y-63726071D01*
X121543525Y-63758781D01*
X121535491Y-63790857D01*
X121524351Y-63821991D01*
X121510213Y-63851884D01*
X121493213Y-63880247D01*
X121473515Y-63906807D01*
X121451308Y-63931308D01*
X121426807Y-63953515D01*
X121400247Y-63973213D01*
X121371884Y-63990213D01*
X121341991Y-64004351D01*
X121310857Y-64015491D01*
X121278781Y-64023525D01*
X121246071Y-64028377D01*
X121213044Y-64030000D01*
X120086956Y-64030000D01*
X120053929Y-64028377D01*
X120021219Y-64023525D01*
X119989143Y-64015491D01*
X119958009Y-64004351D01*
X119928116Y-63990213D01*
X119899753Y-63973213D01*
X119873193Y-63953515D01*
X119848692Y-63931308D01*
X119826485Y-63906807D01*
X119806787Y-63880247D01*
X119789787Y-63851884D01*
X119775649Y-63821991D01*
X119764509Y-63790857D01*
X119756475Y-63758781D01*
X119751623Y-63726071D01*
X119750000Y-63693044D01*
X119750000Y-62816956D01*
X119751623Y-62783929D01*
X119756475Y-62751219D01*
X119764509Y-62719143D01*
X119775649Y-62688009D01*
X119789787Y-62658116D01*
X119806787Y-62629753D01*
X119826485Y-62603193D01*
X119848692Y-62578692D01*
X119873193Y-62556485D01*
X119899753Y-62536787D01*
X119928116Y-62519787D01*
X119958009Y-62505649D01*
X119989143Y-62494509D01*
X120021219Y-62486475D01*
X120053929Y-62481623D01*
X120086956Y-62480000D01*
X121213044Y-62480000D01*
X121246071Y-62481623D01*
G37*
G36*
X121246071Y-60431623D02*
G01*
X121278781Y-60436475D01*
X121310857Y-60444509D01*
X121341991Y-60455649D01*
X121371884Y-60469787D01*
X121400247Y-60486787D01*
X121426807Y-60506485D01*
X121451308Y-60528692D01*
X121473515Y-60553193D01*
X121493213Y-60579753D01*
X121510213Y-60608116D01*
X121524351Y-60638009D01*
X121535491Y-60669143D01*
X121543525Y-60701219D01*
X121548377Y-60733929D01*
X121550000Y-60766956D01*
X121550000Y-61643044D01*
X121548377Y-61676071D01*
X121543525Y-61708781D01*
X121535491Y-61740857D01*
X121524351Y-61771991D01*
X121510213Y-61801884D01*
X121493213Y-61830247D01*
X121473515Y-61856807D01*
X121451308Y-61881308D01*
X121426807Y-61903515D01*
X121400247Y-61923213D01*
X121371884Y-61940213D01*
X121341991Y-61954351D01*
X121310857Y-61965491D01*
X121278781Y-61973525D01*
X121246071Y-61978377D01*
X121213044Y-61980000D01*
X120086956Y-61980000D01*
X120053929Y-61978377D01*
X120021219Y-61973525D01*
X119989143Y-61965491D01*
X119958009Y-61954351D01*
X119928116Y-61940213D01*
X119899753Y-61923213D01*
X119873193Y-61903515D01*
X119848692Y-61881308D01*
X119826485Y-61856807D01*
X119806787Y-61830247D01*
X119789787Y-61801884D01*
X119775649Y-61771991D01*
X119764509Y-61740857D01*
X119756475Y-61708781D01*
X119751623Y-61676071D01*
X119750000Y-61643044D01*
X119750000Y-60766956D01*
X119751623Y-60733929D01*
X119756475Y-60701219D01*
X119764509Y-60669143D01*
X119775649Y-60638009D01*
X119789787Y-60608116D01*
X119806787Y-60579753D01*
X119826485Y-60553193D01*
X119848692Y-60528692D01*
X119873193Y-60506485D01*
X119899753Y-60486787D01*
X119928116Y-60469787D01*
X119958009Y-60455649D01*
X119989143Y-60444509D01*
X120021219Y-60436475D01*
X120053929Y-60431623D01*
X120086956Y-60430000D01*
X121213044Y-60430000D01*
X121246071Y-60431623D01*
G37*
G36*
X178026071Y-74031623D02*
G01*
X178058781Y-74036475D01*
X178090857Y-74044509D01*
X178121991Y-74055649D01*
X178151884Y-74069787D01*
X178180247Y-74086787D01*
X178206807Y-74106485D01*
X178231308Y-74128692D01*
X178253515Y-74153193D01*
X178273213Y-74179753D01*
X178290213Y-74208116D01*
X178304351Y-74238009D01*
X178315491Y-74269143D01*
X178323525Y-74301219D01*
X178328377Y-74333929D01*
X178330000Y-74366956D01*
X178330000Y-75493044D01*
X178328377Y-75526071D01*
X178323525Y-75558781D01*
X178315491Y-75590857D01*
X178304351Y-75621991D01*
X178290213Y-75651884D01*
X178273213Y-75680247D01*
X178253515Y-75706807D01*
X178231308Y-75731308D01*
X178206807Y-75753515D01*
X178180247Y-75773213D01*
X178151884Y-75790213D01*
X178121991Y-75804351D01*
X178090857Y-75815491D01*
X178058781Y-75823525D01*
X178026071Y-75828377D01*
X177993044Y-75830000D01*
X177116956Y-75830000D01*
X177083929Y-75828377D01*
X177051219Y-75823525D01*
X177019143Y-75815491D01*
X176988009Y-75804351D01*
X176958116Y-75790213D01*
X176929753Y-75773213D01*
X176903193Y-75753515D01*
X176878692Y-75731308D01*
X176856485Y-75706807D01*
X176836787Y-75680247D01*
X176819787Y-75651884D01*
X176805649Y-75621991D01*
X176794509Y-75590857D01*
X176786475Y-75558781D01*
X176781623Y-75526071D01*
X176780000Y-75493044D01*
X176780000Y-74366956D01*
X176781623Y-74333929D01*
X176786475Y-74301219D01*
X176794509Y-74269143D01*
X176805649Y-74238009D01*
X176819787Y-74208116D01*
X176836787Y-74179753D01*
X176856485Y-74153193D01*
X176878692Y-74128692D01*
X176903193Y-74106485D01*
X176929753Y-74086787D01*
X176958116Y-74069787D01*
X176988009Y-74055649D01*
X177019143Y-74044509D01*
X177051219Y-74036475D01*
X177083929Y-74031623D01*
X177116956Y-74030000D01*
X177993044Y-74030000D01*
X178026071Y-74031623D01*
G37*
G36*
X175976071Y-74031623D02*
G01*
X176008781Y-74036475D01*
X176040857Y-74044509D01*
X176071991Y-74055649D01*
X176101884Y-74069787D01*
X176130247Y-74086787D01*
X176156807Y-74106485D01*
X176181308Y-74128692D01*
X176203515Y-74153193D01*
X176223213Y-74179753D01*
X176240213Y-74208116D01*
X176254351Y-74238009D01*
X176265491Y-74269143D01*
X176273525Y-74301219D01*
X176278377Y-74333929D01*
X176280000Y-74366956D01*
X176280000Y-75493044D01*
X176278377Y-75526071D01*
X176273525Y-75558781D01*
X176265491Y-75590857D01*
X176254351Y-75621991D01*
X176240213Y-75651884D01*
X176223213Y-75680247D01*
X176203515Y-75706807D01*
X176181308Y-75731308D01*
X176156807Y-75753515D01*
X176130247Y-75773213D01*
X176101884Y-75790213D01*
X176071991Y-75804351D01*
X176040857Y-75815491D01*
X176008781Y-75823525D01*
X175976071Y-75828377D01*
X175943044Y-75830000D01*
X175066956Y-75830000D01*
X175033929Y-75828377D01*
X175001219Y-75823525D01*
X174969143Y-75815491D01*
X174938009Y-75804351D01*
X174908116Y-75790213D01*
X174879753Y-75773213D01*
X174853193Y-75753515D01*
X174828692Y-75731308D01*
X174806485Y-75706807D01*
X174786787Y-75680247D01*
X174769787Y-75651884D01*
X174755649Y-75621991D01*
X174744509Y-75590857D01*
X174736475Y-75558781D01*
X174731623Y-75526071D01*
X174730000Y-75493044D01*
X174730000Y-74366956D01*
X174731623Y-74333929D01*
X174736475Y-74301219D01*
X174744509Y-74269143D01*
X174755649Y-74238009D01*
X174769787Y-74208116D01*
X174786787Y-74179753D01*
X174806485Y-74153193D01*
X174828692Y-74128692D01*
X174853193Y-74106485D01*
X174879753Y-74086787D01*
X174908116Y-74069787D01*
X174938009Y-74055649D01*
X174969143Y-74044509D01*
X175001219Y-74036475D01*
X175033929Y-74031623D01*
X175066956Y-74030000D01*
X175943044Y-74030000D01*
X175976071Y-74031623D01*
G37*
G36*
X172046071Y-62481623D02*
G01*
X172078781Y-62486475D01*
X172110857Y-62494509D01*
X172141991Y-62505649D01*
X172171884Y-62519787D01*
X172200247Y-62536787D01*
X172226807Y-62556485D01*
X172251308Y-62578692D01*
X172273515Y-62603193D01*
X172293213Y-62629753D01*
X172310213Y-62658116D01*
X172324351Y-62688009D01*
X172335491Y-62719143D01*
X172343525Y-62751219D01*
X172348377Y-62783929D01*
X172350000Y-62816956D01*
X172350000Y-63693044D01*
X172348377Y-63726071D01*
X172343525Y-63758781D01*
X172335491Y-63790857D01*
X172324351Y-63821991D01*
X172310213Y-63851884D01*
X172293213Y-63880247D01*
X172273515Y-63906807D01*
X172251308Y-63931308D01*
X172226807Y-63953515D01*
X172200247Y-63973213D01*
X172171884Y-63990213D01*
X172141991Y-64004351D01*
X172110857Y-64015491D01*
X172078781Y-64023525D01*
X172046071Y-64028377D01*
X172013044Y-64030000D01*
X170886956Y-64030000D01*
X170853929Y-64028377D01*
X170821219Y-64023525D01*
X170789143Y-64015491D01*
X170758009Y-64004351D01*
X170728116Y-63990213D01*
X170699753Y-63973213D01*
X170673193Y-63953515D01*
X170648692Y-63931308D01*
X170626485Y-63906807D01*
X170606787Y-63880247D01*
X170589787Y-63851884D01*
X170575649Y-63821991D01*
X170564509Y-63790857D01*
X170556475Y-63758781D01*
X170551623Y-63726071D01*
X170550000Y-63693044D01*
X170550000Y-62816956D01*
X170551623Y-62783929D01*
X170556475Y-62751219D01*
X170564509Y-62719143D01*
X170575649Y-62688009D01*
X170589787Y-62658116D01*
X170606787Y-62629753D01*
X170626485Y-62603193D01*
X170648692Y-62578692D01*
X170673193Y-62556485D01*
X170699753Y-62536787D01*
X170728116Y-62519787D01*
X170758009Y-62505649D01*
X170789143Y-62494509D01*
X170821219Y-62486475D01*
X170853929Y-62481623D01*
X170886956Y-62480000D01*
X172013044Y-62480000D01*
X172046071Y-62481623D01*
G37*
G36*
X172046071Y-60431623D02*
G01*
X172078781Y-60436475D01*
X172110857Y-60444509D01*
X172141991Y-60455649D01*
X172171884Y-60469787D01*
X172200247Y-60486787D01*
X172226807Y-60506485D01*
X172251308Y-60528692D01*
X172273515Y-60553193D01*
X172293213Y-60579753D01*
X172310213Y-60608116D01*
X172324351Y-60638009D01*
X172335491Y-60669143D01*
X172343525Y-60701219D01*
X172348377Y-60733929D01*
X172350000Y-60766956D01*
X172350000Y-61643044D01*
X172348377Y-61676071D01*
X172343525Y-61708781D01*
X172335491Y-61740857D01*
X172324351Y-61771991D01*
X172310213Y-61801884D01*
X172293213Y-61830247D01*
X172273515Y-61856807D01*
X172251308Y-61881308D01*
X172226807Y-61903515D01*
X172200247Y-61923213D01*
X172171884Y-61940213D01*
X172141991Y-61954351D01*
X172110857Y-61965491D01*
X172078781Y-61973525D01*
X172046071Y-61978377D01*
X172013044Y-61980000D01*
X170886956Y-61980000D01*
X170853929Y-61978377D01*
X170821219Y-61973525D01*
X170789143Y-61965491D01*
X170758009Y-61954351D01*
X170728116Y-61940213D01*
X170699753Y-61923213D01*
X170673193Y-61903515D01*
X170648692Y-61881308D01*
X170626485Y-61856807D01*
X170606787Y-61830247D01*
X170589787Y-61801884D01*
X170575649Y-61771991D01*
X170564509Y-61740857D01*
X170556475Y-61708781D01*
X170551623Y-61676071D01*
X170550000Y-61643044D01*
X170550000Y-60766956D01*
X170551623Y-60733929D01*
X170556475Y-60701219D01*
X170564509Y-60669143D01*
X170575649Y-60638009D01*
X170589787Y-60608116D01*
X170606787Y-60579753D01*
X170626485Y-60553193D01*
X170648692Y-60528692D01*
X170673193Y-60506485D01*
X170699753Y-60486787D01*
X170728116Y-60469787D01*
X170758009Y-60455649D01*
X170789143Y-60444509D01*
X170821219Y-60436475D01*
X170853929Y-60431623D01*
X170886956Y-60430000D01*
X172013044Y-60430000D01*
X172046071Y-60431623D01*
G37*
G36*
X168236071Y-89641623D02*
G01*
X168268781Y-89646475D01*
X168300857Y-89654509D01*
X168331991Y-89665649D01*
X168361884Y-89679787D01*
X168390247Y-89696787D01*
X168416807Y-89716485D01*
X168441308Y-89738692D01*
X168463515Y-89763193D01*
X168483213Y-89789753D01*
X168500213Y-89818116D01*
X168514351Y-89848009D01*
X168525491Y-89879143D01*
X168533525Y-89911219D01*
X168538377Y-89943929D01*
X168540000Y-89976956D01*
X168540000Y-90853044D01*
X168538377Y-90886071D01*
X168533525Y-90918781D01*
X168525491Y-90950857D01*
X168514351Y-90981991D01*
X168500213Y-91011884D01*
X168483213Y-91040247D01*
X168463515Y-91066807D01*
X168441308Y-91091308D01*
X168416807Y-91113515D01*
X168390247Y-91133213D01*
X168361884Y-91150213D01*
X168331991Y-91164351D01*
X168300857Y-91175491D01*
X168268781Y-91183525D01*
X168236071Y-91188377D01*
X168203044Y-91190000D01*
X167076956Y-91190000D01*
X167043929Y-91188377D01*
X167011219Y-91183525D01*
X166979143Y-91175491D01*
X166948009Y-91164351D01*
X166918116Y-91150213D01*
X166889753Y-91133213D01*
X166863193Y-91113515D01*
X166838692Y-91091308D01*
X166816485Y-91066807D01*
X166796787Y-91040247D01*
X166779787Y-91011884D01*
X166765649Y-90981991D01*
X166754509Y-90950857D01*
X166746475Y-90918781D01*
X166741623Y-90886071D01*
X166740000Y-90853044D01*
X166740000Y-89976956D01*
X166741623Y-89943929D01*
X166746475Y-89911219D01*
X166754509Y-89879143D01*
X166765649Y-89848009D01*
X166779787Y-89818116D01*
X166796787Y-89789753D01*
X166816485Y-89763193D01*
X166838692Y-89738692D01*
X166863193Y-89716485D01*
X166889753Y-89696787D01*
X166918116Y-89679787D01*
X166948009Y-89665649D01*
X166979143Y-89654509D01*
X167011219Y-89646475D01*
X167043929Y-89641623D01*
X167076956Y-89640000D01*
X168203044Y-89640000D01*
X168236071Y-89641623D01*
G37*
G36*
X168236071Y-91691623D02*
G01*
X168268781Y-91696475D01*
X168300857Y-91704509D01*
X168331991Y-91715649D01*
X168361884Y-91729787D01*
X168390247Y-91746787D01*
X168416807Y-91766485D01*
X168441308Y-91788692D01*
X168463515Y-91813193D01*
X168483213Y-91839753D01*
X168500213Y-91868116D01*
X168514351Y-91898009D01*
X168525491Y-91929143D01*
X168533525Y-91961219D01*
X168538377Y-91993929D01*
X168540000Y-92026956D01*
X168540000Y-92903044D01*
X168538377Y-92936071D01*
X168533525Y-92968781D01*
X168525491Y-93000857D01*
X168514351Y-93031991D01*
X168500213Y-93061884D01*
X168483213Y-93090247D01*
X168463515Y-93116807D01*
X168441308Y-93141308D01*
X168416807Y-93163515D01*
X168390247Y-93183213D01*
X168361884Y-93200213D01*
X168331991Y-93214351D01*
X168300857Y-93225491D01*
X168268781Y-93233525D01*
X168236071Y-93238377D01*
X168203044Y-93240000D01*
X167076956Y-93240000D01*
X167043929Y-93238377D01*
X167011219Y-93233525D01*
X166979143Y-93225491D01*
X166948009Y-93214351D01*
X166918116Y-93200213D01*
X166889753Y-93183213D01*
X166863193Y-93163515D01*
X166838692Y-93141308D01*
X166816485Y-93116807D01*
X166796787Y-93090247D01*
X166779787Y-93061884D01*
X166765649Y-93031991D01*
X166754509Y-93000857D01*
X166746475Y-92968781D01*
X166741623Y-92936071D01*
X166740000Y-92903044D01*
X166740000Y-92026956D01*
X166741623Y-91993929D01*
X166746475Y-91961219D01*
X166754509Y-91929143D01*
X166765649Y-91898009D01*
X166779787Y-91868116D01*
X166796787Y-91839753D01*
X166816485Y-91813193D01*
X166838692Y-91788692D01*
X166863193Y-91766485D01*
X166889753Y-91746787D01*
X166918116Y-91729787D01*
X166948009Y-91715649D01*
X166979143Y-91704509D01*
X167011219Y-91696475D01*
X167043929Y-91691623D01*
X167076956Y-91690000D01*
X168203044Y-91690000D01*
X168236071Y-91691623D01*
G37*
G36*
X118706071Y-60431623D02*
G01*
X118738781Y-60436475D01*
X118770857Y-60444509D01*
X118801991Y-60455649D01*
X118831884Y-60469787D01*
X118860247Y-60486787D01*
X118886807Y-60506485D01*
X118911308Y-60528692D01*
X118933515Y-60553193D01*
X118953213Y-60579753D01*
X118970213Y-60608116D01*
X118984351Y-60638009D01*
X118995491Y-60669143D01*
X119003525Y-60701219D01*
X119008377Y-60733929D01*
X119010000Y-60766956D01*
X119010000Y-61643044D01*
X119008377Y-61676071D01*
X119003525Y-61708781D01*
X118995491Y-61740857D01*
X118984351Y-61771991D01*
X118970213Y-61801884D01*
X118953213Y-61830247D01*
X118933515Y-61856807D01*
X118911308Y-61881308D01*
X118886807Y-61903515D01*
X118860247Y-61923213D01*
X118831884Y-61940213D01*
X118801991Y-61954351D01*
X118770857Y-61965491D01*
X118738781Y-61973525D01*
X118706071Y-61978377D01*
X118673044Y-61980000D01*
X117546956Y-61980000D01*
X117513929Y-61978377D01*
X117481219Y-61973525D01*
X117449143Y-61965491D01*
X117418009Y-61954351D01*
X117388116Y-61940213D01*
X117359753Y-61923213D01*
X117333193Y-61903515D01*
X117308692Y-61881308D01*
X117286485Y-61856807D01*
X117266787Y-61830247D01*
X117249787Y-61801884D01*
X117235649Y-61771991D01*
X117224509Y-61740857D01*
X117216475Y-61708781D01*
X117211623Y-61676071D01*
X117210000Y-61643044D01*
X117210000Y-60766956D01*
X117211623Y-60733929D01*
X117216475Y-60701219D01*
X117224509Y-60669143D01*
X117235649Y-60638009D01*
X117249787Y-60608116D01*
X117266787Y-60579753D01*
X117286485Y-60553193D01*
X117308692Y-60528692D01*
X117333193Y-60506485D01*
X117359753Y-60486787D01*
X117388116Y-60469787D01*
X117418009Y-60455649D01*
X117449143Y-60444509D01*
X117481219Y-60436475D01*
X117513929Y-60431623D01*
X117546956Y-60430000D01*
X118673044Y-60430000D01*
X118706071Y-60431623D01*
G37*
G36*
X118706071Y-62481623D02*
G01*
X118738781Y-62486475D01*
X118770857Y-62494509D01*
X118801991Y-62505649D01*
X118831884Y-62519787D01*
X118860247Y-62536787D01*
X118886807Y-62556485D01*
X118911308Y-62578692D01*
X118933515Y-62603193D01*
X118953213Y-62629753D01*
X118970213Y-62658116D01*
X118984351Y-62688009D01*
X118995491Y-62719143D01*
X119003525Y-62751219D01*
X119008377Y-62783929D01*
X119010000Y-62816956D01*
X119010000Y-63693044D01*
X119008377Y-63726071D01*
X119003525Y-63758781D01*
X118995491Y-63790857D01*
X118984351Y-63821991D01*
X118970213Y-63851884D01*
X118953213Y-63880247D01*
X118933515Y-63906807D01*
X118911308Y-63931308D01*
X118886807Y-63953515D01*
X118860247Y-63973213D01*
X118831884Y-63990213D01*
X118801991Y-64004351D01*
X118770857Y-64015491D01*
X118738781Y-64023525D01*
X118706071Y-64028377D01*
X118673044Y-64030000D01*
X117546956Y-64030000D01*
X117513929Y-64028377D01*
X117481219Y-64023525D01*
X117449143Y-64015491D01*
X117418009Y-64004351D01*
X117388116Y-63990213D01*
X117359753Y-63973213D01*
X117333193Y-63953515D01*
X117308692Y-63931308D01*
X117286485Y-63906807D01*
X117266787Y-63880247D01*
X117249787Y-63851884D01*
X117235649Y-63821991D01*
X117224509Y-63790857D01*
X117216475Y-63758781D01*
X117211623Y-63726071D01*
X117210000Y-63693044D01*
X117210000Y-62816956D01*
X117211623Y-62783929D01*
X117216475Y-62751219D01*
X117224509Y-62719143D01*
X117235649Y-62688009D01*
X117249787Y-62658116D01*
X117266787Y-62629753D01*
X117286485Y-62603193D01*
X117308692Y-62578692D01*
X117333193Y-62556485D01*
X117359753Y-62536787D01*
X117388116Y-62519787D01*
X117418009Y-62505649D01*
X117449143Y-62494509D01*
X117481219Y-62486475D01*
X117513929Y-62481623D01*
X117546956Y-62480000D01*
X118673044Y-62480000D01*
X118706071Y-62481623D01*
G37*
G36*
X165326071Y-74031623D02*
G01*
X165358781Y-74036475D01*
X165390857Y-74044509D01*
X165421991Y-74055649D01*
X165451884Y-74069787D01*
X165480247Y-74086787D01*
X165506807Y-74106485D01*
X165531308Y-74128692D01*
X165553515Y-74153193D01*
X165573213Y-74179753D01*
X165590213Y-74208116D01*
X165604351Y-74238009D01*
X165615491Y-74269143D01*
X165623525Y-74301219D01*
X165628377Y-74333929D01*
X165630000Y-74366956D01*
X165630000Y-75493044D01*
X165628377Y-75526071D01*
X165623525Y-75558781D01*
X165615491Y-75590857D01*
X165604351Y-75621991D01*
X165590213Y-75651884D01*
X165573213Y-75680247D01*
X165553515Y-75706807D01*
X165531308Y-75731308D01*
X165506807Y-75753515D01*
X165480247Y-75773213D01*
X165451884Y-75790213D01*
X165421991Y-75804351D01*
X165390857Y-75815491D01*
X165358781Y-75823525D01*
X165326071Y-75828377D01*
X165293044Y-75830000D01*
X164416956Y-75830000D01*
X164383929Y-75828377D01*
X164351219Y-75823525D01*
X164319143Y-75815491D01*
X164288009Y-75804351D01*
X164258116Y-75790213D01*
X164229753Y-75773213D01*
X164203193Y-75753515D01*
X164178692Y-75731308D01*
X164156485Y-75706807D01*
X164136787Y-75680247D01*
X164119787Y-75651884D01*
X164105649Y-75621991D01*
X164094509Y-75590857D01*
X164086475Y-75558781D01*
X164081623Y-75526071D01*
X164080000Y-75493044D01*
X164080000Y-74366956D01*
X164081623Y-74333929D01*
X164086475Y-74301219D01*
X164094509Y-74269143D01*
X164105649Y-74238009D01*
X164119787Y-74208116D01*
X164136787Y-74179753D01*
X164156485Y-74153193D01*
X164178692Y-74128692D01*
X164203193Y-74106485D01*
X164229753Y-74086787D01*
X164258116Y-74069787D01*
X164288009Y-74055649D01*
X164319143Y-74044509D01*
X164351219Y-74036475D01*
X164383929Y-74031623D01*
X164416956Y-74030000D01*
X165293044Y-74030000D01*
X165326071Y-74031623D01*
G37*
G36*
X163276071Y-74031623D02*
G01*
X163308781Y-74036475D01*
X163340857Y-74044509D01*
X163371991Y-74055649D01*
X163401884Y-74069787D01*
X163430247Y-74086787D01*
X163456807Y-74106485D01*
X163481308Y-74128692D01*
X163503515Y-74153193D01*
X163523213Y-74179753D01*
X163540213Y-74208116D01*
X163554351Y-74238009D01*
X163565491Y-74269143D01*
X163573525Y-74301219D01*
X163578377Y-74333929D01*
X163580000Y-74366956D01*
X163580000Y-75493044D01*
X163578377Y-75526071D01*
X163573525Y-75558781D01*
X163565491Y-75590857D01*
X163554351Y-75621991D01*
X163540213Y-75651884D01*
X163523213Y-75680247D01*
X163503515Y-75706807D01*
X163481308Y-75731308D01*
X163456807Y-75753515D01*
X163430247Y-75773213D01*
X163401884Y-75790213D01*
X163371991Y-75804351D01*
X163340857Y-75815491D01*
X163308781Y-75823525D01*
X163276071Y-75828377D01*
X163243044Y-75830000D01*
X162366956Y-75830000D01*
X162333929Y-75828377D01*
X162301219Y-75823525D01*
X162269143Y-75815491D01*
X162238009Y-75804351D01*
X162208116Y-75790213D01*
X162179753Y-75773213D01*
X162153193Y-75753515D01*
X162128692Y-75731308D01*
X162106485Y-75706807D01*
X162086787Y-75680247D01*
X162069787Y-75651884D01*
X162055649Y-75621991D01*
X162044509Y-75590857D01*
X162036475Y-75558781D01*
X162031623Y-75526071D01*
X162030000Y-75493044D01*
X162030000Y-74366956D01*
X162031623Y-74333929D01*
X162036475Y-74301219D01*
X162044509Y-74269143D01*
X162055649Y-74238009D01*
X162069787Y-74208116D01*
X162086787Y-74179753D01*
X162106485Y-74153193D01*
X162128692Y-74128692D01*
X162153193Y-74106485D01*
X162179753Y-74086787D01*
X162208116Y-74069787D01*
X162238009Y-74055649D01*
X162269143Y-74044509D01*
X162301219Y-74036475D01*
X162333929Y-74031623D01*
X162366956Y-74030000D01*
X163243044Y-74030000D01*
X163276071Y-74031623D01*
G37*
G36*
X169506071Y-60431623D02*
G01*
X169538781Y-60436475D01*
X169570857Y-60444509D01*
X169601991Y-60455649D01*
X169631884Y-60469787D01*
X169660247Y-60486787D01*
X169686807Y-60506485D01*
X169711308Y-60528692D01*
X169733515Y-60553193D01*
X169753213Y-60579753D01*
X169770213Y-60608116D01*
X169784351Y-60638009D01*
X169795491Y-60669143D01*
X169803525Y-60701219D01*
X169808377Y-60733929D01*
X169810000Y-60766956D01*
X169810000Y-61643044D01*
X169808377Y-61676071D01*
X169803525Y-61708781D01*
X169795491Y-61740857D01*
X169784351Y-61771991D01*
X169770213Y-61801884D01*
X169753213Y-61830247D01*
X169733515Y-61856807D01*
X169711308Y-61881308D01*
X169686807Y-61903515D01*
X169660247Y-61923213D01*
X169631884Y-61940213D01*
X169601991Y-61954351D01*
X169570857Y-61965491D01*
X169538781Y-61973525D01*
X169506071Y-61978377D01*
X169473044Y-61980000D01*
X168346956Y-61980000D01*
X168313929Y-61978377D01*
X168281219Y-61973525D01*
X168249143Y-61965491D01*
X168218009Y-61954351D01*
X168188116Y-61940213D01*
X168159753Y-61923213D01*
X168133193Y-61903515D01*
X168108692Y-61881308D01*
X168086485Y-61856807D01*
X168066787Y-61830247D01*
X168049787Y-61801884D01*
X168035649Y-61771991D01*
X168024509Y-61740857D01*
X168016475Y-61708781D01*
X168011623Y-61676071D01*
X168010000Y-61643044D01*
X168010000Y-60766956D01*
X168011623Y-60733929D01*
X168016475Y-60701219D01*
X168024509Y-60669143D01*
X168035649Y-60638009D01*
X168049787Y-60608116D01*
X168066787Y-60579753D01*
X168086485Y-60553193D01*
X168108692Y-60528692D01*
X168133193Y-60506485D01*
X168159753Y-60486787D01*
X168188116Y-60469787D01*
X168218009Y-60455649D01*
X168249143Y-60444509D01*
X168281219Y-60436475D01*
X168313929Y-60431623D01*
X168346956Y-60430000D01*
X169473044Y-60430000D01*
X169506071Y-60431623D01*
G37*
G36*
X169506071Y-62481623D02*
G01*
X169538781Y-62486475D01*
X169570857Y-62494509D01*
X169601991Y-62505649D01*
X169631884Y-62519787D01*
X169660247Y-62536787D01*
X169686807Y-62556485D01*
X169711308Y-62578692D01*
X169733515Y-62603193D01*
X169753213Y-62629753D01*
X169770213Y-62658116D01*
X169784351Y-62688009D01*
X169795491Y-62719143D01*
X169803525Y-62751219D01*
X169808377Y-62783929D01*
X169810000Y-62816956D01*
X169810000Y-63693044D01*
X169808377Y-63726071D01*
X169803525Y-63758781D01*
X169795491Y-63790857D01*
X169784351Y-63821991D01*
X169770213Y-63851884D01*
X169753213Y-63880247D01*
X169733515Y-63906807D01*
X169711308Y-63931308D01*
X169686807Y-63953515D01*
X169660247Y-63973213D01*
X169631884Y-63990213D01*
X169601991Y-64004351D01*
X169570857Y-64015491D01*
X169538781Y-64023525D01*
X169506071Y-64028377D01*
X169473044Y-64030000D01*
X168346956Y-64030000D01*
X168313929Y-64028377D01*
X168281219Y-64023525D01*
X168249143Y-64015491D01*
X168218009Y-64004351D01*
X168188116Y-63990213D01*
X168159753Y-63973213D01*
X168133193Y-63953515D01*
X168108692Y-63931308D01*
X168086485Y-63906807D01*
X168066787Y-63880247D01*
X168049787Y-63851884D01*
X168035649Y-63821991D01*
X168024509Y-63790857D01*
X168016475Y-63758781D01*
X168011623Y-63726071D01*
X168010000Y-63693044D01*
X168010000Y-62816956D01*
X168011623Y-62783929D01*
X168016475Y-62751219D01*
X168024509Y-62719143D01*
X168035649Y-62688009D01*
X168049787Y-62658116D01*
X168066787Y-62629753D01*
X168086485Y-62603193D01*
X168108692Y-62578692D01*
X168133193Y-62556485D01*
X168159753Y-62536787D01*
X168188116Y-62519787D01*
X168218009Y-62505649D01*
X168249143Y-62494509D01*
X168281219Y-62486475D01*
X168313929Y-62481623D01*
X168346956Y-62480000D01*
X169473044Y-62480000D01*
X169506071Y-62481623D01*
G37*
G36*
X117436071Y-89641623D02*
G01*
X117468781Y-89646475D01*
X117500857Y-89654509D01*
X117531991Y-89665649D01*
X117561884Y-89679787D01*
X117590247Y-89696787D01*
X117616807Y-89716485D01*
X117641308Y-89738692D01*
X117663515Y-89763193D01*
X117683213Y-89789753D01*
X117700213Y-89818116D01*
X117714351Y-89848009D01*
X117725491Y-89879143D01*
X117733525Y-89911219D01*
X117738377Y-89943929D01*
X117740000Y-89976956D01*
X117740000Y-90853044D01*
X117738377Y-90886071D01*
X117733525Y-90918781D01*
X117725491Y-90950857D01*
X117714351Y-90981991D01*
X117700213Y-91011884D01*
X117683213Y-91040247D01*
X117663515Y-91066807D01*
X117641308Y-91091308D01*
X117616807Y-91113515D01*
X117590247Y-91133213D01*
X117561884Y-91150213D01*
X117531991Y-91164351D01*
X117500857Y-91175491D01*
X117468781Y-91183525D01*
X117436071Y-91188377D01*
X117403044Y-91190000D01*
X116276956Y-91190000D01*
X116243929Y-91188377D01*
X116211219Y-91183525D01*
X116179143Y-91175491D01*
X116148009Y-91164351D01*
X116118116Y-91150213D01*
X116089753Y-91133213D01*
X116063193Y-91113515D01*
X116038692Y-91091308D01*
X116016485Y-91066807D01*
X115996787Y-91040247D01*
X115979787Y-91011884D01*
X115965649Y-90981991D01*
X115954509Y-90950857D01*
X115946475Y-90918781D01*
X115941623Y-90886071D01*
X115940000Y-90853044D01*
X115940000Y-89976956D01*
X115941623Y-89943929D01*
X115946475Y-89911219D01*
X115954509Y-89879143D01*
X115965649Y-89848009D01*
X115979787Y-89818116D01*
X115996787Y-89789753D01*
X116016485Y-89763193D01*
X116038692Y-89738692D01*
X116063193Y-89716485D01*
X116089753Y-89696787D01*
X116118116Y-89679787D01*
X116148009Y-89665649D01*
X116179143Y-89654509D01*
X116211219Y-89646475D01*
X116243929Y-89641623D01*
X116276956Y-89640000D01*
X117403044Y-89640000D01*
X117436071Y-89641623D01*
G37*
G36*
X117436071Y-91691623D02*
G01*
X117468781Y-91696475D01*
X117500857Y-91704509D01*
X117531991Y-91715649D01*
X117561884Y-91729787D01*
X117590247Y-91746787D01*
X117616807Y-91766485D01*
X117641308Y-91788692D01*
X117663515Y-91813193D01*
X117683213Y-91839753D01*
X117700213Y-91868116D01*
X117714351Y-91898009D01*
X117725491Y-91929143D01*
X117733525Y-91961219D01*
X117738377Y-91993929D01*
X117740000Y-92026956D01*
X117740000Y-92903044D01*
X117738377Y-92936071D01*
X117733525Y-92968781D01*
X117725491Y-93000857D01*
X117714351Y-93031991D01*
X117700213Y-93061884D01*
X117683213Y-93090247D01*
X117663515Y-93116807D01*
X117641308Y-93141308D01*
X117616807Y-93163515D01*
X117590247Y-93183213D01*
X117561884Y-93200213D01*
X117531991Y-93214351D01*
X117500857Y-93225491D01*
X117468781Y-93233525D01*
X117436071Y-93238377D01*
X117403044Y-93240000D01*
X116276956Y-93240000D01*
X116243929Y-93238377D01*
X116211219Y-93233525D01*
X116179143Y-93225491D01*
X116148009Y-93214351D01*
X116118116Y-93200213D01*
X116089753Y-93183213D01*
X116063193Y-93163515D01*
X116038692Y-93141308D01*
X116016485Y-93116807D01*
X115996787Y-93090247D01*
X115979787Y-93061884D01*
X115965649Y-93031991D01*
X115954509Y-93000857D01*
X115946475Y-92968781D01*
X115941623Y-92936071D01*
X115940000Y-92903044D01*
X115940000Y-92026956D01*
X115941623Y-91993929D01*
X115946475Y-91961219D01*
X115954509Y-91929143D01*
X115965649Y-91898009D01*
X115979787Y-91868116D01*
X115996787Y-91839753D01*
X116016485Y-91813193D01*
X116038692Y-91788692D01*
X116063193Y-91766485D01*
X116089753Y-91746787D01*
X116118116Y-91729787D01*
X116148009Y-91715649D01*
X116179143Y-91704509D01*
X116211219Y-91696475D01*
X116243929Y-91691623D01*
X116276956Y-91690000D01*
X117403044Y-91690000D01*
X117436071Y-91691623D01*
G37*
G36*
X114526071Y-74031623D02*
G01*
X114558781Y-74036475D01*
X114590857Y-74044509D01*
X114621991Y-74055649D01*
X114651884Y-74069787D01*
X114680247Y-74086787D01*
X114706807Y-74106485D01*
X114731308Y-74128692D01*
X114753515Y-74153193D01*
X114773213Y-74179753D01*
X114790213Y-74208116D01*
X114804351Y-74238009D01*
X114815491Y-74269143D01*
X114823525Y-74301219D01*
X114828377Y-74333929D01*
X114830000Y-74366956D01*
X114830000Y-75493044D01*
X114828377Y-75526071D01*
X114823525Y-75558781D01*
X114815491Y-75590857D01*
X114804351Y-75621991D01*
X114790213Y-75651884D01*
X114773213Y-75680247D01*
X114753515Y-75706807D01*
X114731308Y-75731308D01*
X114706807Y-75753515D01*
X114680247Y-75773213D01*
X114651884Y-75790213D01*
X114621991Y-75804351D01*
X114590857Y-75815491D01*
X114558781Y-75823525D01*
X114526071Y-75828377D01*
X114493044Y-75830000D01*
X113616956Y-75830000D01*
X113583929Y-75828377D01*
X113551219Y-75823525D01*
X113519143Y-75815491D01*
X113488009Y-75804351D01*
X113458116Y-75790213D01*
X113429753Y-75773213D01*
X113403193Y-75753515D01*
X113378692Y-75731308D01*
X113356485Y-75706807D01*
X113336787Y-75680247D01*
X113319787Y-75651884D01*
X113305649Y-75621991D01*
X113294509Y-75590857D01*
X113286475Y-75558781D01*
X113281623Y-75526071D01*
X113280000Y-75493044D01*
X113280000Y-74366956D01*
X113281623Y-74333929D01*
X113286475Y-74301219D01*
X113294509Y-74269143D01*
X113305649Y-74238009D01*
X113319787Y-74208116D01*
X113336787Y-74179753D01*
X113356485Y-74153193D01*
X113378692Y-74128692D01*
X113403193Y-74106485D01*
X113429753Y-74086787D01*
X113458116Y-74069787D01*
X113488009Y-74055649D01*
X113519143Y-74044509D01*
X113551219Y-74036475D01*
X113583929Y-74031623D01*
X113616956Y-74030000D01*
X114493044Y-74030000D01*
X114526071Y-74031623D01*
G37*
G36*
X112476071Y-74031623D02*
G01*
X112508781Y-74036475D01*
X112540857Y-74044509D01*
X112571991Y-74055649D01*
X112601884Y-74069787D01*
X112630247Y-74086787D01*
X112656807Y-74106485D01*
X112681308Y-74128692D01*
X112703515Y-74153193D01*
X112723213Y-74179753D01*
X112740213Y-74208116D01*
X112754351Y-74238009D01*
X112765491Y-74269143D01*
X112773525Y-74301219D01*
X112778377Y-74333929D01*
X112780000Y-74366956D01*
X112780000Y-75493044D01*
X112778377Y-75526071D01*
X112773525Y-75558781D01*
X112765491Y-75590857D01*
X112754351Y-75621991D01*
X112740213Y-75651884D01*
X112723213Y-75680247D01*
X112703515Y-75706807D01*
X112681308Y-75731308D01*
X112656807Y-75753515D01*
X112630247Y-75773213D01*
X112601884Y-75790213D01*
X112571991Y-75804351D01*
X112540857Y-75815491D01*
X112508781Y-75823525D01*
X112476071Y-75828377D01*
X112443044Y-75830000D01*
X111566956Y-75830000D01*
X111533929Y-75828377D01*
X111501219Y-75823525D01*
X111469143Y-75815491D01*
X111438009Y-75804351D01*
X111408116Y-75790213D01*
X111379753Y-75773213D01*
X111353193Y-75753515D01*
X111328692Y-75731308D01*
X111306485Y-75706807D01*
X111286787Y-75680247D01*
X111269787Y-75651884D01*
X111255649Y-75621991D01*
X111244509Y-75590857D01*
X111236475Y-75558781D01*
X111231623Y-75526071D01*
X111230000Y-75493044D01*
X111230000Y-74366956D01*
X111231623Y-74333929D01*
X111236475Y-74301219D01*
X111244509Y-74269143D01*
X111255649Y-74238009D01*
X111269787Y-74208116D01*
X111286787Y-74179753D01*
X111306485Y-74153193D01*
X111328692Y-74128692D01*
X111353193Y-74106485D01*
X111379753Y-74086787D01*
X111408116Y-74069787D01*
X111438009Y-74055649D01*
X111469143Y-74044509D01*
X111501219Y-74036475D01*
X111533929Y-74031623D01*
X111566956Y-74030000D01*
X112443044Y-74030000D01*
X112476071Y-74031623D01*
G37*
D14*
X149860000Y-106680000D03*
X149860000Y-104140000D03*
X147320000Y-106680000D03*
X147320000Y-104140000D03*
X144780000Y-106680000D03*
X144780000Y-104140000D03*
X142240000Y-106680000D03*
X142240000Y-104140000D03*
X139700000Y-106680000D03*
D15*
X139700000Y-104140000D03*
D14*
X157480000Y-139700000D03*
X157480000Y-137160000D03*
X157480000Y-134620000D03*
X157480000Y-132080000D03*
X157480000Y-129540000D03*
X157480000Y-127000000D03*
X157480000Y-124460000D03*
X157480000Y-121920000D03*
X157480000Y-119380000D03*
D15*
X157480000Y-116840000D03*
D14*
X191770000Y-77470000D03*
X191770000Y-74930000D03*
X191770000Y-72390000D03*
X191770000Y-69850000D03*
X191770000Y-67310000D03*
X191770000Y-64770000D03*
X191770000Y-62230000D03*
X191770000Y-59690000D03*
X191770000Y-57150000D03*
X191770000Y-54610000D03*
X191770000Y-52070000D03*
D15*
X191770000Y-49530000D03*
D14*
X132080000Y-139700000D03*
X132080000Y-137160000D03*
X132080000Y-134620000D03*
X132080000Y-132080000D03*
X132080000Y-129540000D03*
X132080000Y-127000000D03*
X132080000Y-124460000D03*
X132080000Y-121920000D03*
X132080000Y-119380000D03*
D15*
X132080000Y-116840000D03*
D14*
X97790000Y-77470000D03*
X97790000Y-74930000D03*
X97790000Y-72390000D03*
X97790000Y-69850000D03*
X97790000Y-67310000D03*
X97790000Y-64770000D03*
X97790000Y-62230000D03*
X97790000Y-59690000D03*
X97790000Y-57150000D03*
X97790000Y-54610000D03*
X97790000Y-52070000D03*
D15*
X97790000Y-49530000D03*
D17*
X154050000Y-86360000D03*
X150750000Y-86360000D03*
X138810000Y-86360000D03*
X135510000Y-86360000D03*
D18*
X140970000Y-91280000D03*
X140970000Y-96680000D03*
X148590000Y-96680000D03*
X148590000Y-91280000D03*
D19*
X144780000Y-49530000D03*
M02*
