G04 #@! TF.GenerationSoftware,KiCad,Pcbnew,(5.1.5)-3*
G04 #@! TF.CreationDate,2020-05-08T06:04:49-05:00*
G04 #@! TF.ProjectId,Miasma_Main_smd,4d696173-6d61-45f4-9d61-696e5f736d64,rev?*
G04 #@! TF.SameCoordinates,Original*
G04 #@! TF.FileFunction,Paste,Bot*
G04 #@! TF.FilePolarity,Positive*
%FSLAX46Y46*%
G04 Gerber Fmt 4.6, Leading zero omitted, Abs format (unit mm)*
G04 Created by KiCad (PCBNEW (5.1.5)-3) date 2020-05-08 06:04:49*
%MOMM*%
%LPD*%
G04 APERTURE LIST*
%ADD10C,0.100000*%
%ADD11R,0.900000X1.200000*%
%ADD12R,1.600000X3.500000*%
G04 APERTURE END LIST*
D10*
G36*
X146524505Y-112701204D02*
G01*
X146548773Y-112704804D01*
X146572572Y-112710765D01*
X146595671Y-112719030D01*
X146617850Y-112729520D01*
X146638893Y-112742132D01*
X146658599Y-112756747D01*
X146676777Y-112773223D01*
X146693253Y-112791401D01*
X146707868Y-112811107D01*
X146720480Y-112832150D01*
X146730970Y-112854329D01*
X146739235Y-112877428D01*
X146745196Y-112901227D01*
X146748796Y-112925495D01*
X146750000Y-112949999D01*
X146750000Y-113600001D01*
X146748796Y-113624505D01*
X146745196Y-113648773D01*
X146739235Y-113672572D01*
X146730970Y-113695671D01*
X146720480Y-113717850D01*
X146707868Y-113738893D01*
X146693253Y-113758599D01*
X146676777Y-113776777D01*
X146658599Y-113793253D01*
X146638893Y-113807868D01*
X146617850Y-113820480D01*
X146595671Y-113830970D01*
X146572572Y-113839235D01*
X146548773Y-113845196D01*
X146524505Y-113848796D01*
X146500001Y-113850000D01*
X145599999Y-113850000D01*
X145575495Y-113848796D01*
X145551227Y-113845196D01*
X145527428Y-113839235D01*
X145504329Y-113830970D01*
X145482150Y-113820480D01*
X145461107Y-113807868D01*
X145441401Y-113793253D01*
X145423223Y-113776777D01*
X145406747Y-113758599D01*
X145392132Y-113738893D01*
X145379520Y-113717850D01*
X145369030Y-113695671D01*
X145360765Y-113672572D01*
X145354804Y-113648773D01*
X145351204Y-113624505D01*
X145350000Y-113600001D01*
X145350000Y-112949999D01*
X145351204Y-112925495D01*
X145354804Y-112901227D01*
X145360765Y-112877428D01*
X145369030Y-112854329D01*
X145379520Y-112832150D01*
X145392132Y-112811107D01*
X145406747Y-112791401D01*
X145423223Y-112773223D01*
X145441401Y-112756747D01*
X145461107Y-112742132D01*
X145482150Y-112729520D01*
X145504329Y-112719030D01*
X145527428Y-112710765D01*
X145551227Y-112704804D01*
X145575495Y-112701204D01*
X145599999Y-112700000D01*
X146500001Y-112700000D01*
X146524505Y-112701204D01*
G37*
G36*
X146524505Y-114751204D02*
G01*
X146548773Y-114754804D01*
X146572572Y-114760765D01*
X146595671Y-114769030D01*
X146617850Y-114779520D01*
X146638893Y-114792132D01*
X146658599Y-114806747D01*
X146676777Y-114823223D01*
X146693253Y-114841401D01*
X146707868Y-114861107D01*
X146720480Y-114882150D01*
X146730970Y-114904329D01*
X146739235Y-114927428D01*
X146745196Y-114951227D01*
X146748796Y-114975495D01*
X146750000Y-114999999D01*
X146750000Y-115650001D01*
X146748796Y-115674505D01*
X146745196Y-115698773D01*
X146739235Y-115722572D01*
X146730970Y-115745671D01*
X146720480Y-115767850D01*
X146707868Y-115788893D01*
X146693253Y-115808599D01*
X146676777Y-115826777D01*
X146658599Y-115843253D01*
X146638893Y-115857868D01*
X146617850Y-115870480D01*
X146595671Y-115880970D01*
X146572572Y-115889235D01*
X146548773Y-115895196D01*
X146524505Y-115898796D01*
X146500001Y-115900000D01*
X145599999Y-115900000D01*
X145575495Y-115898796D01*
X145551227Y-115895196D01*
X145527428Y-115889235D01*
X145504329Y-115880970D01*
X145482150Y-115870480D01*
X145461107Y-115857868D01*
X145441401Y-115843253D01*
X145423223Y-115826777D01*
X145406747Y-115808599D01*
X145392132Y-115788893D01*
X145379520Y-115767850D01*
X145369030Y-115745671D01*
X145360765Y-115722572D01*
X145354804Y-115698773D01*
X145351204Y-115674505D01*
X145350000Y-115650001D01*
X145350000Y-114999999D01*
X145351204Y-114975495D01*
X145354804Y-114951227D01*
X145360765Y-114927428D01*
X145369030Y-114904329D01*
X145379520Y-114882150D01*
X145392132Y-114861107D01*
X145406747Y-114841401D01*
X145423223Y-114823223D01*
X145441401Y-114806747D01*
X145461107Y-114792132D01*
X145482150Y-114779520D01*
X145504329Y-114769030D01*
X145527428Y-114760765D01*
X145551227Y-114754804D01*
X145575495Y-114751204D01*
X145599999Y-114750000D01*
X146500001Y-114750000D01*
X146524505Y-114751204D01*
G37*
G36*
X143984505Y-114751204D02*
G01*
X144008773Y-114754804D01*
X144032572Y-114760765D01*
X144055671Y-114769030D01*
X144077850Y-114779520D01*
X144098893Y-114792132D01*
X144118599Y-114806747D01*
X144136777Y-114823223D01*
X144153253Y-114841401D01*
X144167868Y-114861107D01*
X144180480Y-114882150D01*
X144190970Y-114904329D01*
X144199235Y-114927428D01*
X144205196Y-114951227D01*
X144208796Y-114975495D01*
X144210000Y-114999999D01*
X144210000Y-115650001D01*
X144208796Y-115674505D01*
X144205196Y-115698773D01*
X144199235Y-115722572D01*
X144190970Y-115745671D01*
X144180480Y-115767850D01*
X144167868Y-115788893D01*
X144153253Y-115808599D01*
X144136777Y-115826777D01*
X144118599Y-115843253D01*
X144098893Y-115857868D01*
X144077850Y-115870480D01*
X144055671Y-115880970D01*
X144032572Y-115889235D01*
X144008773Y-115895196D01*
X143984505Y-115898796D01*
X143960001Y-115900000D01*
X143059999Y-115900000D01*
X143035495Y-115898796D01*
X143011227Y-115895196D01*
X142987428Y-115889235D01*
X142964329Y-115880970D01*
X142942150Y-115870480D01*
X142921107Y-115857868D01*
X142901401Y-115843253D01*
X142883223Y-115826777D01*
X142866747Y-115808599D01*
X142852132Y-115788893D01*
X142839520Y-115767850D01*
X142829030Y-115745671D01*
X142820765Y-115722572D01*
X142814804Y-115698773D01*
X142811204Y-115674505D01*
X142810000Y-115650001D01*
X142810000Y-114999999D01*
X142811204Y-114975495D01*
X142814804Y-114951227D01*
X142820765Y-114927428D01*
X142829030Y-114904329D01*
X142839520Y-114882150D01*
X142852132Y-114861107D01*
X142866747Y-114841401D01*
X142883223Y-114823223D01*
X142901401Y-114806747D01*
X142921107Y-114792132D01*
X142942150Y-114779520D01*
X142964329Y-114769030D01*
X142987428Y-114760765D01*
X143011227Y-114754804D01*
X143035495Y-114751204D01*
X143059999Y-114750000D01*
X143960001Y-114750000D01*
X143984505Y-114751204D01*
G37*
G36*
X143984505Y-112701204D02*
G01*
X144008773Y-112704804D01*
X144032572Y-112710765D01*
X144055671Y-112719030D01*
X144077850Y-112729520D01*
X144098893Y-112742132D01*
X144118599Y-112756747D01*
X144136777Y-112773223D01*
X144153253Y-112791401D01*
X144167868Y-112811107D01*
X144180480Y-112832150D01*
X144190970Y-112854329D01*
X144199235Y-112877428D01*
X144205196Y-112901227D01*
X144208796Y-112925495D01*
X144210000Y-112949999D01*
X144210000Y-113600001D01*
X144208796Y-113624505D01*
X144205196Y-113648773D01*
X144199235Y-113672572D01*
X144190970Y-113695671D01*
X144180480Y-113717850D01*
X144167868Y-113738893D01*
X144153253Y-113758599D01*
X144136777Y-113776777D01*
X144118599Y-113793253D01*
X144098893Y-113807868D01*
X144077850Y-113820480D01*
X144055671Y-113830970D01*
X144032572Y-113839235D01*
X144008773Y-113845196D01*
X143984505Y-113848796D01*
X143960001Y-113850000D01*
X143059999Y-113850000D01*
X143035495Y-113848796D01*
X143011227Y-113845196D01*
X142987428Y-113839235D01*
X142964329Y-113830970D01*
X142942150Y-113820480D01*
X142921107Y-113807868D01*
X142901401Y-113793253D01*
X142883223Y-113776777D01*
X142866747Y-113758599D01*
X142852132Y-113738893D01*
X142839520Y-113717850D01*
X142829030Y-113695671D01*
X142820765Y-113672572D01*
X142814804Y-113648773D01*
X142811204Y-113624505D01*
X142810000Y-113600001D01*
X142810000Y-112949999D01*
X142811204Y-112925495D01*
X142814804Y-112901227D01*
X142820765Y-112877428D01*
X142829030Y-112854329D01*
X142839520Y-112832150D01*
X142852132Y-112811107D01*
X142866747Y-112791401D01*
X142883223Y-112773223D01*
X142901401Y-112756747D01*
X142921107Y-112742132D01*
X142942150Y-112729520D01*
X142964329Y-112719030D01*
X142987428Y-112710765D01*
X143011227Y-112704804D01*
X143035495Y-112701204D01*
X143059999Y-112700000D01*
X143960001Y-112700000D01*
X143984505Y-112701204D01*
G37*
G36*
X122394505Y-91891204D02*
G01*
X122418773Y-91894804D01*
X122442572Y-91900765D01*
X122465671Y-91909030D01*
X122487850Y-91919520D01*
X122508893Y-91932132D01*
X122528599Y-91946747D01*
X122546777Y-91963223D01*
X122563253Y-91981401D01*
X122577868Y-92001107D01*
X122590480Y-92022150D01*
X122600970Y-92044329D01*
X122609235Y-92067428D01*
X122615196Y-92091227D01*
X122618796Y-92115495D01*
X122620000Y-92139999D01*
X122620000Y-92790001D01*
X122618796Y-92814505D01*
X122615196Y-92838773D01*
X122609235Y-92862572D01*
X122600970Y-92885671D01*
X122590480Y-92907850D01*
X122577868Y-92928893D01*
X122563253Y-92948599D01*
X122546777Y-92966777D01*
X122528599Y-92983253D01*
X122508893Y-92997868D01*
X122487850Y-93010480D01*
X122465671Y-93020970D01*
X122442572Y-93029235D01*
X122418773Y-93035196D01*
X122394505Y-93038796D01*
X122370001Y-93040000D01*
X121469999Y-93040000D01*
X121445495Y-93038796D01*
X121421227Y-93035196D01*
X121397428Y-93029235D01*
X121374329Y-93020970D01*
X121352150Y-93010480D01*
X121331107Y-92997868D01*
X121311401Y-92983253D01*
X121293223Y-92966777D01*
X121276747Y-92948599D01*
X121262132Y-92928893D01*
X121249520Y-92907850D01*
X121239030Y-92885671D01*
X121230765Y-92862572D01*
X121224804Y-92838773D01*
X121221204Y-92814505D01*
X121220000Y-92790001D01*
X121220000Y-92139999D01*
X121221204Y-92115495D01*
X121224804Y-92091227D01*
X121230765Y-92067428D01*
X121239030Y-92044329D01*
X121249520Y-92022150D01*
X121262132Y-92001107D01*
X121276747Y-91981401D01*
X121293223Y-91963223D01*
X121311401Y-91946747D01*
X121331107Y-91932132D01*
X121352150Y-91919520D01*
X121374329Y-91909030D01*
X121397428Y-91900765D01*
X121421227Y-91894804D01*
X121445495Y-91891204D01*
X121469999Y-91890000D01*
X122370001Y-91890000D01*
X122394505Y-91891204D01*
G37*
G36*
X122394505Y-89841204D02*
G01*
X122418773Y-89844804D01*
X122442572Y-89850765D01*
X122465671Y-89859030D01*
X122487850Y-89869520D01*
X122508893Y-89882132D01*
X122528599Y-89896747D01*
X122546777Y-89913223D01*
X122563253Y-89931401D01*
X122577868Y-89951107D01*
X122590480Y-89972150D01*
X122600970Y-89994329D01*
X122609235Y-90017428D01*
X122615196Y-90041227D01*
X122618796Y-90065495D01*
X122620000Y-90089999D01*
X122620000Y-90740001D01*
X122618796Y-90764505D01*
X122615196Y-90788773D01*
X122609235Y-90812572D01*
X122600970Y-90835671D01*
X122590480Y-90857850D01*
X122577868Y-90878893D01*
X122563253Y-90898599D01*
X122546777Y-90916777D01*
X122528599Y-90933253D01*
X122508893Y-90947868D01*
X122487850Y-90960480D01*
X122465671Y-90970970D01*
X122442572Y-90979235D01*
X122418773Y-90985196D01*
X122394505Y-90988796D01*
X122370001Y-90990000D01*
X121469999Y-90990000D01*
X121445495Y-90988796D01*
X121421227Y-90985196D01*
X121397428Y-90979235D01*
X121374329Y-90970970D01*
X121352150Y-90960480D01*
X121331107Y-90947868D01*
X121311401Y-90933253D01*
X121293223Y-90916777D01*
X121276747Y-90898599D01*
X121262132Y-90878893D01*
X121249520Y-90857850D01*
X121239030Y-90835671D01*
X121230765Y-90812572D01*
X121224804Y-90788773D01*
X121221204Y-90764505D01*
X121220000Y-90740001D01*
X121220000Y-90089999D01*
X121221204Y-90065495D01*
X121224804Y-90041227D01*
X121230765Y-90017428D01*
X121239030Y-89994329D01*
X121249520Y-89972150D01*
X121262132Y-89951107D01*
X121276747Y-89931401D01*
X121293223Y-89913223D01*
X121311401Y-89896747D01*
X121331107Y-89882132D01*
X121352150Y-89869520D01*
X121374329Y-89859030D01*
X121397428Y-89850765D01*
X121421227Y-89844804D01*
X121445495Y-89841204D01*
X121469999Y-89840000D01*
X122370001Y-89840000D01*
X122394505Y-89841204D01*
G37*
G36*
X173194505Y-91891204D02*
G01*
X173218773Y-91894804D01*
X173242572Y-91900765D01*
X173265671Y-91909030D01*
X173287850Y-91919520D01*
X173308893Y-91932132D01*
X173328599Y-91946747D01*
X173346777Y-91963223D01*
X173363253Y-91981401D01*
X173377868Y-92001107D01*
X173390480Y-92022150D01*
X173400970Y-92044329D01*
X173409235Y-92067428D01*
X173415196Y-92091227D01*
X173418796Y-92115495D01*
X173420000Y-92139999D01*
X173420000Y-92790001D01*
X173418796Y-92814505D01*
X173415196Y-92838773D01*
X173409235Y-92862572D01*
X173400970Y-92885671D01*
X173390480Y-92907850D01*
X173377868Y-92928893D01*
X173363253Y-92948599D01*
X173346777Y-92966777D01*
X173328599Y-92983253D01*
X173308893Y-92997868D01*
X173287850Y-93010480D01*
X173265671Y-93020970D01*
X173242572Y-93029235D01*
X173218773Y-93035196D01*
X173194505Y-93038796D01*
X173170001Y-93040000D01*
X172269999Y-93040000D01*
X172245495Y-93038796D01*
X172221227Y-93035196D01*
X172197428Y-93029235D01*
X172174329Y-93020970D01*
X172152150Y-93010480D01*
X172131107Y-92997868D01*
X172111401Y-92983253D01*
X172093223Y-92966777D01*
X172076747Y-92948599D01*
X172062132Y-92928893D01*
X172049520Y-92907850D01*
X172039030Y-92885671D01*
X172030765Y-92862572D01*
X172024804Y-92838773D01*
X172021204Y-92814505D01*
X172020000Y-92790001D01*
X172020000Y-92139999D01*
X172021204Y-92115495D01*
X172024804Y-92091227D01*
X172030765Y-92067428D01*
X172039030Y-92044329D01*
X172049520Y-92022150D01*
X172062132Y-92001107D01*
X172076747Y-91981401D01*
X172093223Y-91963223D01*
X172111401Y-91946747D01*
X172131107Y-91932132D01*
X172152150Y-91919520D01*
X172174329Y-91909030D01*
X172197428Y-91900765D01*
X172221227Y-91894804D01*
X172245495Y-91891204D01*
X172269999Y-91890000D01*
X173170001Y-91890000D01*
X173194505Y-91891204D01*
G37*
G36*
X173194505Y-89841204D02*
G01*
X173218773Y-89844804D01*
X173242572Y-89850765D01*
X173265671Y-89859030D01*
X173287850Y-89869520D01*
X173308893Y-89882132D01*
X173328599Y-89896747D01*
X173346777Y-89913223D01*
X173363253Y-89931401D01*
X173377868Y-89951107D01*
X173390480Y-89972150D01*
X173400970Y-89994329D01*
X173409235Y-90017428D01*
X173415196Y-90041227D01*
X173418796Y-90065495D01*
X173420000Y-90089999D01*
X173420000Y-90740001D01*
X173418796Y-90764505D01*
X173415196Y-90788773D01*
X173409235Y-90812572D01*
X173400970Y-90835671D01*
X173390480Y-90857850D01*
X173377868Y-90878893D01*
X173363253Y-90898599D01*
X173346777Y-90916777D01*
X173328599Y-90933253D01*
X173308893Y-90947868D01*
X173287850Y-90960480D01*
X173265671Y-90970970D01*
X173242572Y-90979235D01*
X173218773Y-90985196D01*
X173194505Y-90988796D01*
X173170001Y-90990000D01*
X172269999Y-90990000D01*
X172245495Y-90988796D01*
X172221227Y-90985196D01*
X172197428Y-90979235D01*
X172174329Y-90970970D01*
X172152150Y-90960480D01*
X172131107Y-90947868D01*
X172111401Y-90933253D01*
X172093223Y-90916777D01*
X172076747Y-90898599D01*
X172062132Y-90878893D01*
X172049520Y-90857850D01*
X172039030Y-90835671D01*
X172030765Y-90812572D01*
X172024804Y-90788773D01*
X172021204Y-90764505D01*
X172020000Y-90740001D01*
X172020000Y-90089999D01*
X172021204Y-90065495D01*
X172024804Y-90041227D01*
X172030765Y-90017428D01*
X172039030Y-89994329D01*
X172049520Y-89972150D01*
X172062132Y-89951107D01*
X172076747Y-89931401D01*
X172093223Y-89913223D01*
X172111401Y-89896747D01*
X172131107Y-89882132D01*
X172152150Y-89869520D01*
X172174329Y-89859030D01*
X172197428Y-89850765D01*
X172221227Y-89844804D01*
X172245495Y-89841204D01*
X172269999Y-89840000D01*
X173170001Y-89840000D01*
X173194505Y-89841204D01*
G37*
G36*
X127104505Y-74231204D02*
G01*
X127128773Y-74234804D01*
X127152572Y-74240765D01*
X127175671Y-74249030D01*
X127197850Y-74259520D01*
X127218893Y-74272132D01*
X127238599Y-74286747D01*
X127256777Y-74303223D01*
X127273253Y-74321401D01*
X127287868Y-74341107D01*
X127300480Y-74362150D01*
X127310970Y-74384329D01*
X127319235Y-74407428D01*
X127325196Y-74431227D01*
X127328796Y-74455495D01*
X127330000Y-74479999D01*
X127330000Y-75380001D01*
X127328796Y-75404505D01*
X127325196Y-75428773D01*
X127319235Y-75452572D01*
X127310970Y-75475671D01*
X127300480Y-75497850D01*
X127287868Y-75518893D01*
X127273253Y-75538599D01*
X127256777Y-75556777D01*
X127238599Y-75573253D01*
X127218893Y-75587868D01*
X127197850Y-75600480D01*
X127175671Y-75610970D01*
X127152572Y-75619235D01*
X127128773Y-75625196D01*
X127104505Y-75628796D01*
X127080001Y-75630000D01*
X126429999Y-75630000D01*
X126405495Y-75628796D01*
X126381227Y-75625196D01*
X126357428Y-75619235D01*
X126334329Y-75610970D01*
X126312150Y-75600480D01*
X126291107Y-75587868D01*
X126271401Y-75573253D01*
X126253223Y-75556777D01*
X126236747Y-75538599D01*
X126222132Y-75518893D01*
X126209520Y-75497850D01*
X126199030Y-75475671D01*
X126190765Y-75452572D01*
X126184804Y-75428773D01*
X126181204Y-75404505D01*
X126180000Y-75380001D01*
X126180000Y-74479999D01*
X126181204Y-74455495D01*
X126184804Y-74431227D01*
X126190765Y-74407428D01*
X126199030Y-74384329D01*
X126209520Y-74362150D01*
X126222132Y-74341107D01*
X126236747Y-74321401D01*
X126253223Y-74303223D01*
X126271401Y-74286747D01*
X126291107Y-74272132D01*
X126312150Y-74259520D01*
X126334329Y-74249030D01*
X126357428Y-74240765D01*
X126381227Y-74234804D01*
X126405495Y-74231204D01*
X126429999Y-74230000D01*
X127080001Y-74230000D01*
X127104505Y-74231204D01*
G37*
G36*
X125054505Y-74231204D02*
G01*
X125078773Y-74234804D01*
X125102572Y-74240765D01*
X125125671Y-74249030D01*
X125147850Y-74259520D01*
X125168893Y-74272132D01*
X125188599Y-74286747D01*
X125206777Y-74303223D01*
X125223253Y-74321401D01*
X125237868Y-74341107D01*
X125250480Y-74362150D01*
X125260970Y-74384329D01*
X125269235Y-74407428D01*
X125275196Y-74431227D01*
X125278796Y-74455495D01*
X125280000Y-74479999D01*
X125280000Y-75380001D01*
X125278796Y-75404505D01*
X125275196Y-75428773D01*
X125269235Y-75452572D01*
X125260970Y-75475671D01*
X125250480Y-75497850D01*
X125237868Y-75518893D01*
X125223253Y-75538599D01*
X125206777Y-75556777D01*
X125188599Y-75573253D01*
X125168893Y-75587868D01*
X125147850Y-75600480D01*
X125125671Y-75610970D01*
X125102572Y-75619235D01*
X125078773Y-75625196D01*
X125054505Y-75628796D01*
X125030001Y-75630000D01*
X124379999Y-75630000D01*
X124355495Y-75628796D01*
X124331227Y-75625196D01*
X124307428Y-75619235D01*
X124284329Y-75610970D01*
X124262150Y-75600480D01*
X124241107Y-75587868D01*
X124221401Y-75573253D01*
X124203223Y-75556777D01*
X124186747Y-75538599D01*
X124172132Y-75518893D01*
X124159520Y-75497850D01*
X124149030Y-75475671D01*
X124140765Y-75452572D01*
X124134804Y-75428773D01*
X124131204Y-75404505D01*
X124130000Y-75380001D01*
X124130000Y-74479999D01*
X124131204Y-74455495D01*
X124134804Y-74431227D01*
X124140765Y-74407428D01*
X124149030Y-74384329D01*
X124159520Y-74362150D01*
X124172132Y-74341107D01*
X124186747Y-74321401D01*
X124203223Y-74303223D01*
X124221401Y-74286747D01*
X124241107Y-74272132D01*
X124262150Y-74259520D01*
X124284329Y-74249030D01*
X124307428Y-74240765D01*
X124331227Y-74234804D01*
X124355495Y-74231204D01*
X124379999Y-74230000D01*
X125030001Y-74230000D01*
X125054505Y-74231204D01*
G37*
G36*
X121124505Y-62681204D02*
G01*
X121148773Y-62684804D01*
X121172572Y-62690765D01*
X121195671Y-62699030D01*
X121217850Y-62709520D01*
X121238893Y-62722132D01*
X121258599Y-62736747D01*
X121276777Y-62753223D01*
X121293253Y-62771401D01*
X121307868Y-62791107D01*
X121320480Y-62812150D01*
X121330970Y-62834329D01*
X121339235Y-62857428D01*
X121345196Y-62881227D01*
X121348796Y-62905495D01*
X121350000Y-62929999D01*
X121350000Y-63580001D01*
X121348796Y-63604505D01*
X121345196Y-63628773D01*
X121339235Y-63652572D01*
X121330970Y-63675671D01*
X121320480Y-63697850D01*
X121307868Y-63718893D01*
X121293253Y-63738599D01*
X121276777Y-63756777D01*
X121258599Y-63773253D01*
X121238893Y-63787868D01*
X121217850Y-63800480D01*
X121195671Y-63810970D01*
X121172572Y-63819235D01*
X121148773Y-63825196D01*
X121124505Y-63828796D01*
X121100001Y-63830000D01*
X120199999Y-63830000D01*
X120175495Y-63828796D01*
X120151227Y-63825196D01*
X120127428Y-63819235D01*
X120104329Y-63810970D01*
X120082150Y-63800480D01*
X120061107Y-63787868D01*
X120041401Y-63773253D01*
X120023223Y-63756777D01*
X120006747Y-63738599D01*
X119992132Y-63718893D01*
X119979520Y-63697850D01*
X119969030Y-63675671D01*
X119960765Y-63652572D01*
X119954804Y-63628773D01*
X119951204Y-63604505D01*
X119950000Y-63580001D01*
X119950000Y-62929999D01*
X119951204Y-62905495D01*
X119954804Y-62881227D01*
X119960765Y-62857428D01*
X119969030Y-62834329D01*
X119979520Y-62812150D01*
X119992132Y-62791107D01*
X120006747Y-62771401D01*
X120023223Y-62753223D01*
X120041401Y-62736747D01*
X120061107Y-62722132D01*
X120082150Y-62709520D01*
X120104329Y-62699030D01*
X120127428Y-62690765D01*
X120151227Y-62684804D01*
X120175495Y-62681204D01*
X120199999Y-62680000D01*
X121100001Y-62680000D01*
X121124505Y-62681204D01*
G37*
G36*
X121124505Y-60631204D02*
G01*
X121148773Y-60634804D01*
X121172572Y-60640765D01*
X121195671Y-60649030D01*
X121217850Y-60659520D01*
X121238893Y-60672132D01*
X121258599Y-60686747D01*
X121276777Y-60703223D01*
X121293253Y-60721401D01*
X121307868Y-60741107D01*
X121320480Y-60762150D01*
X121330970Y-60784329D01*
X121339235Y-60807428D01*
X121345196Y-60831227D01*
X121348796Y-60855495D01*
X121350000Y-60879999D01*
X121350000Y-61530001D01*
X121348796Y-61554505D01*
X121345196Y-61578773D01*
X121339235Y-61602572D01*
X121330970Y-61625671D01*
X121320480Y-61647850D01*
X121307868Y-61668893D01*
X121293253Y-61688599D01*
X121276777Y-61706777D01*
X121258599Y-61723253D01*
X121238893Y-61737868D01*
X121217850Y-61750480D01*
X121195671Y-61760970D01*
X121172572Y-61769235D01*
X121148773Y-61775196D01*
X121124505Y-61778796D01*
X121100001Y-61780000D01*
X120199999Y-61780000D01*
X120175495Y-61778796D01*
X120151227Y-61775196D01*
X120127428Y-61769235D01*
X120104329Y-61760970D01*
X120082150Y-61750480D01*
X120061107Y-61737868D01*
X120041401Y-61723253D01*
X120023223Y-61706777D01*
X120006747Y-61688599D01*
X119992132Y-61668893D01*
X119979520Y-61647850D01*
X119969030Y-61625671D01*
X119960765Y-61602572D01*
X119954804Y-61578773D01*
X119951204Y-61554505D01*
X119950000Y-61530001D01*
X119950000Y-60879999D01*
X119951204Y-60855495D01*
X119954804Y-60831227D01*
X119960765Y-60807428D01*
X119969030Y-60784329D01*
X119979520Y-60762150D01*
X119992132Y-60741107D01*
X120006747Y-60721401D01*
X120023223Y-60703223D01*
X120041401Y-60686747D01*
X120061107Y-60672132D01*
X120082150Y-60659520D01*
X120104329Y-60649030D01*
X120127428Y-60640765D01*
X120151227Y-60634804D01*
X120175495Y-60631204D01*
X120199999Y-60630000D01*
X121100001Y-60630000D01*
X121124505Y-60631204D01*
G37*
G36*
X177904505Y-74231204D02*
G01*
X177928773Y-74234804D01*
X177952572Y-74240765D01*
X177975671Y-74249030D01*
X177997850Y-74259520D01*
X178018893Y-74272132D01*
X178038599Y-74286747D01*
X178056777Y-74303223D01*
X178073253Y-74321401D01*
X178087868Y-74341107D01*
X178100480Y-74362150D01*
X178110970Y-74384329D01*
X178119235Y-74407428D01*
X178125196Y-74431227D01*
X178128796Y-74455495D01*
X178130000Y-74479999D01*
X178130000Y-75380001D01*
X178128796Y-75404505D01*
X178125196Y-75428773D01*
X178119235Y-75452572D01*
X178110970Y-75475671D01*
X178100480Y-75497850D01*
X178087868Y-75518893D01*
X178073253Y-75538599D01*
X178056777Y-75556777D01*
X178038599Y-75573253D01*
X178018893Y-75587868D01*
X177997850Y-75600480D01*
X177975671Y-75610970D01*
X177952572Y-75619235D01*
X177928773Y-75625196D01*
X177904505Y-75628796D01*
X177880001Y-75630000D01*
X177229999Y-75630000D01*
X177205495Y-75628796D01*
X177181227Y-75625196D01*
X177157428Y-75619235D01*
X177134329Y-75610970D01*
X177112150Y-75600480D01*
X177091107Y-75587868D01*
X177071401Y-75573253D01*
X177053223Y-75556777D01*
X177036747Y-75538599D01*
X177022132Y-75518893D01*
X177009520Y-75497850D01*
X176999030Y-75475671D01*
X176990765Y-75452572D01*
X176984804Y-75428773D01*
X176981204Y-75404505D01*
X176980000Y-75380001D01*
X176980000Y-74479999D01*
X176981204Y-74455495D01*
X176984804Y-74431227D01*
X176990765Y-74407428D01*
X176999030Y-74384329D01*
X177009520Y-74362150D01*
X177022132Y-74341107D01*
X177036747Y-74321401D01*
X177053223Y-74303223D01*
X177071401Y-74286747D01*
X177091107Y-74272132D01*
X177112150Y-74259520D01*
X177134329Y-74249030D01*
X177157428Y-74240765D01*
X177181227Y-74234804D01*
X177205495Y-74231204D01*
X177229999Y-74230000D01*
X177880001Y-74230000D01*
X177904505Y-74231204D01*
G37*
G36*
X175854505Y-74231204D02*
G01*
X175878773Y-74234804D01*
X175902572Y-74240765D01*
X175925671Y-74249030D01*
X175947850Y-74259520D01*
X175968893Y-74272132D01*
X175988599Y-74286747D01*
X176006777Y-74303223D01*
X176023253Y-74321401D01*
X176037868Y-74341107D01*
X176050480Y-74362150D01*
X176060970Y-74384329D01*
X176069235Y-74407428D01*
X176075196Y-74431227D01*
X176078796Y-74455495D01*
X176080000Y-74479999D01*
X176080000Y-75380001D01*
X176078796Y-75404505D01*
X176075196Y-75428773D01*
X176069235Y-75452572D01*
X176060970Y-75475671D01*
X176050480Y-75497850D01*
X176037868Y-75518893D01*
X176023253Y-75538599D01*
X176006777Y-75556777D01*
X175988599Y-75573253D01*
X175968893Y-75587868D01*
X175947850Y-75600480D01*
X175925671Y-75610970D01*
X175902572Y-75619235D01*
X175878773Y-75625196D01*
X175854505Y-75628796D01*
X175830001Y-75630000D01*
X175179999Y-75630000D01*
X175155495Y-75628796D01*
X175131227Y-75625196D01*
X175107428Y-75619235D01*
X175084329Y-75610970D01*
X175062150Y-75600480D01*
X175041107Y-75587868D01*
X175021401Y-75573253D01*
X175003223Y-75556777D01*
X174986747Y-75538599D01*
X174972132Y-75518893D01*
X174959520Y-75497850D01*
X174949030Y-75475671D01*
X174940765Y-75452572D01*
X174934804Y-75428773D01*
X174931204Y-75404505D01*
X174930000Y-75380001D01*
X174930000Y-74479999D01*
X174931204Y-74455495D01*
X174934804Y-74431227D01*
X174940765Y-74407428D01*
X174949030Y-74384329D01*
X174959520Y-74362150D01*
X174972132Y-74341107D01*
X174986747Y-74321401D01*
X175003223Y-74303223D01*
X175021401Y-74286747D01*
X175041107Y-74272132D01*
X175062150Y-74259520D01*
X175084329Y-74249030D01*
X175107428Y-74240765D01*
X175131227Y-74234804D01*
X175155495Y-74231204D01*
X175179999Y-74230000D01*
X175830001Y-74230000D01*
X175854505Y-74231204D01*
G37*
G36*
X171924505Y-62681204D02*
G01*
X171948773Y-62684804D01*
X171972572Y-62690765D01*
X171995671Y-62699030D01*
X172017850Y-62709520D01*
X172038893Y-62722132D01*
X172058599Y-62736747D01*
X172076777Y-62753223D01*
X172093253Y-62771401D01*
X172107868Y-62791107D01*
X172120480Y-62812150D01*
X172130970Y-62834329D01*
X172139235Y-62857428D01*
X172145196Y-62881227D01*
X172148796Y-62905495D01*
X172150000Y-62929999D01*
X172150000Y-63580001D01*
X172148796Y-63604505D01*
X172145196Y-63628773D01*
X172139235Y-63652572D01*
X172130970Y-63675671D01*
X172120480Y-63697850D01*
X172107868Y-63718893D01*
X172093253Y-63738599D01*
X172076777Y-63756777D01*
X172058599Y-63773253D01*
X172038893Y-63787868D01*
X172017850Y-63800480D01*
X171995671Y-63810970D01*
X171972572Y-63819235D01*
X171948773Y-63825196D01*
X171924505Y-63828796D01*
X171900001Y-63830000D01*
X170999999Y-63830000D01*
X170975495Y-63828796D01*
X170951227Y-63825196D01*
X170927428Y-63819235D01*
X170904329Y-63810970D01*
X170882150Y-63800480D01*
X170861107Y-63787868D01*
X170841401Y-63773253D01*
X170823223Y-63756777D01*
X170806747Y-63738599D01*
X170792132Y-63718893D01*
X170779520Y-63697850D01*
X170769030Y-63675671D01*
X170760765Y-63652572D01*
X170754804Y-63628773D01*
X170751204Y-63604505D01*
X170750000Y-63580001D01*
X170750000Y-62929999D01*
X170751204Y-62905495D01*
X170754804Y-62881227D01*
X170760765Y-62857428D01*
X170769030Y-62834329D01*
X170779520Y-62812150D01*
X170792132Y-62791107D01*
X170806747Y-62771401D01*
X170823223Y-62753223D01*
X170841401Y-62736747D01*
X170861107Y-62722132D01*
X170882150Y-62709520D01*
X170904329Y-62699030D01*
X170927428Y-62690765D01*
X170951227Y-62684804D01*
X170975495Y-62681204D01*
X170999999Y-62680000D01*
X171900001Y-62680000D01*
X171924505Y-62681204D01*
G37*
G36*
X171924505Y-60631204D02*
G01*
X171948773Y-60634804D01*
X171972572Y-60640765D01*
X171995671Y-60649030D01*
X172017850Y-60659520D01*
X172038893Y-60672132D01*
X172058599Y-60686747D01*
X172076777Y-60703223D01*
X172093253Y-60721401D01*
X172107868Y-60741107D01*
X172120480Y-60762150D01*
X172130970Y-60784329D01*
X172139235Y-60807428D01*
X172145196Y-60831227D01*
X172148796Y-60855495D01*
X172150000Y-60879999D01*
X172150000Y-61530001D01*
X172148796Y-61554505D01*
X172145196Y-61578773D01*
X172139235Y-61602572D01*
X172130970Y-61625671D01*
X172120480Y-61647850D01*
X172107868Y-61668893D01*
X172093253Y-61688599D01*
X172076777Y-61706777D01*
X172058599Y-61723253D01*
X172038893Y-61737868D01*
X172017850Y-61750480D01*
X171995671Y-61760970D01*
X171972572Y-61769235D01*
X171948773Y-61775196D01*
X171924505Y-61778796D01*
X171900001Y-61780000D01*
X170999999Y-61780000D01*
X170975495Y-61778796D01*
X170951227Y-61775196D01*
X170927428Y-61769235D01*
X170904329Y-61760970D01*
X170882150Y-61750480D01*
X170861107Y-61737868D01*
X170841401Y-61723253D01*
X170823223Y-61706777D01*
X170806747Y-61688599D01*
X170792132Y-61668893D01*
X170779520Y-61647850D01*
X170769030Y-61625671D01*
X170760765Y-61602572D01*
X170754804Y-61578773D01*
X170751204Y-61554505D01*
X170750000Y-61530001D01*
X170750000Y-60879999D01*
X170751204Y-60855495D01*
X170754804Y-60831227D01*
X170760765Y-60807428D01*
X170769030Y-60784329D01*
X170779520Y-60762150D01*
X170792132Y-60741107D01*
X170806747Y-60721401D01*
X170823223Y-60703223D01*
X170841401Y-60686747D01*
X170861107Y-60672132D01*
X170882150Y-60659520D01*
X170904329Y-60649030D01*
X170927428Y-60640765D01*
X170951227Y-60634804D01*
X170975495Y-60631204D01*
X170999999Y-60630000D01*
X171900001Y-60630000D01*
X171924505Y-60631204D01*
G37*
G36*
X168114505Y-89841204D02*
G01*
X168138773Y-89844804D01*
X168162572Y-89850765D01*
X168185671Y-89859030D01*
X168207850Y-89869520D01*
X168228893Y-89882132D01*
X168248599Y-89896747D01*
X168266777Y-89913223D01*
X168283253Y-89931401D01*
X168297868Y-89951107D01*
X168310480Y-89972150D01*
X168320970Y-89994329D01*
X168329235Y-90017428D01*
X168335196Y-90041227D01*
X168338796Y-90065495D01*
X168340000Y-90089999D01*
X168340000Y-90740001D01*
X168338796Y-90764505D01*
X168335196Y-90788773D01*
X168329235Y-90812572D01*
X168320970Y-90835671D01*
X168310480Y-90857850D01*
X168297868Y-90878893D01*
X168283253Y-90898599D01*
X168266777Y-90916777D01*
X168248599Y-90933253D01*
X168228893Y-90947868D01*
X168207850Y-90960480D01*
X168185671Y-90970970D01*
X168162572Y-90979235D01*
X168138773Y-90985196D01*
X168114505Y-90988796D01*
X168090001Y-90990000D01*
X167189999Y-90990000D01*
X167165495Y-90988796D01*
X167141227Y-90985196D01*
X167117428Y-90979235D01*
X167094329Y-90970970D01*
X167072150Y-90960480D01*
X167051107Y-90947868D01*
X167031401Y-90933253D01*
X167013223Y-90916777D01*
X166996747Y-90898599D01*
X166982132Y-90878893D01*
X166969520Y-90857850D01*
X166959030Y-90835671D01*
X166950765Y-90812572D01*
X166944804Y-90788773D01*
X166941204Y-90764505D01*
X166940000Y-90740001D01*
X166940000Y-90089999D01*
X166941204Y-90065495D01*
X166944804Y-90041227D01*
X166950765Y-90017428D01*
X166959030Y-89994329D01*
X166969520Y-89972150D01*
X166982132Y-89951107D01*
X166996747Y-89931401D01*
X167013223Y-89913223D01*
X167031401Y-89896747D01*
X167051107Y-89882132D01*
X167072150Y-89869520D01*
X167094329Y-89859030D01*
X167117428Y-89850765D01*
X167141227Y-89844804D01*
X167165495Y-89841204D01*
X167189999Y-89840000D01*
X168090001Y-89840000D01*
X168114505Y-89841204D01*
G37*
G36*
X168114505Y-91891204D02*
G01*
X168138773Y-91894804D01*
X168162572Y-91900765D01*
X168185671Y-91909030D01*
X168207850Y-91919520D01*
X168228893Y-91932132D01*
X168248599Y-91946747D01*
X168266777Y-91963223D01*
X168283253Y-91981401D01*
X168297868Y-92001107D01*
X168310480Y-92022150D01*
X168320970Y-92044329D01*
X168329235Y-92067428D01*
X168335196Y-92091227D01*
X168338796Y-92115495D01*
X168340000Y-92139999D01*
X168340000Y-92790001D01*
X168338796Y-92814505D01*
X168335196Y-92838773D01*
X168329235Y-92862572D01*
X168320970Y-92885671D01*
X168310480Y-92907850D01*
X168297868Y-92928893D01*
X168283253Y-92948599D01*
X168266777Y-92966777D01*
X168248599Y-92983253D01*
X168228893Y-92997868D01*
X168207850Y-93010480D01*
X168185671Y-93020970D01*
X168162572Y-93029235D01*
X168138773Y-93035196D01*
X168114505Y-93038796D01*
X168090001Y-93040000D01*
X167189999Y-93040000D01*
X167165495Y-93038796D01*
X167141227Y-93035196D01*
X167117428Y-93029235D01*
X167094329Y-93020970D01*
X167072150Y-93010480D01*
X167051107Y-92997868D01*
X167031401Y-92983253D01*
X167013223Y-92966777D01*
X166996747Y-92948599D01*
X166982132Y-92928893D01*
X166969520Y-92907850D01*
X166959030Y-92885671D01*
X166950765Y-92862572D01*
X166944804Y-92838773D01*
X166941204Y-92814505D01*
X166940000Y-92790001D01*
X166940000Y-92139999D01*
X166941204Y-92115495D01*
X166944804Y-92091227D01*
X166950765Y-92067428D01*
X166959030Y-92044329D01*
X166969520Y-92022150D01*
X166982132Y-92001107D01*
X166996747Y-91981401D01*
X167013223Y-91963223D01*
X167031401Y-91946747D01*
X167051107Y-91932132D01*
X167072150Y-91919520D01*
X167094329Y-91909030D01*
X167117428Y-91900765D01*
X167141227Y-91894804D01*
X167165495Y-91891204D01*
X167189999Y-91890000D01*
X168090001Y-91890000D01*
X168114505Y-91891204D01*
G37*
G36*
X118584505Y-60631204D02*
G01*
X118608773Y-60634804D01*
X118632572Y-60640765D01*
X118655671Y-60649030D01*
X118677850Y-60659520D01*
X118698893Y-60672132D01*
X118718599Y-60686747D01*
X118736777Y-60703223D01*
X118753253Y-60721401D01*
X118767868Y-60741107D01*
X118780480Y-60762150D01*
X118790970Y-60784329D01*
X118799235Y-60807428D01*
X118805196Y-60831227D01*
X118808796Y-60855495D01*
X118810000Y-60879999D01*
X118810000Y-61530001D01*
X118808796Y-61554505D01*
X118805196Y-61578773D01*
X118799235Y-61602572D01*
X118790970Y-61625671D01*
X118780480Y-61647850D01*
X118767868Y-61668893D01*
X118753253Y-61688599D01*
X118736777Y-61706777D01*
X118718599Y-61723253D01*
X118698893Y-61737868D01*
X118677850Y-61750480D01*
X118655671Y-61760970D01*
X118632572Y-61769235D01*
X118608773Y-61775196D01*
X118584505Y-61778796D01*
X118560001Y-61780000D01*
X117659999Y-61780000D01*
X117635495Y-61778796D01*
X117611227Y-61775196D01*
X117587428Y-61769235D01*
X117564329Y-61760970D01*
X117542150Y-61750480D01*
X117521107Y-61737868D01*
X117501401Y-61723253D01*
X117483223Y-61706777D01*
X117466747Y-61688599D01*
X117452132Y-61668893D01*
X117439520Y-61647850D01*
X117429030Y-61625671D01*
X117420765Y-61602572D01*
X117414804Y-61578773D01*
X117411204Y-61554505D01*
X117410000Y-61530001D01*
X117410000Y-60879999D01*
X117411204Y-60855495D01*
X117414804Y-60831227D01*
X117420765Y-60807428D01*
X117429030Y-60784329D01*
X117439520Y-60762150D01*
X117452132Y-60741107D01*
X117466747Y-60721401D01*
X117483223Y-60703223D01*
X117501401Y-60686747D01*
X117521107Y-60672132D01*
X117542150Y-60659520D01*
X117564329Y-60649030D01*
X117587428Y-60640765D01*
X117611227Y-60634804D01*
X117635495Y-60631204D01*
X117659999Y-60630000D01*
X118560001Y-60630000D01*
X118584505Y-60631204D01*
G37*
G36*
X118584505Y-62681204D02*
G01*
X118608773Y-62684804D01*
X118632572Y-62690765D01*
X118655671Y-62699030D01*
X118677850Y-62709520D01*
X118698893Y-62722132D01*
X118718599Y-62736747D01*
X118736777Y-62753223D01*
X118753253Y-62771401D01*
X118767868Y-62791107D01*
X118780480Y-62812150D01*
X118790970Y-62834329D01*
X118799235Y-62857428D01*
X118805196Y-62881227D01*
X118808796Y-62905495D01*
X118810000Y-62929999D01*
X118810000Y-63580001D01*
X118808796Y-63604505D01*
X118805196Y-63628773D01*
X118799235Y-63652572D01*
X118790970Y-63675671D01*
X118780480Y-63697850D01*
X118767868Y-63718893D01*
X118753253Y-63738599D01*
X118736777Y-63756777D01*
X118718599Y-63773253D01*
X118698893Y-63787868D01*
X118677850Y-63800480D01*
X118655671Y-63810970D01*
X118632572Y-63819235D01*
X118608773Y-63825196D01*
X118584505Y-63828796D01*
X118560001Y-63830000D01*
X117659999Y-63830000D01*
X117635495Y-63828796D01*
X117611227Y-63825196D01*
X117587428Y-63819235D01*
X117564329Y-63810970D01*
X117542150Y-63800480D01*
X117521107Y-63787868D01*
X117501401Y-63773253D01*
X117483223Y-63756777D01*
X117466747Y-63738599D01*
X117452132Y-63718893D01*
X117439520Y-63697850D01*
X117429030Y-63675671D01*
X117420765Y-63652572D01*
X117414804Y-63628773D01*
X117411204Y-63604505D01*
X117410000Y-63580001D01*
X117410000Y-62929999D01*
X117411204Y-62905495D01*
X117414804Y-62881227D01*
X117420765Y-62857428D01*
X117429030Y-62834329D01*
X117439520Y-62812150D01*
X117452132Y-62791107D01*
X117466747Y-62771401D01*
X117483223Y-62753223D01*
X117501401Y-62736747D01*
X117521107Y-62722132D01*
X117542150Y-62709520D01*
X117564329Y-62699030D01*
X117587428Y-62690765D01*
X117611227Y-62684804D01*
X117635495Y-62681204D01*
X117659999Y-62680000D01*
X118560001Y-62680000D01*
X118584505Y-62681204D01*
G37*
G36*
X165204505Y-74231204D02*
G01*
X165228773Y-74234804D01*
X165252572Y-74240765D01*
X165275671Y-74249030D01*
X165297850Y-74259520D01*
X165318893Y-74272132D01*
X165338599Y-74286747D01*
X165356777Y-74303223D01*
X165373253Y-74321401D01*
X165387868Y-74341107D01*
X165400480Y-74362150D01*
X165410970Y-74384329D01*
X165419235Y-74407428D01*
X165425196Y-74431227D01*
X165428796Y-74455495D01*
X165430000Y-74479999D01*
X165430000Y-75380001D01*
X165428796Y-75404505D01*
X165425196Y-75428773D01*
X165419235Y-75452572D01*
X165410970Y-75475671D01*
X165400480Y-75497850D01*
X165387868Y-75518893D01*
X165373253Y-75538599D01*
X165356777Y-75556777D01*
X165338599Y-75573253D01*
X165318893Y-75587868D01*
X165297850Y-75600480D01*
X165275671Y-75610970D01*
X165252572Y-75619235D01*
X165228773Y-75625196D01*
X165204505Y-75628796D01*
X165180001Y-75630000D01*
X164529999Y-75630000D01*
X164505495Y-75628796D01*
X164481227Y-75625196D01*
X164457428Y-75619235D01*
X164434329Y-75610970D01*
X164412150Y-75600480D01*
X164391107Y-75587868D01*
X164371401Y-75573253D01*
X164353223Y-75556777D01*
X164336747Y-75538599D01*
X164322132Y-75518893D01*
X164309520Y-75497850D01*
X164299030Y-75475671D01*
X164290765Y-75452572D01*
X164284804Y-75428773D01*
X164281204Y-75404505D01*
X164280000Y-75380001D01*
X164280000Y-74479999D01*
X164281204Y-74455495D01*
X164284804Y-74431227D01*
X164290765Y-74407428D01*
X164299030Y-74384329D01*
X164309520Y-74362150D01*
X164322132Y-74341107D01*
X164336747Y-74321401D01*
X164353223Y-74303223D01*
X164371401Y-74286747D01*
X164391107Y-74272132D01*
X164412150Y-74259520D01*
X164434329Y-74249030D01*
X164457428Y-74240765D01*
X164481227Y-74234804D01*
X164505495Y-74231204D01*
X164529999Y-74230000D01*
X165180001Y-74230000D01*
X165204505Y-74231204D01*
G37*
G36*
X163154505Y-74231204D02*
G01*
X163178773Y-74234804D01*
X163202572Y-74240765D01*
X163225671Y-74249030D01*
X163247850Y-74259520D01*
X163268893Y-74272132D01*
X163288599Y-74286747D01*
X163306777Y-74303223D01*
X163323253Y-74321401D01*
X163337868Y-74341107D01*
X163350480Y-74362150D01*
X163360970Y-74384329D01*
X163369235Y-74407428D01*
X163375196Y-74431227D01*
X163378796Y-74455495D01*
X163380000Y-74479999D01*
X163380000Y-75380001D01*
X163378796Y-75404505D01*
X163375196Y-75428773D01*
X163369235Y-75452572D01*
X163360970Y-75475671D01*
X163350480Y-75497850D01*
X163337868Y-75518893D01*
X163323253Y-75538599D01*
X163306777Y-75556777D01*
X163288599Y-75573253D01*
X163268893Y-75587868D01*
X163247850Y-75600480D01*
X163225671Y-75610970D01*
X163202572Y-75619235D01*
X163178773Y-75625196D01*
X163154505Y-75628796D01*
X163130001Y-75630000D01*
X162479999Y-75630000D01*
X162455495Y-75628796D01*
X162431227Y-75625196D01*
X162407428Y-75619235D01*
X162384329Y-75610970D01*
X162362150Y-75600480D01*
X162341107Y-75587868D01*
X162321401Y-75573253D01*
X162303223Y-75556777D01*
X162286747Y-75538599D01*
X162272132Y-75518893D01*
X162259520Y-75497850D01*
X162249030Y-75475671D01*
X162240765Y-75452572D01*
X162234804Y-75428773D01*
X162231204Y-75404505D01*
X162230000Y-75380001D01*
X162230000Y-74479999D01*
X162231204Y-74455495D01*
X162234804Y-74431227D01*
X162240765Y-74407428D01*
X162249030Y-74384329D01*
X162259520Y-74362150D01*
X162272132Y-74341107D01*
X162286747Y-74321401D01*
X162303223Y-74303223D01*
X162321401Y-74286747D01*
X162341107Y-74272132D01*
X162362150Y-74259520D01*
X162384329Y-74249030D01*
X162407428Y-74240765D01*
X162431227Y-74234804D01*
X162455495Y-74231204D01*
X162479999Y-74230000D01*
X163130001Y-74230000D01*
X163154505Y-74231204D01*
G37*
G36*
X169384505Y-60631204D02*
G01*
X169408773Y-60634804D01*
X169432572Y-60640765D01*
X169455671Y-60649030D01*
X169477850Y-60659520D01*
X169498893Y-60672132D01*
X169518599Y-60686747D01*
X169536777Y-60703223D01*
X169553253Y-60721401D01*
X169567868Y-60741107D01*
X169580480Y-60762150D01*
X169590970Y-60784329D01*
X169599235Y-60807428D01*
X169605196Y-60831227D01*
X169608796Y-60855495D01*
X169610000Y-60879999D01*
X169610000Y-61530001D01*
X169608796Y-61554505D01*
X169605196Y-61578773D01*
X169599235Y-61602572D01*
X169590970Y-61625671D01*
X169580480Y-61647850D01*
X169567868Y-61668893D01*
X169553253Y-61688599D01*
X169536777Y-61706777D01*
X169518599Y-61723253D01*
X169498893Y-61737868D01*
X169477850Y-61750480D01*
X169455671Y-61760970D01*
X169432572Y-61769235D01*
X169408773Y-61775196D01*
X169384505Y-61778796D01*
X169360001Y-61780000D01*
X168459999Y-61780000D01*
X168435495Y-61778796D01*
X168411227Y-61775196D01*
X168387428Y-61769235D01*
X168364329Y-61760970D01*
X168342150Y-61750480D01*
X168321107Y-61737868D01*
X168301401Y-61723253D01*
X168283223Y-61706777D01*
X168266747Y-61688599D01*
X168252132Y-61668893D01*
X168239520Y-61647850D01*
X168229030Y-61625671D01*
X168220765Y-61602572D01*
X168214804Y-61578773D01*
X168211204Y-61554505D01*
X168210000Y-61530001D01*
X168210000Y-60879999D01*
X168211204Y-60855495D01*
X168214804Y-60831227D01*
X168220765Y-60807428D01*
X168229030Y-60784329D01*
X168239520Y-60762150D01*
X168252132Y-60741107D01*
X168266747Y-60721401D01*
X168283223Y-60703223D01*
X168301401Y-60686747D01*
X168321107Y-60672132D01*
X168342150Y-60659520D01*
X168364329Y-60649030D01*
X168387428Y-60640765D01*
X168411227Y-60634804D01*
X168435495Y-60631204D01*
X168459999Y-60630000D01*
X169360001Y-60630000D01*
X169384505Y-60631204D01*
G37*
G36*
X169384505Y-62681204D02*
G01*
X169408773Y-62684804D01*
X169432572Y-62690765D01*
X169455671Y-62699030D01*
X169477850Y-62709520D01*
X169498893Y-62722132D01*
X169518599Y-62736747D01*
X169536777Y-62753223D01*
X169553253Y-62771401D01*
X169567868Y-62791107D01*
X169580480Y-62812150D01*
X169590970Y-62834329D01*
X169599235Y-62857428D01*
X169605196Y-62881227D01*
X169608796Y-62905495D01*
X169610000Y-62929999D01*
X169610000Y-63580001D01*
X169608796Y-63604505D01*
X169605196Y-63628773D01*
X169599235Y-63652572D01*
X169590970Y-63675671D01*
X169580480Y-63697850D01*
X169567868Y-63718893D01*
X169553253Y-63738599D01*
X169536777Y-63756777D01*
X169518599Y-63773253D01*
X169498893Y-63787868D01*
X169477850Y-63800480D01*
X169455671Y-63810970D01*
X169432572Y-63819235D01*
X169408773Y-63825196D01*
X169384505Y-63828796D01*
X169360001Y-63830000D01*
X168459999Y-63830000D01*
X168435495Y-63828796D01*
X168411227Y-63825196D01*
X168387428Y-63819235D01*
X168364329Y-63810970D01*
X168342150Y-63800480D01*
X168321107Y-63787868D01*
X168301401Y-63773253D01*
X168283223Y-63756777D01*
X168266747Y-63738599D01*
X168252132Y-63718893D01*
X168239520Y-63697850D01*
X168229030Y-63675671D01*
X168220765Y-63652572D01*
X168214804Y-63628773D01*
X168211204Y-63604505D01*
X168210000Y-63580001D01*
X168210000Y-62929999D01*
X168211204Y-62905495D01*
X168214804Y-62881227D01*
X168220765Y-62857428D01*
X168229030Y-62834329D01*
X168239520Y-62812150D01*
X168252132Y-62791107D01*
X168266747Y-62771401D01*
X168283223Y-62753223D01*
X168301401Y-62736747D01*
X168321107Y-62722132D01*
X168342150Y-62709520D01*
X168364329Y-62699030D01*
X168387428Y-62690765D01*
X168411227Y-62684804D01*
X168435495Y-62681204D01*
X168459999Y-62680000D01*
X169360001Y-62680000D01*
X169384505Y-62681204D01*
G37*
G36*
X117314505Y-89841204D02*
G01*
X117338773Y-89844804D01*
X117362572Y-89850765D01*
X117385671Y-89859030D01*
X117407850Y-89869520D01*
X117428893Y-89882132D01*
X117448599Y-89896747D01*
X117466777Y-89913223D01*
X117483253Y-89931401D01*
X117497868Y-89951107D01*
X117510480Y-89972150D01*
X117520970Y-89994329D01*
X117529235Y-90017428D01*
X117535196Y-90041227D01*
X117538796Y-90065495D01*
X117540000Y-90089999D01*
X117540000Y-90740001D01*
X117538796Y-90764505D01*
X117535196Y-90788773D01*
X117529235Y-90812572D01*
X117520970Y-90835671D01*
X117510480Y-90857850D01*
X117497868Y-90878893D01*
X117483253Y-90898599D01*
X117466777Y-90916777D01*
X117448599Y-90933253D01*
X117428893Y-90947868D01*
X117407850Y-90960480D01*
X117385671Y-90970970D01*
X117362572Y-90979235D01*
X117338773Y-90985196D01*
X117314505Y-90988796D01*
X117290001Y-90990000D01*
X116389999Y-90990000D01*
X116365495Y-90988796D01*
X116341227Y-90985196D01*
X116317428Y-90979235D01*
X116294329Y-90970970D01*
X116272150Y-90960480D01*
X116251107Y-90947868D01*
X116231401Y-90933253D01*
X116213223Y-90916777D01*
X116196747Y-90898599D01*
X116182132Y-90878893D01*
X116169520Y-90857850D01*
X116159030Y-90835671D01*
X116150765Y-90812572D01*
X116144804Y-90788773D01*
X116141204Y-90764505D01*
X116140000Y-90740001D01*
X116140000Y-90089999D01*
X116141204Y-90065495D01*
X116144804Y-90041227D01*
X116150765Y-90017428D01*
X116159030Y-89994329D01*
X116169520Y-89972150D01*
X116182132Y-89951107D01*
X116196747Y-89931401D01*
X116213223Y-89913223D01*
X116231401Y-89896747D01*
X116251107Y-89882132D01*
X116272150Y-89869520D01*
X116294329Y-89859030D01*
X116317428Y-89850765D01*
X116341227Y-89844804D01*
X116365495Y-89841204D01*
X116389999Y-89840000D01*
X117290001Y-89840000D01*
X117314505Y-89841204D01*
G37*
G36*
X117314505Y-91891204D02*
G01*
X117338773Y-91894804D01*
X117362572Y-91900765D01*
X117385671Y-91909030D01*
X117407850Y-91919520D01*
X117428893Y-91932132D01*
X117448599Y-91946747D01*
X117466777Y-91963223D01*
X117483253Y-91981401D01*
X117497868Y-92001107D01*
X117510480Y-92022150D01*
X117520970Y-92044329D01*
X117529235Y-92067428D01*
X117535196Y-92091227D01*
X117538796Y-92115495D01*
X117540000Y-92139999D01*
X117540000Y-92790001D01*
X117538796Y-92814505D01*
X117535196Y-92838773D01*
X117529235Y-92862572D01*
X117520970Y-92885671D01*
X117510480Y-92907850D01*
X117497868Y-92928893D01*
X117483253Y-92948599D01*
X117466777Y-92966777D01*
X117448599Y-92983253D01*
X117428893Y-92997868D01*
X117407850Y-93010480D01*
X117385671Y-93020970D01*
X117362572Y-93029235D01*
X117338773Y-93035196D01*
X117314505Y-93038796D01*
X117290001Y-93040000D01*
X116389999Y-93040000D01*
X116365495Y-93038796D01*
X116341227Y-93035196D01*
X116317428Y-93029235D01*
X116294329Y-93020970D01*
X116272150Y-93010480D01*
X116251107Y-92997868D01*
X116231401Y-92983253D01*
X116213223Y-92966777D01*
X116196747Y-92948599D01*
X116182132Y-92928893D01*
X116169520Y-92907850D01*
X116159030Y-92885671D01*
X116150765Y-92862572D01*
X116144804Y-92838773D01*
X116141204Y-92814505D01*
X116140000Y-92790001D01*
X116140000Y-92139999D01*
X116141204Y-92115495D01*
X116144804Y-92091227D01*
X116150765Y-92067428D01*
X116159030Y-92044329D01*
X116169520Y-92022150D01*
X116182132Y-92001107D01*
X116196747Y-91981401D01*
X116213223Y-91963223D01*
X116231401Y-91946747D01*
X116251107Y-91932132D01*
X116272150Y-91919520D01*
X116294329Y-91909030D01*
X116317428Y-91900765D01*
X116341227Y-91894804D01*
X116365495Y-91891204D01*
X116389999Y-91890000D01*
X117290001Y-91890000D01*
X117314505Y-91891204D01*
G37*
G36*
X114404505Y-74231204D02*
G01*
X114428773Y-74234804D01*
X114452572Y-74240765D01*
X114475671Y-74249030D01*
X114497850Y-74259520D01*
X114518893Y-74272132D01*
X114538599Y-74286747D01*
X114556777Y-74303223D01*
X114573253Y-74321401D01*
X114587868Y-74341107D01*
X114600480Y-74362150D01*
X114610970Y-74384329D01*
X114619235Y-74407428D01*
X114625196Y-74431227D01*
X114628796Y-74455495D01*
X114630000Y-74479999D01*
X114630000Y-75380001D01*
X114628796Y-75404505D01*
X114625196Y-75428773D01*
X114619235Y-75452572D01*
X114610970Y-75475671D01*
X114600480Y-75497850D01*
X114587868Y-75518893D01*
X114573253Y-75538599D01*
X114556777Y-75556777D01*
X114538599Y-75573253D01*
X114518893Y-75587868D01*
X114497850Y-75600480D01*
X114475671Y-75610970D01*
X114452572Y-75619235D01*
X114428773Y-75625196D01*
X114404505Y-75628796D01*
X114380001Y-75630000D01*
X113729999Y-75630000D01*
X113705495Y-75628796D01*
X113681227Y-75625196D01*
X113657428Y-75619235D01*
X113634329Y-75610970D01*
X113612150Y-75600480D01*
X113591107Y-75587868D01*
X113571401Y-75573253D01*
X113553223Y-75556777D01*
X113536747Y-75538599D01*
X113522132Y-75518893D01*
X113509520Y-75497850D01*
X113499030Y-75475671D01*
X113490765Y-75452572D01*
X113484804Y-75428773D01*
X113481204Y-75404505D01*
X113480000Y-75380001D01*
X113480000Y-74479999D01*
X113481204Y-74455495D01*
X113484804Y-74431227D01*
X113490765Y-74407428D01*
X113499030Y-74384329D01*
X113509520Y-74362150D01*
X113522132Y-74341107D01*
X113536747Y-74321401D01*
X113553223Y-74303223D01*
X113571401Y-74286747D01*
X113591107Y-74272132D01*
X113612150Y-74259520D01*
X113634329Y-74249030D01*
X113657428Y-74240765D01*
X113681227Y-74234804D01*
X113705495Y-74231204D01*
X113729999Y-74230000D01*
X114380001Y-74230000D01*
X114404505Y-74231204D01*
G37*
G36*
X112354505Y-74231204D02*
G01*
X112378773Y-74234804D01*
X112402572Y-74240765D01*
X112425671Y-74249030D01*
X112447850Y-74259520D01*
X112468893Y-74272132D01*
X112488599Y-74286747D01*
X112506777Y-74303223D01*
X112523253Y-74321401D01*
X112537868Y-74341107D01*
X112550480Y-74362150D01*
X112560970Y-74384329D01*
X112569235Y-74407428D01*
X112575196Y-74431227D01*
X112578796Y-74455495D01*
X112580000Y-74479999D01*
X112580000Y-75380001D01*
X112578796Y-75404505D01*
X112575196Y-75428773D01*
X112569235Y-75452572D01*
X112560970Y-75475671D01*
X112550480Y-75497850D01*
X112537868Y-75518893D01*
X112523253Y-75538599D01*
X112506777Y-75556777D01*
X112488599Y-75573253D01*
X112468893Y-75587868D01*
X112447850Y-75600480D01*
X112425671Y-75610970D01*
X112402572Y-75619235D01*
X112378773Y-75625196D01*
X112354505Y-75628796D01*
X112330001Y-75630000D01*
X111679999Y-75630000D01*
X111655495Y-75628796D01*
X111631227Y-75625196D01*
X111607428Y-75619235D01*
X111584329Y-75610970D01*
X111562150Y-75600480D01*
X111541107Y-75587868D01*
X111521401Y-75573253D01*
X111503223Y-75556777D01*
X111486747Y-75538599D01*
X111472132Y-75518893D01*
X111459520Y-75497850D01*
X111449030Y-75475671D01*
X111440765Y-75452572D01*
X111434804Y-75428773D01*
X111431204Y-75404505D01*
X111430000Y-75380001D01*
X111430000Y-74479999D01*
X111431204Y-74455495D01*
X111434804Y-74431227D01*
X111440765Y-74407428D01*
X111449030Y-74384329D01*
X111459520Y-74362150D01*
X111472132Y-74341107D01*
X111486747Y-74321401D01*
X111503223Y-74303223D01*
X111521401Y-74286747D01*
X111541107Y-74272132D01*
X111562150Y-74259520D01*
X111584329Y-74249030D01*
X111607428Y-74240765D01*
X111631227Y-74234804D01*
X111655495Y-74231204D01*
X111679999Y-74230000D01*
X112330001Y-74230000D01*
X112354505Y-74231204D01*
G37*
D11*
X154050000Y-86360000D03*
X150750000Y-86360000D03*
X138810000Y-86360000D03*
X135510000Y-86360000D03*
D12*
X140970000Y-91280000D03*
X140970000Y-96680000D03*
X148590000Y-96680000D03*
X148590000Y-91280000D03*
M02*
