G04 #@! TF.GenerationSoftware,KiCad,Pcbnew,(5.1.5)-3*
G04 #@! TF.CreationDate,2020-05-08T06:04:49-05:00*
G04 #@! TF.ProjectId,Miasma_Main_smd,4d696173-6d61-45f4-9d61-696e5f736d64,rev?*
G04 #@! TF.SameCoordinates,Original*
G04 #@! TF.FileFunction,Soldermask,Bot*
G04 #@! TF.FilePolarity,Negative*
%FSLAX46Y46*%
G04 Gerber Fmt 4.6, Leading zero omitted, Abs format (unit mm)*
G04 Created by KiCad (PCBNEW (5.1.5)-3) date 2020-05-08 06:04:49*
%MOMM*%
%LPD*%
G04 APERTURE LIST*
%ADD10O,2.100000X2.100000*%
%ADD11R,2.100000X2.100000*%
%ADD12C,0.100000*%
%ADD13R,1.300000X1.600000*%
%ADD14R,2.000000X3.900000*%
%ADD15C,5.100000*%
G04 APERTURE END LIST*
D10*
X132080000Y-143510000D03*
X134620000Y-143510000D03*
D11*
X137160000Y-143510000D03*
D12*
G36*
X146646071Y-112501623D02*
G01*
X146678781Y-112506475D01*
X146710857Y-112514509D01*
X146741991Y-112525649D01*
X146771884Y-112539787D01*
X146800247Y-112556787D01*
X146826807Y-112576485D01*
X146851308Y-112598692D01*
X146873515Y-112623193D01*
X146893213Y-112649753D01*
X146910213Y-112678116D01*
X146924351Y-112708009D01*
X146935491Y-112739143D01*
X146943525Y-112771219D01*
X146948377Y-112803929D01*
X146950000Y-112836956D01*
X146950000Y-113713044D01*
X146948377Y-113746071D01*
X146943525Y-113778781D01*
X146935491Y-113810857D01*
X146924351Y-113841991D01*
X146910213Y-113871884D01*
X146893213Y-113900247D01*
X146873515Y-113926807D01*
X146851308Y-113951308D01*
X146826807Y-113973515D01*
X146800247Y-113993213D01*
X146771884Y-114010213D01*
X146741991Y-114024351D01*
X146710857Y-114035491D01*
X146678781Y-114043525D01*
X146646071Y-114048377D01*
X146613044Y-114050000D01*
X145486956Y-114050000D01*
X145453929Y-114048377D01*
X145421219Y-114043525D01*
X145389143Y-114035491D01*
X145358009Y-114024351D01*
X145328116Y-114010213D01*
X145299753Y-113993213D01*
X145273193Y-113973515D01*
X145248692Y-113951308D01*
X145226485Y-113926807D01*
X145206787Y-113900247D01*
X145189787Y-113871884D01*
X145175649Y-113841991D01*
X145164509Y-113810857D01*
X145156475Y-113778781D01*
X145151623Y-113746071D01*
X145150000Y-113713044D01*
X145150000Y-112836956D01*
X145151623Y-112803929D01*
X145156475Y-112771219D01*
X145164509Y-112739143D01*
X145175649Y-112708009D01*
X145189787Y-112678116D01*
X145206787Y-112649753D01*
X145226485Y-112623193D01*
X145248692Y-112598692D01*
X145273193Y-112576485D01*
X145299753Y-112556787D01*
X145328116Y-112539787D01*
X145358009Y-112525649D01*
X145389143Y-112514509D01*
X145421219Y-112506475D01*
X145453929Y-112501623D01*
X145486956Y-112500000D01*
X146613044Y-112500000D01*
X146646071Y-112501623D01*
G37*
G36*
X146646071Y-114551623D02*
G01*
X146678781Y-114556475D01*
X146710857Y-114564509D01*
X146741991Y-114575649D01*
X146771884Y-114589787D01*
X146800247Y-114606787D01*
X146826807Y-114626485D01*
X146851308Y-114648692D01*
X146873515Y-114673193D01*
X146893213Y-114699753D01*
X146910213Y-114728116D01*
X146924351Y-114758009D01*
X146935491Y-114789143D01*
X146943525Y-114821219D01*
X146948377Y-114853929D01*
X146950000Y-114886956D01*
X146950000Y-115763044D01*
X146948377Y-115796071D01*
X146943525Y-115828781D01*
X146935491Y-115860857D01*
X146924351Y-115891991D01*
X146910213Y-115921884D01*
X146893213Y-115950247D01*
X146873515Y-115976807D01*
X146851308Y-116001308D01*
X146826807Y-116023515D01*
X146800247Y-116043213D01*
X146771884Y-116060213D01*
X146741991Y-116074351D01*
X146710857Y-116085491D01*
X146678781Y-116093525D01*
X146646071Y-116098377D01*
X146613044Y-116100000D01*
X145486956Y-116100000D01*
X145453929Y-116098377D01*
X145421219Y-116093525D01*
X145389143Y-116085491D01*
X145358009Y-116074351D01*
X145328116Y-116060213D01*
X145299753Y-116043213D01*
X145273193Y-116023515D01*
X145248692Y-116001308D01*
X145226485Y-115976807D01*
X145206787Y-115950247D01*
X145189787Y-115921884D01*
X145175649Y-115891991D01*
X145164509Y-115860857D01*
X145156475Y-115828781D01*
X145151623Y-115796071D01*
X145150000Y-115763044D01*
X145150000Y-114886956D01*
X145151623Y-114853929D01*
X145156475Y-114821219D01*
X145164509Y-114789143D01*
X145175649Y-114758009D01*
X145189787Y-114728116D01*
X145206787Y-114699753D01*
X145226485Y-114673193D01*
X145248692Y-114648692D01*
X145273193Y-114626485D01*
X145299753Y-114606787D01*
X145328116Y-114589787D01*
X145358009Y-114575649D01*
X145389143Y-114564509D01*
X145421219Y-114556475D01*
X145453929Y-114551623D01*
X145486956Y-114550000D01*
X146613044Y-114550000D01*
X146646071Y-114551623D01*
G37*
G36*
X144106071Y-114551623D02*
G01*
X144138781Y-114556475D01*
X144170857Y-114564509D01*
X144201991Y-114575649D01*
X144231884Y-114589787D01*
X144260247Y-114606787D01*
X144286807Y-114626485D01*
X144311308Y-114648692D01*
X144333515Y-114673193D01*
X144353213Y-114699753D01*
X144370213Y-114728116D01*
X144384351Y-114758009D01*
X144395491Y-114789143D01*
X144403525Y-114821219D01*
X144408377Y-114853929D01*
X144410000Y-114886956D01*
X144410000Y-115763044D01*
X144408377Y-115796071D01*
X144403525Y-115828781D01*
X144395491Y-115860857D01*
X144384351Y-115891991D01*
X144370213Y-115921884D01*
X144353213Y-115950247D01*
X144333515Y-115976807D01*
X144311308Y-116001308D01*
X144286807Y-116023515D01*
X144260247Y-116043213D01*
X144231884Y-116060213D01*
X144201991Y-116074351D01*
X144170857Y-116085491D01*
X144138781Y-116093525D01*
X144106071Y-116098377D01*
X144073044Y-116100000D01*
X142946956Y-116100000D01*
X142913929Y-116098377D01*
X142881219Y-116093525D01*
X142849143Y-116085491D01*
X142818009Y-116074351D01*
X142788116Y-116060213D01*
X142759753Y-116043213D01*
X142733193Y-116023515D01*
X142708692Y-116001308D01*
X142686485Y-115976807D01*
X142666787Y-115950247D01*
X142649787Y-115921884D01*
X142635649Y-115891991D01*
X142624509Y-115860857D01*
X142616475Y-115828781D01*
X142611623Y-115796071D01*
X142610000Y-115763044D01*
X142610000Y-114886956D01*
X142611623Y-114853929D01*
X142616475Y-114821219D01*
X142624509Y-114789143D01*
X142635649Y-114758009D01*
X142649787Y-114728116D01*
X142666787Y-114699753D01*
X142686485Y-114673193D01*
X142708692Y-114648692D01*
X142733193Y-114626485D01*
X142759753Y-114606787D01*
X142788116Y-114589787D01*
X142818009Y-114575649D01*
X142849143Y-114564509D01*
X142881219Y-114556475D01*
X142913929Y-114551623D01*
X142946956Y-114550000D01*
X144073044Y-114550000D01*
X144106071Y-114551623D01*
G37*
G36*
X144106071Y-112501623D02*
G01*
X144138781Y-112506475D01*
X144170857Y-112514509D01*
X144201991Y-112525649D01*
X144231884Y-112539787D01*
X144260247Y-112556787D01*
X144286807Y-112576485D01*
X144311308Y-112598692D01*
X144333515Y-112623193D01*
X144353213Y-112649753D01*
X144370213Y-112678116D01*
X144384351Y-112708009D01*
X144395491Y-112739143D01*
X144403525Y-112771219D01*
X144408377Y-112803929D01*
X144410000Y-112836956D01*
X144410000Y-113713044D01*
X144408377Y-113746071D01*
X144403525Y-113778781D01*
X144395491Y-113810857D01*
X144384351Y-113841991D01*
X144370213Y-113871884D01*
X144353213Y-113900247D01*
X144333515Y-113926807D01*
X144311308Y-113951308D01*
X144286807Y-113973515D01*
X144260247Y-113993213D01*
X144231884Y-114010213D01*
X144201991Y-114024351D01*
X144170857Y-114035491D01*
X144138781Y-114043525D01*
X144106071Y-114048377D01*
X144073044Y-114050000D01*
X142946956Y-114050000D01*
X142913929Y-114048377D01*
X142881219Y-114043525D01*
X142849143Y-114035491D01*
X142818009Y-114024351D01*
X142788116Y-114010213D01*
X142759753Y-113993213D01*
X142733193Y-113973515D01*
X142708692Y-113951308D01*
X142686485Y-113926807D01*
X142666787Y-113900247D01*
X142649787Y-113871884D01*
X142635649Y-113841991D01*
X142624509Y-113810857D01*
X142616475Y-113778781D01*
X142611623Y-113746071D01*
X142610000Y-113713044D01*
X142610000Y-112836956D01*
X142611623Y-112803929D01*
X142616475Y-112771219D01*
X142624509Y-112739143D01*
X142635649Y-112708009D01*
X142649787Y-112678116D01*
X142666787Y-112649753D01*
X142686485Y-112623193D01*
X142708692Y-112598692D01*
X142733193Y-112576485D01*
X142759753Y-112556787D01*
X142788116Y-112539787D01*
X142818009Y-112525649D01*
X142849143Y-112514509D01*
X142881219Y-112506475D01*
X142913929Y-112501623D01*
X142946956Y-112500000D01*
X144073044Y-112500000D01*
X144106071Y-112501623D01*
G37*
G36*
X122516071Y-91691623D02*
G01*
X122548781Y-91696475D01*
X122580857Y-91704509D01*
X122611991Y-91715649D01*
X122641884Y-91729787D01*
X122670247Y-91746787D01*
X122696807Y-91766485D01*
X122721308Y-91788692D01*
X122743515Y-91813193D01*
X122763213Y-91839753D01*
X122780213Y-91868116D01*
X122794351Y-91898009D01*
X122805491Y-91929143D01*
X122813525Y-91961219D01*
X122818377Y-91993929D01*
X122820000Y-92026956D01*
X122820000Y-92903044D01*
X122818377Y-92936071D01*
X122813525Y-92968781D01*
X122805491Y-93000857D01*
X122794351Y-93031991D01*
X122780213Y-93061884D01*
X122763213Y-93090247D01*
X122743515Y-93116807D01*
X122721308Y-93141308D01*
X122696807Y-93163515D01*
X122670247Y-93183213D01*
X122641884Y-93200213D01*
X122611991Y-93214351D01*
X122580857Y-93225491D01*
X122548781Y-93233525D01*
X122516071Y-93238377D01*
X122483044Y-93240000D01*
X121356956Y-93240000D01*
X121323929Y-93238377D01*
X121291219Y-93233525D01*
X121259143Y-93225491D01*
X121228009Y-93214351D01*
X121198116Y-93200213D01*
X121169753Y-93183213D01*
X121143193Y-93163515D01*
X121118692Y-93141308D01*
X121096485Y-93116807D01*
X121076787Y-93090247D01*
X121059787Y-93061884D01*
X121045649Y-93031991D01*
X121034509Y-93000857D01*
X121026475Y-92968781D01*
X121021623Y-92936071D01*
X121020000Y-92903044D01*
X121020000Y-92026956D01*
X121021623Y-91993929D01*
X121026475Y-91961219D01*
X121034509Y-91929143D01*
X121045649Y-91898009D01*
X121059787Y-91868116D01*
X121076787Y-91839753D01*
X121096485Y-91813193D01*
X121118692Y-91788692D01*
X121143193Y-91766485D01*
X121169753Y-91746787D01*
X121198116Y-91729787D01*
X121228009Y-91715649D01*
X121259143Y-91704509D01*
X121291219Y-91696475D01*
X121323929Y-91691623D01*
X121356956Y-91690000D01*
X122483044Y-91690000D01*
X122516071Y-91691623D01*
G37*
G36*
X122516071Y-89641623D02*
G01*
X122548781Y-89646475D01*
X122580857Y-89654509D01*
X122611991Y-89665649D01*
X122641884Y-89679787D01*
X122670247Y-89696787D01*
X122696807Y-89716485D01*
X122721308Y-89738692D01*
X122743515Y-89763193D01*
X122763213Y-89789753D01*
X122780213Y-89818116D01*
X122794351Y-89848009D01*
X122805491Y-89879143D01*
X122813525Y-89911219D01*
X122818377Y-89943929D01*
X122820000Y-89976956D01*
X122820000Y-90853044D01*
X122818377Y-90886071D01*
X122813525Y-90918781D01*
X122805491Y-90950857D01*
X122794351Y-90981991D01*
X122780213Y-91011884D01*
X122763213Y-91040247D01*
X122743515Y-91066807D01*
X122721308Y-91091308D01*
X122696807Y-91113515D01*
X122670247Y-91133213D01*
X122641884Y-91150213D01*
X122611991Y-91164351D01*
X122580857Y-91175491D01*
X122548781Y-91183525D01*
X122516071Y-91188377D01*
X122483044Y-91190000D01*
X121356956Y-91190000D01*
X121323929Y-91188377D01*
X121291219Y-91183525D01*
X121259143Y-91175491D01*
X121228009Y-91164351D01*
X121198116Y-91150213D01*
X121169753Y-91133213D01*
X121143193Y-91113515D01*
X121118692Y-91091308D01*
X121096485Y-91066807D01*
X121076787Y-91040247D01*
X121059787Y-91011884D01*
X121045649Y-90981991D01*
X121034509Y-90950857D01*
X121026475Y-90918781D01*
X121021623Y-90886071D01*
X121020000Y-90853044D01*
X121020000Y-89976956D01*
X121021623Y-89943929D01*
X121026475Y-89911219D01*
X121034509Y-89879143D01*
X121045649Y-89848009D01*
X121059787Y-89818116D01*
X121076787Y-89789753D01*
X121096485Y-89763193D01*
X121118692Y-89738692D01*
X121143193Y-89716485D01*
X121169753Y-89696787D01*
X121198116Y-89679787D01*
X121228009Y-89665649D01*
X121259143Y-89654509D01*
X121291219Y-89646475D01*
X121323929Y-89641623D01*
X121356956Y-89640000D01*
X122483044Y-89640000D01*
X122516071Y-89641623D01*
G37*
G36*
X173316071Y-91691623D02*
G01*
X173348781Y-91696475D01*
X173380857Y-91704509D01*
X173411991Y-91715649D01*
X173441884Y-91729787D01*
X173470247Y-91746787D01*
X173496807Y-91766485D01*
X173521308Y-91788692D01*
X173543515Y-91813193D01*
X173563213Y-91839753D01*
X173580213Y-91868116D01*
X173594351Y-91898009D01*
X173605491Y-91929143D01*
X173613525Y-91961219D01*
X173618377Y-91993929D01*
X173620000Y-92026956D01*
X173620000Y-92903044D01*
X173618377Y-92936071D01*
X173613525Y-92968781D01*
X173605491Y-93000857D01*
X173594351Y-93031991D01*
X173580213Y-93061884D01*
X173563213Y-93090247D01*
X173543515Y-93116807D01*
X173521308Y-93141308D01*
X173496807Y-93163515D01*
X173470247Y-93183213D01*
X173441884Y-93200213D01*
X173411991Y-93214351D01*
X173380857Y-93225491D01*
X173348781Y-93233525D01*
X173316071Y-93238377D01*
X173283044Y-93240000D01*
X172156956Y-93240000D01*
X172123929Y-93238377D01*
X172091219Y-93233525D01*
X172059143Y-93225491D01*
X172028009Y-93214351D01*
X171998116Y-93200213D01*
X171969753Y-93183213D01*
X171943193Y-93163515D01*
X171918692Y-93141308D01*
X171896485Y-93116807D01*
X171876787Y-93090247D01*
X171859787Y-93061884D01*
X171845649Y-93031991D01*
X171834509Y-93000857D01*
X171826475Y-92968781D01*
X171821623Y-92936071D01*
X171820000Y-92903044D01*
X171820000Y-92026956D01*
X171821623Y-91993929D01*
X171826475Y-91961219D01*
X171834509Y-91929143D01*
X171845649Y-91898009D01*
X171859787Y-91868116D01*
X171876787Y-91839753D01*
X171896485Y-91813193D01*
X171918692Y-91788692D01*
X171943193Y-91766485D01*
X171969753Y-91746787D01*
X171998116Y-91729787D01*
X172028009Y-91715649D01*
X172059143Y-91704509D01*
X172091219Y-91696475D01*
X172123929Y-91691623D01*
X172156956Y-91690000D01*
X173283044Y-91690000D01*
X173316071Y-91691623D01*
G37*
G36*
X173316071Y-89641623D02*
G01*
X173348781Y-89646475D01*
X173380857Y-89654509D01*
X173411991Y-89665649D01*
X173441884Y-89679787D01*
X173470247Y-89696787D01*
X173496807Y-89716485D01*
X173521308Y-89738692D01*
X173543515Y-89763193D01*
X173563213Y-89789753D01*
X173580213Y-89818116D01*
X173594351Y-89848009D01*
X173605491Y-89879143D01*
X173613525Y-89911219D01*
X173618377Y-89943929D01*
X173620000Y-89976956D01*
X173620000Y-90853044D01*
X173618377Y-90886071D01*
X173613525Y-90918781D01*
X173605491Y-90950857D01*
X173594351Y-90981991D01*
X173580213Y-91011884D01*
X173563213Y-91040247D01*
X173543515Y-91066807D01*
X173521308Y-91091308D01*
X173496807Y-91113515D01*
X173470247Y-91133213D01*
X173441884Y-91150213D01*
X173411991Y-91164351D01*
X173380857Y-91175491D01*
X173348781Y-91183525D01*
X173316071Y-91188377D01*
X173283044Y-91190000D01*
X172156956Y-91190000D01*
X172123929Y-91188377D01*
X172091219Y-91183525D01*
X172059143Y-91175491D01*
X172028009Y-91164351D01*
X171998116Y-91150213D01*
X171969753Y-91133213D01*
X171943193Y-91113515D01*
X171918692Y-91091308D01*
X171896485Y-91066807D01*
X171876787Y-91040247D01*
X171859787Y-91011884D01*
X171845649Y-90981991D01*
X171834509Y-90950857D01*
X171826475Y-90918781D01*
X171821623Y-90886071D01*
X171820000Y-90853044D01*
X171820000Y-89976956D01*
X171821623Y-89943929D01*
X171826475Y-89911219D01*
X171834509Y-89879143D01*
X171845649Y-89848009D01*
X171859787Y-89818116D01*
X171876787Y-89789753D01*
X171896485Y-89763193D01*
X171918692Y-89738692D01*
X171943193Y-89716485D01*
X171969753Y-89696787D01*
X171998116Y-89679787D01*
X172028009Y-89665649D01*
X172059143Y-89654509D01*
X172091219Y-89646475D01*
X172123929Y-89641623D01*
X172156956Y-89640000D01*
X173283044Y-89640000D01*
X173316071Y-89641623D01*
G37*
G36*
X127226071Y-74031623D02*
G01*
X127258781Y-74036475D01*
X127290857Y-74044509D01*
X127321991Y-74055649D01*
X127351884Y-74069787D01*
X127380247Y-74086787D01*
X127406807Y-74106485D01*
X127431308Y-74128692D01*
X127453515Y-74153193D01*
X127473213Y-74179753D01*
X127490213Y-74208116D01*
X127504351Y-74238009D01*
X127515491Y-74269143D01*
X127523525Y-74301219D01*
X127528377Y-74333929D01*
X127530000Y-74366956D01*
X127530000Y-75493044D01*
X127528377Y-75526071D01*
X127523525Y-75558781D01*
X127515491Y-75590857D01*
X127504351Y-75621991D01*
X127490213Y-75651884D01*
X127473213Y-75680247D01*
X127453515Y-75706807D01*
X127431308Y-75731308D01*
X127406807Y-75753515D01*
X127380247Y-75773213D01*
X127351884Y-75790213D01*
X127321991Y-75804351D01*
X127290857Y-75815491D01*
X127258781Y-75823525D01*
X127226071Y-75828377D01*
X127193044Y-75830000D01*
X126316956Y-75830000D01*
X126283929Y-75828377D01*
X126251219Y-75823525D01*
X126219143Y-75815491D01*
X126188009Y-75804351D01*
X126158116Y-75790213D01*
X126129753Y-75773213D01*
X126103193Y-75753515D01*
X126078692Y-75731308D01*
X126056485Y-75706807D01*
X126036787Y-75680247D01*
X126019787Y-75651884D01*
X126005649Y-75621991D01*
X125994509Y-75590857D01*
X125986475Y-75558781D01*
X125981623Y-75526071D01*
X125980000Y-75493044D01*
X125980000Y-74366956D01*
X125981623Y-74333929D01*
X125986475Y-74301219D01*
X125994509Y-74269143D01*
X126005649Y-74238009D01*
X126019787Y-74208116D01*
X126036787Y-74179753D01*
X126056485Y-74153193D01*
X126078692Y-74128692D01*
X126103193Y-74106485D01*
X126129753Y-74086787D01*
X126158116Y-74069787D01*
X126188009Y-74055649D01*
X126219143Y-74044509D01*
X126251219Y-74036475D01*
X126283929Y-74031623D01*
X126316956Y-74030000D01*
X127193044Y-74030000D01*
X127226071Y-74031623D01*
G37*
G36*
X125176071Y-74031623D02*
G01*
X125208781Y-74036475D01*
X125240857Y-74044509D01*
X125271991Y-74055649D01*
X125301884Y-74069787D01*
X125330247Y-74086787D01*
X125356807Y-74106485D01*
X125381308Y-74128692D01*
X125403515Y-74153193D01*
X125423213Y-74179753D01*
X125440213Y-74208116D01*
X125454351Y-74238009D01*
X125465491Y-74269143D01*
X125473525Y-74301219D01*
X125478377Y-74333929D01*
X125480000Y-74366956D01*
X125480000Y-75493044D01*
X125478377Y-75526071D01*
X125473525Y-75558781D01*
X125465491Y-75590857D01*
X125454351Y-75621991D01*
X125440213Y-75651884D01*
X125423213Y-75680247D01*
X125403515Y-75706807D01*
X125381308Y-75731308D01*
X125356807Y-75753515D01*
X125330247Y-75773213D01*
X125301884Y-75790213D01*
X125271991Y-75804351D01*
X125240857Y-75815491D01*
X125208781Y-75823525D01*
X125176071Y-75828377D01*
X125143044Y-75830000D01*
X124266956Y-75830000D01*
X124233929Y-75828377D01*
X124201219Y-75823525D01*
X124169143Y-75815491D01*
X124138009Y-75804351D01*
X124108116Y-75790213D01*
X124079753Y-75773213D01*
X124053193Y-75753515D01*
X124028692Y-75731308D01*
X124006485Y-75706807D01*
X123986787Y-75680247D01*
X123969787Y-75651884D01*
X123955649Y-75621991D01*
X123944509Y-75590857D01*
X123936475Y-75558781D01*
X123931623Y-75526071D01*
X123930000Y-75493044D01*
X123930000Y-74366956D01*
X123931623Y-74333929D01*
X123936475Y-74301219D01*
X123944509Y-74269143D01*
X123955649Y-74238009D01*
X123969787Y-74208116D01*
X123986787Y-74179753D01*
X124006485Y-74153193D01*
X124028692Y-74128692D01*
X124053193Y-74106485D01*
X124079753Y-74086787D01*
X124108116Y-74069787D01*
X124138009Y-74055649D01*
X124169143Y-74044509D01*
X124201219Y-74036475D01*
X124233929Y-74031623D01*
X124266956Y-74030000D01*
X125143044Y-74030000D01*
X125176071Y-74031623D01*
G37*
G36*
X121246071Y-62481623D02*
G01*
X121278781Y-62486475D01*
X121310857Y-62494509D01*
X121341991Y-62505649D01*
X121371884Y-62519787D01*
X121400247Y-62536787D01*
X121426807Y-62556485D01*
X121451308Y-62578692D01*
X121473515Y-62603193D01*
X121493213Y-62629753D01*
X121510213Y-62658116D01*
X121524351Y-62688009D01*
X121535491Y-62719143D01*
X121543525Y-62751219D01*
X121548377Y-62783929D01*
X121550000Y-62816956D01*
X121550000Y-63693044D01*
X121548377Y-63726071D01*
X121543525Y-63758781D01*
X121535491Y-63790857D01*
X121524351Y-63821991D01*
X121510213Y-63851884D01*
X121493213Y-63880247D01*
X121473515Y-63906807D01*
X121451308Y-63931308D01*
X121426807Y-63953515D01*
X121400247Y-63973213D01*
X121371884Y-63990213D01*
X121341991Y-64004351D01*
X121310857Y-64015491D01*
X121278781Y-64023525D01*
X121246071Y-64028377D01*
X121213044Y-64030000D01*
X120086956Y-64030000D01*
X120053929Y-64028377D01*
X120021219Y-64023525D01*
X119989143Y-64015491D01*
X119958009Y-64004351D01*
X119928116Y-63990213D01*
X119899753Y-63973213D01*
X119873193Y-63953515D01*
X119848692Y-63931308D01*
X119826485Y-63906807D01*
X119806787Y-63880247D01*
X119789787Y-63851884D01*
X119775649Y-63821991D01*
X119764509Y-63790857D01*
X119756475Y-63758781D01*
X119751623Y-63726071D01*
X119750000Y-63693044D01*
X119750000Y-62816956D01*
X119751623Y-62783929D01*
X119756475Y-62751219D01*
X119764509Y-62719143D01*
X119775649Y-62688009D01*
X119789787Y-62658116D01*
X119806787Y-62629753D01*
X119826485Y-62603193D01*
X119848692Y-62578692D01*
X119873193Y-62556485D01*
X119899753Y-62536787D01*
X119928116Y-62519787D01*
X119958009Y-62505649D01*
X119989143Y-62494509D01*
X120021219Y-62486475D01*
X120053929Y-62481623D01*
X120086956Y-62480000D01*
X121213044Y-62480000D01*
X121246071Y-62481623D01*
G37*
G36*
X121246071Y-60431623D02*
G01*
X121278781Y-60436475D01*
X121310857Y-60444509D01*
X121341991Y-60455649D01*
X121371884Y-60469787D01*
X121400247Y-60486787D01*
X121426807Y-60506485D01*
X121451308Y-60528692D01*
X121473515Y-60553193D01*
X121493213Y-60579753D01*
X121510213Y-60608116D01*
X121524351Y-60638009D01*
X121535491Y-60669143D01*
X121543525Y-60701219D01*
X121548377Y-60733929D01*
X121550000Y-60766956D01*
X121550000Y-61643044D01*
X121548377Y-61676071D01*
X121543525Y-61708781D01*
X121535491Y-61740857D01*
X121524351Y-61771991D01*
X121510213Y-61801884D01*
X121493213Y-61830247D01*
X121473515Y-61856807D01*
X121451308Y-61881308D01*
X121426807Y-61903515D01*
X121400247Y-61923213D01*
X121371884Y-61940213D01*
X121341991Y-61954351D01*
X121310857Y-61965491D01*
X121278781Y-61973525D01*
X121246071Y-61978377D01*
X121213044Y-61980000D01*
X120086956Y-61980000D01*
X120053929Y-61978377D01*
X120021219Y-61973525D01*
X119989143Y-61965491D01*
X119958009Y-61954351D01*
X119928116Y-61940213D01*
X119899753Y-61923213D01*
X119873193Y-61903515D01*
X119848692Y-61881308D01*
X119826485Y-61856807D01*
X119806787Y-61830247D01*
X119789787Y-61801884D01*
X119775649Y-61771991D01*
X119764509Y-61740857D01*
X119756475Y-61708781D01*
X119751623Y-61676071D01*
X119750000Y-61643044D01*
X119750000Y-60766956D01*
X119751623Y-60733929D01*
X119756475Y-60701219D01*
X119764509Y-60669143D01*
X119775649Y-60638009D01*
X119789787Y-60608116D01*
X119806787Y-60579753D01*
X119826485Y-60553193D01*
X119848692Y-60528692D01*
X119873193Y-60506485D01*
X119899753Y-60486787D01*
X119928116Y-60469787D01*
X119958009Y-60455649D01*
X119989143Y-60444509D01*
X120021219Y-60436475D01*
X120053929Y-60431623D01*
X120086956Y-60430000D01*
X121213044Y-60430000D01*
X121246071Y-60431623D01*
G37*
G36*
X178026071Y-74031623D02*
G01*
X178058781Y-74036475D01*
X178090857Y-74044509D01*
X178121991Y-74055649D01*
X178151884Y-74069787D01*
X178180247Y-74086787D01*
X178206807Y-74106485D01*
X178231308Y-74128692D01*
X178253515Y-74153193D01*
X178273213Y-74179753D01*
X178290213Y-74208116D01*
X178304351Y-74238009D01*
X178315491Y-74269143D01*
X178323525Y-74301219D01*
X178328377Y-74333929D01*
X178330000Y-74366956D01*
X178330000Y-75493044D01*
X178328377Y-75526071D01*
X178323525Y-75558781D01*
X178315491Y-75590857D01*
X178304351Y-75621991D01*
X178290213Y-75651884D01*
X178273213Y-75680247D01*
X178253515Y-75706807D01*
X178231308Y-75731308D01*
X178206807Y-75753515D01*
X178180247Y-75773213D01*
X178151884Y-75790213D01*
X178121991Y-75804351D01*
X178090857Y-75815491D01*
X178058781Y-75823525D01*
X178026071Y-75828377D01*
X177993044Y-75830000D01*
X177116956Y-75830000D01*
X177083929Y-75828377D01*
X177051219Y-75823525D01*
X177019143Y-75815491D01*
X176988009Y-75804351D01*
X176958116Y-75790213D01*
X176929753Y-75773213D01*
X176903193Y-75753515D01*
X176878692Y-75731308D01*
X176856485Y-75706807D01*
X176836787Y-75680247D01*
X176819787Y-75651884D01*
X176805649Y-75621991D01*
X176794509Y-75590857D01*
X176786475Y-75558781D01*
X176781623Y-75526071D01*
X176780000Y-75493044D01*
X176780000Y-74366956D01*
X176781623Y-74333929D01*
X176786475Y-74301219D01*
X176794509Y-74269143D01*
X176805649Y-74238009D01*
X176819787Y-74208116D01*
X176836787Y-74179753D01*
X176856485Y-74153193D01*
X176878692Y-74128692D01*
X176903193Y-74106485D01*
X176929753Y-74086787D01*
X176958116Y-74069787D01*
X176988009Y-74055649D01*
X177019143Y-74044509D01*
X177051219Y-74036475D01*
X177083929Y-74031623D01*
X177116956Y-74030000D01*
X177993044Y-74030000D01*
X178026071Y-74031623D01*
G37*
G36*
X175976071Y-74031623D02*
G01*
X176008781Y-74036475D01*
X176040857Y-74044509D01*
X176071991Y-74055649D01*
X176101884Y-74069787D01*
X176130247Y-74086787D01*
X176156807Y-74106485D01*
X176181308Y-74128692D01*
X176203515Y-74153193D01*
X176223213Y-74179753D01*
X176240213Y-74208116D01*
X176254351Y-74238009D01*
X176265491Y-74269143D01*
X176273525Y-74301219D01*
X176278377Y-74333929D01*
X176280000Y-74366956D01*
X176280000Y-75493044D01*
X176278377Y-75526071D01*
X176273525Y-75558781D01*
X176265491Y-75590857D01*
X176254351Y-75621991D01*
X176240213Y-75651884D01*
X176223213Y-75680247D01*
X176203515Y-75706807D01*
X176181308Y-75731308D01*
X176156807Y-75753515D01*
X176130247Y-75773213D01*
X176101884Y-75790213D01*
X176071991Y-75804351D01*
X176040857Y-75815491D01*
X176008781Y-75823525D01*
X175976071Y-75828377D01*
X175943044Y-75830000D01*
X175066956Y-75830000D01*
X175033929Y-75828377D01*
X175001219Y-75823525D01*
X174969143Y-75815491D01*
X174938009Y-75804351D01*
X174908116Y-75790213D01*
X174879753Y-75773213D01*
X174853193Y-75753515D01*
X174828692Y-75731308D01*
X174806485Y-75706807D01*
X174786787Y-75680247D01*
X174769787Y-75651884D01*
X174755649Y-75621991D01*
X174744509Y-75590857D01*
X174736475Y-75558781D01*
X174731623Y-75526071D01*
X174730000Y-75493044D01*
X174730000Y-74366956D01*
X174731623Y-74333929D01*
X174736475Y-74301219D01*
X174744509Y-74269143D01*
X174755649Y-74238009D01*
X174769787Y-74208116D01*
X174786787Y-74179753D01*
X174806485Y-74153193D01*
X174828692Y-74128692D01*
X174853193Y-74106485D01*
X174879753Y-74086787D01*
X174908116Y-74069787D01*
X174938009Y-74055649D01*
X174969143Y-74044509D01*
X175001219Y-74036475D01*
X175033929Y-74031623D01*
X175066956Y-74030000D01*
X175943044Y-74030000D01*
X175976071Y-74031623D01*
G37*
G36*
X172046071Y-62481623D02*
G01*
X172078781Y-62486475D01*
X172110857Y-62494509D01*
X172141991Y-62505649D01*
X172171884Y-62519787D01*
X172200247Y-62536787D01*
X172226807Y-62556485D01*
X172251308Y-62578692D01*
X172273515Y-62603193D01*
X172293213Y-62629753D01*
X172310213Y-62658116D01*
X172324351Y-62688009D01*
X172335491Y-62719143D01*
X172343525Y-62751219D01*
X172348377Y-62783929D01*
X172350000Y-62816956D01*
X172350000Y-63693044D01*
X172348377Y-63726071D01*
X172343525Y-63758781D01*
X172335491Y-63790857D01*
X172324351Y-63821991D01*
X172310213Y-63851884D01*
X172293213Y-63880247D01*
X172273515Y-63906807D01*
X172251308Y-63931308D01*
X172226807Y-63953515D01*
X172200247Y-63973213D01*
X172171884Y-63990213D01*
X172141991Y-64004351D01*
X172110857Y-64015491D01*
X172078781Y-64023525D01*
X172046071Y-64028377D01*
X172013044Y-64030000D01*
X170886956Y-64030000D01*
X170853929Y-64028377D01*
X170821219Y-64023525D01*
X170789143Y-64015491D01*
X170758009Y-64004351D01*
X170728116Y-63990213D01*
X170699753Y-63973213D01*
X170673193Y-63953515D01*
X170648692Y-63931308D01*
X170626485Y-63906807D01*
X170606787Y-63880247D01*
X170589787Y-63851884D01*
X170575649Y-63821991D01*
X170564509Y-63790857D01*
X170556475Y-63758781D01*
X170551623Y-63726071D01*
X170550000Y-63693044D01*
X170550000Y-62816956D01*
X170551623Y-62783929D01*
X170556475Y-62751219D01*
X170564509Y-62719143D01*
X170575649Y-62688009D01*
X170589787Y-62658116D01*
X170606787Y-62629753D01*
X170626485Y-62603193D01*
X170648692Y-62578692D01*
X170673193Y-62556485D01*
X170699753Y-62536787D01*
X170728116Y-62519787D01*
X170758009Y-62505649D01*
X170789143Y-62494509D01*
X170821219Y-62486475D01*
X170853929Y-62481623D01*
X170886956Y-62480000D01*
X172013044Y-62480000D01*
X172046071Y-62481623D01*
G37*
G36*
X172046071Y-60431623D02*
G01*
X172078781Y-60436475D01*
X172110857Y-60444509D01*
X172141991Y-60455649D01*
X172171884Y-60469787D01*
X172200247Y-60486787D01*
X172226807Y-60506485D01*
X172251308Y-60528692D01*
X172273515Y-60553193D01*
X172293213Y-60579753D01*
X172310213Y-60608116D01*
X172324351Y-60638009D01*
X172335491Y-60669143D01*
X172343525Y-60701219D01*
X172348377Y-60733929D01*
X172350000Y-60766956D01*
X172350000Y-61643044D01*
X172348377Y-61676071D01*
X172343525Y-61708781D01*
X172335491Y-61740857D01*
X172324351Y-61771991D01*
X172310213Y-61801884D01*
X172293213Y-61830247D01*
X172273515Y-61856807D01*
X172251308Y-61881308D01*
X172226807Y-61903515D01*
X172200247Y-61923213D01*
X172171884Y-61940213D01*
X172141991Y-61954351D01*
X172110857Y-61965491D01*
X172078781Y-61973525D01*
X172046071Y-61978377D01*
X172013044Y-61980000D01*
X170886956Y-61980000D01*
X170853929Y-61978377D01*
X170821219Y-61973525D01*
X170789143Y-61965491D01*
X170758009Y-61954351D01*
X170728116Y-61940213D01*
X170699753Y-61923213D01*
X170673193Y-61903515D01*
X170648692Y-61881308D01*
X170626485Y-61856807D01*
X170606787Y-61830247D01*
X170589787Y-61801884D01*
X170575649Y-61771991D01*
X170564509Y-61740857D01*
X170556475Y-61708781D01*
X170551623Y-61676071D01*
X170550000Y-61643044D01*
X170550000Y-60766956D01*
X170551623Y-60733929D01*
X170556475Y-60701219D01*
X170564509Y-60669143D01*
X170575649Y-60638009D01*
X170589787Y-60608116D01*
X170606787Y-60579753D01*
X170626485Y-60553193D01*
X170648692Y-60528692D01*
X170673193Y-60506485D01*
X170699753Y-60486787D01*
X170728116Y-60469787D01*
X170758009Y-60455649D01*
X170789143Y-60444509D01*
X170821219Y-60436475D01*
X170853929Y-60431623D01*
X170886956Y-60430000D01*
X172013044Y-60430000D01*
X172046071Y-60431623D01*
G37*
G36*
X168236071Y-89641623D02*
G01*
X168268781Y-89646475D01*
X168300857Y-89654509D01*
X168331991Y-89665649D01*
X168361884Y-89679787D01*
X168390247Y-89696787D01*
X168416807Y-89716485D01*
X168441308Y-89738692D01*
X168463515Y-89763193D01*
X168483213Y-89789753D01*
X168500213Y-89818116D01*
X168514351Y-89848009D01*
X168525491Y-89879143D01*
X168533525Y-89911219D01*
X168538377Y-89943929D01*
X168540000Y-89976956D01*
X168540000Y-90853044D01*
X168538377Y-90886071D01*
X168533525Y-90918781D01*
X168525491Y-90950857D01*
X168514351Y-90981991D01*
X168500213Y-91011884D01*
X168483213Y-91040247D01*
X168463515Y-91066807D01*
X168441308Y-91091308D01*
X168416807Y-91113515D01*
X168390247Y-91133213D01*
X168361884Y-91150213D01*
X168331991Y-91164351D01*
X168300857Y-91175491D01*
X168268781Y-91183525D01*
X168236071Y-91188377D01*
X168203044Y-91190000D01*
X167076956Y-91190000D01*
X167043929Y-91188377D01*
X167011219Y-91183525D01*
X166979143Y-91175491D01*
X166948009Y-91164351D01*
X166918116Y-91150213D01*
X166889753Y-91133213D01*
X166863193Y-91113515D01*
X166838692Y-91091308D01*
X166816485Y-91066807D01*
X166796787Y-91040247D01*
X166779787Y-91011884D01*
X166765649Y-90981991D01*
X166754509Y-90950857D01*
X166746475Y-90918781D01*
X166741623Y-90886071D01*
X166740000Y-90853044D01*
X166740000Y-89976956D01*
X166741623Y-89943929D01*
X166746475Y-89911219D01*
X166754509Y-89879143D01*
X166765649Y-89848009D01*
X166779787Y-89818116D01*
X166796787Y-89789753D01*
X166816485Y-89763193D01*
X166838692Y-89738692D01*
X166863193Y-89716485D01*
X166889753Y-89696787D01*
X166918116Y-89679787D01*
X166948009Y-89665649D01*
X166979143Y-89654509D01*
X167011219Y-89646475D01*
X167043929Y-89641623D01*
X167076956Y-89640000D01*
X168203044Y-89640000D01*
X168236071Y-89641623D01*
G37*
G36*
X168236071Y-91691623D02*
G01*
X168268781Y-91696475D01*
X168300857Y-91704509D01*
X168331991Y-91715649D01*
X168361884Y-91729787D01*
X168390247Y-91746787D01*
X168416807Y-91766485D01*
X168441308Y-91788692D01*
X168463515Y-91813193D01*
X168483213Y-91839753D01*
X168500213Y-91868116D01*
X168514351Y-91898009D01*
X168525491Y-91929143D01*
X168533525Y-91961219D01*
X168538377Y-91993929D01*
X168540000Y-92026956D01*
X168540000Y-92903044D01*
X168538377Y-92936071D01*
X168533525Y-92968781D01*
X168525491Y-93000857D01*
X168514351Y-93031991D01*
X168500213Y-93061884D01*
X168483213Y-93090247D01*
X168463515Y-93116807D01*
X168441308Y-93141308D01*
X168416807Y-93163515D01*
X168390247Y-93183213D01*
X168361884Y-93200213D01*
X168331991Y-93214351D01*
X168300857Y-93225491D01*
X168268781Y-93233525D01*
X168236071Y-93238377D01*
X168203044Y-93240000D01*
X167076956Y-93240000D01*
X167043929Y-93238377D01*
X167011219Y-93233525D01*
X166979143Y-93225491D01*
X166948009Y-93214351D01*
X166918116Y-93200213D01*
X166889753Y-93183213D01*
X166863193Y-93163515D01*
X166838692Y-93141308D01*
X166816485Y-93116807D01*
X166796787Y-93090247D01*
X166779787Y-93061884D01*
X166765649Y-93031991D01*
X166754509Y-93000857D01*
X166746475Y-92968781D01*
X166741623Y-92936071D01*
X166740000Y-92903044D01*
X166740000Y-92026956D01*
X166741623Y-91993929D01*
X166746475Y-91961219D01*
X166754509Y-91929143D01*
X166765649Y-91898009D01*
X166779787Y-91868116D01*
X166796787Y-91839753D01*
X166816485Y-91813193D01*
X166838692Y-91788692D01*
X166863193Y-91766485D01*
X166889753Y-91746787D01*
X166918116Y-91729787D01*
X166948009Y-91715649D01*
X166979143Y-91704509D01*
X167011219Y-91696475D01*
X167043929Y-91691623D01*
X167076956Y-91690000D01*
X168203044Y-91690000D01*
X168236071Y-91691623D01*
G37*
G36*
X118706071Y-60431623D02*
G01*
X118738781Y-60436475D01*
X118770857Y-60444509D01*
X118801991Y-60455649D01*
X118831884Y-60469787D01*
X118860247Y-60486787D01*
X118886807Y-60506485D01*
X118911308Y-60528692D01*
X118933515Y-60553193D01*
X118953213Y-60579753D01*
X118970213Y-60608116D01*
X118984351Y-60638009D01*
X118995491Y-60669143D01*
X119003525Y-60701219D01*
X119008377Y-60733929D01*
X119010000Y-60766956D01*
X119010000Y-61643044D01*
X119008377Y-61676071D01*
X119003525Y-61708781D01*
X118995491Y-61740857D01*
X118984351Y-61771991D01*
X118970213Y-61801884D01*
X118953213Y-61830247D01*
X118933515Y-61856807D01*
X118911308Y-61881308D01*
X118886807Y-61903515D01*
X118860247Y-61923213D01*
X118831884Y-61940213D01*
X118801991Y-61954351D01*
X118770857Y-61965491D01*
X118738781Y-61973525D01*
X118706071Y-61978377D01*
X118673044Y-61980000D01*
X117546956Y-61980000D01*
X117513929Y-61978377D01*
X117481219Y-61973525D01*
X117449143Y-61965491D01*
X117418009Y-61954351D01*
X117388116Y-61940213D01*
X117359753Y-61923213D01*
X117333193Y-61903515D01*
X117308692Y-61881308D01*
X117286485Y-61856807D01*
X117266787Y-61830247D01*
X117249787Y-61801884D01*
X117235649Y-61771991D01*
X117224509Y-61740857D01*
X117216475Y-61708781D01*
X117211623Y-61676071D01*
X117210000Y-61643044D01*
X117210000Y-60766956D01*
X117211623Y-60733929D01*
X117216475Y-60701219D01*
X117224509Y-60669143D01*
X117235649Y-60638009D01*
X117249787Y-60608116D01*
X117266787Y-60579753D01*
X117286485Y-60553193D01*
X117308692Y-60528692D01*
X117333193Y-60506485D01*
X117359753Y-60486787D01*
X117388116Y-60469787D01*
X117418009Y-60455649D01*
X117449143Y-60444509D01*
X117481219Y-60436475D01*
X117513929Y-60431623D01*
X117546956Y-60430000D01*
X118673044Y-60430000D01*
X118706071Y-60431623D01*
G37*
G36*
X118706071Y-62481623D02*
G01*
X118738781Y-62486475D01*
X118770857Y-62494509D01*
X118801991Y-62505649D01*
X118831884Y-62519787D01*
X118860247Y-62536787D01*
X118886807Y-62556485D01*
X118911308Y-62578692D01*
X118933515Y-62603193D01*
X118953213Y-62629753D01*
X118970213Y-62658116D01*
X118984351Y-62688009D01*
X118995491Y-62719143D01*
X119003525Y-62751219D01*
X119008377Y-62783929D01*
X119010000Y-62816956D01*
X119010000Y-63693044D01*
X119008377Y-63726071D01*
X119003525Y-63758781D01*
X118995491Y-63790857D01*
X118984351Y-63821991D01*
X118970213Y-63851884D01*
X118953213Y-63880247D01*
X118933515Y-63906807D01*
X118911308Y-63931308D01*
X118886807Y-63953515D01*
X118860247Y-63973213D01*
X118831884Y-63990213D01*
X118801991Y-64004351D01*
X118770857Y-64015491D01*
X118738781Y-64023525D01*
X118706071Y-64028377D01*
X118673044Y-64030000D01*
X117546956Y-64030000D01*
X117513929Y-64028377D01*
X117481219Y-64023525D01*
X117449143Y-64015491D01*
X117418009Y-64004351D01*
X117388116Y-63990213D01*
X117359753Y-63973213D01*
X117333193Y-63953515D01*
X117308692Y-63931308D01*
X117286485Y-63906807D01*
X117266787Y-63880247D01*
X117249787Y-63851884D01*
X117235649Y-63821991D01*
X117224509Y-63790857D01*
X117216475Y-63758781D01*
X117211623Y-63726071D01*
X117210000Y-63693044D01*
X117210000Y-62816956D01*
X117211623Y-62783929D01*
X117216475Y-62751219D01*
X117224509Y-62719143D01*
X117235649Y-62688009D01*
X117249787Y-62658116D01*
X117266787Y-62629753D01*
X117286485Y-62603193D01*
X117308692Y-62578692D01*
X117333193Y-62556485D01*
X117359753Y-62536787D01*
X117388116Y-62519787D01*
X117418009Y-62505649D01*
X117449143Y-62494509D01*
X117481219Y-62486475D01*
X117513929Y-62481623D01*
X117546956Y-62480000D01*
X118673044Y-62480000D01*
X118706071Y-62481623D01*
G37*
G36*
X165326071Y-74031623D02*
G01*
X165358781Y-74036475D01*
X165390857Y-74044509D01*
X165421991Y-74055649D01*
X165451884Y-74069787D01*
X165480247Y-74086787D01*
X165506807Y-74106485D01*
X165531308Y-74128692D01*
X165553515Y-74153193D01*
X165573213Y-74179753D01*
X165590213Y-74208116D01*
X165604351Y-74238009D01*
X165615491Y-74269143D01*
X165623525Y-74301219D01*
X165628377Y-74333929D01*
X165630000Y-74366956D01*
X165630000Y-75493044D01*
X165628377Y-75526071D01*
X165623525Y-75558781D01*
X165615491Y-75590857D01*
X165604351Y-75621991D01*
X165590213Y-75651884D01*
X165573213Y-75680247D01*
X165553515Y-75706807D01*
X165531308Y-75731308D01*
X165506807Y-75753515D01*
X165480247Y-75773213D01*
X165451884Y-75790213D01*
X165421991Y-75804351D01*
X165390857Y-75815491D01*
X165358781Y-75823525D01*
X165326071Y-75828377D01*
X165293044Y-75830000D01*
X164416956Y-75830000D01*
X164383929Y-75828377D01*
X164351219Y-75823525D01*
X164319143Y-75815491D01*
X164288009Y-75804351D01*
X164258116Y-75790213D01*
X164229753Y-75773213D01*
X164203193Y-75753515D01*
X164178692Y-75731308D01*
X164156485Y-75706807D01*
X164136787Y-75680247D01*
X164119787Y-75651884D01*
X164105649Y-75621991D01*
X164094509Y-75590857D01*
X164086475Y-75558781D01*
X164081623Y-75526071D01*
X164080000Y-75493044D01*
X164080000Y-74366956D01*
X164081623Y-74333929D01*
X164086475Y-74301219D01*
X164094509Y-74269143D01*
X164105649Y-74238009D01*
X164119787Y-74208116D01*
X164136787Y-74179753D01*
X164156485Y-74153193D01*
X164178692Y-74128692D01*
X164203193Y-74106485D01*
X164229753Y-74086787D01*
X164258116Y-74069787D01*
X164288009Y-74055649D01*
X164319143Y-74044509D01*
X164351219Y-74036475D01*
X164383929Y-74031623D01*
X164416956Y-74030000D01*
X165293044Y-74030000D01*
X165326071Y-74031623D01*
G37*
G36*
X163276071Y-74031623D02*
G01*
X163308781Y-74036475D01*
X163340857Y-74044509D01*
X163371991Y-74055649D01*
X163401884Y-74069787D01*
X163430247Y-74086787D01*
X163456807Y-74106485D01*
X163481308Y-74128692D01*
X163503515Y-74153193D01*
X163523213Y-74179753D01*
X163540213Y-74208116D01*
X163554351Y-74238009D01*
X163565491Y-74269143D01*
X163573525Y-74301219D01*
X163578377Y-74333929D01*
X163580000Y-74366956D01*
X163580000Y-75493044D01*
X163578377Y-75526071D01*
X163573525Y-75558781D01*
X163565491Y-75590857D01*
X163554351Y-75621991D01*
X163540213Y-75651884D01*
X163523213Y-75680247D01*
X163503515Y-75706807D01*
X163481308Y-75731308D01*
X163456807Y-75753515D01*
X163430247Y-75773213D01*
X163401884Y-75790213D01*
X163371991Y-75804351D01*
X163340857Y-75815491D01*
X163308781Y-75823525D01*
X163276071Y-75828377D01*
X163243044Y-75830000D01*
X162366956Y-75830000D01*
X162333929Y-75828377D01*
X162301219Y-75823525D01*
X162269143Y-75815491D01*
X162238009Y-75804351D01*
X162208116Y-75790213D01*
X162179753Y-75773213D01*
X162153193Y-75753515D01*
X162128692Y-75731308D01*
X162106485Y-75706807D01*
X162086787Y-75680247D01*
X162069787Y-75651884D01*
X162055649Y-75621991D01*
X162044509Y-75590857D01*
X162036475Y-75558781D01*
X162031623Y-75526071D01*
X162030000Y-75493044D01*
X162030000Y-74366956D01*
X162031623Y-74333929D01*
X162036475Y-74301219D01*
X162044509Y-74269143D01*
X162055649Y-74238009D01*
X162069787Y-74208116D01*
X162086787Y-74179753D01*
X162106485Y-74153193D01*
X162128692Y-74128692D01*
X162153193Y-74106485D01*
X162179753Y-74086787D01*
X162208116Y-74069787D01*
X162238009Y-74055649D01*
X162269143Y-74044509D01*
X162301219Y-74036475D01*
X162333929Y-74031623D01*
X162366956Y-74030000D01*
X163243044Y-74030000D01*
X163276071Y-74031623D01*
G37*
G36*
X169506071Y-60431623D02*
G01*
X169538781Y-60436475D01*
X169570857Y-60444509D01*
X169601991Y-60455649D01*
X169631884Y-60469787D01*
X169660247Y-60486787D01*
X169686807Y-60506485D01*
X169711308Y-60528692D01*
X169733515Y-60553193D01*
X169753213Y-60579753D01*
X169770213Y-60608116D01*
X169784351Y-60638009D01*
X169795491Y-60669143D01*
X169803525Y-60701219D01*
X169808377Y-60733929D01*
X169810000Y-60766956D01*
X169810000Y-61643044D01*
X169808377Y-61676071D01*
X169803525Y-61708781D01*
X169795491Y-61740857D01*
X169784351Y-61771991D01*
X169770213Y-61801884D01*
X169753213Y-61830247D01*
X169733515Y-61856807D01*
X169711308Y-61881308D01*
X169686807Y-61903515D01*
X169660247Y-61923213D01*
X169631884Y-61940213D01*
X169601991Y-61954351D01*
X169570857Y-61965491D01*
X169538781Y-61973525D01*
X169506071Y-61978377D01*
X169473044Y-61980000D01*
X168346956Y-61980000D01*
X168313929Y-61978377D01*
X168281219Y-61973525D01*
X168249143Y-61965491D01*
X168218009Y-61954351D01*
X168188116Y-61940213D01*
X168159753Y-61923213D01*
X168133193Y-61903515D01*
X168108692Y-61881308D01*
X168086485Y-61856807D01*
X168066787Y-61830247D01*
X168049787Y-61801884D01*
X168035649Y-61771991D01*
X168024509Y-61740857D01*
X168016475Y-61708781D01*
X168011623Y-61676071D01*
X168010000Y-61643044D01*
X168010000Y-60766956D01*
X168011623Y-60733929D01*
X168016475Y-60701219D01*
X168024509Y-60669143D01*
X168035649Y-60638009D01*
X168049787Y-60608116D01*
X168066787Y-60579753D01*
X168086485Y-60553193D01*
X168108692Y-60528692D01*
X168133193Y-60506485D01*
X168159753Y-60486787D01*
X168188116Y-60469787D01*
X168218009Y-60455649D01*
X168249143Y-60444509D01*
X168281219Y-60436475D01*
X168313929Y-60431623D01*
X168346956Y-60430000D01*
X169473044Y-60430000D01*
X169506071Y-60431623D01*
G37*
G36*
X169506071Y-62481623D02*
G01*
X169538781Y-62486475D01*
X169570857Y-62494509D01*
X169601991Y-62505649D01*
X169631884Y-62519787D01*
X169660247Y-62536787D01*
X169686807Y-62556485D01*
X169711308Y-62578692D01*
X169733515Y-62603193D01*
X169753213Y-62629753D01*
X169770213Y-62658116D01*
X169784351Y-62688009D01*
X169795491Y-62719143D01*
X169803525Y-62751219D01*
X169808377Y-62783929D01*
X169810000Y-62816956D01*
X169810000Y-63693044D01*
X169808377Y-63726071D01*
X169803525Y-63758781D01*
X169795491Y-63790857D01*
X169784351Y-63821991D01*
X169770213Y-63851884D01*
X169753213Y-63880247D01*
X169733515Y-63906807D01*
X169711308Y-63931308D01*
X169686807Y-63953515D01*
X169660247Y-63973213D01*
X169631884Y-63990213D01*
X169601991Y-64004351D01*
X169570857Y-64015491D01*
X169538781Y-64023525D01*
X169506071Y-64028377D01*
X169473044Y-64030000D01*
X168346956Y-64030000D01*
X168313929Y-64028377D01*
X168281219Y-64023525D01*
X168249143Y-64015491D01*
X168218009Y-64004351D01*
X168188116Y-63990213D01*
X168159753Y-63973213D01*
X168133193Y-63953515D01*
X168108692Y-63931308D01*
X168086485Y-63906807D01*
X168066787Y-63880247D01*
X168049787Y-63851884D01*
X168035649Y-63821991D01*
X168024509Y-63790857D01*
X168016475Y-63758781D01*
X168011623Y-63726071D01*
X168010000Y-63693044D01*
X168010000Y-62816956D01*
X168011623Y-62783929D01*
X168016475Y-62751219D01*
X168024509Y-62719143D01*
X168035649Y-62688009D01*
X168049787Y-62658116D01*
X168066787Y-62629753D01*
X168086485Y-62603193D01*
X168108692Y-62578692D01*
X168133193Y-62556485D01*
X168159753Y-62536787D01*
X168188116Y-62519787D01*
X168218009Y-62505649D01*
X168249143Y-62494509D01*
X168281219Y-62486475D01*
X168313929Y-62481623D01*
X168346956Y-62480000D01*
X169473044Y-62480000D01*
X169506071Y-62481623D01*
G37*
G36*
X117436071Y-89641623D02*
G01*
X117468781Y-89646475D01*
X117500857Y-89654509D01*
X117531991Y-89665649D01*
X117561884Y-89679787D01*
X117590247Y-89696787D01*
X117616807Y-89716485D01*
X117641308Y-89738692D01*
X117663515Y-89763193D01*
X117683213Y-89789753D01*
X117700213Y-89818116D01*
X117714351Y-89848009D01*
X117725491Y-89879143D01*
X117733525Y-89911219D01*
X117738377Y-89943929D01*
X117740000Y-89976956D01*
X117740000Y-90853044D01*
X117738377Y-90886071D01*
X117733525Y-90918781D01*
X117725491Y-90950857D01*
X117714351Y-90981991D01*
X117700213Y-91011884D01*
X117683213Y-91040247D01*
X117663515Y-91066807D01*
X117641308Y-91091308D01*
X117616807Y-91113515D01*
X117590247Y-91133213D01*
X117561884Y-91150213D01*
X117531991Y-91164351D01*
X117500857Y-91175491D01*
X117468781Y-91183525D01*
X117436071Y-91188377D01*
X117403044Y-91190000D01*
X116276956Y-91190000D01*
X116243929Y-91188377D01*
X116211219Y-91183525D01*
X116179143Y-91175491D01*
X116148009Y-91164351D01*
X116118116Y-91150213D01*
X116089753Y-91133213D01*
X116063193Y-91113515D01*
X116038692Y-91091308D01*
X116016485Y-91066807D01*
X115996787Y-91040247D01*
X115979787Y-91011884D01*
X115965649Y-90981991D01*
X115954509Y-90950857D01*
X115946475Y-90918781D01*
X115941623Y-90886071D01*
X115940000Y-90853044D01*
X115940000Y-89976956D01*
X115941623Y-89943929D01*
X115946475Y-89911219D01*
X115954509Y-89879143D01*
X115965649Y-89848009D01*
X115979787Y-89818116D01*
X115996787Y-89789753D01*
X116016485Y-89763193D01*
X116038692Y-89738692D01*
X116063193Y-89716485D01*
X116089753Y-89696787D01*
X116118116Y-89679787D01*
X116148009Y-89665649D01*
X116179143Y-89654509D01*
X116211219Y-89646475D01*
X116243929Y-89641623D01*
X116276956Y-89640000D01*
X117403044Y-89640000D01*
X117436071Y-89641623D01*
G37*
G36*
X117436071Y-91691623D02*
G01*
X117468781Y-91696475D01*
X117500857Y-91704509D01*
X117531991Y-91715649D01*
X117561884Y-91729787D01*
X117590247Y-91746787D01*
X117616807Y-91766485D01*
X117641308Y-91788692D01*
X117663515Y-91813193D01*
X117683213Y-91839753D01*
X117700213Y-91868116D01*
X117714351Y-91898009D01*
X117725491Y-91929143D01*
X117733525Y-91961219D01*
X117738377Y-91993929D01*
X117740000Y-92026956D01*
X117740000Y-92903044D01*
X117738377Y-92936071D01*
X117733525Y-92968781D01*
X117725491Y-93000857D01*
X117714351Y-93031991D01*
X117700213Y-93061884D01*
X117683213Y-93090247D01*
X117663515Y-93116807D01*
X117641308Y-93141308D01*
X117616807Y-93163515D01*
X117590247Y-93183213D01*
X117561884Y-93200213D01*
X117531991Y-93214351D01*
X117500857Y-93225491D01*
X117468781Y-93233525D01*
X117436071Y-93238377D01*
X117403044Y-93240000D01*
X116276956Y-93240000D01*
X116243929Y-93238377D01*
X116211219Y-93233525D01*
X116179143Y-93225491D01*
X116148009Y-93214351D01*
X116118116Y-93200213D01*
X116089753Y-93183213D01*
X116063193Y-93163515D01*
X116038692Y-93141308D01*
X116016485Y-93116807D01*
X115996787Y-93090247D01*
X115979787Y-93061884D01*
X115965649Y-93031991D01*
X115954509Y-93000857D01*
X115946475Y-92968781D01*
X115941623Y-92936071D01*
X115940000Y-92903044D01*
X115940000Y-92026956D01*
X115941623Y-91993929D01*
X115946475Y-91961219D01*
X115954509Y-91929143D01*
X115965649Y-91898009D01*
X115979787Y-91868116D01*
X115996787Y-91839753D01*
X116016485Y-91813193D01*
X116038692Y-91788692D01*
X116063193Y-91766485D01*
X116089753Y-91746787D01*
X116118116Y-91729787D01*
X116148009Y-91715649D01*
X116179143Y-91704509D01*
X116211219Y-91696475D01*
X116243929Y-91691623D01*
X116276956Y-91690000D01*
X117403044Y-91690000D01*
X117436071Y-91691623D01*
G37*
G36*
X114526071Y-74031623D02*
G01*
X114558781Y-74036475D01*
X114590857Y-74044509D01*
X114621991Y-74055649D01*
X114651884Y-74069787D01*
X114680247Y-74086787D01*
X114706807Y-74106485D01*
X114731308Y-74128692D01*
X114753515Y-74153193D01*
X114773213Y-74179753D01*
X114790213Y-74208116D01*
X114804351Y-74238009D01*
X114815491Y-74269143D01*
X114823525Y-74301219D01*
X114828377Y-74333929D01*
X114830000Y-74366956D01*
X114830000Y-75493044D01*
X114828377Y-75526071D01*
X114823525Y-75558781D01*
X114815491Y-75590857D01*
X114804351Y-75621991D01*
X114790213Y-75651884D01*
X114773213Y-75680247D01*
X114753515Y-75706807D01*
X114731308Y-75731308D01*
X114706807Y-75753515D01*
X114680247Y-75773213D01*
X114651884Y-75790213D01*
X114621991Y-75804351D01*
X114590857Y-75815491D01*
X114558781Y-75823525D01*
X114526071Y-75828377D01*
X114493044Y-75830000D01*
X113616956Y-75830000D01*
X113583929Y-75828377D01*
X113551219Y-75823525D01*
X113519143Y-75815491D01*
X113488009Y-75804351D01*
X113458116Y-75790213D01*
X113429753Y-75773213D01*
X113403193Y-75753515D01*
X113378692Y-75731308D01*
X113356485Y-75706807D01*
X113336787Y-75680247D01*
X113319787Y-75651884D01*
X113305649Y-75621991D01*
X113294509Y-75590857D01*
X113286475Y-75558781D01*
X113281623Y-75526071D01*
X113280000Y-75493044D01*
X113280000Y-74366956D01*
X113281623Y-74333929D01*
X113286475Y-74301219D01*
X113294509Y-74269143D01*
X113305649Y-74238009D01*
X113319787Y-74208116D01*
X113336787Y-74179753D01*
X113356485Y-74153193D01*
X113378692Y-74128692D01*
X113403193Y-74106485D01*
X113429753Y-74086787D01*
X113458116Y-74069787D01*
X113488009Y-74055649D01*
X113519143Y-74044509D01*
X113551219Y-74036475D01*
X113583929Y-74031623D01*
X113616956Y-74030000D01*
X114493044Y-74030000D01*
X114526071Y-74031623D01*
G37*
G36*
X112476071Y-74031623D02*
G01*
X112508781Y-74036475D01*
X112540857Y-74044509D01*
X112571991Y-74055649D01*
X112601884Y-74069787D01*
X112630247Y-74086787D01*
X112656807Y-74106485D01*
X112681308Y-74128692D01*
X112703515Y-74153193D01*
X112723213Y-74179753D01*
X112740213Y-74208116D01*
X112754351Y-74238009D01*
X112765491Y-74269143D01*
X112773525Y-74301219D01*
X112778377Y-74333929D01*
X112780000Y-74366956D01*
X112780000Y-75493044D01*
X112778377Y-75526071D01*
X112773525Y-75558781D01*
X112765491Y-75590857D01*
X112754351Y-75621991D01*
X112740213Y-75651884D01*
X112723213Y-75680247D01*
X112703515Y-75706807D01*
X112681308Y-75731308D01*
X112656807Y-75753515D01*
X112630247Y-75773213D01*
X112601884Y-75790213D01*
X112571991Y-75804351D01*
X112540857Y-75815491D01*
X112508781Y-75823525D01*
X112476071Y-75828377D01*
X112443044Y-75830000D01*
X111566956Y-75830000D01*
X111533929Y-75828377D01*
X111501219Y-75823525D01*
X111469143Y-75815491D01*
X111438009Y-75804351D01*
X111408116Y-75790213D01*
X111379753Y-75773213D01*
X111353193Y-75753515D01*
X111328692Y-75731308D01*
X111306485Y-75706807D01*
X111286787Y-75680247D01*
X111269787Y-75651884D01*
X111255649Y-75621991D01*
X111244509Y-75590857D01*
X111236475Y-75558781D01*
X111231623Y-75526071D01*
X111230000Y-75493044D01*
X111230000Y-74366956D01*
X111231623Y-74333929D01*
X111236475Y-74301219D01*
X111244509Y-74269143D01*
X111255649Y-74238009D01*
X111269787Y-74208116D01*
X111286787Y-74179753D01*
X111306485Y-74153193D01*
X111328692Y-74128692D01*
X111353193Y-74106485D01*
X111379753Y-74086787D01*
X111408116Y-74069787D01*
X111438009Y-74055649D01*
X111469143Y-74044509D01*
X111501219Y-74036475D01*
X111533929Y-74031623D01*
X111566956Y-74030000D01*
X112443044Y-74030000D01*
X112476071Y-74031623D01*
G37*
D10*
X149860000Y-106680000D03*
X149860000Y-104140000D03*
X147320000Y-106680000D03*
X147320000Y-104140000D03*
X144780000Y-106680000D03*
X144780000Y-104140000D03*
X142240000Y-106680000D03*
X142240000Y-104140000D03*
X139700000Y-106680000D03*
D11*
X139700000Y-104140000D03*
D10*
X157480000Y-139700000D03*
X157480000Y-137160000D03*
X157480000Y-134620000D03*
X157480000Y-132080000D03*
X157480000Y-129540000D03*
X157480000Y-127000000D03*
X157480000Y-124460000D03*
X157480000Y-121920000D03*
X157480000Y-119380000D03*
D11*
X157480000Y-116840000D03*
D10*
X191770000Y-77470000D03*
X191770000Y-74930000D03*
X191770000Y-72390000D03*
X191770000Y-69850000D03*
X191770000Y-67310000D03*
X191770000Y-64770000D03*
X191770000Y-62230000D03*
X191770000Y-59690000D03*
X191770000Y-57150000D03*
X191770000Y-54610000D03*
X191770000Y-52070000D03*
D11*
X191770000Y-49530000D03*
D10*
X132080000Y-139700000D03*
X132080000Y-137160000D03*
X132080000Y-134620000D03*
X132080000Y-132080000D03*
X132080000Y-129540000D03*
X132080000Y-127000000D03*
X132080000Y-124460000D03*
X132080000Y-121920000D03*
X132080000Y-119380000D03*
D11*
X132080000Y-116840000D03*
D10*
X97790000Y-77470000D03*
X97790000Y-74930000D03*
X97790000Y-72390000D03*
X97790000Y-69850000D03*
X97790000Y-67310000D03*
X97790000Y-64770000D03*
X97790000Y-62230000D03*
X97790000Y-59690000D03*
X97790000Y-57150000D03*
X97790000Y-54610000D03*
X97790000Y-52070000D03*
D11*
X97790000Y-49530000D03*
D13*
X154050000Y-86360000D03*
X150750000Y-86360000D03*
X138810000Y-86360000D03*
X135510000Y-86360000D03*
D14*
X140970000Y-91280000D03*
X140970000Y-96680000D03*
X148590000Y-96680000D03*
X148590000Y-91280000D03*
D15*
X144780000Y-49530000D03*
M02*
