M48
; DRILL file {KiCad (5.1.5)-3} date 5/8/2020 6:04:44 AM
; FORMAT={-:-/ absolute / inch / decimal}
; #@! TF.CreationDate,2020-05-08T06:04:44-05:00
; #@! TF.GenerationSoftware,Kicad,Pcbnew,(5.1.5)-3
; #@! TF.FileFunction,Plated,1,2,PTH
FMAT,2
INCH
T1C0.0200
T2C0.0394
T3C0.1063
%
G90
G05
T1
X4.0Y-3.0
X4.05Y-3.65
X4.05Y-3.75
X4.05Y-3.8
X4.1Y-2.2
X4.1Y-2.5
X4.15Y-2.05
X4.15Y-2.75
X4.15Y-2.95
X4.15Y-3.25
X4.15Y-3.35
X4.25Y-2.7
X4.3Y-2.15
X4.3Y-2.25
X4.3Y-2.95
X4.3Y-3.4
X4.35Y-2.7
X4.35Y-3.2
X4.4Y-2.4
X4.4Y-2.55
X4.45Y-3.1
X4.5Y-2.45
X4.5Y-3.3
X4.55Y-2.15
X4.55Y-2.95
X4.55Y-3.55
X4.6Y-3.15
X4.65Y-2.3
X4.65Y-2.35
X4.65Y-2.9
X4.65Y-3.45
X4.7Y-3.05
X4.75Y-2.3
X4.75Y-2.35
X4.75Y-2.8
X4.75Y-2.9
X4.75Y-3.0
X4.8Y-3.95
X4.85Y-2.25
X4.85Y-2.95
X4.85Y-3.15
X4.85Y-3.55
X4.9Y-2.55
X4.9Y-3.15
X4.9Y-3.375
X4.9469Y-2.4
X5.0Y-3.2
X5.0Y-3.3
X5.0Y-3.9
X5.05Y-5.45
X5.05Y-5.55
X5.1Y-3.7
X5.125Y-2.75
X5.15Y-2.2
X5.15Y-2.4
X5.15Y-3.45
X5.2Y-2.575
X5.25Y-2.7
X5.25Y-2.9
X5.3Y-2.9
X5.3Y-5.15
X5.35Y-2.4
X5.35Y-3.9
X5.35Y-4.15
X5.4Y-3.15
X5.4Y-4.8
X5.45Y-2.25
X5.45Y-4.9
X5.5Y-4.6
X5.5Y-5.1
X5.55Y-4.55
X5.55Y-4.65
X5.55Y-5.2
X5.6Y-3.25
X5.65Y-2.1
X5.65Y-2.3
X5.65Y-2.95
X5.65Y-3.7
X5.65Y-4.6
X5.65Y-5.15
X5.65Y-5.5
X5.65Y-5.55
X5.7Y-2.25
X5.7Y-4.65
X5.7Y-5.25
X5.75Y-2.4
X5.75Y-2.95
X5.75Y-3.7
X5.75Y-4.6
X5.75Y-5.15
X5.75Y-5.5
X5.8Y-3.6
X5.85Y-2.25
X5.85Y-3.25
X5.85Y-4.65
X5.85Y-4.7
X5.85Y-5.1
X5.85Y-5.45
X5.8518Y-5.5968
X5.95Y-4.9
X5.95Y-5.6
X6.0Y-3.2
X6.0Y-4.6
X6.05Y-2.1
X6.05Y-2.3
X6.05Y-3.9
X6.05Y-4.15
X6.1Y-2.675
X6.1Y-2.9
X6.1Y-5.15
X6.15Y-2.7
X6.15Y-2.9
X6.25Y-2.2
X6.25Y-2.4
X6.25Y-3.45
X6.275Y-2.75
X6.3Y-3.7
X6.35Y-2.95
X6.35Y-5.45
X6.35Y-5.55
X6.4Y-3.2
X6.4Y-3.3
X6.4Y-3.9
X6.45Y-2.4
X6.5Y-2.55
X6.5Y-3.15
X6.5Y-3.375
X6.525Y-2.35
X6.55Y-2.25
X6.55Y-2.95
X6.55Y-3.15
X6.55Y-3.55
X6.6Y-3.95
X6.65Y-2.3
X6.65Y-2.35
X6.65Y-2.8
X6.65Y-2.9
X6.65Y-3.0
X6.7Y-3.05
X6.75Y-2.3
X6.75Y-2.35
X6.75Y-2.9
X6.75Y-3.45
X6.75Y-3.55
X6.8Y-3.15
X6.85Y-2.15
X6.85Y-2.95
X6.875Y-3.5
X6.9Y-2.45
X6.9Y-3.3
X6.95Y-3.1
X7.0Y-2.4
X7.0Y-2.55
X7.05Y-2.7
X7.05Y-3.2
X7.1Y-2.15
X7.1Y-2.25
X7.1Y-2.95
X7.1Y-3.4
X7.15Y-2.7
X7.25Y-2.05
X7.25Y-2.7
X7.25Y-2.95
X7.25Y-3.25
X7.25Y-3.35
X7.3Y-2.2
X7.3Y-2.5
X7.35Y-3.65
X7.35Y-3.75
X7.4Y-3.0
T2
X6.2Y-4.6
X6.2Y-4.7
X6.2Y-4.8
X6.2Y-4.9
X6.2Y-5.0
X6.2Y-5.1
X6.2Y-5.2
X6.2Y-5.3
X6.2Y-5.4
X6.2Y-5.5
X5.2Y-5.65
X5.3Y-5.65
X5.4Y-5.65
X3.85Y-1.95
X3.85Y-2.05
X3.85Y-2.15
X3.85Y-2.25
X3.85Y-2.35
X3.85Y-2.45
X3.85Y-2.55
X3.85Y-2.65
X3.85Y-2.75
X3.85Y-2.85
X3.85Y-2.95
X3.85Y-3.05
X5.2Y-4.6
X5.2Y-4.7
X5.2Y-4.8
X5.2Y-4.9
X5.2Y-5.0
X5.2Y-5.1
X5.2Y-5.2
X5.2Y-5.3
X5.2Y-5.4
X5.2Y-5.5
X7.55Y-1.95
X7.55Y-2.05
X7.55Y-2.15
X7.55Y-2.25
X7.55Y-2.35
X7.55Y-2.45
X7.55Y-2.55
X7.55Y-2.65
X7.55Y-2.75
X7.55Y-2.85
X7.55Y-2.95
X7.55Y-3.05
X5.5Y-4.1
X5.5Y-4.2
X5.6Y-4.1
X5.6Y-4.2
X5.7Y-4.1
X5.7Y-4.2
X5.8Y-4.1
X5.8Y-4.2
X5.9Y-4.1
X5.9Y-4.2
T3
X5.7Y-1.95
T0
M30
