G04 #@! TF.GenerationSoftware,KiCad,Pcbnew,(5.1.5)-3*
G04 #@! TF.CreationDate,2020-05-10T02:07:48-05:00*
G04 #@! TF.ProjectId,Miasma_IO_smd,4d696173-6d61-45f4-994f-5f736d642e6b,rev?*
G04 #@! TF.SameCoordinates,Original*
G04 #@! TF.FileFunction,Legend,Bot*
G04 #@! TF.FilePolarity,Positive*
%FSLAX46Y46*%
G04 Gerber Fmt 4.6, Leading zero omitted, Abs format (unit mm)*
G04 Created by KiCad (PCBNEW (5.1.5)-3) date 2020-05-10 02:07:48*
%MOMM*%
%LPD*%
G04 APERTURE LIST*
%ADD10C,0.120000*%
%ADD11C,0.150000*%
%ADD12O,3.810000X1.905000*%
%ADD13O,1.905000X3.810000*%
%ADD14R,0.800000X1.900000*%
%ADD15R,1.222000X1.222000*%
%ADD16C,1.222000*%
%ADD17C,1.853200*%
%ADD18C,1.800000*%
%ADD19O,2.720000X3.240000*%
%ADD20R,1.800000X1.800000*%
%ADD21O,1.700000X1.700000*%
%ADD22R,1.700000X1.700000*%
%ADD23R,1.000000X1.000000*%
%ADD24C,0.100000*%
%ADD25R,2.000000X2.000000*%
%ADD26C,2.000000*%
%ADD27C,4.700000*%
%ADD28R,1.500000X1.300000*%
%ADD29R,1.300000X1.500000*%
%ADD30R,1.250000X1.500000*%
%ADD31R,1.500000X1.250000*%
G04 APERTURE END LIST*
D10*
X182570000Y-109730000D02*
X182570000Y-111190000D01*
X185730000Y-109730000D02*
X185730000Y-112890000D01*
X185730000Y-109730000D02*
X184800000Y-109730000D01*
X182570000Y-109730000D02*
X183500000Y-109730000D01*
X185730000Y-117600000D02*
X185730000Y-116140000D01*
X182570000Y-117600000D02*
X182570000Y-114440000D01*
X182570000Y-117600000D02*
X183500000Y-117600000D01*
X185730000Y-117600000D02*
X184800000Y-117600000D01*
X109530000Y-117600000D02*
X109530000Y-116140000D01*
X106370000Y-117600000D02*
X106370000Y-114440000D01*
X106370000Y-117600000D02*
X107300000Y-117600000D01*
X109530000Y-117600000D02*
X108600000Y-117600000D01*
X106370000Y-109730000D02*
X106370000Y-111190000D01*
X109530000Y-109730000D02*
X109530000Y-112890000D01*
X109530000Y-109730000D02*
X108600000Y-109730000D01*
X106370000Y-109730000D02*
X107300000Y-109730000D01*
X170600000Y-120020000D02*
X170600000Y-123170000D01*
X172300000Y-120020000D02*
X172300000Y-123170000D01*
X170600000Y-120020000D02*
X172300000Y-120020000D01*
X119800000Y-120020000D02*
X119800000Y-123170000D01*
X121500000Y-120020000D02*
X121500000Y-123170000D01*
X119800000Y-120020000D02*
X121500000Y-120020000D01*
X146050000Y-98415000D02*
X142600000Y-98415000D01*
X146050000Y-98415000D02*
X148000000Y-98415000D01*
X146050000Y-89545000D02*
X144100000Y-89545000D01*
X146050000Y-89545000D02*
X148000000Y-89545000D01*
X194370000Y-57090000D02*
X193040000Y-57090000D01*
X194370000Y-58420000D02*
X194370000Y-57090000D01*
X194370000Y-59690000D02*
X191710000Y-59690000D01*
X191710000Y-59690000D02*
X191710000Y-87690000D01*
X194370000Y-59690000D02*
X194370000Y-87690000D01*
X194370000Y-87690000D02*
X191710000Y-87690000D01*
X160080000Y-124400000D02*
X158750000Y-124400000D01*
X160080000Y-125730000D02*
X160080000Y-124400000D01*
X160080000Y-127000000D02*
X157420000Y-127000000D01*
X157420000Y-127000000D02*
X157420000Y-149920000D01*
X160080000Y-127000000D02*
X160080000Y-149920000D01*
X160080000Y-149920000D02*
X157420000Y-149920000D01*
X134680000Y-124400000D02*
X133350000Y-124400000D01*
X134680000Y-125730000D02*
X134680000Y-124400000D01*
X134680000Y-127000000D02*
X132020000Y-127000000D01*
X132020000Y-127000000D02*
X132020000Y-149920000D01*
X134680000Y-127000000D02*
X134680000Y-149920000D01*
X134680000Y-149920000D02*
X132020000Y-149920000D01*
X100390000Y-57090000D02*
X99060000Y-57090000D01*
X100390000Y-58420000D02*
X100390000Y-57090000D01*
X100390000Y-59690000D02*
X97730000Y-59690000D01*
X97730000Y-59690000D02*
X97730000Y-87690000D01*
X100390000Y-59690000D02*
X100390000Y-87690000D01*
X100390000Y-87690000D02*
X97730000Y-87690000D01*
X192190000Y-132720000D02*
X192190000Y-135870000D01*
X193890000Y-132720000D02*
X193890000Y-135870000D01*
X192190000Y-132720000D02*
X193890000Y-132720000D01*
X189650000Y-132720000D02*
X189650000Y-135870000D01*
X191350000Y-132720000D02*
X191350000Y-135870000D01*
X189650000Y-132720000D02*
X191350000Y-132720000D01*
X100750000Y-132720000D02*
X100750000Y-135870000D01*
X102450000Y-132720000D02*
X102450000Y-135870000D01*
X100750000Y-132720000D02*
X102450000Y-132720000D01*
X98210000Y-132720000D02*
X98210000Y-135870000D01*
X99910000Y-132720000D02*
X99910000Y-135870000D01*
X98210000Y-132720000D02*
X99910000Y-132720000D01*
X191100000Y-93100000D02*
X189900000Y-93100000D01*
X189900000Y-94860000D02*
X191100000Y-94860000D01*
X165980000Y-135220000D02*
X165980000Y-134020000D01*
X164220000Y-134020000D02*
X164220000Y-135220000D01*
X190890000Y-149260000D02*
X190890000Y-150460000D01*
X192650000Y-150460000D02*
X192650000Y-149260000D01*
X188840000Y-135220000D02*
X188840000Y-134020000D01*
X187080000Y-134020000D02*
X187080000Y-135220000D01*
X170850000Y-82160000D02*
X172050000Y-82160000D01*
X172050000Y-80400000D02*
X170850000Y-80400000D01*
X184750000Y-74050000D02*
X183550000Y-74050000D01*
X183550000Y-75810000D02*
X184750000Y-75810000D01*
X170850000Y-84700000D02*
X172050000Y-84700000D01*
X172050000Y-82940000D02*
X170850000Y-82940000D01*
X154270000Y-88020000D02*
X153070000Y-88020000D01*
X153070000Y-89780000D02*
X154270000Y-89780000D01*
X184750000Y-71510000D02*
X183550000Y-71510000D01*
X183550000Y-73270000D02*
X184750000Y-73270000D01*
X178680000Y-135220000D02*
X178680000Y-134020000D01*
X176920000Y-134020000D02*
X176920000Y-135220000D01*
X181010000Y-103750000D02*
X182210000Y-103750000D01*
X182210000Y-101990000D02*
X181010000Y-101990000D01*
X173110000Y-61630000D02*
X173110000Y-62830000D01*
X174870000Y-62830000D02*
X174870000Y-61630000D01*
X168030000Y-61630000D02*
X168030000Y-62830000D01*
X169790000Y-62830000D02*
X169790000Y-61630000D01*
X159350000Y-74050000D02*
X158150000Y-74050000D01*
X158150000Y-75810000D02*
X159350000Y-75810000D01*
X178680000Y-150460000D02*
X178680000Y-149260000D01*
X176920000Y-149260000D02*
X176920000Y-150460000D01*
X165980000Y-150460000D02*
X165980000Y-149260000D01*
X164220000Y-149260000D02*
X164220000Y-150460000D01*
X188350000Y-149260000D02*
X188350000Y-150460000D01*
X190110000Y-150460000D02*
X190110000Y-149260000D01*
X154270000Y-98180000D02*
X153070000Y-98180000D01*
X153070000Y-99940000D02*
X154270000Y-99940000D01*
X159350000Y-71510000D02*
X158150000Y-71510000D01*
X158150000Y-73270000D02*
X159350000Y-73270000D01*
X160690000Y-103750000D02*
X161890000Y-103750000D01*
X161890000Y-101990000D02*
X160690000Y-101990000D01*
X184540000Y-128940000D02*
X184540000Y-130140000D01*
X186300000Y-130140000D02*
X186300000Y-128940000D01*
X182000000Y-128940000D02*
X182000000Y-130140000D01*
X183760000Y-130140000D02*
X183760000Y-128940000D01*
X151520000Y-149260000D02*
X151520000Y-150460000D01*
X153280000Y-150460000D02*
X153280000Y-149260000D01*
X153280000Y-135220000D02*
X153280000Y-134020000D01*
X151520000Y-134020000D02*
X151520000Y-135220000D01*
X153280000Y-119980000D02*
X153280000Y-118780000D01*
X151520000Y-118780000D02*
X151520000Y-119980000D01*
X184540000Y-123860000D02*
X184540000Y-125060000D01*
X186300000Y-125060000D02*
X186300000Y-123860000D01*
X105800000Y-123860000D02*
X105800000Y-125060000D01*
X107560000Y-125060000D02*
X107560000Y-123860000D01*
X108340000Y-128940000D02*
X108340000Y-130140000D01*
X110100000Y-130140000D02*
X110100000Y-128940000D01*
X105800000Y-128940000D02*
X105800000Y-130140000D01*
X107560000Y-130140000D02*
X107560000Y-128940000D01*
X138820000Y-149260000D02*
X138820000Y-150460000D01*
X140580000Y-150460000D02*
X140580000Y-149260000D01*
X140580000Y-135220000D02*
X140580000Y-134020000D01*
X138820000Y-134020000D02*
X138820000Y-135220000D01*
X140580000Y-119980000D02*
X140580000Y-118780000D01*
X138820000Y-118780000D02*
X138820000Y-119980000D01*
X132750000Y-75810000D02*
X133950000Y-75810000D01*
X133950000Y-74050000D02*
X132750000Y-74050000D01*
X137830000Y-99940000D02*
X139030000Y-99940000D01*
X139030000Y-98180000D02*
X137830000Y-98180000D01*
X117230000Y-61630000D02*
X117230000Y-62830000D01*
X118990000Y-62830000D02*
X118990000Y-61630000D01*
X122310000Y-61630000D02*
X122310000Y-62830000D01*
X124070000Y-62830000D02*
X124070000Y-61630000D01*
X132750000Y-73270000D02*
X133950000Y-73270000D01*
X133950000Y-71510000D02*
X132750000Y-71510000D01*
X127880000Y-150460000D02*
X127880000Y-149260000D01*
X126120000Y-149260000D02*
X126120000Y-150460000D01*
X113420000Y-149260000D02*
X113420000Y-150460000D01*
X115180000Y-150460000D02*
X115180000Y-149260000D01*
X101990000Y-149260000D02*
X101990000Y-150460000D01*
X103750000Y-150460000D02*
X103750000Y-149260000D01*
X131410000Y-101990000D02*
X130210000Y-101990000D01*
X130210000Y-103750000D02*
X131410000Y-103750000D01*
X107350000Y-75810000D02*
X108550000Y-75810000D01*
X108550000Y-74050000D02*
X107350000Y-74050000D01*
X115180000Y-135220000D02*
X115180000Y-134020000D01*
X113420000Y-134020000D02*
X113420000Y-135220000D01*
X137830000Y-89780000D02*
X139030000Y-89780000D01*
X139030000Y-88020000D02*
X137830000Y-88020000D01*
X121250000Y-80400000D02*
X120050000Y-80400000D01*
X120050000Y-82160000D02*
X121250000Y-82160000D01*
X107350000Y-73270000D02*
X108550000Y-73270000D01*
X108550000Y-71510000D02*
X107350000Y-71510000D01*
X111090000Y-101990000D02*
X109890000Y-101990000D01*
X109890000Y-103750000D02*
X111090000Y-103750000D01*
X121250000Y-82940000D02*
X120050000Y-82940000D01*
X120050000Y-84700000D02*
X121250000Y-84700000D01*
X105020000Y-135220000D02*
X105020000Y-134020000D01*
X103260000Y-134020000D02*
X103260000Y-135220000D01*
X99450000Y-149260000D02*
X99450000Y-150460000D01*
X101210000Y-150460000D02*
X101210000Y-149260000D01*
X127880000Y-135220000D02*
X127880000Y-134020000D01*
X126120000Y-134020000D02*
X126120000Y-135220000D01*
X101000000Y-94860000D02*
X102200000Y-94860000D01*
X102200000Y-93100000D02*
X101000000Y-93100000D01*
X186270000Y-134120000D02*
X186270000Y-135120000D01*
X184570000Y-135120000D02*
X184570000Y-134120000D01*
X176030000Y-74080000D02*
X177030000Y-74080000D01*
X177030000Y-75780000D02*
X176030000Y-75780000D01*
X176030000Y-71540000D02*
X177030000Y-71540000D01*
X177030000Y-73240000D02*
X176030000Y-73240000D01*
X182030000Y-135120000D02*
X182030000Y-134120000D01*
X183730000Y-134120000D02*
X183730000Y-135120000D01*
X182030000Y-124960000D02*
X182030000Y-123960000D01*
X183730000Y-123960000D02*
X183730000Y-124960000D01*
X108370000Y-124960000D02*
X108370000Y-123960000D01*
X110070000Y-123960000D02*
X110070000Y-124960000D01*
X108370000Y-135120000D02*
X108370000Y-134120000D01*
X110070000Y-134120000D02*
X110070000Y-135120000D01*
X116070000Y-75780000D02*
X115070000Y-75780000D01*
X115070000Y-74080000D02*
X116070000Y-74080000D01*
X116070000Y-73240000D02*
X115070000Y-73240000D01*
X115070000Y-71540000D02*
X116070000Y-71540000D01*
X107530000Y-134120000D02*
X107530000Y-135120000D01*
X105830000Y-135120000D02*
X105830000Y-134120000D01*
X154170000Y-94830000D02*
X153170000Y-94830000D01*
X153170000Y-93130000D02*
X154170000Y-93130000D01*
X137930000Y-93130000D02*
X138930000Y-93130000D01*
X138930000Y-94830000D02*
X137930000Y-94830000D01*
X110880000Y-149260000D02*
X110880000Y-150460000D01*
X112640000Y-150460000D02*
X112640000Y-149260000D01*
X123580000Y-149260000D02*
X123580000Y-150460000D01*
X125340000Y-150460000D02*
X125340000Y-149260000D01*
X141360000Y-134020000D02*
X141360000Y-135220000D01*
X143120000Y-135220000D02*
X143120000Y-134020000D01*
X166760000Y-149260000D02*
X166760000Y-150460000D01*
X168520000Y-150460000D02*
X168520000Y-149260000D01*
X179460000Y-149260000D02*
X179460000Y-150460000D01*
X181220000Y-150460000D02*
X181220000Y-149260000D01*
D11*
X187197619Y-110394761D02*
X187150000Y-110299523D01*
X187054761Y-110204285D01*
X186911904Y-110061428D01*
X186864285Y-109966190D01*
X186864285Y-109870952D01*
X187102380Y-109918571D02*
X187054761Y-109823333D01*
X186959523Y-109728095D01*
X186769047Y-109680476D01*
X186435714Y-109680476D01*
X186245238Y-109728095D01*
X186150000Y-109823333D01*
X186102380Y-109918571D01*
X186102380Y-110109047D01*
X186150000Y-110204285D01*
X186245238Y-110299523D01*
X186435714Y-110347142D01*
X186769047Y-110347142D01*
X186959523Y-110299523D01*
X187054761Y-110204285D01*
X187102380Y-110109047D01*
X187102380Y-109918571D01*
X186435714Y-111204285D02*
X187102380Y-111204285D01*
X186054761Y-110966190D02*
X186769047Y-110728095D01*
X186769047Y-111347142D01*
X182197619Y-116744761D02*
X182150000Y-116649523D01*
X182054761Y-116554285D01*
X181911904Y-116411428D01*
X181864285Y-116316190D01*
X181864285Y-116220952D01*
X182102380Y-116268571D02*
X182054761Y-116173333D01*
X181959523Y-116078095D01*
X181769047Y-116030476D01*
X181435714Y-116030476D01*
X181245238Y-116078095D01*
X181150000Y-116173333D01*
X181102380Y-116268571D01*
X181102380Y-116459047D01*
X181150000Y-116554285D01*
X181245238Y-116649523D01*
X181435714Y-116697142D01*
X181769047Y-116697142D01*
X181959523Y-116649523D01*
X182054761Y-116554285D01*
X182102380Y-116459047D01*
X182102380Y-116268571D01*
X181102380Y-117030476D02*
X181102380Y-117649523D01*
X181483333Y-117316190D01*
X181483333Y-117459047D01*
X181530952Y-117554285D01*
X181578571Y-117601904D01*
X181673809Y-117649523D01*
X181911904Y-117649523D01*
X182007142Y-117601904D01*
X182054761Y-117554285D01*
X182102380Y-117459047D01*
X182102380Y-117173333D01*
X182054761Y-117078095D01*
X182007142Y-117030476D01*
X105997619Y-116744761D02*
X105950000Y-116649523D01*
X105854761Y-116554285D01*
X105711904Y-116411428D01*
X105664285Y-116316190D01*
X105664285Y-116220952D01*
X105902380Y-116268571D02*
X105854761Y-116173333D01*
X105759523Y-116078095D01*
X105569047Y-116030476D01*
X105235714Y-116030476D01*
X105045238Y-116078095D01*
X104950000Y-116173333D01*
X104902380Y-116268571D01*
X104902380Y-116459047D01*
X104950000Y-116554285D01*
X105045238Y-116649523D01*
X105235714Y-116697142D01*
X105569047Y-116697142D01*
X105759523Y-116649523D01*
X105854761Y-116554285D01*
X105902380Y-116459047D01*
X105902380Y-116268571D01*
X104997619Y-117078095D02*
X104950000Y-117125714D01*
X104902380Y-117220952D01*
X104902380Y-117459047D01*
X104950000Y-117554285D01*
X104997619Y-117601904D01*
X105092857Y-117649523D01*
X105188095Y-117649523D01*
X105330952Y-117601904D01*
X105902380Y-117030476D01*
X105902380Y-117649523D01*
X110997619Y-110394761D02*
X110950000Y-110299523D01*
X110854761Y-110204285D01*
X110711904Y-110061428D01*
X110664285Y-109966190D01*
X110664285Y-109870952D01*
X110902380Y-109918571D02*
X110854761Y-109823333D01*
X110759523Y-109728095D01*
X110569047Y-109680476D01*
X110235714Y-109680476D01*
X110045238Y-109728095D01*
X109950000Y-109823333D01*
X109902380Y-109918571D01*
X109902380Y-110109047D01*
X109950000Y-110204285D01*
X110045238Y-110299523D01*
X110235714Y-110347142D01*
X110569047Y-110347142D01*
X110759523Y-110299523D01*
X110854761Y-110204285D01*
X110902380Y-110109047D01*
X110902380Y-109918571D01*
X110902380Y-111299523D02*
X110902380Y-110728095D01*
X110902380Y-111013809D02*
X109902380Y-111013809D01*
X110045238Y-110918571D01*
X110140476Y-110823333D01*
X110188095Y-110728095D01*
X170052380Y-121181904D02*
X169052380Y-121181904D01*
X169052380Y-121420000D01*
X169100000Y-121562857D01*
X169195238Y-121658095D01*
X169290476Y-121705714D01*
X169480952Y-121753333D01*
X169623809Y-121753333D01*
X169814285Y-121705714D01*
X169909523Y-121658095D01*
X170004761Y-121562857D01*
X170052380Y-121420000D01*
X170052380Y-121181904D01*
X169052380Y-122610476D02*
X169052380Y-122420000D01*
X169100000Y-122324761D01*
X169147619Y-122277142D01*
X169290476Y-122181904D01*
X169480952Y-122134285D01*
X169861904Y-122134285D01*
X169957142Y-122181904D01*
X170004761Y-122229523D01*
X170052380Y-122324761D01*
X170052380Y-122515238D01*
X170004761Y-122610476D01*
X169957142Y-122658095D01*
X169861904Y-122705714D01*
X169623809Y-122705714D01*
X169528571Y-122658095D01*
X169480952Y-122610476D01*
X169433333Y-122515238D01*
X169433333Y-122324761D01*
X169480952Y-122229523D01*
X169528571Y-122181904D01*
X169623809Y-122134285D01*
X119252380Y-121181904D02*
X118252380Y-121181904D01*
X118252380Y-121420000D01*
X118300000Y-121562857D01*
X118395238Y-121658095D01*
X118490476Y-121705714D01*
X118680952Y-121753333D01*
X118823809Y-121753333D01*
X119014285Y-121705714D01*
X119109523Y-121658095D01*
X119204761Y-121562857D01*
X119252380Y-121420000D01*
X119252380Y-121181904D01*
X118252380Y-122658095D02*
X118252380Y-122181904D01*
X118728571Y-122134285D01*
X118680952Y-122181904D01*
X118633333Y-122277142D01*
X118633333Y-122515238D01*
X118680952Y-122610476D01*
X118728571Y-122658095D01*
X118823809Y-122705714D01*
X119061904Y-122705714D01*
X119157142Y-122658095D01*
X119204761Y-122610476D01*
X119252380Y-122515238D01*
X119252380Y-122277142D01*
X119204761Y-122181904D01*
X119157142Y-122134285D01*
X146811904Y-98712380D02*
X146811904Y-99521904D01*
X146764285Y-99617142D01*
X146716666Y-99664761D01*
X146621428Y-99712380D01*
X146430952Y-99712380D01*
X146335714Y-99664761D01*
X146288095Y-99617142D01*
X146240476Y-99521904D01*
X146240476Y-98712380D01*
X145240476Y-99712380D02*
X145811904Y-99712380D01*
X145526190Y-99712380D02*
X145526190Y-98712380D01*
X145621428Y-98855238D01*
X145716666Y-98950476D01*
X145811904Y-98998095D01*
X193778095Y-56542380D02*
X193778095Y-55542380D01*
X193397142Y-55542380D01*
X193301904Y-55590000D01*
X193254285Y-55637619D01*
X193206666Y-55732857D01*
X193206666Y-55875714D01*
X193254285Y-55970952D01*
X193301904Y-56018571D01*
X193397142Y-56066190D01*
X193778095Y-56066190D01*
X192349523Y-55875714D02*
X192349523Y-56542380D01*
X192587619Y-55494761D02*
X192825714Y-56209047D01*
X192206666Y-56209047D01*
X159488095Y-123852380D02*
X159488095Y-122852380D01*
X159107142Y-122852380D01*
X159011904Y-122900000D01*
X158964285Y-122947619D01*
X158916666Y-123042857D01*
X158916666Y-123185714D01*
X158964285Y-123280952D01*
X159011904Y-123328571D01*
X159107142Y-123376190D01*
X159488095Y-123376190D01*
X158583333Y-122852380D02*
X157964285Y-122852380D01*
X158297619Y-123233333D01*
X158154761Y-123233333D01*
X158059523Y-123280952D01*
X158011904Y-123328571D01*
X157964285Y-123423809D01*
X157964285Y-123661904D01*
X158011904Y-123757142D01*
X158059523Y-123804761D01*
X158154761Y-123852380D01*
X158440476Y-123852380D01*
X158535714Y-123804761D01*
X158583333Y-123757142D01*
X134088095Y-123852380D02*
X134088095Y-122852380D01*
X133707142Y-122852380D01*
X133611904Y-122900000D01*
X133564285Y-122947619D01*
X133516666Y-123042857D01*
X133516666Y-123185714D01*
X133564285Y-123280952D01*
X133611904Y-123328571D01*
X133707142Y-123376190D01*
X134088095Y-123376190D01*
X133135714Y-122947619D02*
X133088095Y-122900000D01*
X132992857Y-122852380D01*
X132754761Y-122852380D01*
X132659523Y-122900000D01*
X132611904Y-122947619D01*
X132564285Y-123042857D01*
X132564285Y-123138095D01*
X132611904Y-123280952D01*
X133183333Y-123852380D01*
X132564285Y-123852380D01*
X99798095Y-56542380D02*
X99798095Y-55542380D01*
X99417142Y-55542380D01*
X99321904Y-55590000D01*
X99274285Y-55637619D01*
X99226666Y-55732857D01*
X99226666Y-55875714D01*
X99274285Y-55970952D01*
X99321904Y-56018571D01*
X99417142Y-56066190D01*
X99798095Y-56066190D01*
X98274285Y-56542380D02*
X98845714Y-56542380D01*
X98560000Y-56542380D02*
X98560000Y-55542380D01*
X98655238Y-55685238D01*
X98750476Y-55780476D01*
X98845714Y-55828095D01*
X191642380Y-133881904D02*
X190642380Y-133881904D01*
X190642380Y-134120000D01*
X190690000Y-134262857D01*
X190785238Y-134358095D01*
X190880476Y-134405714D01*
X191070952Y-134453333D01*
X191213809Y-134453333D01*
X191404285Y-134405714D01*
X191499523Y-134358095D01*
X191594761Y-134262857D01*
X191642380Y-134120000D01*
X191642380Y-133881904D01*
X190975714Y-135310476D02*
X191642380Y-135310476D01*
X190594761Y-135072380D02*
X191309047Y-134834285D01*
X191309047Y-135453333D01*
X189102380Y-133881904D02*
X188102380Y-133881904D01*
X188102380Y-134120000D01*
X188150000Y-134262857D01*
X188245238Y-134358095D01*
X188340476Y-134405714D01*
X188530952Y-134453333D01*
X188673809Y-134453333D01*
X188864285Y-134405714D01*
X188959523Y-134358095D01*
X189054761Y-134262857D01*
X189102380Y-134120000D01*
X189102380Y-133881904D01*
X188102380Y-134786666D02*
X188102380Y-135405714D01*
X188483333Y-135072380D01*
X188483333Y-135215238D01*
X188530952Y-135310476D01*
X188578571Y-135358095D01*
X188673809Y-135405714D01*
X188911904Y-135405714D01*
X189007142Y-135358095D01*
X189054761Y-135310476D01*
X189102380Y-135215238D01*
X189102380Y-134929523D01*
X189054761Y-134834285D01*
X189007142Y-134786666D01*
X100202380Y-133881904D02*
X99202380Y-133881904D01*
X99202380Y-134120000D01*
X99250000Y-134262857D01*
X99345238Y-134358095D01*
X99440476Y-134405714D01*
X99630952Y-134453333D01*
X99773809Y-134453333D01*
X99964285Y-134405714D01*
X100059523Y-134358095D01*
X100154761Y-134262857D01*
X100202380Y-134120000D01*
X100202380Y-133881904D01*
X99297619Y-134834285D02*
X99250000Y-134881904D01*
X99202380Y-134977142D01*
X99202380Y-135215238D01*
X99250000Y-135310476D01*
X99297619Y-135358095D01*
X99392857Y-135405714D01*
X99488095Y-135405714D01*
X99630952Y-135358095D01*
X100202380Y-134786666D01*
X100202380Y-135405714D01*
X97662380Y-133881904D02*
X96662380Y-133881904D01*
X96662380Y-134120000D01*
X96710000Y-134262857D01*
X96805238Y-134358095D01*
X96900476Y-134405714D01*
X97090952Y-134453333D01*
X97233809Y-134453333D01*
X97424285Y-134405714D01*
X97519523Y-134358095D01*
X97614761Y-134262857D01*
X97662380Y-134120000D01*
X97662380Y-133881904D01*
X97662380Y-135405714D02*
X97662380Y-134834285D01*
X97662380Y-135120000D02*
X96662380Y-135120000D01*
X96805238Y-135024761D01*
X96900476Y-134929523D01*
X96948095Y-134834285D01*
X191142857Y-92527380D02*
X191476190Y-92051190D01*
X191714285Y-92527380D02*
X191714285Y-91527380D01*
X191333333Y-91527380D01*
X191238095Y-91575000D01*
X191190476Y-91622619D01*
X191142857Y-91717857D01*
X191142857Y-91860714D01*
X191190476Y-91955952D01*
X191238095Y-92003571D01*
X191333333Y-92051190D01*
X191714285Y-92051190D01*
X190238095Y-91527380D02*
X190714285Y-91527380D01*
X190761904Y-92003571D01*
X190714285Y-91955952D01*
X190619047Y-91908333D01*
X190380952Y-91908333D01*
X190285714Y-91955952D01*
X190238095Y-92003571D01*
X190190476Y-92098809D01*
X190190476Y-92336904D01*
X190238095Y-92432142D01*
X190285714Y-92479761D01*
X190380952Y-92527380D01*
X190619047Y-92527380D01*
X190714285Y-92479761D01*
X190761904Y-92432142D01*
X189333333Y-91527380D02*
X189523809Y-91527380D01*
X189619047Y-91575000D01*
X189666666Y-91622619D01*
X189761904Y-91765476D01*
X189809523Y-91955952D01*
X189809523Y-92336904D01*
X189761904Y-92432142D01*
X189714285Y-92479761D01*
X189619047Y-92527380D01*
X189428571Y-92527380D01*
X189333333Y-92479761D01*
X189285714Y-92432142D01*
X189238095Y-92336904D01*
X189238095Y-92098809D01*
X189285714Y-92003571D01*
X189333333Y-91955952D01*
X189428571Y-91908333D01*
X189619047Y-91908333D01*
X189714285Y-91955952D01*
X189761904Y-92003571D01*
X189809523Y-92098809D01*
X163852380Y-133977142D02*
X163376190Y-133643809D01*
X163852380Y-133405714D02*
X162852380Y-133405714D01*
X162852380Y-133786666D01*
X162900000Y-133881904D01*
X162947619Y-133929523D01*
X163042857Y-133977142D01*
X163185714Y-133977142D01*
X163280952Y-133929523D01*
X163328571Y-133881904D01*
X163376190Y-133786666D01*
X163376190Y-133405714D01*
X162852380Y-134881904D02*
X162852380Y-134405714D01*
X163328571Y-134358095D01*
X163280952Y-134405714D01*
X163233333Y-134500952D01*
X163233333Y-134739047D01*
X163280952Y-134834285D01*
X163328571Y-134881904D01*
X163423809Y-134929523D01*
X163661904Y-134929523D01*
X163757142Y-134881904D01*
X163804761Y-134834285D01*
X163852380Y-134739047D01*
X163852380Y-134500952D01*
X163804761Y-134405714D01*
X163757142Y-134358095D01*
X162852380Y-135834285D02*
X162852380Y-135358095D01*
X163328571Y-135310476D01*
X163280952Y-135358095D01*
X163233333Y-135453333D01*
X163233333Y-135691428D01*
X163280952Y-135786666D01*
X163328571Y-135834285D01*
X163423809Y-135881904D01*
X163661904Y-135881904D01*
X163757142Y-135834285D01*
X163804761Y-135786666D01*
X163852380Y-135691428D01*
X163852380Y-135453333D01*
X163804761Y-135358095D01*
X163757142Y-135310476D01*
X193922380Y-149217142D02*
X193446190Y-148883809D01*
X193922380Y-148645714D02*
X192922380Y-148645714D01*
X192922380Y-149026666D01*
X192970000Y-149121904D01*
X193017619Y-149169523D01*
X193112857Y-149217142D01*
X193255714Y-149217142D01*
X193350952Y-149169523D01*
X193398571Y-149121904D01*
X193446190Y-149026666D01*
X193446190Y-148645714D01*
X192922380Y-150121904D02*
X192922380Y-149645714D01*
X193398571Y-149598095D01*
X193350952Y-149645714D01*
X193303333Y-149740952D01*
X193303333Y-149979047D01*
X193350952Y-150074285D01*
X193398571Y-150121904D01*
X193493809Y-150169523D01*
X193731904Y-150169523D01*
X193827142Y-150121904D01*
X193874761Y-150074285D01*
X193922380Y-149979047D01*
X193922380Y-149740952D01*
X193874761Y-149645714D01*
X193827142Y-149598095D01*
X193255714Y-151026666D02*
X193922380Y-151026666D01*
X192874761Y-150788571D02*
X193589047Y-150550476D01*
X193589047Y-151169523D01*
X188412380Y-137787142D02*
X187936190Y-137453809D01*
X188412380Y-137215714D02*
X187412380Y-137215714D01*
X187412380Y-137596666D01*
X187460000Y-137691904D01*
X187507619Y-137739523D01*
X187602857Y-137787142D01*
X187745714Y-137787142D01*
X187840952Y-137739523D01*
X187888571Y-137691904D01*
X187936190Y-137596666D01*
X187936190Y-137215714D01*
X187412380Y-138691904D02*
X187412380Y-138215714D01*
X187888571Y-138168095D01*
X187840952Y-138215714D01*
X187793333Y-138310952D01*
X187793333Y-138549047D01*
X187840952Y-138644285D01*
X187888571Y-138691904D01*
X187983809Y-138739523D01*
X188221904Y-138739523D01*
X188317142Y-138691904D01*
X188364761Y-138644285D01*
X188412380Y-138549047D01*
X188412380Y-138310952D01*
X188364761Y-138215714D01*
X188317142Y-138168095D01*
X187412380Y-139072857D02*
X187412380Y-139691904D01*
X187793333Y-139358571D01*
X187793333Y-139501428D01*
X187840952Y-139596666D01*
X187888571Y-139644285D01*
X187983809Y-139691904D01*
X188221904Y-139691904D01*
X188317142Y-139644285D01*
X188364761Y-139596666D01*
X188412380Y-139501428D01*
X188412380Y-139215714D01*
X188364761Y-139120476D01*
X188317142Y-139072857D01*
X168282857Y-81732380D02*
X168616190Y-81256190D01*
X168854285Y-81732380D02*
X168854285Y-80732380D01*
X168473333Y-80732380D01*
X168378095Y-80780000D01*
X168330476Y-80827619D01*
X168282857Y-80922857D01*
X168282857Y-81065714D01*
X168330476Y-81160952D01*
X168378095Y-81208571D01*
X168473333Y-81256190D01*
X168854285Y-81256190D01*
X167378095Y-80732380D02*
X167854285Y-80732380D01*
X167901904Y-81208571D01*
X167854285Y-81160952D01*
X167759047Y-81113333D01*
X167520952Y-81113333D01*
X167425714Y-81160952D01*
X167378095Y-81208571D01*
X167330476Y-81303809D01*
X167330476Y-81541904D01*
X167378095Y-81637142D01*
X167425714Y-81684761D01*
X167520952Y-81732380D01*
X167759047Y-81732380D01*
X167854285Y-81684761D01*
X167901904Y-81637142D01*
X166949523Y-80827619D02*
X166901904Y-80780000D01*
X166806666Y-80732380D01*
X166568571Y-80732380D01*
X166473333Y-80780000D01*
X166425714Y-80827619D01*
X166378095Y-80922857D01*
X166378095Y-81018095D01*
X166425714Y-81160952D01*
X166997142Y-81732380D01*
X166378095Y-81732380D01*
X188602857Y-75382380D02*
X188936190Y-74906190D01*
X189174285Y-75382380D02*
X189174285Y-74382380D01*
X188793333Y-74382380D01*
X188698095Y-74430000D01*
X188650476Y-74477619D01*
X188602857Y-74572857D01*
X188602857Y-74715714D01*
X188650476Y-74810952D01*
X188698095Y-74858571D01*
X188793333Y-74906190D01*
X189174285Y-74906190D01*
X187698095Y-74382380D02*
X188174285Y-74382380D01*
X188221904Y-74858571D01*
X188174285Y-74810952D01*
X188079047Y-74763333D01*
X187840952Y-74763333D01*
X187745714Y-74810952D01*
X187698095Y-74858571D01*
X187650476Y-74953809D01*
X187650476Y-75191904D01*
X187698095Y-75287142D01*
X187745714Y-75334761D01*
X187840952Y-75382380D01*
X188079047Y-75382380D01*
X188174285Y-75334761D01*
X188221904Y-75287142D01*
X186698095Y-75382380D02*
X187269523Y-75382380D01*
X186983809Y-75382380D02*
X186983809Y-74382380D01*
X187079047Y-74525238D01*
X187174285Y-74620476D01*
X187269523Y-74668095D01*
X168282857Y-84272380D02*
X168616190Y-83796190D01*
X168854285Y-84272380D02*
X168854285Y-83272380D01*
X168473333Y-83272380D01*
X168378095Y-83320000D01*
X168330476Y-83367619D01*
X168282857Y-83462857D01*
X168282857Y-83605714D01*
X168330476Y-83700952D01*
X168378095Y-83748571D01*
X168473333Y-83796190D01*
X168854285Y-83796190D01*
X167378095Y-83272380D02*
X167854285Y-83272380D01*
X167901904Y-83748571D01*
X167854285Y-83700952D01*
X167759047Y-83653333D01*
X167520952Y-83653333D01*
X167425714Y-83700952D01*
X167378095Y-83748571D01*
X167330476Y-83843809D01*
X167330476Y-84081904D01*
X167378095Y-84177142D01*
X167425714Y-84224761D01*
X167520952Y-84272380D01*
X167759047Y-84272380D01*
X167854285Y-84224761D01*
X167901904Y-84177142D01*
X166711428Y-83272380D02*
X166616190Y-83272380D01*
X166520952Y-83320000D01*
X166473333Y-83367619D01*
X166425714Y-83462857D01*
X166378095Y-83653333D01*
X166378095Y-83891428D01*
X166425714Y-84081904D01*
X166473333Y-84177142D01*
X166520952Y-84224761D01*
X166616190Y-84272380D01*
X166711428Y-84272380D01*
X166806666Y-84224761D01*
X166854285Y-84177142D01*
X166901904Y-84081904D01*
X166949523Y-83891428D01*
X166949523Y-83653333D01*
X166901904Y-83462857D01*
X166854285Y-83367619D01*
X166806666Y-83320000D01*
X166711428Y-83272380D01*
X154312857Y-91052380D02*
X154646190Y-90576190D01*
X154884285Y-91052380D02*
X154884285Y-90052380D01*
X154503333Y-90052380D01*
X154408095Y-90100000D01*
X154360476Y-90147619D01*
X154312857Y-90242857D01*
X154312857Y-90385714D01*
X154360476Y-90480952D01*
X154408095Y-90528571D01*
X154503333Y-90576190D01*
X154884285Y-90576190D01*
X153455714Y-90385714D02*
X153455714Y-91052380D01*
X153693809Y-90004761D02*
X153931904Y-90719047D01*
X153312857Y-90719047D01*
X152884285Y-91052380D02*
X152693809Y-91052380D01*
X152598571Y-91004761D01*
X152550952Y-90957142D01*
X152455714Y-90814285D01*
X152408095Y-90623809D01*
X152408095Y-90242857D01*
X152455714Y-90147619D01*
X152503333Y-90100000D01*
X152598571Y-90052380D01*
X152789047Y-90052380D01*
X152884285Y-90100000D01*
X152931904Y-90147619D01*
X152979523Y-90242857D01*
X152979523Y-90480952D01*
X152931904Y-90576190D01*
X152884285Y-90623809D01*
X152789047Y-90671428D01*
X152598571Y-90671428D01*
X152503333Y-90623809D01*
X152455714Y-90576190D01*
X152408095Y-90480952D01*
X188602857Y-72842380D02*
X188936190Y-72366190D01*
X189174285Y-72842380D02*
X189174285Y-71842380D01*
X188793333Y-71842380D01*
X188698095Y-71890000D01*
X188650476Y-71937619D01*
X188602857Y-72032857D01*
X188602857Y-72175714D01*
X188650476Y-72270952D01*
X188698095Y-72318571D01*
X188793333Y-72366190D01*
X189174285Y-72366190D01*
X187745714Y-72175714D02*
X187745714Y-72842380D01*
X187983809Y-71794761D02*
X188221904Y-72509047D01*
X187602857Y-72509047D01*
X187079047Y-72270952D02*
X187174285Y-72223333D01*
X187221904Y-72175714D01*
X187269523Y-72080476D01*
X187269523Y-72032857D01*
X187221904Y-71937619D01*
X187174285Y-71890000D01*
X187079047Y-71842380D01*
X186888571Y-71842380D01*
X186793333Y-71890000D01*
X186745714Y-71937619D01*
X186698095Y-72032857D01*
X186698095Y-72080476D01*
X186745714Y-72175714D01*
X186793333Y-72223333D01*
X186888571Y-72270952D01*
X187079047Y-72270952D01*
X187174285Y-72318571D01*
X187221904Y-72366190D01*
X187269523Y-72461428D01*
X187269523Y-72651904D01*
X187221904Y-72747142D01*
X187174285Y-72794761D01*
X187079047Y-72842380D01*
X186888571Y-72842380D01*
X186793333Y-72794761D01*
X186745714Y-72747142D01*
X186698095Y-72651904D01*
X186698095Y-72461428D01*
X186745714Y-72366190D01*
X186793333Y-72318571D01*
X186888571Y-72270952D01*
X176552380Y-133977142D02*
X176076190Y-133643809D01*
X176552380Y-133405714D02*
X175552380Y-133405714D01*
X175552380Y-133786666D01*
X175600000Y-133881904D01*
X175647619Y-133929523D01*
X175742857Y-133977142D01*
X175885714Y-133977142D01*
X175980952Y-133929523D01*
X176028571Y-133881904D01*
X176076190Y-133786666D01*
X176076190Y-133405714D01*
X175885714Y-134834285D02*
X176552380Y-134834285D01*
X175504761Y-134596190D02*
X176219047Y-134358095D01*
X176219047Y-134977142D01*
X175552380Y-135786666D02*
X175552380Y-135596190D01*
X175600000Y-135500952D01*
X175647619Y-135453333D01*
X175790476Y-135358095D01*
X175980952Y-135310476D01*
X176361904Y-135310476D01*
X176457142Y-135358095D01*
X176504761Y-135405714D01*
X176552380Y-135500952D01*
X176552380Y-135691428D01*
X176504761Y-135786666D01*
X176457142Y-135834285D01*
X176361904Y-135881904D01*
X176123809Y-135881904D01*
X176028571Y-135834285D01*
X175980952Y-135786666D01*
X175933333Y-135691428D01*
X175933333Y-135500952D01*
X175980952Y-135405714D01*
X176028571Y-135358095D01*
X176123809Y-135310476D01*
X182252857Y-105227380D02*
X182586190Y-104751190D01*
X182824285Y-105227380D02*
X182824285Y-104227380D01*
X182443333Y-104227380D01*
X182348095Y-104275000D01*
X182300476Y-104322619D01*
X182252857Y-104417857D01*
X182252857Y-104560714D01*
X182300476Y-104655952D01*
X182348095Y-104703571D01*
X182443333Y-104751190D01*
X182824285Y-104751190D01*
X181395714Y-104560714D02*
X181395714Y-105227380D01*
X181633809Y-104179761D02*
X181871904Y-104894047D01*
X181252857Y-104894047D01*
X180395714Y-104227380D02*
X180871904Y-104227380D01*
X180919523Y-104703571D01*
X180871904Y-104655952D01*
X180776666Y-104608333D01*
X180538571Y-104608333D01*
X180443333Y-104655952D01*
X180395714Y-104703571D01*
X180348095Y-104798809D01*
X180348095Y-105036904D01*
X180395714Y-105132142D01*
X180443333Y-105179761D01*
X180538571Y-105227380D01*
X180776666Y-105227380D01*
X180871904Y-105179761D01*
X180919523Y-105132142D01*
X172537380Y-61587142D02*
X172061190Y-61253809D01*
X172537380Y-61015714D02*
X171537380Y-61015714D01*
X171537380Y-61396666D01*
X171585000Y-61491904D01*
X171632619Y-61539523D01*
X171727857Y-61587142D01*
X171870714Y-61587142D01*
X171965952Y-61539523D01*
X172013571Y-61491904D01*
X172061190Y-61396666D01*
X172061190Y-61015714D01*
X171870714Y-62444285D02*
X172537380Y-62444285D01*
X171489761Y-62206190D02*
X172204047Y-61968095D01*
X172204047Y-62587142D01*
X171870714Y-63396666D02*
X172537380Y-63396666D01*
X171489761Y-63158571D02*
X172204047Y-62920476D01*
X172204047Y-63539523D01*
X167457380Y-61587142D02*
X166981190Y-61253809D01*
X167457380Y-61015714D02*
X166457380Y-61015714D01*
X166457380Y-61396666D01*
X166505000Y-61491904D01*
X166552619Y-61539523D01*
X166647857Y-61587142D01*
X166790714Y-61587142D01*
X166885952Y-61539523D01*
X166933571Y-61491904D01*
X166981190Y-61396666D01*
X166981190Y-61015714D01*
X166790714Y-62444285D02*
X167457380Y-62444285D01*
X166409761Y-62206190D02*
X167124047Y-61968095D01*
X167124047Y-62587142D01*
X166457380Y-62872857D02*
X166457380Y-63491904D01*
X166838333Y-63158571D01*
X166838333Y-63301428D01*
X166885952Y-63396666D01*
X166933571Y-63444285D01*
X167028809Y-63491904D01*
X167266904Y-63491904D01*
X167362142Y-63444285D01*
X167409761Y-63396666D01*
X167457380Y-63301428D01*
X167457380Y-63015714D01*
X167409761Y-62920476D01*
X167362142Y-62872857D01*
X163202857Y-75382380D02*
X163536190Y-74906190D01*
X163774285Y-75382380D02*
X163774285Y-74382380D01*
X163393333Y-74382380D01*
X163298095Y-74430000D01*
X163250476Y-74477619D01*
X163202857Y-74572857D01*
X163202857Y-74715714D01*
X163250476Y-74810952D01*
X163298095Y-74858571D01*
X163393333Y-74906190D01*
X163774285Y-74906190D01*
X162345714Y-74715714D02*
X162345714Y-75382380D01*
X162583809Y-74334761D02*
X162821904Y-75049047D01*
X162202857Y-75049047D01*
X161869523Y-74477619D02*
X161821904Y-74430000D01*
X161726666Y-74382380D01*
X161488571Y-74382380D01*
X161393333Y-74430000D01*
X161345714Y-74477619D01*
X161298095Y-74572857D01*
X161298095Y-74668095D01*
X161345714Y-74810952D01*
X161917142Y-75382380D01*
X161298095Y-75382380D01*
X176552380Y-149217142D02*
X176076190Y-148883809D01*
X176552380Y-148645714D02*
X175552380Y-148645714D01*
X175552380Y-149026666D01*
X175600000Y-149121904D01*
X175647619Y-149169523D01*
X175742857Y-149217142D01*
X175885714Y-149217142D01*
X175980952Y-149169523D01*
X176028571Y-149121904D01*
X176076190Y-149026666D01*
X176076190Y-148645714D01*
X175885714Y-150074285D02*
X176552380Y-150074285D01*
X175504761Y-149836190D02*
X176219047Y-149598095D01*
X176219047Y-150217142D01*
X176552380Y-151121904D02*
X176552380Y-150550476D01*
X176552380Y-150836190D02*
X175552380Y-150836190D01*
X175695238Y-150740952D01*
X175790476Y-150645714D01*
X175838095Y-150550476D01*
X163852380Y-149217142D02*
X163376190Y-148883809D01*
X163852380Y-148645714D02*
X162852380Y-148645714D01*
X162852380Y-149026666D01*
X162900000Y-149121904D01*
X162947619Y-149169523D01*
X163042857Y-149217142D01*
X163185714Y-149217142D01*
X163280952Y-149169523D01*
X163328571Y-149121904D01*
X163376190Y-149026666D01*
X163376190Y-148645714D01*
X163185714Y-150074285D02*
X163852380Y-150074285D01*
X162804761Y-149836190D02*
X163519047Y-149598095D01*
X163519047Y-150217142D01*
X162852380Y-150788571D02*
X162852380Y-150883809D01*
X162900000Y-150979047D01*
X162947619Y-151026666D01*
X163042857Y-151074285D01*
X163233333Y-151121904D01*
X163471428Y-151121904D01*
X163661904Y-151074285D01*
X163757142Y-151026666D01*
X163804761Y-150979047D01*
X163852380Y-150883809D01*
X163852380Y-150788571D01*
X163804761Y-150693333D01*
X163757142Y-150645714D01*
X163661904Y-150598095D01*
X163471428Y-150550476D01*
X163233333Y-150550476D01*
X163042857Y-150598095D01*
X162947619Y-150645714D01*
X162900000Y-150693333D01*
X162852380Y-150788571D01*
X187777380Y-149217142D02*
X187301190Y-148883809D01*
X187777380Y-148645714D02*
X186777380Y-148645714D01*
X186777380Y-149026666D01*
X186825000Y-149121904D01*
X186872619Y-149169523D01*
X186967857Y-149217142D01*
X187110714Y-149217142D01*
X187205952Y-149169523D01*
X187253571Y-149121904D01*
X187301190Y-149026666D01*
X187301190Y-148645714D01*
X186777380Y-149550476D02*
X186777380Y-150169523D01*
X187158333Y-149836190D01*
X187158333Y-149979047D01*
X187205952Y-150074285D01*
X187253571Y-150121904D01*
X187348809Y-150169523D01*
X187586904Y-150169523D01*
X187682142Y-150121904D01*
X187729761Y-150074285D01*
X187777380Y-149979047D01*
X187777380Y-149693333D01*
X187729761Y-149598095D01*
X187682142Y-149550476D01*
X187777380Y-150645714D02*
X187777380Y-150836190D01*
X187729761Y-150931428D01*
X187682142Y-150979047D01*
X187539285Y-151074285D01*
X187348809Y-151121904D01*
X186967857Y-151121904D01*
X186872619Y-151074285D01*
X186825000Y-151026666D01*
X186777380Y-150931428D01*
X186777380Y-150740952D01*
X186825000Y-150645714D01*
X186872619Y-150598095D01*
X186967857Y-150550476D01*
X187205952Y-150550476D01*
X187301190Y-150598095D01*
X187348809Y-150645714D01*
X187396428Y-150740952D01*
X187396428Y-150931428D01*
X187348809Y-151026666D01*
X187301190Y-151074285D01*
X187205952Y-151121904D01*
X154312857Y-101212380D02*
X154646190Y-100736190D01*
X154884285Y-101212380D02*
X154884285Y-100212380D01*
X154503333Y-100212380D01*
X154408095Y-100260000D01*
X154360476Y-100307619D01*
X154312857Y-100402857D01*
X154312857Y-100545714D01*
X154360476Y-100640952D01*
X154408095Y-100688571D01*
X154503333Y-100736190D01*
X154884285Y-100736190D01*
X153979523Y-100212380D02*
X153360476Y-100212380D01*
X153693809Y-100593333D01*
X153550952Y-100593333D01*
X153455714Y-100640952D01*
X153408095Y-100688571D01*
X153360476Y-100783809D01*
X153360476Y-101021904D01*
X153408095Y-101117142D01*
X153455714Y-101164761D01*
X153550952Y-101212380D01*
X153836666Y-101212380D01*
X153931904Y-101164761D01*
X153979523Y-101117142D01*
X152789047Y-100640952D02*
X152884285Y-100593333D01*
X152931904Y-100545714D01*
X152979523Y-100450476D01*
X152979523Y-100402857D01*
X152931904Y-100307619D01*
X152884285Y-100260000D01*
X152789047Y-100212380D01*
X152598571Y-100212380D01*
X152503333Y-100260000D01*
X152455714Y-100307619D01*
X152408095Y-100402857D01*
X152408095Y-100450476D01*
X152455714Y-100545714D01*
X152503333Y-100593333D01*
X152598571Y-100640952D01*
X152789047Y-100640952D01*
X152884285Y-100688571D01*
X152931904Y-100736190D01*
X152979523Y-100831428D01*
X152979523Y-101021904D01*
X152931904Y-101117142D01*
X152884285Y-101164761D01*
X152789047Y-101212380D01*
X152598571Y-101212380D01*
X152503333Y-101164761D01*
X152455714Y-101117142D01*
X152408095Y-101021904D01*
X152408095Y-100831428D01*
X152455714Y-100736190D01*
X152503333Y-100688571D01*
X152598571Y-100640952D01*
X163202857Y-72842380D02*
X163536190Y-72366190D01*
X163774285Y-72842380D02*
X163774285Y-71842380D01*
X163393333Y-71842380D01*
X163298095Y-71890000D01*
X163250476Y-71937619D01*
X163202857Y-72032857D01*
X163202857Y-72175714D01*
X163250476Y-72270952D01*
X163298095Y-72318571D01*
X163393333Y-72366190D01*
X163774285Y-72366190D01*
X162869523Y-71842380D02*
X162250476Y-71842380D01*
X162583809Y-72223333D01*
X162440952Y-72223333D01*
X162345714Y-72270952D01*
X162298095Y-72318571D01*
X162250476Y-72413809D01*
X162250476Y-72651904D01*
X162298095Y-72747142D01*
X162345714Y-72794761D01*
X162440952Y-72842380D01*
X162726666Y-72842380D01*
X162821904Y-72794761D01*
X162869523Y-72747142D01*
X161917142Y-71842380D02*
X161250476Y-71842380D01*
X161679047Y-72842380D01*
X161932857Y-105227380D02*
X162266190Y-104751190D01*
X162504285Y-105227380D02*
X162504285Y-104227380D01*
X162123333Y-104227380D01*
X162028095Y-104275000D01*
X161980476Y-104322619D01*
X161932857Y-104417857D01*
X161932857Y-104560714D01*
X161980476Y-104655952D01*
X162028095Y-104703571D01*
X162123333Y-104751190D01*
X162504285Y-104751190D01*
X161599523Y-104227380D02*
X160980476Y-104227380D01*
X161313809Y-104608333D01*
X161170952Y-104608333D01*
X161075714Y-104655952D01*
X161028095Y-104703571D01*
X160980476Y-104798809D01*
X160980476Y-105036904D01*
X161028095Y-105132142D01*
X161075714Y-105179761D01*
X161170952Y-105227380D01*
X161456666Y-105227380D01*
X161551904Y-105179761D01*
X161599523Y-105132142D01*
X160075714Y-104227380D02*
X160551904Y-104227380D01*
X160599523Y-104703571D01*
X160551904Y-104655952D01*
X160456666Y-104608333D01*
X160218571Y-104608333D01*
X160123333Y-104655952D01*
X160075714Y-104703571D01*
X160028095Y-104798809D01*
X160028095Y-105036904D01*
X160075714Y-105132142D01*
X160123333Y-105179761D01*
X160218571Y-105227380D01*
X160456666Y-105227380D01*
X160551904Y-105179761D01*
X160599523Y-105132142D01*
X187572380Y-128897142D02*
X187096190Y-128563809D01*
X187572380Y-128325714D02*
X186572380Y-128325714D01*
X186572380Y-128706666D01*
X186620000Y-128801904D01*
X186667619Y-128849523D01*
X186762857Y-128897142D01*
X186905714Y-128897142D01*
X187000952Y-128849523D01*
X187048571Y-128801904D01*
X187096190Y-128706666D01*
X187096190Y-128325714D01*
X186572380Y-129230476D02*
X186572380Y-129849523D01*
X186953333Y-129516190D01*
X186953333Y-129659047D01*
X187000952Y-129754285D01*
X187048571Y-129801904D01*
X187143809Y-129849523D01*
X187381904Y-129849523D01*
X187477142Y-129801904D01*
X187524761Y-129754285D01*
X187572380Y-129659047D01*
X187572380Y-129373333D01*
X187524761Y-129278095D01*
X187477142Y-129230476D01*
X186905714Y-130706666D02*
X187572380Y-130706666D01*
X186524761Y-130468571D02*
X187239047Y-130230476D01*
X187239047Y-130849523D01*
X181427380Y-128897142D02*
X180951190Y-128563809D01*
X181427380Y-128325714D02*
X180427380Y-128325714D01*
X180427380Y-128706666D01*
X180475000Y-128801904D01*
X180522619Y-128849523D01*
X180617857Y-128897142D01*
X180760714Y-128897142D01*
X180855952Y-128849523D01*
X180903571Y-128801904D01*
X180951190Y-128706666D01*
X180951190Y-128325714D01*
X180427380Y-129230476D02*
X180427380Y-129849523D01*
X180808333Y-129516190D01*
X180808333Y-129659047D01*
X180855952Y-129754285D01*
X180903571Y-129801904D01*
X180998809Y-129849523D01*
X181236904Y-129849523D01*
X181332142Y-129801904D01*
X181379761Y-129754285D01*
X181427380Y-129659047D01*
X181427380Y-129373333D01*
X181379761Y-129278095D01*
X181332142Y-129230476D01*
X180427380Y-130182857D02*
X180427380Y-130801904D01*
X180808333Y-130468571D01*
X180808333Y-130611428D01*
X180855952Y-130706666D01*
X180903571Y-130754285D01*
X180998809Y-130801904D01*
X181236904Y-130801904D01*
X181332142Y-130754285D01*
X181379761Y-130706666D01*
X181427380Y-130611428D01*
X181427380Y-130325714D01*
X181379761Y-130230476D01*
X181332142Y-130182857D01*
X150947380Y-149217142D02*
X150471190Y-148883809D01*
X150947380Y-148645714D02*
X149947380Y-148645714D01*
X149947380Y-149026666D01*
X149995000Y-149121904D01*
X150042619Y-149169523D01*
X150137857Y-149217142D01*
X150280714Y-149217142D01*
X150375952Y-149169523D01*
X150423571Y-149121904D01*
X150471190Y-149026666D01*
X150471190Y-148645714D01*
X149947380Y-149550476D02*
X149947380Y-150169523D01*
X150328333Y-149836190D01*
X150328333Y-149979047D01*
X150375952Y-150074285D01*
X150423571Y-150121904D01*
X150518809Y-150169523D01*
X150756904Y-150169523D01*
X150852142Y-150121904D01*
X150899761Y-150074285D01*
X150947380Y-149979047D01*
X150947380Y-149693333D01*
X150899761Y-149598095D01*
X150852142Y-149550476D01*
X150042619Y-150550476D02*
X149995000Y-150598095D01*
X149947380Y-150693333D01*
X149947380Y-150931428D01*
X149995000Y-151026666D01*
X150042619Y-151074285D01*
X150137857Y-151121904D01*
X150233095Y-151121904D01*
X150375952Y-151074285D01*
X150947380Y-150502857D01*
X150947380Y-151121904D01*
X151152380Y-133977142D02*
X150676190Y-133643809D01*
X151152380Y-133405714D02*
X150152380Y-133405714D01*
X150152380Y-133786666D01*
X150200000Y-133881904D01*
X150247619Y-133929523D01*
X150342857Y-133977142D01*
X150485714Y-133977142D01*
X150580952Y-133929523D01*
X150628571Y-133881904D01*
X150676190Y-133786666D01*
X150676190Y-133405714D01*
X150152380Y-134310476D02*
X150152380Y-134929523D01*
X150533333Y-134596190D01*
X150533333Y-134739047D01*
X150580952Y-134834285D01*
X150628571Y-134881904D01*
X150723809Y-134929523D01*
X150961904Y-134929523D01*
X151057142Y-134881904D01*
X151104761Y-134834285D01*
X151152380Y-134739047D01*
X151152380Y-134453333D01*
X151104761Y-134358095D01*
X151057142Y-134310476D01*
X151152380Y-135881904D02*
X151152380Y-135310476D01*
X151152380Y-135596190D02*
X150152380Y-135596190D01*
X150295238Y-135500952D01*
X150390476Y-135405714D01*
X150438095Y-135310476D01*
X151152380Y-118737142D02*
X150676190Y-118403809D01*
X151152380Y-118165714D02*
X150152380Y-118165714D01*
X150152380Y-118546666D01*
X150200000Y-118641904D01*
X150247619Y-118689523D01*
X150342857Y-118737142D01*
X150485714Y-118737142D01*
X150580952Y-118689523D01*
X150628571Y-118641904D01*
X150676190Y-118546666D01*
X150676190Y-118165714D01*
X150152380Y-119070476D02*
X150152380Y-119689523D01*
X150533333Y-119356190D01*
X150533333Y-119499047D01*
X150580952Y-119594285D01*
X150628571Y-119641904D01*
X150723809Y-119689523D01*
X150961904Y-119689523D01*
X151057142Y-119641904D01*
X151104761Y-119594285D01*
X151152380Y-119499047D01*
X151152380Y-119213333D01*
X151104761Y-119118095D01*
X151057142Y-119070476D01*
X150152380Y-120308571D02*
X150152380Y-120403809D01*
X150200000Y-120499047D01*
X150247619Y-120546666D01*
X150342857Y-120594285D01*
X150533333Y-120641904D01*
X150771428Y-120641904D01*
X150961904Y-120594285D01*
X151057142Y-120546666D01*
X151104761Y-120499047D01*
X151152380Y-120403809D01*
X151152380Y-120308571D01*
X151104761Y-120213333D01*
X151057142Y-120165714D01*
X150961904Y-120118095D01*
X150771428Y-120070476D01*
X150533333Y-120070476D01*
X150342857Y-120118095D01*
X150247619Y-120165714D01*
X150200000Y-120213333D01*
X150152380Y-120308571D01*
X187572380Y-123817142D02*
X187096190Y-123483809D01*
X187572380Y-123245714D02*
X186572380Y-123245714D01*
X186572380Y-123626666D01*
X186620000Y-123721904D01*
X186667619Y-123769523D01*
X186762857Y-123817142D01*
X186905714Y-123817142D01*
X187000952Y-123769523D01*
X187048571Y-123721904D01*
X187096190Y-123626666D01*
X187096190Y-123245714D01*
X186667619Y-124198095D02*
X186620000Y-124245714D01*
X186572380Y-124340952D01*
X186572380Y-124579047D01*
X186620000Y-124674285D01*
X186667619Y-124721904D01*
X186762857Y-124769523D01*
X186858095Y-124769523D01*
X187000952Y-124721904D01*
X187572380Y-124150476D01*
X187572380Y-124769523D01*
X187572380Y-125245714D02*
X187572380Y-125436190D01*
X187524761Y-125531428D01*
X187477142Y-125579047D01*
X187334285Y-125674285D01*
X187143809Y-125721904D01*
X186762857Y-125721904D01*
X186667619Y-125674285D01*
X186620000Y-125626666D01*
X186572380Y-125531428D01*
X186572380Y-125340952D01*
X186620000Y-125245714D01*
X186667619Y-125198095D01*
X186762857Y-125150476D01*
X187000952Y-125150476D01*
X187096190Y-125198095D01*
X187143809Y-125245714D01*
X187191428Y-125340952D01*
X187191428Y-125531428D01*
X187143809Y-125626666D01*
X187096190Y-125674285D01*
X187000952Y-125721904D01*
X105227380Y-123817142D02*
X104751190Y-123483809D01*
X105227380Y-123245714D02*
X104227380Y-123245714D01*
X104227380Y-123626666D01*
X104275000Y-123721904D01*
X104322619Y-123769523D01*
X104417857Y-123817142D01*
X104560714Y-123817142D01*
X104655952Y-123769523D01*
X104703571Y-123721904D01*
X104751190Y-123626666D01*
X104751190Y-123245714D01*
X104322619Y-124198095D02*
X104275000Y-124245714D01*
X104227380Y-124340952D01*
X104227380Y-124579047D01*
X104275000Y-124674285D01*
X104322619Y-124721904D01*
X104417857Y-124769523D01*
X104513095Y-124769523D01*
X104655952Y-124721904D01*
X105227380Y-124150476D01*
X105227380Y-124769523D01*
X104655952Y-125340952D02*
X104608333Y-125245714D01*
X104560714Y-125198095D01*
X104465476Y-125150476D01*
X104417857Y-125150476D01*
X104322619Y-125198095D01*
X104275000Y-125245714D01*
X104227380Y-125340952D01*
X104227380Y-125531428D01*
X104275000Y-125626666D01*
X104322619Y-125674285D01*
X104417857Y-125721904D01*
X104465476Y-125721904D01*
X104560714Y-125674285D01*
X104608333Y-125626666D01*
X104655952Y-125531428D01*
X104655952Y-125340952D01*
X104703571Y-125245714D01*
X104751190Y-125198095D01*
X104846428Y-125150476D01*
X105036904Y-125150476D01*
X105132142Y-125198095D01*
X105179761Y-125245714D01*
X105227380Y-125340952D01*
X105227380Y-125531428D01*
X105179761Y-125626666D01*
X105132142Y-125674285D01*
X105036904Y-125721904D01*
X104846428Y-125721904D01*
X104751190Y-125674285D01*
X104703571Y-125626666D01*
X104655952Y-125531428D01*
X111372380Y-128897142D02*
X110896190Y-128563809D01*
X111372380Y-128325714D02*
X110372380Y-128325714D01*
X110372380Y-128706666D01*
X110420000Y-128801904D01*
X110467619Y-128849523D01*
X110562857Y-128897142D01*
X110705714Y-128897142D01*
X110800952Y-128849523D01*
X110848571Y-128801904D01*
X110896190Y-128706666D01*
X110896190Y-128325714D01*
X110467619Y-129278095D02*
X110420000Y-129325714D01*
X110372380Y-129420952D01*
X110372380Y-129659047D01*
X110420000Y-129754285D01*
X110467619Y-129801904D01*
X110562857Y-129849523D01*
X110658095Y-129849523D01*
X110800952Y-129801904D01*
X111372380Y-129230476D01*
X111372380Y-129849523D01*
X110372380Y-130182857D02*
X110372380Y-130849523D01*
X111372380Y-130420952D01*
X105227380Y-128897142D02*
X104751190Y-128563809D01*
X105227380Y-128325714D02*
X104227380Y-128325714D01*
X104227380Y-128706666D01*
X104275000Y-128801904D01*
X104322619Y-128849523D01*
X104417857Y-128897142D01*
X104560714Y-128897142D01*
X104655952Y-128849523D01*
X104703571Y-128801904D01*
X104751190Y-128706666D01*
X104751190Y-128325714D01*
X104322619Y-129278095D02*
X104275000Y-129325714D01*
X104227380Y-129420952D01*
X104227380Y-129659047D01*
X104275000Y-129754285D01*
X104322619Y-129801904D01*
X104417857Y-129849523D01*
X104513095Y-129849523D01*
X104655952Y-129801904D01*
X105227380Y-129230476D01*
X105227380Y-129849523D01*
X104227380Y-130706666D02*
X104227380Y-130516190D01*
X104275000Y-130420952D01*
X104322619Y-130373333D01*
X104465476Y-130278095D01*
X104655952Y-130230476D01*
X105036904Y-130230476D01*
X105132142Y-130278095D01*
X105179761Y-130325714D01*
X105227380Y-130420952D01*
X105227380Y-130611428D01*
X105179761Y-130706666D01*
X105132142Y-130754285D01*
X105036904Y-130801904D01*
X104798809Y-130801904D01*
X104703571Y-130754285D01*
X104655952Y-130706666D01*
X104608333Y-130611428D01*
X104608333Y-130420952D01*
X104655952Y-130325714D01*
X104703571Y-130278095D01*
X104798809Y-130230476D01*
X141852380Y-149217142D02*
X141376190Y-148883809D01*
X141852380Y-148645714D02*
X140852380Y-148645714D01*
X140852380Y-149026666D01*
X140900000Y-149121904D01*
X140947619Y-149169523D01*
X141042857Y-149217142D01*
X141185714Y-149217142D01*
X141280952Y-149169523D01*
X141328571Y-149121904D01*
X141376190Y-149026666D01*
X141376190Y-148645714D01*
X140947619Y-149598095D02*
X140900000Y-149645714D01*
X140852380Y-149740952D01*
X140852380Y-149979047D01*
X140900000Y-150074285D01*
X140947619Y-150121904D01*
X141042857Y-150169523D01*
X141138095Y-150169523D01*
X141280952Y-150121904D01*
X141852380Y-149550476D01*
X141852380Y-150169523D01*
X140852380Y-151074285D02*
X140852380Y-150598095D01*
X141328571Y-150550476D01*
X141280952Y-150598095D01*
X141233333Y-150693333D01*
X141233333Y-150931428D01*
X141280952Y-151026666D01*
X141328571Y-151074285D01*
X141423809Y-151121904D01*
X141661904Y-151121904D01*
X141757142Y-151074285D01*
X141804761Y-151026666D01*
X141852380Y-150931428D01*
X141852380Y-150693333D01*
X141804761Y-150598095D01*
X141757142Y-150550476D01*
X138452380Y-133977142D02*
X137976190Y-133643809D01*
X138452380Y-133405714D02*
X137452380Y-133405714D01*
X137452380Y-133786666D01*
X137500000Y-133881904D01*
X137547619Y-133929523D01*
X137642857Y-133977142D01*
X137785714Y-133977142D01*
X137880952Y-133929523D01*
X137928571Y-133881904D01*
X137976190Y-133786666D01*
X137976190Y-133405714D01*
X137547619Y-134358095D02*
X137500000Y-134405714D01*
X137452380Y-134500952D01*
X137452380Y-134739047D01*
X137500000Y-134834285D01*
X137547619Y-134881904D01*
X137642857Y-134929523D01*
X137738095Y-134929523D01*
X137880952Y-134881904D01*
X138452380Y-134310476D01*
X138452380Y-134929523D01*
X137785714Y-135786666D02*
X138452380Y-135786666D01*
X137404761Y-135548571D02*
X138119047Y-135310476D01*
X138119047Y-135929523D01*
X142057380Y-118737142D02*
X141581190Y-118403809D01*
X142057380Y-118165714D02*
X141057380Y-118165714D01*
X141057380Y-118546666D01*
X141105000Y-118641904D01*
X141152619Y-118689523D01*
X141247857Y-118737142D01*
X141390714Y-118737142D01*
X141485952Y-118689523D01*
X141533571Y-118641904D01*
X141581190Y-118546666D01*
X141581190Y-118165714D01*
X141152619Y-119118095D02*
X141105000Y-119165714D01*
X141057380Y-119260952D01*
X141057380Y-119499047D01*
X141105000Y-119594285D01*
X141152619Y-119641904D01*
X141247857Y-119689523D01*
X141343095Y-119689523D01*
X141485952Y-119641904D01*
X142057380Y-119070476D01*
X142057380Y-119689523D01*
X141057380Y-120022857D02*
X141057380Y-120641904D01*
X141438333Y-120308571D01*
X141438333Y-120451428D01*
X141485952Y-120546666D01*
X141533571Y-120594285D01*
X141628809Y-120641904D01*
X141866904Y-120641904D01*
X141962142Y-120594285D01*
X142009761Y-120546666D01*
X142057380Y-120451428D01*
X142057380Y-120165714D01*
X142009761Y-120070476D01*
X141962142Y-120022857D01*
X130182857Y-75382380D02*
X130516190Y-74906190D01*
X130754285Y-75382380D02*
X130754285Y-74382380D01*
X130373333Y-74382380D01*
X130278095Y-74430000D01*
X130230476Y-74477619D01*
X130182857Y-74572857D01*
X130182857Y-74715714D01*
X130230476Y-74810952D01*
X130278095Y-74858571D01*
X130373333Y-74906190D01*
X130754285Y-74906190D01*
X129801904Y-74477619D02*
X129754285Y-74430000D01*
X129659047Y-74382380D01*
X129420952Y-74382380D01*
X129325714Y-74430000D01*
X129278095Y-74477619D01*
X129230476Y-74572857D01*
X129230476Y-74668095D01*
X129278095Y-74810952D01*
X129849523Y-75382380D01*
X129230476Y-75382380D01*
X128849523Y-74477619D02*
X128801904Y-74430000D01*
X128706666Y-74382380D01*
X128468571Y-74382380D01*
X128373333Y-74430000D01*
X128325714Y-74477619D01*
X128278095Y-74572857D01*
X128278095Y-74668095D01*
X128325714Y-74810952D01*
X128897142Y-75382380D01*
X128278095Y-75382380D01*
X139072857Y-101417380D02*
X139406190Y-100941190D01*
X139644285Y-101417380D02*
X139644285Y-100417380D01*
X139263333Y-100417380D01*
X139168095Y-100465000D01*
X139120476Y-100512619D01*
X139072857Y-100607857D01*
X139072857Y-100750714D01*
X139120476Y-100845952D01*
X139168095Y-100893571D01*
X139263333Y-100941190D01*
X139644285Y-100941190D01*
X138691904Y-100512619D02*
X138644285Y-100465000D01*
X138549047Y-100417380D01*
X138310952Y-100417380D01*
X138215714Y-100465000D01*
X138168095Y-100512619D01*
X138120476Y-100607857D01*
X138120476Y-100703095D01*
X138168095Y-100845952D01*
X138739523Y-101417380D01*
X138120476Y-101417380D01*
X137168095Y-101417380D02*
X137739523Y-101417380D01*
X137453809Y-101417380D02*
X137453809Y-100417380D01*
X137549047Y-100560238D01*
X137644285Y-100655476D01*
X137739523Y-100703095D01*
X120262380Y-61587142D02*
X119786190Y-61253809D01*
X120262380Y-61015714D02*
X119262380Y-61015714D01*
X119262380Y-61396666D01*
X119310000Y-61491904D01*
X119357619Y-61539523D01*
X119452857Y-61587142D01*
X119595714Y-61587142D01*
X119690952Y-61539523D01*
X119738571Y-61491904D01*
X119786190Y-61396666D01*
X119786190Y-61015714D01*
X119357619Y-61968095D02*
X119310000Y-62015714D01*
X119262380Y-62110952D01*
X119262380Y-62349047D01*
X119310000Y-62444285D01*
X119357619Y-62491904D01*
X119452857Y-62539523D01*
X119548095Y-62539523D01*
X119690952Y-62491904D01*
X120262380Y-61920476D01*
X120262380Y-62539523D01*
X119262380Y-63158571D02*
X119262380Y-63253809D01*
X119310000Y-63349047D01*
X119357619Y-63396666D01*
X119452857Y-63444285D01*
X119643333Y-63491904D01*
X119881428Y-63491904D01*
X120071904Y-63444285D01*
X120167142Y-63396666D01*
X120214761Y-63349047D01*
X120262380Y-63253809D01*
X120262380Y-63158571D01*
X120214761Y-63063333D01*
X120167142Y-63015714D01*
X120071904Y-62968095D01*
X119881428Y-62920476D01*
X119643333Y-62920476D01*
X119452857Y-62968095D01*
X119357619Y-63015714D01*
X119310000Y-63063333D01*
X119262380Y-63158571D01*
X125342380Y-61587142D02*
X124866190Y-61253809D01*
X125342380Y-61015714D02*
X124342380Y-61015714D01*
X124342380Y-61396666D01*
X124390000Y-61491904D01*
X124437619Y-61539523D01*
X124532857Y-61587142D01*
X124675714Y-61587142D01*
X124770952Y-61539523D01*
X124818571Y-61491904D01*
X124866190Y-61396666D01*
X124866190Y-61015714D01*
X125342380Y-62539523D02*
X125342380Y-61968095D01*
X125342380Y-62253809D02*
X124342380Y-62253809D01*
X124485238Y-62158571D01*
X124580476Y-62063333D01*
X124628095Y-61968095D01*
X125342380Y-63015714D02*
X125342380Y-63206190D01*
X125294761Y-63301428D01*
X125247142Y-63349047D01*
X125104285Y-63444285D01*
X124913809Y-63491904D01*
X124532857Y-63491904D01*
X124437619Y-63444285D01*
X124390000Y-63396666D01*
X124342380Y-63301428D01*
X124342380Y-63110952D01*
X124390000Y-63015714D01*
X124437619Y-62968095D01*
X124532857Y-62920476D01*
X124770952Y-62920476D01*
X124866190Y-62968095D01*
X124913809Y-63015714D01*
X124961428Y-63110952D01*
X124961428Y-63301428D01*
X124913809Y-63396666D01*
X124866190Y-63444285D01*
X124770952Y-63491904D01*
X130182857Y-72842380D02*
X130516190Y-72366190D01*
X130754285Y-72842380D02*
X130754285Y-71842380D01*
X130373333Y-71842380D01*
X130278095Y-71890000D01*
X130230476Y-71937619D01*
X130182857Y-72032857D01*
X130182857Y-72175714D01*
X130230476Y-72270952D01*
X130278095Y-72318571D01*
X130373333Y-72366190D01*
X130754285Y-72366190D01*
X129230476Y-72842380D02*
X129801904Y-72842380D01*
X129516190Y-72842380D02*
X129516190Y-71842380D01*
X129611428Y-71985238D01*
X129706666Y-72080476D01*
X129801904Y-72128095D01*
X128659047Y-72270952D02*
X128754285Y-72223333D01*
X128801904Y-72175714D01*
X128849523Y-72080476D01*
X128849523Y-72032857D01*
X128801904Y-71937619D01*
X128754285Y-71890000D01*
X128659047Y-71842380D01*
X128468571Y-71842380D01*
X128373333Y-71890000D01*
X128325714Y-71937619D01*
X128278095Y-72032857D01*
X128278095Y-72080476D01*
X128325714Y-72175714D01*
X128373333Y-72223333D01*
X128468571Y-72270952D01*
X128659047Y-72270952D01*
X128754285Y-72318571D01*
X128801904Y-72366190D01*
X128849523Y-72461428D01*
X128849523Y-72651904D01*
X128801904Y-72747142D01*
X128754285Y-72794761D01*
X128659047Y-72842380D01*
X128468571Y-72842380D01*
X128373333Y-72794761D01*
X128325714Y-72747142D01*
X128278095Y-72651904D01*
X128278095Y-72461428D01*
X128325714Y-72366190D01*
X128373333Y-72318571D01*
X128468571Y-72270952D01*
X129357380Y-149217142D02*
X128881190Y-148883809D01*
X129357380Y-148645714D02*
X128357380Y-148645714D01*
X128357380Y-149026666D01*
X128405000Y-149121904D01*
X128452619Y-149169523D01*
X128547857Y-149217142D01*
X128690714Y-149217142D01*
X128785952Y-149169523D01*
X128833571Y-149121904D01*
X128881190Y-149026666D01*
X128881190Y-148645714D01*
X129357380Y-150169523D02*
X129357380Y-149598095D01*
X129357380Y-149883809D02*
X128357380Y-149883809D01*
X128500238Y-149788571D01*
X128595476Y-149693333D01*
X128643095Y-149598095D01*
X128357380Y-151026666D02*
X128357380Y-150836190D01*
X128405000Y-150740952D01*
X128452619Y-150693333D01*
X128595476Y-150598095D01*
X128785952Y-150550476D01*
X129166904Y-150550476D01*
X129262142Y-150598095D01*
X129309761Y-150645714D01*
X129357380Y-150740952D01*
X129357380Y-150931428D01*
X129309761Y-151026666D01*
X129262142Y-151074285D01*
X129166904Y-151121904D01*
X128928809Y-151121904D01*
X128833571Y-151074285D01*
X128785952Y-151026666D01*
X128738333Y-150931428D01*
X128738333Y-150740952D01*
X128785952Y-150645714D01*
X128833571Y-150598095D01*
X128928809Y-150550476D01*
X116452380Y-149217142D02*
X115976190Y-148883809D01*
X116452380Y-148645714D02*
X115452380Y-148645714D01*
X115452380Y-149026666D01*
X115500000Y-149121904D01*
X115547619Y-149169523D01*
X115642857Y-149217142D01*
X115785714Y-149217142D01*
X115880952Y-149169523D01*
X115928571Y-149121904D01*
X115976190Y-149026666D01*
X115976190Y-148645714D01*
X116452380Y-150169523D02*
X116452380Y-149598095D01*
X116452380Y-149883809D02*
X115452380Y-149883809D01*
X115595238Y-149788571D01*
X115690476Y-149693333D01*
X115738095Y-149598095D01*
X115452380Y-151074285D02*
X115452380Y-150598095D01*
X115928571Y-150550476D01*
X115880952Y-150598095D01*
X115833333Y-150693333D01*
X115833333Y-150931428D01*
X115880952Y-151026666D01*
X115928571Y-151074285D01*
X116023809Y-151121904D01*
X116261904Y-151121904D01*
X116357142Y-151074285D01*
X116404761Y-151026666D01*
X116452380Y-150931428D01*
X116452380Y-150693333D01*
X116404761Y-150598095D01*
X116357142Y-150550476D01*
X105022380Y-149217142D02*
X104546190Y-148883809D01*
X105022380Y-148645714D02*
X104022380Y-148645714D01*
X104022380Y-149026666D01*
X104070000Y-149121904D01*
X104117619Y-149169523D01*
X104212857Y-149217142D01*
X104355714Y-149217142D01*
X104450952Y-149169523D01*
X104498571Y-149121904D01*
X104546190Y-149026666D01*
X104546190Y-148645714D01*
X105022380Y-150169523D02*
X105022380Y-149598095D01*
X105022380Y-149883809D02*
X104022380Y-149883809D01*
X104165238Y-149788571D01*
X104260476Y-149693333D01*
X104308095Y-149598095D01*
X104355714Y-151026666D02*
X105022380Y-151026666D01*
X103974761Y-150788571D02*
X104689047Y-150550476D01*
X104689047Y-151169523D01*
X131452857Y-105022380D02*
X131786190Y-104546190D01*
X132024285Y-105022380D02*
X132024285Y-104022380D01*
X131643333Y-104022380D01*
X131548095Y-104070000D01*
X131500476Y-104117619D01*
X131452857Y-104212857D01*
X131452857Y-104355714D01*
X131500476Y-104450952D01*
X131548095Y-104498571D01*
X131643333Y-104546190D01*
X132024285Y-104546190D01*
X130500476Y-105022380D02*
X131071904Y-105022380D01*
X130786190Y-105022380D02*
X130786190Y-104022380D01*
X130881428Y-104165238D01*
X130976666Y-104260476D01*
X131071904Y-104308095D01*
X130167142Y-104022380D02*
X129548095Y-104022380D01*
X129881428Y-104403333D01*
X129738571Y-104403333D01*
X129643333Y-104450952D01*
X129595714Y-104498571D01*
X129548095Y-104593809D01*
X129548095Y-104831904D01*
X129595714Y-104927142D01*
X129643333Y-104974761D01*
X129738571Y-105022380D01*
X130024285Y-105022380D01*
X130119523Y-104974761D01*
X130167142Y-104927142D01*
X104782857Y-75382380D02*
X105116190Y-74906190D01*
X105354285Y-75382380D02*
X105354285Y-74382380D01*
X104973333Y-74382380D01*
X104878095Y-74430000D01*
X104830476Y-74477619D01*
X104782857Y-74572857D01*
X104782857Y-74715714D01*
X104830476Y-74810952D01*
X104878095Y-74858571D01*
X104973333Y-74906190D01*
X105354285Y-74906190D01*
X103830476Y-75382380D02*
X104401904Y-75382380D01*
X104116190Y-75382380D02*
X104116190Y-74382380D01*
X104211428Y-74525238D01*
X104306666Y-74620476D01*
X104401904Y-74668095D01*
X103449523Y-74477619D02*
X103401904Y-74430000D01*
X103306666Y-74382380D01*
X103068571Y-74382380D01*
X102973333Y-74430000D01*
X102925714Y-74477619D01*
X102878095Y-74572857D01*
X102878095Y-74668095D01*
X102925714Y-74810952D01*
X103497142Y-75382380D01*
X102878095Y-75382380D01*
X116657380Y-133977142D02*
X116181190Y-133643809D01*
X116657380Y-133405714D02*
X115657380Y-133405714D01*
X115657380Y-133786666D01*
X115705000Y-133881904D01*
X115752619Y-133929523D01*
X115847857Y-133977142D01*
X115990714Y-133977142D01*
X116085952Y-133929523D01*
X116133571Y-133881904D01*
X116181190Y-133786666D01*
X116181190Y-133405714D01*
X116657380Y-134929523D02*
X116657380Y-134358095D01*
X116657380Y-134643809D02*
X115657380Y-134643809D01*
X115800238Y-134548571D01*
X115895476Y-134453333D01*
X115943095Y-134358095D01*
X116657380Y-135881904D02*
X116657380Y-135310476D01*
X116657380Y-135596190D02*
X115657380Y-135596190D01*
X115800238Y-135500952D01*
X115895476Y-135405714D01*
X115943095Y-135310476D01*
X139072857Y-91257380D02*
X139406190Y-90781190D01*
X139644285Y-91257380D02*
X139644285Y-90257380D01*
X139263333Y-90257380D01*
X139168095Y-90305000D01*
X139120476Y-90352619D01*
X139072857Y-90447857D01*
X139072857Y-90590714D01*
X139120476Y-90685952D01*
X139168095Y-90733571D01*
X139263333Y-90781190D01*
X139644285Y-90781190D01*
X138120476Y-91257380D02*
X138691904Y-91257380D01*
X138406190Y-91257380D02*
X138406190Y-90257380D01*
X138501428Y-90400238D01*
X138596666Y-90495476D01*
X138691904Y-90543095D01*
X137501428Y-90257380D02*
X137406190Y-90257380D01*
X137310952Y-90305000D01*
X137263333Y-90352619D01*
X137215714Y-90447857D01*
X137168095Y-90638333D01*
X137168095Y-90876428D01*
X137215714Y-91066904D01*
X137263333Y-91162142D01*
X137310952Y-91209761D01*
X137406190Y-91257380D01*
X137501428Y-91257380D01*
X137596666Y-91209761D01*
X137644285Y-91162142D01*
X137691904Y-91066904D01*
X137739523Y-90876428D01*
X137739523Y-90638333D01*
X137691904Y-90447857D01*
X137644285Y-90352619D01*
X137596666Y-90305000D01*
X137501428Y-90257380D01*
X124626666Y-81732380D02*
X124960000Y-81256190D01*
X125198095Y-81732380D02*
X125198095Y-80732380D01*
X124817142Y-80732380D01*
X124721904Y-80780000D01*
X124674285Y-80827619D01*
X124626666Y-80922857D01*
X124626666Y-81065714D01*
X124674285Y-81160952D01*
X124721904Y-81208571D01*
X124817142Y-81256190D01*
X125198095Y-81256190D01*
X124150476Y-81732380D02*
X123960000Y-81732380D01*
X123864761Y-81684761D01*
X123817142Y-81637142D01*
X123721904Y-81494285D01*
X123674285Y-81303809D01*
X123674285Y-80922857D01*
X123721904Y-80827619D01*
X123769523Y-80780000D01*
X123864761Y-80732380D01*
X124055238Y-80732380D01*
X124150476Y-80780000D01*
X124198095Y-80827619D01*
X124245714Y-80922857D01*
X124245714Y-81160952D01*
X124198095Y-81256190D01*
X124150476Y-81303809D01*
X124055238Y-81351428D01*
X123864761Y-81351428D01*
X123769523Y-81303809D01*
X123721904Y-81256190D01*
X123674285Y-81160952D01*
X104306666Y-72842380D02*
X104640000Y-72366190D01*
X104878095Y-72842380D02*
X104878095Y-71842380D01*
X104497142Y-71842380D01*
X104401904Y-71890000D01*
X104354285Y-71937619D01*
X104306666Y-72032857D01*
X104306666Y-72175714D01*
X104354285Y-72270952D01*
X104401904Y-72318571D01*
X104497142Y-72366190D01*
X104878095Y-72366190D01*
X103735238Y-72270952D02*
X103830476Y-72223333D01*
X103878095Y-72175714D01*
X103925714Y-72080476D01*
X103925714Y-72032857D01*
X103878095Y-71937619D01*
X103830476Y-71890000D01*
X103735238Y-71842380D01*
X103544761Y-71842380D01*
X103449523Y-71890000D01*
X103401904Y-71937619D01*
X103354285Y-72032857D01*
X103354285Y-72080476D01*
X103401904Y-72175714D01*
X103449523Y-72223333D01*
X103544761Y-72270952D01*
X103735238Y-72270952D01*
X103830476Y-72318571D01*
X103878095Y-72366190D01*
X103925714Y-72461428D01*
X103925714Y-72651904D01*
X103878095Y-72747142D01*
X103830476Y-72794761D01*
X103735238Y-72842380D01*
X103544761Y-72842380D01*
X103449523Y-72794761D01*
X103401904Y-72747142D01*
X103354285Y-72651904D01*
X103354285Y-72461428D01*
X103401904Y-72366190D01*
X103449523Y-72318571D01*
X103544761Y-72270952D01*
X110656666Y-105227380D02*
X110990000Y-104751190D01*
X111228095Y-105227380D02*
X111228095Y-104227380D01*
X110847142Y-104227380D01*
X110751904Y-104275000D01*
X110704285Y-104322619D01*
X110656666Y-104417857D01*
X110656666Y-104560714D01*
X110704285Y-104655952D01*
X110751904Y-104703571D01*
X110847142Y-104751190D01*
X111228095Y-104751190D01*
X109799523Y-104227380D02*
X109990000Y-104227380D01*
X110085238Y-104275000D01*
X110132857Y-104322619D01*
X110228095Y-104465476D01*
X110275714Y-104655952D01*
X110275714Y-105036904D01*
X110228095Y-105132142D01*
X110180476Y-105179761D01*
X110085238Y-105227380D01*
X109894761Y-105227380D01*
X109799523Y-105179761D01*
X109751904Y-105132142D01*
X109704285Y-105036904D01*
X109704285Y-104798809D01*
X109751904Y-104703571D01*
X109799523Y-104655952D01*
X109894761Y-104608333D01*
X110085238Y-104608333D01*
X110180476Y-104655952D01*
X110228095Y-104703571D01*
X110275714Y-104798809D01*
X124626666Y-84272380D02*
X124960000Y-83796190D01*
X125198095Y-84272380D02*
X125198095Y-83272380D01*
X124817142Y-83272380D01*
X124721904Y-83320000D01*
X124674285Y-83367619D01*
X124626666Y-83462857D01*
X124626666Y-83605714D01*
X124674285Y-83700952D01*
X124721904Y-83748571D01*
X124817142Y-83796190D01*
X125198095Y-83796190D01*
X123721904Y-83272380D02*
X124198095Y-83272380D01*
X124245714Y-83748571D01*
X124198095Y-83700952D01*
X124102857Y-83653333D01*
X123864761Y-83653333D01*
X123769523Y-83700952D01*
X123721904Y-83748571D01*
X123674285Y-83843809D01*
X123674285Y-84081904D01*
X123721904Y-84177142D01*
X123769523Y-84224761D01*
X123864761Y-84272380D01*
X124102857Y-84272380D01*
X124198095Y-84224761D01*
X124245714Y-84177142D01*
X104592380Y-138263333D02*
X104116190Y-137930000D01*
X104592380Y-137691904D02*
X103592380Y-137691904D01*
X103592380Y-138072857D01*
X103640000Y-138168095D01*
X103687619Y-138215714D01*
X103782857Y-138263333D01*
X103925714Y-138263333D01*
X104020952Y-138215714D01*
X104068571Y-138168095D01*
X104116190Y-138072857D01*
X104116190Y-137691904D01*
X103925714Y-139120476D02*
X104592380Y-139120476D01*
X103544761Y-138882380D02*
X104259047Y-138644285D01*
X104259047Y-139263333D01*
X98877380Y-149693333D02*
X98401190Y-149360000D01*
X98877380Y-149121904D02*
X97877380Y-149121904D01*
X97877380Y-149502857D01*
X97925000Y-149598095D01*
X97972619Y-149645714D01*
X98067857Y-149693333D01*
X98210714Y-149693333D01*
X98305952Y-149645714D01*
X98353571Y-149598095D01*
X98401190Y-149502857D01*
X98401190Y-149121904D01*
X97877380Y-150026666D02*
X97877380Y-150645714D01*
X98258333Y-150312380D01*
X98258333Y-150455238D01*
X98305952Y-150550476D01*
X98353571Y-150598095D01*
X98448809Y-150645714D01*
X98686904Y-150645714D01*
X98782142Y-150598095D01*
X98829761Y-150550476D01*
X98877380Y-150455238D01*
X98877380Y-150169523D01*
X98829761Y-150074285D01*
X98782142Y-150026666D01*
X129357380Y-134453333D02*
X128881190Y-134120000D01*
X129357380Y-133881904D02*
X128357380Y-133881904D01*
X128357380Y-134262857D01*
X128405000Y-134358095D01*
X128452619Y-134405714D01*
X128547857Y-134453333D01*
X128690714Y-134453333D01*
X128785952Y-134405714D01*
X128833571Y-134358095D01*
X128881190Y-134262857D01*
X128881190Y-133881904D01*
X128452619Y-134834285D02*
X128405000Y-134881904D01*
X128357380Y-134977142D01*
X128357380Y-135215238D01*
X128405000Y-135310476D01*
X128452619Y-135358095D01*
X128547857Y-135405714D01*
X128643095Y-135405714D01*
X128785952Y-135358095D01*
X129357380Y-134786666D01*
X129357380Y-135405714D01*
X101766666Y-92732380D02*
X102100000Y-92256190D01*
X102338095Y-92732380D02*
X102338095Y-91732380D01*
X101957142Y-91732380D01*
X101861904Y-91780000D01*
X101814285Y-91827619D01*
X101766666Y-91922857D01*
X101766666Y-92065714D01*
X101814285Y-92160952D01*
X101861904Y-92208571D01*
X101957142Y-92256190D01*
X102338095Y-92256190D01*
X100814285Y-92732380D02*
X101385714Y-92732380D01*
X101100000Y-92732380D02*
X101100000Y-91732380D01*
X101195238Y-91875238D01*
X101290476Y-91970476D01*
X101385714Y-92018095D01*
X185777142Y-137787142D02*
X185824761Y-137739523D01*
X185872380Y-137596666D01*
X185872380Y-137501428D01*
X185824761Y-137358571D01*
X185729523Y-137263333D01*
X185634285Y-137215714D01*
X185443809Y-137168095D01*
X185300952Y-137168095D01*
X185110476Y-137215714D01*
X185015238Y-137263333D01*
X184920000Y-137358571D01*
X184872380Y-137501428D01*
X184872380Y-137596666D01*
X184920000Y-137739523D01*
X184967619Y-137787142D01*
X185872380Y-138739523D02*
X185872380Y-138168095D01*
X185872380Y-138453809D02*
X184872380Y-138453809D01*
X185015238Y-138358571D01*
X185110476Y-138263333D01*
X185158095Y-138168095D01*
X185205714Y-139596666D02*
X185872380Y-139596666D01*
X184824761Y-139358571D02*
X185539047Y-139120476D01*
X185539047Y-139739523D01*
X177172857Y-77192142D02*
X177220476Y-77239761D01*
X177363333Y-77287380D01*
X177458571Y-77287380D01*
X177601428Y-77239761D01*
X177696666Y-77144523D01*
X177744285Y-77049285D01*
X177791904Y-76858809D01*
X177791904Y-76715952D01*
X177744285Y-76525476D01*
X177696666Y-76430238D01*
X177601428Y-76335000D01*
X177458571Y-76287380D01*
X177363333Y-76287380D01*
X177220476Y-76335000D01*
X177172857Y-76382619D01*
X176220476Y-77287380D02*
X176791904Y-77287380D01*
X176506190Y-77287380D02*
X176506190Y-76287380D01*
X176601428Y-76430238D01*
X176696666Y-76525476D01*
X176791904Y-76573095D01*
X175887142Y-76287380D02*
X175268095Y-76287380D01*
X175601428Y-76668333D01*
X175458571Y-76668333D01*
X175363333Y-76715952D01*
X175315714Y-76763571D01*
X175268095Y-76858809D01*
X175268095Y-77096904D01*
X175315714Y-77192142D01*
X175363333Y-77239761D01*
X175458571Y-77287380D01*
X175744285Y-77287380D01*
X175839523Y-77239761D01*
X175887142Y-77192142D01*
X177172857Y-70997142D02*
X177220476Y-71044761D01*
X177363333Y-71092380D01*
X177458571Y-71092380D01*
X177601428Y-71044761D01*
X177696666Y-70949523D01*
X177744285Y-70854285D01*
X177791904Y-70663809D01*
X177791904Y-70520952D01*
X177744285Y-70330476D01*
X177696666Y-70235238D01*
X177601428Y-70140000D01*
X177458571Y-70092380D01*
X177363333Y-70092380D01*
X177220476Y-70140000D01*
X177172857Y-70187619D01*
X176220476Y-71092380D02*
X176791904Y-71092380D01*
X176506190Y-71092380D02*
X176506190Y-70092380D01*
X176601428Y-70235238D01*
X176696666Y-70330476D01*
X176791904Y-70378095D01*
X175839523Y-70187619D02*
X175791904Y-70140000D01*
X175696666Y-70092380D01*
X175458571Y-70092380D01*
X175363333Y-70140000D01*
X175315714Y-70187619D01*
X175268095Y-70282857D01*
X175268095Y-70378095D01*
X175315714Y-70520952D01*
X175887142Y-71092380D01*
X175268095Y-71092380D01*
X183237142Y-137787142D02*
X183284761Y-137739523D01*
X183332380Y-137596666D01*
X183332380Y-137501428D01*
X183284761Y-137358571D01*
X183189523Y-137263333D01*
X183094285Y-137215714D01*
X182903809Y-137168095D01*
X182760952Y-137168095D01*
X182570476Y-137215714D01*
X182475238Y-137263333D01*
X182380000Y-137358571D01*
X182332380Y-137501428D01*
X182332380Y-137596666D01*
X182380000Y-137739523D01*
X182427619Y-137787142D01*
X183332380Y-138739523D02*
X183332380Y-138168095D01*
X183332380Y-138453809D02*
X182332380Y-138453809D01*
X182475238Y-138358571D01*
X182570476Y-138263333D01*
X182618095Y-138168095D01*
X183332380Y-139691904D02*
X183332380Y-139120476D01*
X183332380Y-139406190D02*
X182332380Y-139406190D01*
X182475238Y-139310952D01*
X182570476Y-139215714D01*
X182618095Y-139120476D01*
X181487142Y-124293333D02*
X181534761Y-124245714D01*
X181582380Y-124102857D01*
X181582380Y-124007619D01*
X181534761Y-123864761D01*
X181439523Y-123769523D01*
X181344285Y-123721904D01*
X181153809Y-123674285D01*
X181010952Y-123674285D01*
X180820476Y-123721904D01*
X180725238Y-123769523D01*
X180630000Y-123864761D01*
X180582380Y-124007619D01*
X180582380Y-124102857D01*
X180630000Y-124245714D01*
X180677619Y-124293333D01*
X181582380Y-124769523D02*
X181582380Y-124960000D01*
X181534761Y-125055238D01*
X181487142Y-125102857D01*
X181344285Y-125198095D01*
X181153809Y-125245714D01*
X180772857Y-125245714D01*
X180677619Y-125198095D01*
X180630000Y-125150476D01*
X180582380Y-125055238D01*
X180582380Y-124864761D01*
X180630000Y-124769523D01*
X180677619Y-124721904D01*
X180772857Y-124674285D01*
X181010952Y-124674285D01*
X181106190Y-124721904D01*
X181153809Y-124769523D01*
X181201428Y-124864761D01*
X181201428Y-125055238D01*
X181153809Y-125150476D01*
X181106190Y-125198095D01*
X181010952Y-125245714D01*
X111482142Y-124293333D02*
X111529761Y-124245714D01*
X111577380Y-124102857D01*
X111577380Y-124007619D01*
X111529761Y-123864761D01*
X111434523Y-123769523D01*
X111339285Y-123721904D01*
X111148809Y-123674285D01*
X111005952Y-123674285D01*
X110815476Y-123721904D01*
X110720238Y-123769523D01*
X110625000Y-123864761D01*
X110577380Y-124007619D01*
X110577380Y-124102857D01*
X110625000Y-124245714D01*
X110672619Y-124293333D01*
X110577380Y-125150476D02*
X110577380Y-124960000D01*
X110625000Y-124864761D01*
X110672619Y-124817142D01*
X110815476Y-124721904D01*
X111005952Y-124674285D01*
X111386904Y-124674285D01*
X111482142Y-124721904D01*
X111529761Y-124769523D01*
X111577380Y-124864761D01*
X111577380Y-125055238D01*
X111529761Y-125150476D01*
X111482142Y-125198095D01*
X111386904Y-125245714D01*
X111148809Y-125245714D01*
X111053571Y-125198095D01*
X111005952Y-125150476D01*
X110958333Y-125055238D01*
X110958333Y-124864761D01*
X111005952Y-124769523D01*
X111053571Y-124721904D01*
X111148809Y-124674285D01*
X109577142Y-138263333D02*
X109624761Y-138215714D01*
X109672380Y-138072857D01*
X109672380Y-137977619D01*
X109624761Y-137834761D01*
X109529523Y-137739523D01*
X109434285Y-137691904D01*
X109243809Y-137644285D01*
X109100952Y-137644285D01*
X108910476Y-137691904D01*
X108815238Y-137739523D01*
X108720000Y-137834761D01*
X108672380Y-137977619D01*
X108672380Y-138072857D01*
X108720000Y-138215714D01*
X108767619Y-138263333D01*
X109005714Y-139120476D02*
X109672380Y-139120476D01*
X108624761Y-138882380D02*
X109339047Y-138644285D01*
X109339047Y-139263333D01*
X115736666Y-77037142D02*
X115784285Y-77084761D01*
X115927142Y-77132380D01*
X116022380Y-77132380D01*
X116165238Y-77084761D01*
X116260476Y-76989523D01*
X116308095Y-76894285D01*
X116355714Y-76703809D01*
X116355714Y-76560952D01*
X116308095Y-76370476D01*
X116260476Y-76275238D01*
X116165238Y-76180000D01*
X116022380Y-76132380D01*
X115927142Y-76132380D01*
X115784285Y-76180000D01*
X115736666Y-76227619D01*
X115403333Y-76132380D02*
X114784285Y-76132380D01*
X115117619Y-76513333D01*
X114974761Y-76513333D01*
X114879523Y-76560952D01*
X114831904Y-76608571D01*
X114784285Y-76703809D01*
X114784285Y-76941904D01*
X114831904Y-77037142D01*
X114879523Y-77084761D01*
X114974761Y-77132380D01*
X115260476Y-77132380D01*
X115355714Y-77084761D01*
X115403333Y-77037142D01*
X115736666Y-70842142D02*
X115784285Y-70889761D01*
X115927142Y-70937380D01*
X116022380Y-70937380D01*
X116165238Y-70889761D01*
X116260476Y-70794523D01*
X116308095Y-70699285D01*
X116355714Y-70508809D01*
X116355714Y-70365952D01*
X116308095Y-70175476D01*
X116260476Y-70080238D01*
X116165238Y-69985000D01*
X116022380Y-69937380D01*
X115927142Y-69937380D01*
X115784285Y-69985000D01*
X115736666Y-70032619D01*
X115355714Y-70032619D02*
X115308095Y-69985000D01*
X115212857Y-69937380D01*
X114974761Y-69937380D01*
X114879523Y-69985000D01*
X114831904Y-70032619D01*
X114784285Y-70127857D01*
X114784285Y-70223095D01*
X114831904Y-70365952D01*
X115403333Y-70937380D01*
X114784285Y-70937380D01*
X107037142Y-138263333D02*
X107084761Y-138215714D01*
X107132380Y-138072857D01*
X107132380Y-137977619D01*
X107084761Y-137834761D01*
X106989523Y-137739523D01*
X106894285Y-137691904D01*
X106703809Y-137644285D01*
X106560952Y-137644285D01*
X106370476Y-137691904D01*
X106275238Y-137739523D01*
X106180000Y-137834761D01*
X106132380Y-137977619D01*
X106132380Y-138072857D01*
X106180000Y-138215714D01*
X106227619Y-138263333D01*
X107132380Y-139215714D02*
X107132380Y-138644285D01*
X107132380Y-138930000D02*
X106132380Y-138930000D01*
X106275238Y-138834761D01*
X106370476Y-138739523D01*
X106418095Y-138644285D01*
X154312857Y-96087142D02*
X154360476Y-96134761D01*
X154503333Y-96182380D01*
X154598571Y-96182380D01*
X154741428Y-96134761D01*
X154836666Y-96039523D01*
X154884285Y-95944285D01*
X154931904Y-95753809D01*
X154931904Y-95610952D01*
X154884285Y-95420476D01*
X154836666Y-95325238D01*
X154741428Y-95230000D01*
X154598571Y-95182380D01*
X154503333Y-95182380D01*
X154360476Y-95230000D01*
X154312857Y-95277619D01*
X153360476Y-96182380D02*
X153931904Y-96182380D01*
X153646190Y-96182380D02*
X153646190Y-95182380D01*
X153741428Y-95325238D01*
X153836666Y-95420476D01*
X153931904Y-95468095D01*
X152741428Y-95182380D02*
X152646190Y-95182380D01*
X152550952Y-95230000D01*
X152503333Y-95277619D01*
X152455714Y-95372857D01*
X152408095Y-95563333D01*
X152408095Y-95801428D01*
X152455714Y-95991904D01*
X152503333Y-96087142D01*
X152550952Y-96134761D01*
X152646190Y-96182380D01*
X152741428Y-96182380D01*
X152836666Y-96134761D01*
X152884285Y-96087142D01*
X152931904Y-95991904D01*
X152979523Y-95801428D01*
X152979523Y-95563333D01*
X152931904Y-95372857D01*
X152884285Y-95277619D01*
X152836666Y-95230000D01*
X152741428Y-95182380D01*
X138596666Y-96242142D02*
X138644285Y-96289761D01*
X138787142Y-96337380D01*
X138882380Y-96337380D01*
X139025238Y-96289761D01*
X139120476Y-96194523D01*
X139168095Y-96099285D01*
X139215714Y-95908809D01*
X139215714Y-95765952D01*
X139168095Y-95575476D01*
X139120476Y-95480238D01*
X139025238Y-95385000D01*
X138882380Y-95337380D01*
X138787142Y-95337380D01*
X138644285Y-95385000D01*
X138596666Y-95432619D01*
X138025238Y-95765952D02*
X138120476Y-95718333D01*
X138168095Y-95670714D01*
X138215714Y-95575476D01*
X138215714Y-95527857D01*
X138168095Y-95432619D01*
X138120476Y-95385000D01*
X138025238Y-95337380D01*
X137834761Y-95337380D01*
X137739523Y-95385000D01*
X137691904Y-95432619D01*
X137644285Y-95527857D01*
X137644285Y-95575476D01*
X137691904Y-95670714D01*
X137739523Y-95718333D01*
X137834761Y-95765952D01*
X138025238Y-95765952D01*
X138120476Y-95813571D01*
X138168095Y-95861190D01*
X138215714Y-95956428D01*
X138215714Y-96146904D01*
X138168095Y-96242142D01*
X138120476Y-96289761D01*
X138025238Y-96337380D01*
X137834761Y-96337380D01*
X137739523Y-96289761D01*
X137691904Y-96242142D01*
X137644285Y-96146904D01*
X137644285Y-95956428D01*
X137691904Y-95861190D01*
X137739523Y-95813571D01*
X137834761Y-95765952D01*
X110307380Y-149693333D02*
X109831190Y-149360000D01*
X110307380Y-149121904D02*
X109307380Y-149121904D01*
X109307380Y-149502857D01*
X109355000Y-149598095D01*
X109402619Y-149645714D01*
X109497857Y-149693333D01*
X109640714Y-149693333D01*
X109735952Y-149645714D01*
X109783571Y-149598095D01*
X109831190Y-149502857D01*
X109831190Y-149121904D01*
X109307380Y-150026666D02*
X109307380Y-150693333D01*
X110307380Y-150264761D01*
X123007380Y-149217142D02*
X122531190Y-148883809D01*
X123007380Y-148645714D02*
X122007380Y-148645714D01*
X122007380Y-149026666D01*
X122055000Y-149121904D01*
X122102619Y-149169523D01*
X122197857Y-149217142D01*
X122340714Y-149217142D01*
X122435952Y-149169523D01*
X122483571Y-149121904D01*
X122531190Y-149026666D01*
X122531190Y-148645714D01*
X123007380Y-150169523D02*
X123007380Y-149598095D01*
X123007380Y-149883809D02*
X122007380Y-149883809D01*
X122150238Y-149788571D01*
X122245476Y-149693333D01*
X122293095Y-149598095D01*
X122007380Y-150502857D02*
X122007380Y-151169523D01*
X123007380Y-150740952D01*
X144392380Y-133977142D02*
X143916190Y-133643809D01*
X144392380Y-133405714D02*
X143392380Y-133405714D01*
X143392380Y-133786666D01*
X143440000Y-133881904D01*
X143487619Y-133929523D01*
X143582857Y-133977142D01*
X143725714Y-133977142D01*
X143820952Y-133929523D01*
X143868571Y-133881904D01*
X143916190Y-133786666D01*
X143916190Y-133405714D01*
X143392380Y-134310476D02*
X143392380Y-134929523D01*
X143773333Y-134596190D01*
X143773333Y-134739047D01*
X143820952Y-134834285D01*
X143868571Y-134881904D01*
X143963809Y-134929523D01*
X144201904Y-134929523D01*
X144297142Y-134881904D01*
X144344761Y-134834285D01*
X144392380Y-134739047D01*
X144392380Y-134453333D01*
X144344761Y-134358095D01*
X144297142Y-134310476D01*
X143392380Y-135786666D02*
X143392380Y-135596190D01*
X143440000Y-135500952D01*
X143487619Y-135453333D01*
X143630476Y-135358095D01*
X143820952Y-135310476D01*
X144201904Y-135310476D01*
X144297142Y-135358095D01*
X144344761Y-135405714D01*
X144392380Y-135500952D01*
X144392380Y-135691428D01*
X144344761Y-135786666D01*
X144297142Y-135834285D01*
X144201904Y-135881904D01*
X143963809Y-135881904D01*
X143868571Y-135834285D01*
X143820952Y-135786666D01*
X143773333Y-135691428D01*
X143773333Y-135500952D01*
X143820952Y-135405714D01*
X143868571Y-135358095D01*
X143963809Y-135310476D01*
X169792380Y-149217142D02*
X169316190Y-148883809D01*
X169792380Y-148645714D02*
X168792380Y-148645714D01*
X168792380Y-149026666D01*
X168840000Y-149121904D01*
X168887619Y-149169523D01*
X168982857Y-149217142D01*
X169125714Y-149217142D01*
X169220952Y-149169523D01*
X169268571Y-149121904D01*
X169316190Y-149026666D01*
X169316190Y-148645714D01*
X169125714Y-150074285D02*
X169792380Y-150074285D01*
X168744761Y-149836190D02*
X169459047Y-149598095D01*
X169459047Y-150217142D01*
X168792380Y-150502857D02*
X168792380Y-151169523D01*
X169792380Y-150740952D01*
X182492380Y-149217142D02*
X182016190Y-148883809D01*
X182492380Y-148645714D02*
X181492380Y-148645714D01*
X181492380Y-149026666D01*
X181540000Y-149121904D01*
X181587619Y-149169523D01*
X181682857Y-149217142D01*
X181825714Y-149217142D01*
X181920952Y-149169523D01*
X181968571Y-149121904D01*
X182016190Y-149026666D01*
X182016190Y-148645714D01*
X181492380Y-150121904D02*
X181492380Y-149645714D01*
X181968571Y-149598095D01*
X181920952Y-149645714D01*
X181873333Y-149740952D01*
X181873333Y-149979047D01*
X181920952Y-150074285D01*
X181968571Y-150121904D01*
X182063809Y-150169523D01*
X182301904Y-150169523D01*
X182397142Y-150121904D01*
X182444761Y-150074285D01*
X182492380Y-149979047D01*
X182492380Y-149740952D01*
X182444761Y-149645714D01*
X182397142Y-149598095D01*
X181492380Y-150502857D02*
X181492380Y-151169523D01*
X182492380Y-150740952D01*
%LPC*%
D12*
X101600000Y-98170000D03*
X101600000Y-107569000D03*
X101600000Y-102870000D03*
X190500000Y-98170000D03*
X190500000Y-107569000D03*
X190500000Y-102870000D03*
X120650000Y-68960000D03*
X120650000Y-78359000D03*
X120650000Y-73660000D03*
X171450000Y-68960000D03*
X171450000Y-78359000D03*
X171450000Y-73660000D03*
D13*
X150750000Y-73660000D03*
X141351000Y-73660000D03*
X146050000Y-73660000D03*
D14*
X184150000Y-108990000D03*
X183200000Y-111990000D03*
X185100000Y-111990000D03*
X184150000Y-118340000D03*
X185100000Y-115340000D03*
X183200000Y-115340000D03*
X107950000Y-118340000D03*
X108900000Y-115340000D03*
X107000000Y-115340000D03*
X107950000Y-108990000D03*
X107000000Y-111990000D03*
X108900000Y-111990000D03*
D15*
X173990000Y-86360000D03*
D16*
X171450000Y-88900000D03*
X168910000Y-86360000D03*
D15*
X123190000Y-86360000D03*
D16*
X120650000Y-88900000D03*
X118110000Y-86360000D03*
D15*
X158750000Y-97790000D03*
D16*
X161290000Y-95250000D03*
X163830000Y-97790000D03*
D15*
X107950000Y-97790000D03*
D16*
X110490000Y-95250000D03*
X113030000Y-97790000D03*
D15*
X179070000Y-97790000D03*
D16*
X181610000Y-95250000D03*
X184150000Y-97790000D03*
D15*
X128270000Y-97790000D03*
D16*
X130810000Y-95250000D03*
X133350000Y-97790000D03*
D17*
X190500000Y-126850000D03*
X190500000Y-129850000D03*
X190500000Y-138350000D03*
X101600000Y-126850000D03*
X101600000Y-129850000D03*
X101600000Y-138350000D03*
X165100000Y-111610000D03*
X165100000Y-114610000D03*
X165100000Y-123110000D03*
X114300000Y-111610000D03*
X114300000Y-114610000D03*
X114300000Y-123110000D03*
X165100000Y-142090000D03*
X165100000Y-145090000D03*
X165100000Y-153590000D03*
X114300000Y-142090000D03*
X114300000Y-145090000D03*
X114300000Y-153590000D03*
X152400000Y-142090000D03*
X152400000Y-145090000D03*
X152400000Y-153590000D03*
X139700000Y-142090000D03*
X139700000Y-145090000D03*
X139700000Y-153590000D03*
X139700000Y-111610000D03*
X139700000Y-114610000D03*
X139700000Y-123110000D03*
X152400000Y-111610000D03*
X152400000Y-114610000D03*
X152400000Y-123110000D03*
X139700000Y-126850000D03*
X139700000Y-129850000D03*
X139700000Y-138350000D03*
X177800000Y-126850000D03*
X177800000Y-129850000D03*
X177800000Y-138350000D03*
X114300000Y-126850000D03*
X114300000Y-129850000D03*
X114300000Y-138350000D03*
X177800000Y-111610000D03*
X177800000Y-114610000D03*
X177800000Y-123110000D03*
X127000000Y-111610000D03*
X127000000Y-114610000D03*
X127000000Y-123110000D03*
X177800000Y-142090000D03*
X177800000Y-145090000D03*
X177800000Y-153590000D03*
X127000000Y-142090000D03*
X127000000Y-145090000D03*
X127000000Y-153590000D03*
X190500000Y-111610000D03*
X190500000Y-114610000D03*
X190500000Y-123110000D03*
X101600000Y-111610000D03*
X101600000Y-114610000D03*
X101600000Y-123110000D03*
X190500000Y-142090000D03*
X190500000Y-145090000D03*
X190500000Y-153590000D03*
X101600000Y-142090000D03*
X101600000Y-145090000D03*
X101600000Y-153590000D03*
X165100000Y-126850000D03*
X165100000Y-129850000D03*
X165100000Y-138350000D03*
X127000000Y-126850000D03*
X127000000Y-129850000D03*
X127000000Y-138350000D03*
X152400000Y-126850000D03*
X152400000Y-129850000D03*
X152400000Y-138350000D03*
D18*
X173990000Y-93385000D03*
X171490000Y-93385000D03*
X168990000Y-93385000D03*
D19*
X176240000Y-103385000D03*
X166740000Y-103385000D03*
D18*
X168990000Y-95885000D03*
X171490000Y-95885000D03*
D20*
X173990000Y-95885000D03*
D18*
X123190000Y-93385000D03*
X120690000Y-93385000D03*
X118190000Y-93385000D03*
D19*
X125440000Y-103385000D03*
X115940000Y-103385000D03*
D18*
X118190000Y-95885000D03*
X120690000Y-95885000D03*
D20*
X123190000Y-95885000D03*
D19*
X153910000Y-61715000D03*
X163510000Y-61715000D03*
D18*
X161210000Y-69215000D03*
X158710000Y-69215000D03*
D20*
X156210000Y-69215000D03*
D19*
X103110000Y-61715000D03*
X112710000Y-61715000D03*
D18*
X110410000Y-69215000D03*
X107910000Y-69215000D03*
D20*
X105410000Y-69215000D03*
D19*
X163590000Y-85605000D03*
X153990000Y-85605000D03*
D18*
X156290000Y-78105000D03*
X158790000Y-78105000D03*
D20*
X161290000Y-78105000D03*
D19*
X112790000Y-85605000D03*
X103190000Y-85605000D03*
D18*
X105490000Y-78105000D03*
X107990000Y-78105000D03*
D20*
X110490000Y-78105000D03*
D19*
X179310000Y-61715000D03*
X188910000Y-61715000D03*
D18*
X186610000Y-69215000D03*
X184110000Y-69215000D03*
D20*
X181610000Y-69215000D03*
D19*
X128510000Y-61715000D03*
X138110000Y-61715000D03*
D18*
X135810000Y-69215000D03*
X133310000Y-69215000D03*
D20*
X130810000Y-69215000D03*
D19*
X188990000Y-85605000D03*
X179390000Y-85605000D03*
D18*
X181690000Y-78105000D03*
X184190000Y-78105000D03*
D20*
X186690000Y-78105000D03*
D19*
X138190000Y-85605000D03*
X128590000Y-85605000D03*
D18*
X130890000Y-78105000D03*
X133390000Y-78105000D03*
D20*
X135890000Y-78105000D03*
D19*
X141290000Y-102355000D03*
X150890000Y-102355000D03*
D18*
X148590000Y-109855000D03*
X146090000Y-109855000D03*
D20*
X143590000Y-109855000D03*
D21*
X171450000Y-118110000D03*
D22*
X171450000Y-115570000D03*
D21*
X120650000Y-118110000D03*
D22*
X120650000Y-115570000D03*
D23*
X171450000Y-123170000D03*
X171450000Y-120670000D03*
X120650000Y-123170000D03*
X120650000Y-120670000D03*
D24*
G36*
X149364703Y-97490722D02*
G01*
X149379264Y-97492882D01*
X149393543Y-97496459D01*
X149407403Y-97501418D01*
X149420710Y-97507712D01*
X149433336Y-97515280D01*
X149445159Y-97524048D01*
X149456066Y-97533934D01*
X149465952Y-97544841D01*
X149474720Y-97556664D01*
X149482288Y-97569290D01*
X149488582Y-97582597D01*
X149493541Y-97596457D01*
X149497118Y-97610736D01*
X149499278Y-97625297D01*
X149500000Y-97640000D01*
X149500000Y-97940000D01*
X149499278Y-97954703D01*
X149497118Y-97969264D01*
X149493541Y-97983543D01*
X149488582Y-97997403D01*
X149482288Y-98010710D01*
X149474720Y-98023336D01*
X149465952Y-98035159D01*
X149456066Y-98046066D01*
X149445159Y-98055952D01*
X149433336Y-98064720D01*
X149420710Y-98072288D01*
X149407403Y-98078582D01*
X149393543Y-98083541D01*
X149379264Y-98087118D01*
X149364703Y-98089278D01*
X149350000Y-98090000D01*
X147700000Y-98090000D01*
X147685297Y-98089278D01*
X147670736Y-98087118D01*
X147656457Y-98083541D01*
X147642597Y-98078582D01*
X147629290Y-98072288D01*
X147616664Y-98064720D01*
X147604841Y-98055952D01*
X147593934Y-98046066D01*
X147584048Y-98035159D01*
X147575280Y-98023336D01*
X147567712Y-98010710D01*
X147561418Y-97997403D01*
X147556459Y-97983543D01*
X147552882Y-97969264D01*
X147550722Y-97954703D01*
X147550000Y-97940000D01*
X147550000Y-97640000D01*
X147550722Y-97625297D01*
X147552882Y-97610736D01*
X147556459Y-97596457D01*
X147561418Y-97582597D01*
X147567712Y-97569290D01*
X147575280Y-97556664D01*
X147584048Y-97544841D01*
X147593934Y-97533934D01*
X147604841Y-97524048D01*
X147616664Y-97515280D01*
X147629290Y-97507712D01*
X147642597Y-97501418D01*
X147656457Y-97496459D01*
X147670736Y-97492882D01*
X147685297Y-97490722D01*
X147700000Y-97490000D01*
X149350000Y-97490000D01*
X149364703Y-97490722D01*
G37*
G36*
X149364703Y-96220722D02*
G01*
X149379264Y-96222882D01*
X149393543Y-96226459D01*
X149407403Y-96231418D01*
X149420710Y-96237712D01*
X149433336Y-96245280D01*
X149445159Y-96254048D01*
X149456066Y-96263934D01*
X149465952Y-96274841D01*
X149474720Y-96286664D01*
X149482288Y-96299290D01*
X149488582Y-96312597D01*
X149493541Y-96326457D01*
X149497118Y-96340736D01*
X149499278Y-96355297D01*
X149500000Y-96370000D01*
X149500000Y-96670000D01*
X149499278Y-96684703D01*
X149497118Y-96699264D01*
X149493541Y-96713543D01*
X149488582Y-96727403D01*
X149482288Y-96740710D01*
X149474720Y-96753336D01*
X149465952Y-96765159D01*
X149456066Y-96776066D01*
X149445159Y-96785952D01*
X149433336Y-96794720D01*
X149420710Y-96802288D01*
X149407403Y-96808582D01*
X149393543Y-96813541D01*
X149379264Y-96817118D01*
X149364703Y-96819278D01*
X149350000Y-96820000D01*
X147700000Y-96820000D01*
X147685297Y-96819278D01*
X147670736Y-96817118D01*
X147656457Y-96813541D01*
X147642597Y-96808582D01*
X147629290Y-96802288D01*
X147616664Y-96794720D01*
X147604841Y-96785952D01*
X147593934Y-96776066D01*
X147584048Y-96765159D01*
X147575280Y-96753336D01*
X147567712Y-96740710D01*
X147561418Y-96727403D01*
X147556459Y-96713543D01*
X147552882Y-96699264D01*
X147550722Y-96684703D01*
X147550000Y-96670000D01*
X147550000Y-96370000D01*
X147550722Y-96355297D01*
X147552882Y-96340736D01*
X147556459Y-96326457D01*
X147561418Y-96312597D01*
X147567712Y-96299290D01*
X147575280Y-96286664D01*
X147584048Y-96274841D01*
X147593934Y-96263934D01*
X147604841Y-96254048D01*
X147616664Y-96245280D01*
X147629290Y-96237712D01*
X147642597Y-96231418D01*
X147656457Y-96226459D01*
X147670736Y-96222882D01*
X147685297Y-96220722D01*
X147700000Y-96220000D01*
X149350000Y-96220000D01*
X149364703Y-96220722D01*
G37*
G36*
X149364703Y-94950722D02*
G01*
X149379264Y-94952882D01*
X149393543Y-94956459D01*
X149407403Y-94961418D01*
X149420710Y-94967712D01*
X149433336Y-94975280D01*
X149445159Y-94984048D01*
X149456066Y-94993934D01*
X149465952Y-95004841D01*
X149474720Y-95016664D01*
X149482288Y-95029290D01*
X149488582Y-95042597D01*
X149493541Y-95056457D01*
X149497118Y-95070736D01*
X149499278Y-95085297D01*
X149500000Y-95100000D01*
X149500000Y-95400000D01*
X149499278Y-95414703D01*
X149497118Y-95429264D01*
X149493541Y-95443543D01*
X149488582Y-95457403D01*
X149482288Y-95470710D01*
X149474720Y-95483336D01*
X149465952Y-95495159D01*
X149456066Y-95506066D01*
X149445159Y-95515952D01*
X149433336Y-95524720D01*
X149420710Y-95532288D01*
X149407403Y-95538582D01*
X149393543Y-95543541D01*
X149379264Y-95547118D01*
X149364703Y-95549278D01*
X149350000Y-95550000D01*
X147700000Y-95550000D01*
X147685297Y-95549278D01*
X147670736Y-95547118D01*
X147656457Y-95543541D01*
X147642597Y-95538582D01*
X147629290Y-95532288D01*
X147616664Y-95524720D01*
X147604841Y-95515952D01*
X147593934Y-95506066D01*
X147584048Y-95495159D01*
X147575280Y-95483336D01*
X147567712Y-95470710D01*
X147561418Y-95457403D01*
X147556459Y-95443543D01*
X147552882Y-95429264D01*
X147550722Y-95414703D01*
X147550000Y-95400000D01*
X147550000Y-95100000D01*
X147550722Y-95085297D01*
X147552882Y-95070736D01*
X147556459Y-95056457D01*
X147561418Y-95042597D01*
X147567712Y-95029290D01*
X147575280Y-95016664D01*
X147584048Y-95004841D01*
X147593934Y-94993934D01*
X147604841Y-94984048D01*
X147616664Y-94975280D01*
X147629290Y-94967712D01*
X147642597Y-94961418D01*
X147656457Y-94956459D01*
X147670736Y-94952882D01*
X147685297Y-94950722D01*
X147700000Y-94950000D01*
X149350000Y-94950000D01*
X149364703Y-94950722D01*
G37*
G36*
X149364703Y-93680722D02*
G01*
X149379264Y-93682882D01*
X149393543Y-93686459D01*
X149407403Y-93691418D01*
X149420710Y-93697712D01*
X149433336Y-93705280D01*
X149445159Y-93714048D01*
X149456066Y-93723934D01*
X149465952Y-93734841D01*
X149474720Y-93746664D01*
X149482288Y-93759290D01*
X149488582Y-93772597D01*
X149493541Y-93786457D01*
X149497118Y-93800736D01*
X149499278Y-93815297D01*
X149500000Y-93830000D01*
X149500000Y-94130000D01*
X149499278Y-94144703D01*
X149497118Y-94159264D01*
X149493541Y-94173543D01*
X149488582Y-94187403D01*
X149482288Y-94200710D01*
X149474720Y-94213336D01*
X149465952Y-94225159D01*
X149456066Y-94236066D01*
X149445159Y-94245952D01*
X149433336Y-94254720D01*
X149420710Y-94262288D01*
X149407403Y-94268582D01*
X149393543Y-94273541D01*
X149379264Y-94277118D01*
X149364703Y-94279278D01*
X149350000Y-94280000D01*
X147700000Y-94280000D01*
X147685297Y-94279278D01*
X147670736Y-94277118D01*
X147656457Y-94273541D01*
X147642597Y-94268582D01*
X147629290Y-94262288D01*
X147616664Y-94254720D01*
X147604841Y-94245952D01*
X147593934Y-94236066D01*
X147584048Y-94225159D01*
X147575280Y-94213336D01*
X147567712Y-94200710D01*
X147561418Y-94187403D01*
X147556459Y-94173543D01*
X147552882Y-94159264D01*
X147550722Y-94144703D01*
X147550000Y-94130000D01*
X147550000Y-93830000D01*
X147550722Y-93815297D01*
X147552882Y-93800736D01*
X147556459Y-93786457D01*
X147561418Y-93772597D01*
X147567712Y-93759290D01*
X147575280Y-93746664D01*
X147584048Y-93734841D01*
X147593934Y-93723934D01*
X147604841Y-93714048D01*
X147616664Y-93705280D01*
X147629290Y-93697712D01*
X147642597Y-93691418D01*
X147656457Y-93686459D01*
X147670736Y-93682882D01*
X147685297Y-93680722D01*
X147700000Y-93680000D01*
X149350000Y-93680000D01*
X149364703Y-93680722D01*
G37*
G36*
X149364703Y-92410722D02*
G01*
X149379264Y-92412882D01*
X149393543Y-92416459D01*
X149407403Y-92421418D01*
X149420710Y-92427712D01*
X149433336Y-92435280D01*
X149445159Y-92444048D01*
X149456066Y-92453934D01*
X149465952Y-92464841D01*
X149474720Y-92476664D01*
X149482288Y-92489290D01*
X149488582Y-92502597D01*
X149493541Y-92516457D01*
X149497118Y-92530736D01*
X149499278Y-92545297D01*
X149500000Y-92560000D01*
X149500000Y-92860000D01*
X149499278Y-92874703D01*
X149497118Y-92889264D01*
X149493541Y-92903543D01*
X149488582Y-92917403D01*
X149482288Y-92930710D01*
X149474720Y-92943336D01*
X149465952Y-92955159D01*
X149456066Y-92966066D01*
X149445159Y-92975952D01*
X149433336Y-92984720D01*
X149420710Y-92992288D01*
X149407403Y-92998582D01*
X149393543Y-93003541D01*
X149379264Y-93007118D01*
X149364703Y-93009278D01*
X149350000Y-93010000D01*
X147700000Y-93010000D01*
X147685297Y-93009278D01*
X147670736Y-93007118D01*
X147656457Y-93003541D01*
X147642597Y-92998582D01*
X147629290Y-92992288D01*
X147616664Y-92984720D01*
X147604841Y-92975952D01*
X147593934Y-92966066D01*
X147584048Y-92955159D01*
X147575280Y-92943336D01*
X147567712Y-92930710D01*
X147561418Y-92917403D01*
X147556459Y-92903543D01*
X147552882Y-92889264D01*
X147550722Y-92874703D01*
X147550000Y-92860000D01*
X147550000Y-92560000D01*
X147550722Y-92545297D01*
X147552882Y-92530736D01*
X147556459Y-92516457D01*
X147561418Y-92502597D01*
X147567712Y-92489290D01*
X147575280Y-92476664D01*
X147584048Y-92464841D01*
X147593934Y-92453934D01*
X147604841Y-92444048D01*
X147616664Y-92435280D01*
X147629290Y-92427712D01*
X147642597Y-92421418D01*
X147656457Y-92416459D01*
X147670736Y-92412882D01*
X147685297Y-92410722D01*
X147700000Y-92410000D01*
X149350000Y-92410000D01*
X149364703Y-92410722D01*
G37*
G36*
X149364703Y-91140722D02*
G01*
X149379264Y-91142882D01*
X149393543Y-91146459D01*
X149407403Y-91151418D01*
X149420710Y-91157712D01*
X149433336Y-91165280D01*
X149445159Y-91174048D01*
X149456066Y-91183934D01*
X149465952Y-91194841D01*
X149474720Y-91206664D01*
X149482288Y-91219290D01*
X149488582Y-91232597D01*
X149493541Y-91246457D01*
X149497118Y-91260736D01*
X149499278Y-91275297D01*
X149500000Y-91290000D01*
X149500000Y-91590000D01*
X149499278Y-91604703D01*
X149497118Y-91619264D01*
X149493541Y-91633543D01*
X149488582Y-91647403D01*
X149482288Y-91660710D01*
X149474720Y-91673336D01*
X149465952Y-91685159D01*
X149456066Y-91696066D01*
X149445159Y-91705952D01*
X149433336Y-91714720D01*
X149420710Y-91722288D01*
X149407403Y-91728582D01*
X149393543Y-91733541D01*
X149379264Y-91737118D01*
X149364703Y-91739278D01*
X149350000Y-91740000D01*
X147700000Y-91740000D01*
X147685297Y-91739278D01*
X147670736Y-91737118D01*
X147656457Y-91733541D01*
X147642597Y-91728582D01*
X147629290Y-91722288D01*
X147616664Y-91714720D01*
X147604841Y-91705952D01*
X147593934Y-91696066D01*
X147584048Y-91685159D01*
X147575280Y-91673336D01*
X147567712Y-91660710D01*
X147561418Y-91647403D01*
X147556459Y-91633543D01*
X147552882Y-91619264D01*
X147550722Y-91604703D01*
X147550000Y-91590000D01*
X147550000Y-91290000D01*
X147550722Y-91275297D01*
X147552882Y-91260736D01*
X147556459Y-91246457D01*
X147561418Y-91232597D01*
X147567712Y-91219290D01*
X147575280Y-91206664D01*
X147584048Y-91194841D01*
X147593934Y-91183934D01*
X147604841Y-91174048D01*
X147616664Y-91165280D01*
X147629290Y-91157712D01*
X147642597Y-91151418D01*
X147656457Y-91146459D01*
X147670736Y-91142882D01*
X147685297Y-91140722D01*
X147700000Y-91140000D01*
X149350000Y-91140000D01*
X149364703Y-91140722D01*
G37*
G36*
X149364703Y-89870722D02*
G01*
X149379264Y-89872882D01*
X149393543Y-89876459D01*
X149407403Y-89881418D01*
X149420710Y-89887712D01*
X149433336Y-89895280D01*
X149445159Y-89904048D01*
X149456066Y-89913934D01*
X149465952Y-89924841D01*
X149474720Y-89936664D01*
X149482288Y-89949290D01*
X149488582Y-89962597D01*
X149493541Y-89976457D01*
X149497118Y-89990736D01*
X149499278Y-90005297D01*
X149500000Y-90020000D01*
X149500000Y-90320000D01*
X149499278Y-90334703D01*
X149497118Y-90349264D01*
X149493541Y-90363543D01*
X149488582Y-90377403D01*
X149482288Y-90390710D01*
X149474720Y-90403336D01*
X149465952Y-90415159D01*
X149456066Y-90426066D01*
X149445159Y-90435952D01*
X149433336Y-90444720D01*
X149420710Y-90452288D01*
X149407403Y-90458582D01*
X149393543Y-90463541D01*
X149379264Y-90467118D01*
X149364703Y-90469278D01*
X149350000Y-90470000D01*
X147700000Y-90470000D01*
X147685297Y-90469278D01*
X147670736Y-90467118D01*
X147656457Y-90463541D01*
X147642597Y-90458582D01*
X147629290Y-90452288D01*
X147616664Y-90444720D01*
X147604841Y-90435952D01*
X147593934Y-90426066D01*
X147584048Y-90415159D01*
X147575280Y-90403336D01*
X147567712Y-90390710D01*
X147561418Y-90377403D01*
X147556459Y-90363543D01*
X147552882Y-90349264D01*
X147550722Y-90334703D01*
X147550000Y-90320000D01*
X147550000Y-90020000D01*
X147550722Y-90005297D01*
X147552882Y-89990736D01*
X147556459Y-89976457D01*
X147561418Y-89962597D01*
X147567712Y-89949290D01*
X147575280Y-89936664D01*
X147584048Y-89924841D01*
X147593934Y-89913934D01*
X147604841Y-89904048D01*
X147616664Y-89895280D01*
X147629290Y-89887712D01*
X147642597Y-89881418D01*
X147656457Y-89876459D01*
X147670736Y-89872882D01*
X147685297Y-89870722D01*
X147700000Y-89870000D01*
X149350000Y-89870000D01*
X149364703Y-89870722D01*
G37*
G36*
X144414703Y-89870722D02*
G01*
X144429264Y-89872882D01*
X144443543Y-89876459D01*
X144457403Y-89881418D01*
X144470710Y-89887712D01*
X144483336Y-89895280D01*
X144495159Y-89904048D01*
X144506066Y-89913934D01*
X144515952Y-89924841D01*
X144524720Y-89936664D01*
X144532288Y-89949290D01*
X144538582Y-89962597D01*
X144543541Y-89976457D01*
X144547118Y-89990736D01*
X144549278Y-90005297D01*
X144550000Y-90020000D01*
X144550000Y-90320000D01*
X144549278Y-90334703D01*
X144547118Y-90349264D01*
X144543541Y-90363543D01*
X144538582Y-90377403D01*
X144532288Y-90390710D01*
X144524720Y-90403336D01*
X144515952Y-90415159D01*
X144506066Y-90426066D01*
X144495159Y-90435952D01*
X144483336Y-90444720D01*
X144470710Y-90452288D01*
X144457403Y-90458582D01*
X144443543Y-90463541D01*
X144429264Y-90467118D01*
X144414703Y-90469278D01*
X144400000Y-90470000D01*
X142750000Y-90470000D01*
X142735297Y-90469278D01*
X142720736Y-90467118D01*
X142706457Y-90463541D01*
X142692597Y-90458582D01*
X142679290Y-90452288D01*
X142666664Y-90444720D01*
X142654841Y-90435952D01*
X142643934Y-90426066D01*
X142634048Y-90415159D01*
X142625280Y-90403336D01*
X142617712Y-90390710D01*
X142611418Y-90377403D01*
X142606459Y-90363543D01*
X142602882Y-90349264D01*
X142600722Y-90334703D01*
X142600000Y-90320000D01*
X142600000Y-90020000D01*
X142600722Y-90005297D01*
X142602882Y-89990736D01*
X142606459Y-89976457D01*
X142611418Y-89962597D01*
X142617712Y-89949290D01*
X142625280Y-89936664D01*
X142634048Y-89924841D01*
X142643934Y-89913934D01*
X142654841Y-89904048D01*
X142666664Y-89895280D01*
X142679290Y-89887712D01*
X142692597Y-89881418D01*
X142706457Y-89876459D01*
X142720736Y-89872882D01*
X142735297Y-89870722D01*
X142750000Y-89870000D01*
X144400000Y-89870000D01*
X144414703Y-89870722D01*
G37*
G36*
X144414703Y-91140722D02*
G01*
X144429264Y-91142882D01*
X144443543Y-91146459D01*
X144457403Y-91151418D01*
X144470710Y-91157712D01*
X144483336Y-91165280D01*
X144495159Y-91174048D01*
X144506066Y-91183934D01*
X144515952Y-91194841D01*
X144524720Y-91206664D01*
X144532288Y-91219290D01*
X144538582Y-91232597D01*
X144543541Y-91246457D01*
X144547118Y-91260736D01*
X144549278Y-91275297D01*
X144550000Y-91290000D01*
X144550000Y-91590000D01*
X144549278Y-91604703D01*
X144547118Y-91619264D01*
X144543541Y-91633543D01*
X144538582Y-91647403D01*
X144532288Y-91660710D01*
X144524720Y-91673336D01*
X144515952Y-91685159D01*
X144506066Y-91696066D01*
X144495159Y-91705952D01*
X144483336Y-91714720D01*
X144470710Y-91722288D01*
X144457403Y-91728582D01*
X144443543Y-91733541D01*
X144429264Y-91737118D01*
X144414703Y-91739278D01*
X144400000Y-91740000D01*
X142750000Y-91740000D01*
X142735297Y-91739278D01*
X142720736Y-91737118D01*
X142706457Y-91733541D01*
X142692597Y-91728582D01*
X142679290Y-91722288D01*
X142666664Y-91714720D01*
X142654841Y-91705952D01*
X142643934Y-91696066D01*
X142634048Y-91685159D01*
X142625280Y-91673336D01*
X142617712Y-91660710D01*
X142611418Y-91647403D01*
X142606459Y-91633543D01*
X142602882Y-91619264D01*
X142600722Y-91604703D01*
X142600000Y-91590000D01*
X142600000Y-91290000D01*
X142600722Y-91275297D01*
X142602882Y-91260736D01*
X142606459Y-91246457D01*
X142611418Y-91232597D01*
X142617712Y-91219290D01*
X142625280Y-91206664D01*
X142634048Y-91194841D01*
X142643934Y-91183934D01*
X142654841Y-91174048D01*
X142666664Y-91165280D01*
X142679290Y-91157712D01*
X142692597Y-91151418D01*
X142706457Y-91146459D01*
X142720736Y-91142882D01*
X142735297Y-91140722D01*
X142750000Y-91140000D01*
X144400000Y-91140000D01*
X144414703Y-91140722D01*
G37*
G36*
X144414703Y-92410722D02*
G01*
X144429264Y-92412882D01*
X144443543Y-92416459D01*
X144457403Y-92421418D01*
X144470710Y-92427712D01*
X144483336Y-92435280D01*
X144495159Y-92444048D01*
X144506066Y-92453934D01*
X144515952Y-92464841D01*
X144524720Y-92476664D01*
X144532288Y-92489290D01*
X144538582Y-92502597D01*
X144543541Y-92516457D01*
X144547118Y-92530736D01*
X144549278Y-92545297D01*
X144550000Y-92560000D01*
X144550000Y-92860000D01*
X144549278Y-92874703D01*
X144547118Y-92889264D01*
X144543541Y-92903543D01*
X144538582Y-92917403D01*
X144532288Y-92930710D01*
X144524720Y-92943336D01*
X144515952Y-92955159D01*
X144506066Y-92966066D01*
X144495159Y-92975952D01*
X144483336Y-92984720D01*
X144470710Y-92992288D01*
X144457403Y-92998582D01*
X144443543Y-93003541D01*
X144429264Y-93007118D01*
X144414703Y-93009278D01*
X144400000Y-93010000D01*
X142750000Y-93010000D01*
X142735297Y-93009278D01*
X142720736Y-93007118D01*
X142706457Y-93003541D01*
X142692597Y-92998582D01*
X142679290Y-92992288D01*
X142666664Y-92984720D01*
X142654841Y-92975952D01*
X142643934Y-92966066D01*
X142634048Y-92955159D01*
X142625280Y-92943336D01*
X142617712Y-92930710D01*
X142611418Y-92917403D01*
X142606459Y-92903543D01*
X142602882Y-92889264D01*
X142600722Y-92874703D01*
X142600000Y-92860000D01*
X142600000Y-92560000D01*
X142600722Y-92545297D01*
X142602882Y-92530736D01*
X142606459Y-92516457D01*
X142611418Y-92502597D01*
X142617712Y-92489290D01*
X142625280Y-92476664D01*
X142634048Y-92464841D01*
X142643934Y-92453934D01*
X142654841Y-92444048D01*
X142666664Y-92435280D01*
X142679290Y-92427712D01*
X142692597Y-92421418D01*
X142706457Y-92416459D01*
X142720736Y-92412882D01*
X142735297Y-92410722D01*
X142750000Y-92410000D01*
X144400000Y-92410000D01*
X144414703Y-92410722D01*
G37*
G36*
X144414703Y-93680722D02*
G01*
X144429264Y-93682882D01*
X144443543Y-93686459D01*
X144457403Y-93691418D01*
X144470710Y-93697712D01*
X144483336Y-93705280D01*
X144495159Y-93714048D01*
X144506066Y-93723934D01*
X144515952Y-93734841D01*
X144524720Y-93746664D01*
X144532288Y-93759290D01*
X144538582Y-93772597D01*
X144543541Y-93786457D01*
X144547118Y-93800736D01*
X144549278Y-93815297D01*
X144550000Y-93830000D01*
X144550000Y-94130000D01*
X144549278Y-94144703D01*
X144547118Y-94159264D01*
X144543541Y-94173543D01*
X144538582Y-94187403D01*
X144532288Y-94200710D01*
X144524720Y-94213336D01*
X144515952Y-94225159D01*
X144506066Y-94236066D01*
X144495159Y-94245952D01*
X144483336Y-94254720D01*
X144470710Y-94262288D01*
X144457403Y-94268582D01*
X144443543Y-94273541D01*
X144429264Y-94277118D01*
X144414703Y-94279278D01*
X144400000Y-94280000D01*
X142750000Y-94280000D01*
X142735297Y-94279278D01*
X142720736Y-94277118D01*
X142706457Y-94273541D01*
X142692597Y-94268582D01*
X142679290Y-94262288D01*
X142666664Y-94254720D01*
X142654841Y-94245952D01*
X142643934Y-94236066D01*
X142634048Y-94225159D01*
X142625280Y-94213336D01*
X142617712Y-94200710D01*
X142611418Y-94187403D01*
X142606459Y-94173543D01*
X142602882Y-94159264D01*
X142600722Y-94144703D01*
X142600000Y-94130000D01*
X142600000Y-93830000D01*
X142600722Y-93815297D01*
X142602882Y-93800736D01*
X142606459Y-93786457D01*
X142611418Y-93772597D01*
X142617712Y-93759290D01*
X142625280Y-93746664D01*
X142634048Y-93734841D01*
X142643934Y-93723934D01*
X142654841Y-93714048D01*
X142666664Y-93705280D01*
X142679290Y-93697712D01*
X142692597Y-93691418D01*
X142706457Y-93686459D01*
X142720736Y-93682882D01*
X142735297Y-93680722D01*
X142750000Y-93680000D01*
X144400000Y-93680000D01*
X144414703Y-93680722D01*
G37*
G36*
X144414703Y-94950722D02*
G01*
X144429264Y-94952882D01*
X144443543Y-94956459D01*
X144457403Y-94961418D01*
X144470710Y-94967712D01*
X144483336Y-94975280D01*
X144495159Y-94984048D01*
X144506066Y-94993934D01*
X144515952Y-95004841D01*
X144524720Y-95016664D01*
X144532288Y-95029290D01*
X144538582Y-95042597D01*
X144543541Y-95056457D01*
X144547118Y-95070736D01*
X144549278Y-95085297D01*
X144550000Y-95100000D01*
X144550000Y-95400000D01*
X144549278Y-95414703D01*
X144547118Y-95429264D01*
X144543541Y-95443543D01*
X144538582Y-95457403D01*
X144532288Y-95470710D01*
X144524720Y-95483336D01*
X144515952Y-95495159D01*
X144506066Y-95506066D01*
X144495159Y-95515952D01*
X144483336Y-95524720D01*
X144470710Y-95532288D01*
X144457403Y-95538582D01*
X144443543Y-95543541D01*
X144429264Y-95547118D01*
X144414703Y-95549278D01*
X144400000Y-95550000D01*
X142750000Y-95550000D01*
X142735297Y-95549278D01*
X142720736Y-95547118D01*
X142706457Y-95543541D01*
X142692597Y-95538582D01*
X142679290Y-95532288D01*
X142666664Y-95524720D01*
X142654841Y-95515952D01*
X142643934Y-95506066D01*
X142634048Y-95495159D01*
X142625280Y-95483336D01*
X142617712Y-95470710D01*
X142611418Y-95457403D01*
X142606459Y-95443543D01*
X142602882Y-95429264D01*
X142600722Y-95414703D01*
X142600000Y-95400000D01*
X142600000Y-95100000D01*
X142600722Y-95085297D01*
X142602882Y-95070736D01*
X142606459Y-95056457D01*
X142611418Y-95042597D01*
X142617712Y-95029290D01*
X142625280Y-95016664D01*
X142634048Y-95004841D01*
X142643934Y-94993934D01*
X142654841Y-94984048D01*
X142666664Y-94975280D01*
X142679290Y-94967712D01*
X142692597Y-94961418D01*
X142706457Y-94956459D01*
X142720736Y-94952882D01*
X142735297Y-94950722D01*
X142750000Y-94950000D01*
X144400000Y-94950000D01*
X144414703Y-94950722D01*
G37*
G36*
X144414703Y-96220722D02*
G01*
X144429264Y-96222882D01*
X144443543Y-96226459D01*
X144457403Y-96231418D01*
X144470710Y-96237712D01*
X144483336Y-96245280D01*
X144495159Y-96254048D01*
X144506066Y-96263934D01*
X144515952Y-96274841D01*
X144524720Y-96286664D01*
X144532288Y-96299290D01*
X144538582Y-96312597D01*
X144543541Y-96326457D01*
X144547118Y-96340736D01*
X144549278Y-96355297D01*
X144550000Y-96370000D01*
X144550000Y-96670000D01*
X144549278Y-96684703D01*
X144547118Y-96699264D01*
X144543541Y-96713543D01*
X144538582Y-96727403D01*
X144532288Y-96740710D01*
X144524720Y-96753336D01*
X144515952Y-96765159D01*
X144506066Y-96776066D01*
X144495159Y-96785952D01*
X144483336Y-96794720D01*
X144470710Y-96802288D01*
X144457403Y-96808582D01*
X144443543Y-96813541D01*
X144429264Y-96817118D01*
X144414703Y-96819278D01*
X144400000Y-96820000D01*
X142750000Y-96820000D01*
X142735297Y-96819278D01*
X142720736Y-96817118D01*
X142706457Y-96813541D01*
X142692597Y-96808582D01*
X142679290Y-96802288D01*
X142666664Y-96794720D01*
X142654841Y-96785952D01*
X142643934Y-96776066D01*
X142634048Y-96765159D01*
X142625280Y-96753336D01*
X142617712Y-96740710D01*
X142611418Y-96727403D01*
X142606459Y-96713543D01*
X142602882Y-96699264D01*
X142600722Y-96684703D01*
X142600000Y-96670000D01*
X142600000Y-96370000D01*
X142600722Y-96355297D01*
X142602882Y-96340736D01*
X142606459Y-96326457D01*
X142611418Y-96312597D01*
X142617712Y-96299290D01*
X142625280Y-96286664D01*
X142634048Y-96274841D01*
X142643934Y-96263934D01*
X142654841Y-96254048D01*
X142666664Y-96245280D01*
X142679290Y-96237712D01*
X142692597Y-96231418D01*
X142706457Y-96226459D01*
X142720736Y-96222882D01*
X142735297Y-96220722D01*
X142750000Y-96220000D01*
X144400000Y-96220000D01*
X144414703Y-96220722D01*
G37*
G36*
X144414703Y-97490722D02*
G01*
X144429264Y-97492882D01*
X144443543Y-97496459D01*
X144457403Y-97501418D01*
X144470710Y-97507712D01*
X144483336Y-97515280D01*
X144495159Y-97524048D01*
X144506066Y-97533934D01*
X144515952Y-97544841D01*
X144524720Y-97556664D01*
X144532288Y-97569290D01*
X144538582Y-97582597D01*
X144543541Y-97596457D01*
X144547118Y-97610736D01*
X144549278Y-97625297D01*
X144550000Y-97640000D01*
X144550000Y-97940000D01*
X144549278Y-97954703D01*
X144547118Y-97969264D01*
X144543541Y-97983543D01*
X144538582Y-97997403D01*
X144532288Y-98010710D01*
X144524720Y-98023336D01*
X144515952Y-98035159D01*
X144506066Y-98046066D01*
X144495159Y-98055952D01*
X144483336Y-98064720D01*
X144470710Y-98072288D01*
X144457403Y-98078582D01*
X144443543Y-98083541D01*
X144429264Y-98087118D01*
X144414703Y-98089278D01*
X144400000Y-98090000D01*
X142750000Y-98090000D01*
X142735297Y-98089278D01*
X142720736Y-98087118D01*
X142706457Y-98083541D01*
X142692597Y-98078582D01*
X142679290Y-98072288D01*
X142666664Y-98064720D01*
X142654841Y-98055952D01*
X142643934Y-98046066D01*
X142634048Y-98035159D01*
X142625280Y-98023336D01*
X142617712Y-98010710D01*
X142611418Y-97997403D01*
X142606459Y-97983543D01*
X142602882Y-97969264D01*
X142600722Y-97954703D01*
X142600000Y-97940000D01*
X142600000Y-97640000D01*
X142600722Y-97625297D01*
X142602882Y-97610736D01*
X142606459Y-97596457D01*
X142611418Y-97582597D01*
X142617712Y-97569290D01*
X142625280Y-97556664D01*
X142634048Y-97544841D01*
X142643934Y-97533934D01*
X142654841Y-97524048D01*
X142666664Y-97515280D01*
X142679290Y-97507712D01*
X142692597Y-97501418D01*
X142706457Y-97496459D01*
X142720736Y-97492882D01*
X142735297Y-97490722D01*
X142750000Y-97490000D01*
X144400000Y-97490000D01*
X144414703Y-97490722D01*
G37*
D21*
X193040000Y-86360000D03*
X193040000Y-83820000D03*
X193040000Y-81280000D03*
X193040000Y-78740000D03*
X193040000Y-76200000D03*
X193040000Y-73660000D03*
X193040000Y-71120000D03*
X193040000Y-68580000D03*
X193040000Y-66040000D03*
X193040000Y-63500000D03*
X193040000Y-60960000D03*
D22*
X193040000Y-58420000D03*
D21*
X158750000Y-148590000D03*
X158750000Y-146050000D03*
X158750000Y-143510000D03*
X158750000Y-140970000D03*
X158750000Y-138430000D03*
X158750000Y-135890000D03*
X158750000Y-133350000D03*
X158750000Y-130810000D03*
X158750000Y-128270000D03*
D22*
X158750000Y-125730000D03*
D21*
X133350000Y-148590000D03*
X133350000Y-146050000D03*
X133350000Y-143510000D03*
X133350000Y-140970000D03*
X133350000Y-138430000D03*
X133350000Y-135890000D03*
X133350000Y-133350000D03*
X133350000Y-130810000D03*
X133350000Y-128270000D03*
D22*
X133350000Y-125730000D03*
D21*
X99060000Y-86360000D03*
X99060000Y-83820000D03*
X99060000Y-81280000D03*
X99060000Y-78740000D03*
X99060000Y-76200000D03*
X99060000Y-73660000D03*
X99060000Y-71120000D03*
X99060000Y-68580000D03*
X99060000Y-66040000D03*
X99060000Y-63500000D03*
X99060000Y-60960000D03*
D22*
X99060000Y-58420000D03*
D23*
X193040000Y-135870000D03*
X193040000Y-133370000D03*
X190500000Y-135870000D03*
X190500000Y-133370000D03*
X101600000Y-135870000D03*
X101600000Y-133370000D03*
X99060000Y-135870000D03*
X99060000Y-133370000D03*
D25*
X121920000Y-57150000D03*
D26*
X124460000Y-57150000D03*
D25*
X172720000Y-57150000D03*
D26*
X175260000Y-57150000D03*
D25*
X119380000Y-57150000D03*
D26*
X116840000Y-57150000D03*
D25*
X170180000Y-57150000D03*
D26*
X167640000Y-57150000D03*
D27*
X146050000Y-58420000D03*
D28*
X189150000Y-93980000D03*
X191850000Y-93980000D03*
D29*
X165100000Y-133270000D03*
X165100000Y-135970000D03*
X191770000Y-151210000D03*
X191770000Y-148510000D03*
X187960000Y-133270000D03*
X187960000Y-135970000D03*
D28*
X172800000Y-81280000D03*
X170100000Y-81280000D03*
X182800000Y-74930000D03*
X185500000Y-74930000D03*
X172800000Y-83820000D03*
X170100000Y-83820000D03*
X152320000Y-88900000D03*
X155020000Y-88900000D03*
X182800000Y-72390000D03*
X185500000Y-72390000D03*
D29*
X177800000Y-133270000D03*
X177800000Y-135970000D03*
D28*
X182960000Y-102870000D03*
X180260000Y-102870000D03*
D29*
X173990000Y-63580000D03*
X173990000Y-60880000D03*
X168910000Y-63580000D03*
X168910000Y-60880000D03*
D28*
X157400000Y-74930000D03*
X160100000Y-74930000D03*
D29*
X177800000Y-148510000D03*
X177800000Y-151210000D03*
X165100000Y-148510000D03*
X165100000Y-151210000D03*
X189230000Y-151210000D03*
X189230000Y-148510000D03*
D28*
X152320000Y-99060000D03*
X155020000Y-99060000D03*
X157400000Y-72390000D03*
X160100000Y-72390000D03*
X162640000Y-102870000D03*
X159940000Y-102870000D03*
D29*
X185420000Y-130890000D03*
X185420000Y-128190000D03*
X182880000Y-130890000D03*
X182880000Y-128190000D03*
X152400000Y-151210000D03*
X152400000Y-148510000D03*
X152400000Y-133270000D03*
X152400000Y-135970000D03*
X152400000Y-118030000D03*
X152400000Y-120730000D03*
X185420000Y-125810000D03*
X185420000Y-123110000D03*
X106680000Y-125810000D03*
X106680000Y-123110000D03*
X109220000Y-130890000D03*
X109220000Y-128190000D03*
X106680000Y-130890000D03*
X106680000Y-128190000D03*
X139700000Y-151210000D03*
X139700000Y-148510000D03*
X139700000Y-133270000D03*
X139700000Y-135970000D03*
X139700000Y-118030000D03*
X139700000Y-120730000D03*
D28*
X134700000Y-74930000D03*
X132000000Y-74930000D03*
X139780000Y-99060000D03*
X137080000Y-99060000D03*
D29*
X118110000Y-63580000D03*
X118110000Y-60880000D03*
X123190000Y-63580000D03*
X123190000Y-60880000D03*
D28*
X134700000Y-72390000D03*
X132000000Y-72390000D03*
D29*
X127000000Y-148510000D03*
X127000000Y-151210000D03*
X114300000Y-151210000D03*
X114300000Y-148510000D03*
X102870000Y-151210000D03*
X102870000Y-148510000D03*
D28*
X129460000Y-102870000D03*
X132160000Y-102870000D03*
X109300000Y-74930000D03*
X106600000Y-74930000D03*
D29*
X114300000Y-133270000D03*
X114300000Y-135970000D03*
D28*
X139780000Y-88900000D03*
X137080000Y-88900000D03*
X119300000Y-81280000D03*
X122000000Y-81280000D03*
X109300000Y-72390000D03*
X106600000Y-72390000D03*
X109140000Y-102870000D03*
X111840000Y-102870000D03*
X119300000Y-83820000D03*
X122000000Y-83820000D03*
D29*
X104140000Y-133270000D03*
X104140000Y-135970000D03*
X100330000Y-151210000D03*
X100330000Y-148510000D03*
X127000000Y-133270000D03*
X127000000Y-135970000D03*
D28*
X102950000Y-93980000D03*
X100250000Y-93980000D03*
D30*
X185420000Y-135870000D03*
X185420000Y-133370000D03*
D31*
X177780000Y-74930000D03*
X175280000Y-74930000D03*
X177780000Y-72390000D03*
X175280000Y-72390000D03*
D30*
X182880000Y-133370000D03*
X182880000Y-135870000D03*
X182880000Y-123210000D03*
X182880000Y-125710000D03*
X109220000Y-123210000D03*
X109220000Y-125710000D03*
X109220000Y-133370000D03*
X109220000Y-135870000D03*
D31*
X114320000Y-74930000D03*
X116820000Y-74930000D03*
X114320000Y-72390000D03*
X116820000Y-72390000D03*
D30*
X106680000Y-135870000D03*
X106680000Y-133370000D03*
D31*
X152420000Y-93980000D03*
X154920000Y-93980000D03*
X139680000Y-93980000D03*
X137180000Y-93980000D03*
D29*
X111760000Y-151210000D03*
X111760000Y-148510000D03*
X124460000Y-151210000D03*
X124460000Y-148510000D03*
X142240000Y-135970000D03*
X142240000Y-133270000D03*
X167640000Y-151210000D03*
X167640000Y-148510000D03*
X180340000Y-151210000D03*
X180340000Y-148510000D03*
M02*
