G04 #@! TF.GenerationSoftware,KiCad,Pcbnew,(5.1.5)-3*
G04 #@! TF.CreationDate,2020-05-10T02:07:48-05:00*
G04 #@! TF.ProjectId,Miasma_IO_smd,4d696173-6d61-45f4-994f-5f736d642e6b,rev?*
G04 #@! TF.SameCoordinates,Original*
G04 #@! TF.FileFunction,Legend,Top*
G04 #@! TF.FilePolarity,Positive*
%FSLAX46Y46*%
G04 Gerber Fmt 4.6, Leading zero omitted, Abs format (unit mm)*
G04 Created by KiCad (PCBNEW (5.1.5)-3) date 2020-05-10 02:07:48*
%MOMM*%
%LPD*%
G04 APERTURE LIST*
%ADD10C,0.150000*%
%ADD11C,0.200000*%
%ADD12C,0.127000*%
%ADD13C,0.120000*%
%ADD14C,0.015000*%
%ADD15C,0.101600*%
%ADD16O,3.810000X1.905000*%
%ADD17O,1.905000X3.810000*%
%ADD18R,1.222000X1.222000*%
%ADD19C,1.222000*%
%ADD20C,1.853200*%
%ADD21C,1.800000*%
%ADD22O,2.720000X3.240000*%
%ADD23R,1.800000X1.800000*%
%ADD24O,1.700000X1.700000*%
%ADD25R,1.700000X1.700000*%
%ADD26R,2.000000X2.000000*%
%ADD27C,2.000000*%
%ADD28C,4.700000*%
G04 APERTURE END LIST*
D10*
X105410000Y-109220000D02*
X101600000Y-109220000D01*
X105410000Y-96520000D02*
X105410000Y-109220000D01*
X97790000Y-96520000D02*
X105410000Y-96520000D01*
X97790000Y-109220000D02*
X97790000Y-96520000D01*
X101600000Y-109220000D02*
X97790000Y-109220000D01*
X194310000Y-109220000D02*
X190500000Y-109220000D01*
X194310000Y-96520000D02*
X194310000Y-109220000D01*
X186690000Y-96520000D02*
X194310000Y-96520000D01*
X186690000Y-109220000D02*
X186690000Y-96520000D01*
X190500000Y-109220000D02*
X186690000Y-109220000D01*
X124460000Y-80010000D02*
X120650000Y-80010000D01*
X124460000Y-67310000D02*
X124460000Y-80010000D01*
X116840000Y-67310000D02*
X124460000Y-67310000D01*
X116840000Y-80010000D02*
X116840000Y-67310000D01*
X120650000Y-80010000D02*
X116840000Y-80010000D01*
X175260000Y-80010000D02*
X171450000Y-80010000D01*
X175260000Y-67310000D02*
X175260000Y-80010000D01*
X167640000Y-67310000D02*
X175260000Y-67310000D01*
X167640000Y-80010000D02*
X167640000Y-67310000D01*
X171450000Y-80010000D02*
X167640000Y-80010000D01*
X139700000Y-77470000D02*
X139700000Y-73660000D01*
X152400000Y-77470000D02*
X139700000Y-77470000D01*
X152400000Y-69850000D02*
X152400000Y-77470000D01*
X139700000Y-69850000D02*
X152400000Y-69850000D01*
X139700000Y-73660000D02*
X139700000Y-69850000D01*
D11*
X175614000Y-86360000D02*
G75*
G03X175614000Y-86360000I-100000J0D01*
G01*
D12*
X168150000Y-82830000D02*
X174750000Y-82830000D01*
X168150000Y-85125000D02*
X168150000Y-82840000D01*
X168150000Y-89830000D02*
X168150000Y-87665000D01*
X174750000Y-89830000D02*
X168150000Y-89830000D01*
X174750000Y-87665000D02*
X174750000Y-89830000D01*
X174750000Y-82840000D02*
X174750000Y-85125000D01*
D11*
X124814000Y-86360000D02*
G75*
G03X124814000Y-86360000I-100000J0D01*
G01*
D12*
X117350000Y-82830000D02*
X123950000Y-82830000D01*
X117350000Y-85125000D02*
X117350000Y-82840000D01*
X117350000Y-89830000D02*
X117350000Y-87665000D01*
X123950000Y-89830000D02*
X117350000Y-89830000D01*
X123950000Y-87665000D02*
X123950000Y-89830000D01*
X123950000Y-82840000D02*
X123950000Y-85125000D01*
D11*
X157326000Y-97790000D02*
G75*
G03X157326000Y-97790000I-100000J0D01*
G01*
D12*
X164590000Y-101320000D02*
X157990000Y-101320000D01*
X164590000Y-99025000D02*
X164590000Y-101310000D01*
X164590000Y-94320000D02*
X164590000Y-96485000D01*
X157990000Y-94320000D02*
X164590000Y-94320000D01*
X157990000Y-96485000D02*
X157990000Y-94320000D01*
X157990000Y-101310000D02*
X157990000Y-99025000D01*
D11*
X106526000Y-97790000D02*
G75*
G03X106526000Y-97790000I-100000J0D01*
G01*
D12*
X113790000Y-101320000D02*
X107190000Y-101320000D01*
X113790000Y-99025000D02*
X113790000Y-101310000D01*
X113790000Y-94320000D02*
X113790000Y-96485000D01*
X107190000Y-94320000D02*
X113790000Y-94320000D01*
X107190000Y-96485000D02*
X107190000Y-94320000D01*
X107190000Y-101310000D02*
X107190000Y-99025000D01*
D11*
X177646000Y-97790000D02*
G75*
G03X177646000Y-97790000I-100000J0D01*
G01*
D12*
X184910000Y-101320000D02*
X178310000Y-101320000D01*
X184910000Y-99025000D02*
X184910000Y-101310000D01*
X184910000Y-94320000D02*
X184910000Y-96485000D01*
X178310000Y-94320000D02*
X184910000Y-94320000D01*
X178310000Y-96485000D02*
X178310000Y-94320000D01*
X178310000Y-101310000D02*
X178310000Y-99025000D01*
D11*
X126846000Y-97790000D02*
G75*
G03X126846000Y-97790000I-100000J0D01*
G01*
D12*
X134110000Y-101320000D02*
X127510000Y-101320000D01*
X134110000Y-99025000D02*
X134110000Y-101310000D01*
X134110000Y-94320000D02*
X134110000Y-96485000D01*
X127510000Y-94320000D02*
X134110000Y-94320000D01*
X127510000Y-96485000D02*
X127510000Y-94320000D01*
X127510000Y-101310000D02*
X127510000Y-99025000D01*
X190300000Y-126650000D02*
X190300000Y-128850000D01*
X190700000Y-126650000D02*
X190300000Y-126650000D01*
X190700000Y-128750000D02*
X190700000Y-126650000D01*
X193190721Y-133350000D02*
G75*
G03X193190721Y-133350000I-2690721J0D01*
G01*
X189000000Y-137350000D02*
X189000000Y-139350000D01*
X192000000Y-137350000D02*
X189000000Y-137350000D01*
X192000000Y-139350000D02*
X192000000Y-137350000D01*
X193662275Y-133350000D02*
G75*
G03X193662275Y-133350000I-3162275J0D01*
G01*
X186000000Y-128850000D02*
X186000000Y-139350000D01*
X190300000Y-128850000D02*
X186000000Y-128850000D01*
X195000000Y-128850000D02*
X190300000Y-128850000D01*
X195000000Y-139350000D02*
X195000000Y-128850000D01*
X189000000Y-139350000D02*
X186000000Y-139350000D01*
X192000000Y-139350000D02*
X189000000Y-139350000D01*
X195000000Y-139350000D02*
X192000000Y-139350000D01*
X101400000Y-126650000D02*
X101400000Y-128850000D01*
X101800000Y-126650000D02*
X101400000Y-126650000D01*
X101800000Y-128750000D02*
X101800000Y-126650000D01*
X104290721Y-133350000D02*
G75*
G03X104290721Y-133350000I-2690721J0D01*
G01*
X100100000Y-137350000D02*
X100100000Y-139350000D01*
X103100000Y-137350000D02*
X100100000Y-137350000D01*
X103100000Y-139350000D02*
X103100000Y-137350000D01*
X104762275Y-133350000D02*
G75*
G03X104762275Y-133350000I-3162275J0D01*
G01*
X97100000Y-128850000D02*
X97100000Y-139350000D01*
X101400000Y-128850000D02*
X97100000Y-128850000D01*
X106100000Y-128850000D02*
X101400000Y-128850000D01*
X106100000Y-139350000D02*
X106100000Y-128850000D01*
X100100000Y-139350000D02*
X97100000Y-139350000D01*
X103100000Y-139350000D02*
X100100000Y-139350000D01*
X106100000Y-139350000D02*
X103100000Y-139350000D01*
X164900000Y-111410000D02*
X164900000Y-113610000D01*
X165300000Y-111410000D02*
X164900000Y-111410000D01*
X165300000Y-113510000D02*
X165300000Y-111410000D01*
X167790721Y-118110000D02*
G75*
G03X167790721Y-118110000I-2690721J0D01*
G01*
X163600000Y-122110000D02*
X163600000Y-124110000D01*
X166600000Y-122110000D02*
X163600000Y-122110000D01*
X166600000Y-124110000D02*
X166600000Y-122110000D01*
X168262275Y-118110000D02*
G75*
G03X168262275Y-118110000I-3162275J0D01*
G01*
X160600000Y-113610000D02*
X160600000Y-124110000D01*
X164900000Y-113610000D02*
X160600000Y-113610000D01*
X169600000Y-113610000D02*
X164900000Y-113610000D01*
X169600000Y-124110000D02*
X169600000Y-113610000D01*
X163600000Y-124110000D02*
X160600000Y-124110000D01*
X166600000Y-124110000D02*
X163600000Y-124110000D01*
X169600000Y-124110000D02*
X166600000Y-124110000D01*
X114100000Y-111410000D02*
X114100000Y-113610000D01*
X114500000Y-111410000D02*
X114100000Y-111410000D01*
X114500000Y-113510000D02*
X114500000Y-111410000D01*
X116990721Y-118110000D02*
G75*
G03X116990721Y-118110000I-2690721J0D01*
G01*
X112800000Y-122110000D02*
X112800000Y-124110000D01*
X115800000Y-122110000D02*
X112800000Y-122110000D01*
X115800000Y-124110000D02*
X115800000Y-122110000D01*
X117462275Y-118110000D02*
G75*
G03X117462275Y-118110000I-3162275J0D01*
G01*
X109800000Y-113610000D02*
X109800000Y-124110000D01*
X114100000Y-113610000D02*
X109800000Y-113610000D01*
X118800000Y-113610000D02*
X114100000Y-113610000D01*
X118800000Y-124110000D02*
X118800000Y-113610000D01*
X112800000Y-124110000D02*
X109800000Y-124110000D01*
X115800000Y-124110000D02*
X112800000Y-124110000D01*
X118800000Y-124110000D02*
X115800000Y-124110000D01*
X164900000Y-141890000D02*
X164900000Y-144090000D01*
X165300000Y-141890000D02*
X164900000Y-141890000D01*
X165300000Y-143990000D02*
X165300000Y-141890000D01*
X167790721Y-148590000D02*
G75*
G03X167790721Y-148590000I-2690721J0D01*
G01*
X163600000Y-152590000D02*
X163600000Y-154590000D01*
X166600000Y-152590000D02*
X163600000Y-152590000D01*
X166600000Y-154590000D02*
X166600000Y-152590000D01*
X168262275Y-148590000D02*
G75*
G03X168262275Y-148590000I-3162275J0D01*
G01*
X160600000Y-144090000D02*
X160600000Y-154590000D01*
X164900000Y-144090000D02*
X160600000Y-144090000D01*
X169600000Y-144090000D02*
X164900000Y-144090000D01*
X169600000Y-154590000D02*
X169600000Y-144090000D01*
X163600000Y-154590000D02*
X160600000Y-154590000D01*
X166600000Y-154590000D02*
X163600000Y-154590000D01*
X169600000Y-154590000D02*
X166600000Y-154590000D01*
X114100000Y-141890000D02*
X114100000Y-144090000D01*
X114500000Y-141890000D02*
X114100000Y-141890000D01*
X114500000Y-143990000D02*
X114500000Y-141890000D01*
X116990721Y-148590000D02*
G75*
G03X116990721Y-148590000I-2690721J0D01*
G01*
X112800000Y-152590000D02*
X112800000Y-154590000D01*
X115800000Y-152590000D02*
X112800000Y-152590000D01*
X115800000Y-154590000D02*
X115800000Y-152590000D01*
X117462275Y-148590000D02*
G75*
G03X117462275Y-148590000I-3162275J0D01*
G01*
X109800000Y-144090000D02*
X109800000Y-154590000D01*
X114100000Y-144090000D02*
X109800000Y-144090000D01*
X118800000Y-144090000D02*
X114100000Y-144090000D01*
X118800000Y-154590000D02*
X118800000Y-144090000D01*
X112800000Y-154590000D02*
X109800000Y-154590000D01*
X115800000Y-154590000D02*
X112800000Y-154590000D01*
X118800000Y-154590000D02*
X115800000Y-154590000D01*
X152200000Y-141890000D02*
X152200000Y-144090000D01*
X152600000Y-141890000D02*
X152200000Y-141890000D01*
X152600000Y-143990000D02*
X152600000Y-141890000D01*
X155090721Y-148590000D02*
G75*
G03X155090721Y-148590000I-2690721J0D01*
G01*
X150900000Y-152590000D02*
X150900000Y-154590000D01*
X153900000Y-152590000D02*
X150900000Y-152590000D01*
X153900000Y-154590000D02*
X153900000Y-152590000D01*
X155562275Y-148590000D02*
G75*
G03X155562275Y-148590000I-3162275J0D01*
G01*
X147900000Y-144090000D02*
X147900000Y-154590000D01*
X152200000Y-144090000D02*
X147900000Y-144090000D01*
X156900000Y-144090000D02*
X152200000Y-144090000D01*
X156900000Y-154590000D02*
X156900000Y-144090000D01*
X150900000Y-154590000D02*
X147900000Y-154590000D01*
X153900000Y-154590000D02*
X150900000Y-154590000D01*
X156900000Y-154590000D02*
X153900000Y-154590000D01*
X139500000Y-141890000D02*
X139500000Y-144090000D01*
X139900000Y-141890000D02*
X139500000Y-141890000D01*
X139900000Y-143990000D02*
X139900000Y-141890000D01*
X142390721Y-148590000D02*
G75*
G03X142390721Y-148590000I-2690721J0D01*
G01*
X138200000Y-152590000D02*
X138200000Y-154590000D01*
X141200000Y-152590000D02*
X138200000Y-152590000D01*
X141200000Y-154590000D02*
X141200000Y-152590000D01*
X142862275Y-148590000D02*
G75*
G03X142862275Y-148590000I-3162275J0D01*
G01*
X135200000Y-144090000D02*
X135200000Y-154590000D01*
X139500000Y-144090000D02*
X135200000Y-144090000D01*
X144200000Y-144090000D02*
X139500000Y-144090000D01*
X144200000Y-154590000D02*
X144200000Y-144090000D01*
X138200000Y-154590000D02*
X135200000Y-154590000D01*
X141200000Y-154590000D02*
X138200000Y-154590000D01*
X144200000Y-154590000D02*
X141200000Y-154590000D01*
X139500000Y-111410000D02*
X139500000Y-113610000D01*
X139900000Y-111410000D02*
X139500000Y-111410000D01*
X139900000Y-113510000D02*
X139900000Y-111410000D01*
X142390721Y-118110000D02*
G75*
G03X142390721Y-118110000I-2690721J0D01*
G01*
X138200000Y-122110000D02*
X138200000Y-124110000D01*
X141200000Y-122110000D02*
X138200000Y-122110000D01*
X141200000Y-124110000D02*
X141200000Y-122110000D01*
X142862275Y-118110000D02*
G75*
G03X142862275Y-118110000I-3162275J0D01*
G01*
X135200000Y-113610000D02*
X135200000Y-124110000D01*
X139500000Y-113610000D02*
X135200000Y-113610000D01*
X144200000Y-113610000D02*
X139500000Y-113610000D01*
X144200000Y-124110000D02*
X144200000Y-113610000D01*
X138200000Y-124110000D02*
X135200000Y-124110000D01*
X141200000Y-124110000D02*
X138200000Y-124110000D01*
X144200000Y-124110000D02*
X141200000Y-124110000D01*
X152200000Y-111410000D02*
X152200000Y-113610000D01*
X152600000Y-111410000D02*
X152200000Y-111410000D01*
X152600000Y-113510000D02*
X152600000Y-111410000D01*
X155090721Y-118110000D02*
G75*
G03X155090721Y-118110000I-2690721J0D01*
G01*
X150900000Y-122110000D02*
X150900000Y-124110000D01*
X153900000Y-122110000D02*
X150900000Y-122110000D01*
X153900000Y-124110000D02*
X153900000Y-122110000D01*
X155562275Y-118110000D02*
G75*
G03X155562275Y-118110000I-3162275J0D01*
G01*
X147900000Y-113610000D02*
X147900000Y-124110000D01*
X152200000Y-113610000D02*
X147900000Y-113610000D01*
X156900000Y-113610000D02*
X152200000Y-113610000D01*
X156900000Y-124110000D02*
X156900000Y-113610000D01*
X150900000Y-124110000D02*
X147900000Y-124110000D01*
X153900000Y-124110000D02*
X150900000Y-124110000D01*
X156900000Y-124110000D02*
X153900000Y-124110000D01*
X139500000Y-126650000D02*
X139500000Y-128850000D01*
X139900000Y-126650000D02*
X139500000Y-126650000D01*
X139900000Y-128750000D02*
X139900000Y-126650000D01*
X142390721Y-133350000D02*
G75*
G03X142390721Y-133350000I-2690721J0D01*
G01*
X138200000Y-137350000D02*
X138200000Y-139350000D01*
X141200000Y-137350000D02*
X138200000Y-137350000D01*
X141200000Y-139350000D02*
X141200000Y-137350000D01*
X142862275Y-133350000D02*
G75*
G03X142862275Y-133350000I-3162275J0D01*
G01*
X135200000Y-128850000D02*
X135200000Y-139350000D01*
X139500000Y-128850000D02*
X135200000Y-128850000D01*
X144200000Y-128850000D02*
X139500000Y-128850000D01*
X144200000Y-139350000D02*
X144200000Y-128850000D01*
X138200000Y-139350000D02*
X135200000Y-139350000D01*
X141200000Y-139350000D02*
X138200000Y-139350000D01*
X144200000Y-139350000D02*
X141200000Y-139350000D01*
X177600000Y-126650000D02*
X177600000Y-128850000D01*
X178000000Y-126650000D02*
X177600000Y-126650000D01*
X178000000Y-128750000D02*
X178000000Y-126650000D01*
X180490721Y-133350000D02*
G75*
G03X180490721Y-133350000I-2690721J0D01*
G01*
X176300000Y-137350000D02*
X176300000Y-139350000D01*
X179300000Y-137350000D02*
X176300000Y-137350000D01*
X179300000Y-139350000D02*
X179300000Y-137350000D01*
X180962275Y-133350000D02*
G75*
G03X180962275Y-133350000I-3162275J0D01*
G01*
X173300000Y-128850000D02*
X173300000Y-139350000D01*
X177600000Y-128850000D02*
X173300000Y-128850000D01*
X182300000Y-128850000D02*
X177600000Y-128850000D01*
X182300000Y-139350000D02*
X182300000Y-128850000D01*
X176300000Y-139350000D02*
X173300000Y-139350000D01*
X179300000Y-139350000D02*
X176300000Y-139350000D01*
X182300000Y-139350000D02*
X179300000Y-139350000D01*
X114100000Y-126650000D02*
X114100000Y-128850000D01*
X114500000Y-126650000D02*
X114100000Y-126650000D01*
X114500000Y-128750000D02*
X114500000Y-126650000D01*
X116990721Y-133350000D02*
G75*
G03X116990721Y-133350000I-2690721J0D01*
G01*
X112800000Y-137350000D02*
X112800000Y-139350000D01*
X115800000Y-137350000D02*
X112800000Y-137350000D01*
X115800000Y-139350000D02*
X115800000Y-137350000D01*
X117462275Y-133350000D02*
G75*
G03X117462275Y-133350000I-3162275J0D01*
G01*
X109800000Y-128850000D02*
X109800000Y-139350000D01*
X114100000Y-128850000D02*
X109800000Y-128850000D01*
X118800000Y-128850000D02*
X114100000Y-128850000D01*
X118800000Y-139350000D02*
X118800000Y-128850000D01*
X112800000Y-139350000D02*
X109800000Y-139350000D01*
X115800000Y-139350000D02*
X112800000Y-139350000D01*
X118800000Y-139350000D02*
X115800000Y-139350000D01*
X177600000Y-111410000D02*
X177600000Y-113610000D01*
X178000000Y-111410000D02*
X177600000Y-111410000D01*
X178000000Y-113510000D02*
X178000000Y-111410000D01*
X180490721Y-118110000D02*
G75*
G03X180490721Y-118110000I-2690721J0D01*
G01*
X176300000Y-122110000D02*
X176300000Y-124110000D01*
X179300000Y-122110000D02*
X176300000Y-122110000D01*
X179300000Y-124110000D02*
X179300000Y-122110000D01*
X180962275Y-118110000D02*
G75*
G03X180962275Y-118110000I-3162275J0D01*
G01*
X173300000Y-113610000D02*
X173300000Y-124110000D01*
X177600000Y-113610000D02*
X173300000Y-113610000D01*
X182300000Y-113610000D02*
X177600000Y-113610000D01*
X182300000Y-124110000D02*
X182300000Y-113610000D01*
X176300000Y-124110000D02*
X173300000Y-124110000D01*
X179300000Y-124110000D02*
X176300000Y-124110000D01*
X182300000Y-124110000D02*
X179300000Y-124110000D01*
X126800000Y-111410000D02*
X126800000Y-113610000D01*
X127200000Y-111410000D02*
X126800000Y-111410000D01*
X127200000Y-113510000D02*
X127200000Y-111410000D01*
X129690721Y-118110000D02*
G75*
G03X129690721Y-118110000I-2690721J0D01*
G01*
X125500000Y-122110000D02*
X125500000Y-124110000D01*
X128500000Y-122110000D02*
X125500000Y-122110000D01*
X128500000Y-124110000D02*
X128500000Y-122110000D01*
X130162275Y-118110000D02*
G75*
G03X130162275Y-118110000I-3162275J0D01*
G01*
X122500000Y-113610000D02*
X122500000Y-124110000D01*
X126800000Y-113610000D02*
X122500000Y-113610000D01*
X131500000Y-113610000D02*
X126800000Y-113610000D01*
X131500000Y-124110000D02*
X131500000Y-113610000D01*
X125500000Y-124110000D02*
X122500000Y-124110000D01*
X128500000Y-124110000D02*
X125500000Y-124110000D01*
X131500000Y-124110000D02*
X128500000Y-124110000D01*
X177600000Y-141890000D02*
X177600000Y-144090000D01*
X178000000Y-141890000D02*
X177600000Y-141890000D01*
X178000000Y-143990000D02*
X178000000Y-141890000D01*
X180490721Y-148590000D02*
G75*
G03X180490721Y-148590000I-2690721J0D01*
G01*
X176300000Y-152590000D02*
X176300000Y-154590000D01*
X179300000Y-152590000D02*
X176300000Y-152590000D01*
X179300000Y-154590000D02*
X179300000Y-152590000D01*
X180962275Y-148590000D02*
G75*
G03X180962275Y-148590000I-3162275J0D01*
G01*
X173300000Y-144090000D02*
X173300000Y-154590000D01*
X177600000Y-144090000D02*
X173300000Y-144090000D01*
X182300000Y-144090000D02*
X177600000Y-144090000D01*
X182300000Y-154590000D02*
X182300000Y-144090000D01*
X176300000Y-154590000D02*
X173300000Y-154590000D01*
X179300000Y-154590000D02*
X176300000Y-154590000D01*
X182300000Y-154590000D02*
X179300000Y-154590000D01*
X126800000Y-141890000D02*
X126800000Y-144090000D01*
X127200000Y-141890000D02*
X126800000Y-141890000D01*
X127200000Y-143990000D02*
X127200000Y-141890000D01*
X129690721Y-148590000D02*
G75*
G03X129690721Y-148590000I-2690721J0D01*
G01*
X125500000Y-152590000D02*
X125500000Y-154590000D01*
X128500000Y-152590000D02*
X125500000Y-152590000D01*
X128500000Y-154590000D02*
X128500000Y-152590000D01*
X130162275Y-148590000D02*
G75*
G03X130162275Y-148590000I-3162275J0D01*
G01*
X122500000Y-144090000D02*
X122500000Y-154590000D01*
X126800000Y-144090000D02*
X122500000Y-144090000D01*
X131500000Y-144090000D02*
X126800000Y-144090000D01*
X131500000Y-154590000D02*
X131500000Y-144090000D01*
X125500000Y-154590000D02*
X122500000Y-154590000D01*
X128500000Y-154590000D02*
X125500000Y-154590000D01*
X131500000Y-154590000D02*
X128500000Y-154590000D01*
X190300000Y-111410000D02*
X190300000Y-113610000D01*
X190700000Y-111410000D02*
X190300000Y-111410000D01*
X190700000Y-113510000D02*
X190700000Y-111410000D01*
X193190721Y-118110000D02*
G75*
G03X193190721Y-118110000I-2690721J0D01*
G01*
X189000000Y-122110000D02*
X189000000Y-124110000D01*
X192000000Y-122110000D02*
X189000000Y-122110000D01*
X192000000Y-124110000D02*
X192000000Y-122110000D01*
X193662275Y-118110000D02*
G75*
G03X193662275Y-118110000I-3162275J0D01*
G01*
X186000000Y-113610000D02*
X186000000Y-124110000D01*
X190300000Y-113610000D02*
X186000000Y-113610000D01*
X195000000Y-113610000D02*
X190300000Y-113610000D01*
X195000000Y-124110000D02*
X195000000Y-113610000D01*
X189000000Y-124110000D02*
X186000000Y-124110000D01*
X192000000Y-124110000D02*
X189000000Y-124110000D01*
X195000000Y-124110000D02*
X192000000Y-124110000D01*
X101400000Y-111410000D02*
X101400000Y-113610000D01*
X101800000Y-111410000D02*
X101400000Y-111410000D01*
X101800000Y-113510000D02*
X101800000Y-111410000D01*
X104290721Y-118110000D02*
G75*
G03X104290721Y-118110000I-2690721J0D01*
G01*
X100100000Y-122110000D02*
X100100000Y-124110000D01*
X103100000Y-122110000D02*
X100100000Y-122110000D01*
X103100000Y-124110000D02*
X103100000Y-122110000D01*
X104762275Y-118110000D02*
G75*
G03X104762275Y-118110000I-3162275J0D01*
G01*
X97100000Y-113610000D02*
X97100000Y-124110000D01*
X101400000Y-113610000D02*
X97100000Y-113610000D01*
X106100000Y-113610000D02*
X101400000Y-113610000D01*
X106100000Y-124110000D02*
X106100000Y-113610000D01*
X100100000Y-124110000D02*
X97100000Y-124110000D01*
X103100000Y-124110000D02*
X100100000Y-124110000D01*
X106100000Y-124110000D02*
X103100000Y-124110000D01*
X190300000Y-141890000D02*
X190300000Y-144090000D01*
X190700000Y-141890000D02*
X190300000Y-141890000D01*
X190700000Y-143990000D02*
X190700000Y-141890000D01*
X193190721Y-148590000D02*
G75*
G03X193190721Y-148590000I-2690721J0D01*
G01*
X189000000Y-152590000D02*
X189000000Y-154590000D01*
X192000000Y-152590000D02*
X189000000Y-152590000D01*
X192000000Y-154590000D02*
X192000000Y-152590000D01*
X193662275Y-148590000D02*
G75*
G03X193662275Y-148590000I-3162275J0D01*
G01*
X186000000Y-144090000D02*
X186000000Y-154590000D01*
X190300000Y-144090000D02*
X186000000Y-144090000D01*
X195000000Y-144090000D02*
X190300000Y-144090000D01*
X195000000Y-154590000D02*
X195000000Y-144090000D01*
X189000000Y-154590000D02*
X186000000Y-154590000D01*
X192000000Y-154590000D02*
X189000000Y-154590000D01*
X195000000Y-154590000D02*
X192000000Y-154590000D01*
X101400000Y-141890000D02*
X101400000Y-144090000D01*
X101800000Y-141890000D02*
X101400000Y-141890000D01*
X101800000Y-143990000D02*
X101800000Y-141890000D01*
X104290721Y-148590000D02*
G75*
G03X104290721Y-148590000I-2690721J0D01*
G01*
X100100000Y-152590000D02*
X100100000Y-154590000D01*
X103100000Y-152590000D02*
X100100000Y-152590000D01*
X103100000Y-154590000D02*
X103100000Y-152590000D01*
X104762275Y-148590000D02*
G75*
G03X104762275Y-148590000I-3162275J0D01*
G01*
X97100000Y-144090000D02*
X97100000Y-154590000D01*
X101400000Y-144090000D02*
X97100000Y-144090000D01*
X106100000Y-144090000D02*
X101400000Y-144090000D01*
X106100000Y-154590000D02*
X106100000Y-144090000D01*
X100100000Y-154590000D02*
X97100000Y-154590000D01*
X103100000Y-154590000D02*
X100100000Y-154590000D01*
X106100000Y-154590000D02*
X103100000Y-154590000D01*
X164900000Y-126650000D02*
X164900000Y-128850000D01*
X165300000Y-126650000D02*
X164900000Y-126650000D01*
X165300000Y-128750000D02*
X165300000Y-126650000D01*
X167790721Y-133350000D02*
G75*
G03X167790721Y-133350000I-2690721J0D01*
G01*
X163600000Y-137350000D02*
X163600000Y-139350000D01*
X166600000Y-137350000D02*
X163600000Y-137350000D01*
X166600000Y-139350000D02*
X166600000Y-137350000D01*
X168262275Y-133350000D02*
G75*
G03X168262275Y-133350000I-3162275J0D01*
G01*
X160600000Y-128850000D02*
X160600000Y-139350000D01*
X164900000Y-128850000D02*
X160600000Y-128850000D01*
X169600000Y-128850000D02*
X164900000Y-128850000D01*
X169600000Y-139350000D02*
X169600000Y-128850000D01*
X163600000Y-139350000D02*
X160600000Y-139350000D01*
X166600000Y-139350000D02*
X163600000Y-139350000D01*
X169600000Y-139350000D02*
X166600000Y-139350000D01*
X126800000Y-126650000D02*
X126800000Y-128850000D01*
X127200000Y-126650000D02*
X126800000Y-126650000D01*
X127200000Y-128750000D02*
X127200000Y-126650000D01*
X129690721Y-133350000D02*
G75*
G03X129690721Y-133350000I-2690721J0D01*
G01*
X125500000Y-137350000D02*
X125500000Y-139350000D01*
X128500000Y-137350000D02*
X125500000Y-137350000D01*
X128500000Y-139350000D02*
X128500000Y-137350000D01*
X130162275Y-133350000D02*
G75*
G03X130162275Y-133350000I-3162275J0D01*
G01*
X122500000Y-128850000D02*
X122500000Y-139350000D01*
X126800000Y-128850000D02*
X122500000Y-128850000D01*
X131500000Y-128850000D02*
X126800000Y-128850000D01*
X131500000Y-139350000D02*
X131500000Y-128850000D01*
X125500000Y-139350000D02*
X122500000Y-139350000D01*
X128500000Y-139350000D02*
X125500000Y-139350000D01*
X131500000Y-139350000D02*
X128500000Y-139350000D01*
X152200000Y-126650000D02*
X152200000Y-128850000D01*
X152600000Y-126650000D02*
X152200000Y-126650000D01*
X152600000Y-128750000D02*
X152600000Y-126650000D01*
X155090721Y-133350000D02*
G75*
G03X155090721Y-133350000I-2690721J0D01*
G01*
X150900000Y-137350000D02*
X150900000Y-139350000D01*
X153900000Y-137350000D02*
X150900000Y-137350000D01*
X153900000Y-139350000D02*
X153900000Y-137350000D01*
X155562275Y-133350000D02*
G75*
G03X155562275Y-133350000I-3162275J0D01*
G01*
X147900000Y-128850000D02*
X147900000Y-139350000D01*
X152200000Y-128850000D02*
X147900000Y-128850000D01*
X156900000Y-128850000D02*
X152200000Y-128850000D01*
X156900000Y-139350000D02*
X156900000Y-128850000D01*
X150900000Y-139350000D02*
X147900000Y-139350000D01*
X153900000Y-139350000D02*
X150900000Y-139350000D01*
X156900000Y-139350000D02*
X153900000Y-139350000D01*
D13*
X169830000Y-96765000D02*
X170660000Y-96765000D01*
X172280000Y-96765000D02*
X172810000Y-96765000D01*
X175180000Y-96765000D02*
X176360000Y-96765000D01*
X166620000Y-96765000D02*
X166620000Y-101485000D01*
X176360000Y-105295000D02*
X176360000Y-108355000D01*
X176360000Y-96765000D02*
X176360000Y-101485000D01*
X166620000Y-105295000D02*
X166620000Y-108355000D01*
X166620000Y-96765000D02*
X168110000Y-96765000D01*
X166620000Y-108355000D02*
X176360000Y-108355000D01*
X119030000Y-96765000D02*
X119860000Y-96765000D01*
X121480000Y-96765000D02*
X122010000Y-96765000D01*
X124380000Y-96765000D02*
X125560000Y-96765000D01*
X115820000Y-96765000D02*
X115820000Y-101485000D01*
X125560000Y-105295000D02*
X125560000Y-108355000D01*
X125560000Y-96765000D02*
X125560000Y-101485000D01*
X115820000Y-105295000D02*
X115820000Y-108355000D01*
X115820000Y-96765000D02*
X117310000Y-96765000D01*
X115820000Y-108355000D02*
X125560000Y-108355000D01*
X160370000Y-68335000D02*
X159540000Y-68335000D01*
X157920000Y-68335000D02*
X157390000Y-68335000D01*
X155020000Y-68335000D02*
X153840000Y-68335000D01*
X163580000Y-68335000D02*
X163580000Y-63615000D01*
X153840000Y-59805000D02*
X153840000Y-56745000D01*
X153830000Y-68335000D02*
X153830000Y-63615000D01*
X163580000Y-59805000D02*
X163580000Y-56745000D01*
X163580000Y-68335000D02*
X162090000Y-68335000D01*
X163580000Y-56745000D02*
X153840000Y-56745000D01*
X109570000Y-68335000D02*
X108740000Y-68335000D01*
X107120000Y-68335000D02*
X106590000Y-68335000D01*
X104220000Y-68335000D02*
X103040000Y-68335000D01*
X112780000Y-68335000D02*
X112780000Y-63615000D01*
X103040000Y-59805000D02*
X103040000Y-56745000D01*
X103030000Y-68335000D02*
X103030000Y-63615000D01*
X112780000Y-59805000D02*
X112780000Y-56745000D01*
X112780000Y-68335000D02*
X111290000Y-68335000D01*
X112780000Y-56745000D02*
X103040000Y-56745000D01*
X157130000Y-78985000D02*
X157960000Y-78985000D01*
X159580000Y-78985000D02*
X160110000Y-78985000D01*
X162480000Y-78985000D02*
X163660000Y-78985000D01*
X153920000Y-78985000D02*
X153920000Y-83705000D01*
X163660000Y-87515000D02*
X163660000Y-90575000D01*
X163670000Y-78985000D02*
X163670000Y-83705000D01*
X153920000Y-87515000D02*
X153920000Y-90575000D01*
X153920000Y-78985000D02*
X155410000Y-78985000D01*
X153920000Y-90575000D02*
X163660000Y-90575000D01*
X106330000Y-78985000D02*
X107160000Y-78985000D01*
X108780000Y-78985000D02*
X109310000Y-78985000D01*
X111680000Y-78985000D02*
X112860000Y-78985000D01*
X103120000Y-78985000D02*
X103120000Y-83705000D01*
X112860000Y-87515000D02*
X112860000Y-90575000D01*
X112870000Y-78985000D02*
X112870000Y-83705000D01*
X103120000Y-87515000D02*
X103120000Y-90575000D01*
X103120000Y-78985000D02*
X104610000Y-78985000D01*
X103120000Y-90575000D02*
X112860000Y-90575000D01*
X185770000Y-68335000D02*
X184940000Y-68335000D01*
X183320000Y-68335000D02*
X182790000Y-68335000D01*
X180420000Y-68335000D02*
X179240000Y-68335000D01*
X188980000Y-68335000D02*
X188980000Y-63615000D01*
X179240000Y-59805000D02*
X179240000Y-56745000D01*
X179230000Y-68335000D02*
X179230000Y-63615000D01*
X188980000Y-59805000D02*
X188980000Y-56745000D01*
X188980000Y-68335000D02*
X187490000Y-68335000D01*
X188980000Y-56745000D02*
X179240000Y-56745000D01*
X134970000Y-68335000D02*
X134140000Y-68335000D01*
X132520000Y-68335000D02*
X131990000Y-68335000D01*
X129620000Y-68335000D02*
X128440000Y-68335000D01*
X138180000Y-68335000D02*
X138180000Y-63615000D01*
X128440000Y-59805000D02*
X128440000Y-56745000D01*
X128430000Y-68335000D02*
X128430000Y-63615000D01*
X138180000Y-59805000D02*
X138180000Y-56745000D01*
X138180000Y-68335000D02*
X136690000Y-68335000D01*
X138180000Y-56745000D02*
X128440000Y-56745000D01*
X182530000Y-78985000D02*
X183360000Y-78985000D01*
X184980000Y-78985000D02*
X185510000Y-78985000D01*
X187880000Y-78985000D02*
X189060000Y-78985000D01*
X179320000Y-78985000D02*
X179320000Y-83705000D01*
X189060000Y-87515000D02*
X189060000Y-90575000D01*
X189070000Y-78985000D02*
X189070000Y-83705000D01*
X179320000Y-87515000D02*
X179320000Y-90575000D01*
X179320000Y-78985000D02*
X180810000Y-78985000D01*
X179320000Y-90575000D02*
X189060000Y-90575000D01*
X131730000Y-78985000D02*
X132560000Y-78985000D01*
X134180000Y-78985000D02*
X134710000Y-78985000D01*
X137080000Y-78985000D02*
X138260000Y-78985000D01*
X128520000Y-78985000D02*
X128520000Y-83705000D01*
X138260000Y-87515000D02*
X138260000Y-90575000D01*
X138270000Y-78985000D02*
X138270000Y-83705000D01*
X128520000Y-87515000D02*
X128520000Y-90575000D01*
X128520000Y-78985000D02*
X130010000Y-78985000D01*
X128520000Y-90575000D02*
X138260000Y-90575000D01*
X147750000Y-108975000D02*
X146920000Y-108975000D01*
X145300000Y-108975000D02*
X144770000Y-108975000D01*
X142400000Y-108975000D02*
X141220000Y-108975000D01*
X150960000Y-108975000D02*
X150960000Y-104255000D01*
X141220000Y-100445000D02*
X141220000Y-97385000D01*
X141210000Y-108975000D02*
X141210000Y-104255000D01*
X150960000Y-100445000D02*
X150960000Y-97385000D01*
X150960000Y-108975000D02*
X149470000Y-108975000D01*
X150960000Y-97385000D02*
X141220000Y-97385000D01*
X171450000Y-114240000D02*
X172780000Y-114240000D01*
X172780000Y-114240000D02*
X172780000Y-115570000D01*
X172780000Y-116840000D02*
X172780000Y-119440000D01*
X170120000Y-119440000D02*
X172780000Y-119440000D01*
X170120000Y-116840000D02*
X170120000Y-119440000D01*
X170120000Y-116840000D02*
X172780000Y-116840000D01*
X120650000Y-114240000D02*
X121980000Y-114240000D01*
X121980000Y-114240000D02*
X121980000Y-115570000D01*
X121980000Y-116840000D02*
X121980000Y-119440000D01*
X119320000Y-119440000D02*
X121980000Y-119440000D01*
X119320000Y-116840000D02*
X119320000Y-119440000D01*
X119320000Y-116840000D02*
X121980000Y-116840000D01*
D10*
X121721000Y-58464000D02*
X121721000Y-58264000D01*
X121721000Y-55870000D02*
X121721000Y-56050000D01*
X124948744Y-56180357D02*
G75*
G03X121721000Y-55864000I-1727744J-1003643D01*
G01*
X124273006Y-56050932D02*
G75*
G03X122170000Y-56050000I-1052006J-1133068D01*
G01*
X121733780Y-58490726D02*
G75*
G03X124971000Y-58144000I1497220J1306726D01*
G01*
X122207111Y-58263253D02*
G75*
G03X124255000Y-58244000I1013889J1079253D01*
G01*
X172521000Y-58464000D02*
X172521000Y-58264000D01*
X172521000Y-55870000D02*
X172521000Y-56050000D01*
X175748744Y-56180357D02*
G75*
G03X172521000Y-55864000I-1727744J-1003643D01*
G01*
X175073006Y-56050932D02*
G75*
G03X172970000Y-56050000I-1052006J-1133068D01*
G01*
X172533780Y-58490726D02*
G75*
G03X175771000Y-58144000I1497220J1306726D01*
G01*
X173007111Y-58263253D02*
G75*
G03X175055000Y-58244000I1013889J1079253D01*
G01*
X119579000Y-55836000D02*
X119579000Y-56036000D01*
X119579000Y-58430000D02*
X119579000Y-58250000D01*
X116351256Y-58119643D02*
G75*
G03X119579000Y-58436000I1727744J1003643D01*
G01*
X117026994Y-58249068D02*
G75*
G03X119130000Y-58250000I1052006J1133068D01*
G01*
X119566220Y-55809274D02*
G75*
G03X116329000Y-56156000I-1497220J-1306726D01*
G01*
X119092889Y-56036747D02*
G75*
G03X117045000Y-56056000I-1013889J-1079253D01*
G01*
X170379000Y-55836000D02*
X170379000Y-56036000D01*
X170379000Y-58430000D02*
X170379000Y-58250000D01*
X167151256Y-58119643D02*
G75*
G03X170379000Y-58436000I1727744J1003643D01*
G01*
X167826994Y-58249068D02*
G75*
G03X169930000Y-58250000I1052006J1133068D01*
G01*
X170366220Y-55809274D02*
G75*
G03X167129000Y-56156000I-1497220J-1306726D01*
G01*
X169892889Y-56036747D02*
G75*
G03X167845000Y-56056000I-1013889J-1079253D01*
G01*
X99363571Y-104959285D02*
X99399285Y-105030714D01*
X99399285Y-105173571D01*
X99363571Y-105245000D01*
X99327857Y-105280714D01*
X99256428Y-105316428D01*
X99042142Y-105316428D01*
X98970714Y-105280714D01*
X98935000Y-105245000D01*
X98899285Y-105173571D01*
X98899285Y-105030714D01*
X98935000Y-104959285D01*
X98899285Y-104709285D02*
X99399285Y-104530714D01*
X98899285Y-104352142D02*
X99399285Y-104530714D01*
X99577857Y-104602142D01*
X99613571Y-104637857D01*
X99649285Y-104709285D01*
X99363571Y-103745000D02*
X99399285Y-103816428D01*
X99399285Y-103959285D01*
X99363571Y-104030714D01*
X99327857Y-104066428D01*
X99256428Y-104102142D01*
X99042142Y-104102142D01*
X98970714Y-104066428D01*
X98935000Y-104030714D01*
X98899285Y-103959285D01*
X98899285Y-103816428D01*
X98935000Y-103745000D01*
X99399285Y-103316428D02*
X99363571Y-103387857D01*
X99292142Y-103423571D01*
X98649285Y-103423571D01*
X99363571Y-102745000D02*
X99399285Y-102816428D01*
X99399285Y-102959285D01*
X99363571Y-103030714D01*
X99292142Y-103066428D01*
X99006428Y-103066428D01*
X98935000Y-103030714D01*
X98899285Y-102959285D01*
X98899285Y-102816428D01*
X98935000Y-102745000D01*
X99006428Y-102709285D01*
X99077857Y-102709285D01*
X99149285Y-103066428D01*
X99363571Y-102423571D02*
X99399285Y-102316428D01*
X99399285Y-102137857D01*
X99363571Y-102066428D01*
X99327857Y-102030714D01*
X99256428Y-101995000D01*
X99185000Y-101995000D01*
X99113571Y-102030714D01*
X99077857Y-102066428D01*
X99042142Y-102137857D01*
X99006428Y-102280714D01*
X98970714Y-102352142D01*
X98935000Y-102387857D01*
X98863571Y-102423571D01*
X98792142Y-102423571D01*
X98720714Y-102387857D01*
X98685000Y-102352142D01*
X98649285Y-102280714D01*
X98649285Y-102102142D01*
X98685000Y-101995000D01*
X98649285Y-101745000D02*
X99399285Y-101566428D01*
X98863571Y-101423571D01*
X99399285Y-101280714D01*
X98649285Y-101102142D01*
X99399285Y-100423571D02*
X99399285Y-100852142D01*
X99399285Y-100637857D02*
X98649285Y-100637857D01*
X98756428Y-100709285D01*
X98827857Y-100780714D01*
X98863571Y-100852142D01*
X188263571Y-104959285D02*
X188299285Y-105030714D01*
X188299285Y-105173571D01*
X188263571Y-105245000D01*
X188227857Y-105280714D01*
X188156428Y-105316428D01*
X187942142Y-105316428D01*
X187870714Y-105280714D01*
X187835000Y-105245000D01*
X187799285Y-105173571D01*
X187799285Y-105030714D01*
X187835000Y-104959285D01*
X187799285Y-104709285D02*
X188299285Y-104530714D01*
X187799285Y-104352142D02*
X188299285Y-104530714D01*
X188477857Y-104602142D01*
X188513571Y-104637857D01*
X188549285Y-104709285D01*
X188263571Y-103745000D02*
X188299285Y-103816428D01*
X188299285Y-103959285D01*
X188263571Y-104030714D01*
X188227857Y-104066428D01*
X188156428Y-104102142D01*
X187942142Y-104102142D01*
X187870714Y-104066428D01*
X187835000Y-104030714D01*
X187799285Y-103959285D01*
X187799285Y-103816428D01*
X187835000Y-103745000D01*
X188299285Y-103316428D02*
X188263571Y-103387857D01*
X188192142Y-103423571D01*
X187549285Y-103423571D01*
X188263571Y-102745000D02*
X188299285Y-102816428D01*
X188299285Y-102959285D01*
X188263571Y-103030714D01*
X188192142Y-103066428D01*
X187906428Y-103066428D01*
X187835000Y-103030714D01*
X187799285Y-102959285D01*
X187799285Y-102816428D01*
X187835000Y-102745000D01*
X187906428Y-102709285D01*
X187977857Y-102709285D01*
X188049285Y-103066428D01*
X188263571Y-102423571D02*
X188299285Y-102316428D01*
X188299285Y-102137857D01*
X188263571Y-102066428D01*
X188227857Y-102030714D01*
X188156428Y-101995000D01*
X188085000Y-101995000D01*
X188013571Y-102030714D01*
X187977857Y-102066428D01*
X187942142Y-102137857D01*
X187906428Y-102280714D01*
X187870714Y-102352142D01*
X187835000Y-102387857D01*
X187763571Y-102423571D01*
X187692142Y-102423571D01*
X187620714Y-102387857D01*
X187585000Y-102352142D01*
X187549285Y-102280714D01*
X187549285Y-102102142D01*
X187585000Y-101995000D01*
X187549285Y-101745000D02*
X188299285Y-101566428D01*
X187763571Y-101423571D01*
X188299285Y-101280714D01*
X187549285Y-101102142D01*
X187620714Y-100852142D02*
X187585000Y-100816428D01*
X187549285Y-100745000D01*
X187549285Y-100566428D01*
X187585000Y-100495000D01*
X187620714Y-100459285D01*
X187692142Y-100423571D01*
X187763571Y-100423571D01*
X187870714Y-100459285D01*
X188299285Y-100887857D01*
X188299285Y-100423571D01*
X118449285Y-76195714D02*
X117949285Y-76195714D01*
X118092142Y-76195714D02*
X118020714Y-76160000D01*
X117985000Y-76124285D01*
X117949285Y-76052857D01*
X117949285Y-75981428D01*
X118449285Y-75410000D02*
X118056428Y-75410000D01*
X117985000Y-75445714D01*
X117949285Y-75517142D01*
X117949285Y-75660000D01*
X117985000Y-75731428D01*
X118413571Y-75410000D02*
X118449285Y-75481428D01*
X118449285Y-75660000D01*
X118413571Y-75731428D01*
X118342142Y-75767142D01*
X118270714Y-75767142D01*
X118199285Y-75731428D01*
X118163571Y-75660000D01*
X118163571Y-75481428D01*
X118127857Y-75410000D01*
X117949285Y-75052857D02*
X118449285Y-75052857D01*
X118020714Y-75052857D02*
X117985000Y-75017142D01*
X117949285Y-74945714D01*
X117949285Y-74838571D01*
X117985000Y-74767142D01*
X118056428Y-74731428D01*
X118449285Y-74731428D01*
X117949285Y-74052857D02*
X118556428Y-74052857D01*
X118627857Y-74088571D01*
X118663571Y-74124285D01*
X118699285Y-74195714D01*
X118699285Y-74302857D01*
X118663571Y-74374285D01*
X118413571Y-74052857D02*
X118449285Y-74124285D01*
X118449285Y-74267142D01*
X118413571Y-74338571D01*
X118377857Y-74374285D01*
X118306428Y-74410000D01*
X118092142Y-74410000D01*
X118020714Y-74374285D01*
X117985000Y-74338571D01*
X117949285Y-74267142D01*
X117949285Y-74124285D01*
X117985000Y-74052857D01*
X118413571Y-73410000D02*
X118449285Y-73481428D01*
X118449285Y-73624285D01*
X118413571Y-73695714D01*
X118342142Y-73731428D01*
X118056428Y-73731428D01*
X117985000Y-73695714D01*
X117949285Y-73624285D01*
X117949285Y-73481428D01*
X117985000Y-73410000D01*
X118056428Y-73374285D01*
X118127857Y-73374285D01*
X118199285Y-73731428D01*
X118413571Y-73088571D02*
X118449285Y-72981428D01*
X118449285Y-72802857D01*
X118413571Y-72731428D01*
X118377857Y-72695714D01*
X118306428Y-72660000D01*
X118235000Y-72660000D01*
X118163571Y-72695714D01*
X118127857Y-72731428D01*
X118092142Y-72802857D01*
X118056428Y-72945714D01*
X118020714Y-73017142D01*
X117985000Y-73052857D01*
X117913571Y-73088571D01*
X117842142Y-73088571D01*
X117770714Y-73052857D01*
X117735000Y-73017142D01*
X117699285Y-72945714D01*
X117699285Y-72767142D01*
X117735000Y-72660000D01*
X117699285Y-72410000D02*
X118449285Y-72231428D01*
X117913571Y-72088571D01*
X118449285Y-71945714D01*
X117699285Y-71767142D01*
X118449285Y-71088571D02*
X118449285Y-71517142D01*
X118449285Y-71302857D02*
X117699285Y-71302857D01*
X117806428Y-71374285D01*
X117877857Y-71445714D01*
X117913571Y-71517142D01*
X169249285Y-76195714D02*
X168749285Y-76195714D01*
X168892142Y-76195714D02*
X168820714Y-76160000D01*
X168785000Y-76124285D01*
X168749285Y-76052857D01*
X168749285Y-75981428D01*
X169249285Y-75410000D02*
X168856428Y-75410000D01*
X168785000Y-75445714D01*
X168749285Y-75517142D01*
X168749285Y-75660000D01*
X168785000Y-75731428D01*
X169213571Y-75410000D02*
X169249285Y-75481428D01*
X169249285Y-75660000D01*
X169213571Y-75731428D01*
X169142142Y-75767142D01*
X169070714Y-75767142D01*
X168999285Y-75731428D01*
X168963571Y-75660000D01*
X168963571Y-75481428D01*
X168927857Y-75410000D01*
X168749285Y-75052857D02*
X169249285Y-75052857D01*
X168820714Y-75052857D02*
X168785000Y-75017142D01*
X168749285Y-74945714D01*
X168749285Y-74838571D01*
X168785000Y-74767142D01*
X168856428Y-74731428D01*
X169249285Y-74731428D01*
X168749285Y-74052857D02*
X169356428Y-74052857D01*
X169427857Y-74088571D01*
X169463571Y-74124285D01*
X169499285Y-74195714D01*
X169499285Y-74302857D01*
X169463571Y-74374285D01*
X169213571Y-74052857D02*
X169249285Y-74124285D01*
X169249285Y-74267142D01*
X169213571Y-74338571D01*
X169177857Y-74374285D01*
X169106428Y-74410000D01*
X168892142Y-74410000D01*
X168820714Y-74374285D01*
X168785000Y-74338571D01*
X168749285Y-74267142D01*
X168749285Y-74124285D01*
X168785000Y-74052857D01*
X169213571Y-73410000D02*
X169249285Y-73481428D01*
X169249285Y-73624285D01*
X169213571Y-73695714D01*
X169142142Y-73731428D01*
X168856428Y-73731428D01*
X168785000Y-73695714D01*
X168749285Y-73624285D01*
X168749285Y-73481428D01*
X168785000Y-73410000D01*
X168856428Y-73374285D01*
X168927857Y-73374285D01*
X168999285Y-73731428D01*
X169213571Y-73088571D02*
X169249285Y-72981428D01*
X169249285Y-72802857D01*
X169213571Y-72731428D01*
X169177857Y-72695714D01*
X169106428Y-72660000D01*
X169035000Y-72660000D01*
X168963571Y-72695714D01*
X168927857Y-72731428D01*
X168892142Y-72802857D01*
X168856428Y-72945714D01*
X168820714Y-73017142D01*
X168785000Y-73052857D01*
X168713571Y-73088571D01*
X168642142Y-73088571D01*
X168570714Y-73052857D01*
X168535000Y-73017142D01*
X168499285Y-72945714D01*
X168499285Y-72767142D01*
X168535000Y-72660000D01*
X168499285Y-72410000D02*
X169249285Y-72231428D01*
X168713571Y-72088571D01*
X169249285Y-71945714D01*
X168499285Y-71767142D01*
X168570714Y-71517142D02*
X168535000Y-71481428D01*
X168499285Y-71410000D01*
X168499285Y-71231428D01*
X168535000Y-71160000D01*
X168570714Y-71124285D01*
X168642142Y-71088571D01*
X168713571Y-71088571D01*
X168820714Y-71124285D01*
X169249285Y-71552857D01*
X169249285Y-71088571D01*
X143121428Y-70959285D02*
X143407142Y-70959285D01*
X143228571Y-70709285D02*
X143228571Y-71352142D01*
X143264285Y-71423571D01*
X143335714Y-71459285D01*
X143407142Y-71459285D01*
X143657142Y-71459285D02*
X143657142Y-70959285D01*
X143657142Y-71102142D02*
X143692857Y-71030714D01*
X143728571Y-70995000D01*
X143800000Y-70959285D01*
X143871428Y-70959285D01*
X144121428Y-71459285D02*
X144121428Y-70959285D01*
X144121428Y-70709285D02*
X144085714Y-70745000D01*
X144121428Y-70780714D01*
X144157142Y-70745000D01*
X144121428Y-70709285D01*
X144121428Y-70780714D01*
X144800000Y-70959285D02*
X144800000Y-71566428D01*
X144764285Y-71637857D01*
X144728571Y-71673571D01*
X144657142Y-71709285D01*
X144550000Y-71709285D01*
X144478571Y-71673571D01*
X144800000Y-71423571D02*
X144728571Y-71459285D01*
X144585714Y-71459285D01*
X144514285Y-71423571D01*
X144478571Y-71387857D01*
X144442857Y-71316428D01*
X144442857Y-71102142D01*
X144478571Y-71030714D01*
X144514285Y-70995000D01*
X144585714Y-70959285D01*
X144728571Y-70959285D01*
X144800000Y-70995000D01*
X145478571Y-70959285D02*
X145478571Y-71566428D01*
X145442857Y-71637857D01*
X145407142Y-71673571D01*
X145335714Y-71709285D01*
X145228571Y-71709285D01*
X145157142Y-71673571D01*
X145478571Y-71423571D02*
X145407142Y-71459285D01*
X145264285Y-71459285D01*
X145192857Y-71423571D01*
X145157142Y-71387857D01*
X145121428Y-71316428D01*
X145121428Y-71102142D01*
X145157142Y-71030714D01*
X145192857Y-70995000D01*
X145264285Y-70959285D01*
X145407142Y-70959285D01*
X145478571Y-70995000D01*
X146121428Y-71423571D02*
X146050000Y-71459285D01*
X145907142Y-71459285D01*
X145835714Y-71423571D01*
X145800000Y-71352142D01*
X145800000Y-71066428D01*
X145835714Y-70995000D01*
X145907142Y-70959285D01*
X146050000Y-70959285D01*
X146121428Y-70995000D01*
X146157142Y-71066428D01*
X146157142Y-71137857D01*
X145800000Y-71209285D01*
X146478571Y-71459285D02*
X146478571Y-70959285D01*
X146478571Y-71102142D02*
X146514285Y-71030714D01*
X146550000Y-70995000D01*
X146621428Y-70959285D01*
X146692857Y-70959285D01*
X146907142Y-71423571D02*
X147014285Y-71459285D01*
X147192857Y-71459285D01*
X147264285Y-71423571D01*
X147300000Y-71387857D01*
X147335714Y-71316428D01*
X147335714Y-71245000D01*
X147300000Y-71173571D01*
X147264285Y-71137857D01*
X147192857Y-71102142D01*
X147050000Y-71066428D01*
X146978571Y-71030714D01*
X146942857Y-70995000D01*
X146907142Y-70923571D01*
X146907142Y-70852142D01*
X146942857Y-70780714D01*
X146978571Y-70745000D01*
X147050000Y-70709285D01*
X147228571Y-70709285D01*
X147335714Y-70745000D01*
X147585714Y-70709285D02*
X147764285Y-71459285D01*
X147907142Y-70923571D01*
X148050000Y-71459285D01*
X148228571Y-70709285D01*
X148907142Y-71459285D02*
X148478571Y-71459285D01*
X148692857Y-71459285D02*
X148692857Y-70709285D01*
X148621428Y-70816428D01*
X148550000Y-70887857D01*
X148478571Y-70923571D01*
D14*
X168123011Y-91413667D02*
X168218511Y-91461417D01*
X168409512Y-91461417D01*
X168505013Y-91413667D01*
X168552763Y-91318166D01*
X168552763Y-91270416D01*
X168505013Y-91174916D01*
X168409512Y-91127165D01*
X168266262Y-91127165D01*
X168170761Y-91079415D01*
X168123011Y-90983914D01*
X168123011Y-90936164D01*
X168170761Y-90840664D01*
X168266262Y-90792913D01*
X168409512Y-90792913D01*
X168505013Y-90840664D01*
X168887015Y-90792913D02*
X169125767Y-91461417D01*
X169364518Y-90792913D02*
X169125767Y-91461417D01*
X169030266Y-91700169D01*
X168982516Y-91747919D01*
X168887015Y-91795669D01*
X169746520Y-91461417D02*
X169746520Y-90792913D01*
X169746520Y-90888414D02*
X169794271Y-90840664D01*
X169889771Y-90792913D01*
X170033022Y-90792913D01*
X170128523Y-90840664D01*
X170176273Y-90936164D01*
X170176273Y-91461417D01*
X170176273Y-90936164D02*
X170224023Y-90840664D01*
X170319524Y-90792913D01*
X170462775Y-90792913D01*
X170558275Y-90840664D01*
X170606026Y-90936164D01*
X170606026Y-91461417D01*
X171465531Y-91413667D02*
X171370030Y-91461417D01*
X171179029Y-91461417D01*
X171083528Y-91413667D01*
X171035778Y-91318166D01*
X171035778Y-90936164D01*
X171083528Y-90840664D01*
X171179029Y-90792913D01*
X171370030Y-90792913D01*
X171465531Y-90840664D01*
X171513281Y-90936164D01*
X171513281Y-91031665D01*
X171035778Y-91127165D01*
X171799783Y-90792913D02*
X172181785Y-90792913D01*
X171943034Y-90458661D02*
X171943034Y-91318166D01*
X171990784Y-91413667D01*
X172086284Y-91461417D01*
X172181785Y-91461417D01*
X172516037Y-91461417D02*
X172516037Y-90792913D01*
X172516037Y-90983914D02*
X172563787Y-90888414D01*
X172611538Y-90840664D01*
X172707038Y-90792913D01*
X172802539Y-90792913D01*
X173041290Y-90792913D02*
X173280042Y-91461417D01*
X173518793Y-90792913D02*
X173280042Y-91461417D01*
X173184541Y-91700169D01*
X173136791Y-91747919D01*
X173041290Y-91795669D01*
X173853045Y-90554162D02*
X173900795Y-90506412D01*
X173996296Y-90458661D01*
X174235047Y-90458661D01*
X174330548Y-90506412D01*
X174378298Y-90554162D01*
X174426048Y-90649662D01*
X174426048Y-90745163D01*
X174378298Y-90888414D01*
X173805295Y-91461417D01*
X174426048Y-91461417D01*
X117323011Y-91413667D02*
X117418511Y-91461417D01*
X117609512Y-91461417D01*
X117705013Y-91413667D01*
X117752763Y-91318166D01*
X117752763Y-91270416D01*
X117705013Y-91174916D01*
X117609512Y-91127165D01*
X117466262Y-91127165D01*
X117370761Y-91079415D01*
X117323011Y-90983914D01*
X117323011Y-90936164D01*
X117370761Y-90840664D01*
X117466262Y-90792913D01*
X117609512Y-90792913D01*
X117705013Y-90840664D01*
X118087015Y-90792913D02*
X118325767Y-91461417D01*
X118564518Y-90792913D02*
X118325767Y-91461417D01*
X118230266Y-91700169D01*
X118182516Y-91747919D01*
X118087015Y-91795669D01*
X118946520Y-91461417D02*
X118946520Y-90792913D01*
X118946520Y-90888414D02*
X118994271Y-90840664D01*
X119089771Y-90792913D01*
X119233022Y-90792913D01*
X119328523Y-90840664D01*
X119376273Y-90936164D01*
X119376273Y-91461417D01*
X119376273Y-90936164D02*
X119424023Y-90840664D01*
X119519524Y-90792913D01*
X119662775Y-90792913D01*
X119758275Y-90840664D01*
X119806026Y-90936164D01*
X119806026Y-91461417D01*
X120665531Y-91413667D02*
X120570030Y-91461417D01*
X120379029Y-91461417D01*
X120283528Y-91413667D01*
X120235778Y-91318166D01*
X120235778Y-90936164D01*
X120283528Y-90840664D01*
X120379029Y-90792913D01*
X120570030Y-90792913D01*
X120665531Y-90840664D01*
X120713281Y-90936164D01*
X120713281Y-91031665D01*
X120235778Y-91127165D01*
X120999783Y-90792913D02*
X121381785Y-90792913D01*
X121143034Y-90458661D02*
X121143034Y-91318166D01*
X121190784Y-91413667D01*
X121286284Y-91461417D01*
X121381785Y-91461417D01*
X121716037Y-91461417D02*
X121716037Y-90792913D01*
X121716037Y-90983914D02*
X121763787Y-90888414D01*
X121811538Y-90840664D01*
X121907038Y-90792913D01*
X122002539Y-90792913D01*
X122241290Y-90792913D02*
X122480042Y-91461417D01*
X122718793Y-90792913D02*
X122480042Y-91461417D01*
X122384541Y-91700169D01*
X122336791Y-91747919D01*
X122241290Y-91795669D01*
X123626048Y-91461417D02*
X123053045Y-91461417D01*
X123339547Y-91461417D02*
X123339547Y-90458661D01*
X123244046Y-90601912D01*
X123148546Y-90697413D01*
X123053045Y-90745163D01*
X158242325Y-93595837D02*
X158242325Y-92927333D01*
X158242325Y-93118334D02*
X158290076Y-93022834D01*
X158337826Y-92975084D01*
X158433326Y-92927333D01*
X158528827Y-92927333D01*
X158863079Y-93595837D02*
X158863079Y-92927333D01*
X158863079Y-92593081D02*
X158815329Y-92640832D01*
X158863079Y-92688582D01*
X158910829Y-92640832D01*
X158863079Y-92593081D01*
X158863079Y-92688582D01*
X159292832Y-93548087D02*
X159388332Y-93595837D01*
X159579333Y-93595837D01*
X159674834Y-93548087D01*
X159722584Y-93452586D01*
X159722584Y-93404836D01*
X159674834Y-93309336D01*
X159579333Y-93261585D01*
X159436082Y-93261585D01*
X159340582Y-93213835D01*
X159292832Y-93118334D01*
X159292832Y-93070584D01*
X159340582Y-92975084D01*
X159436082Y-92927333D01*
X159579333Y-92927333D01*
X159674834Y-92975084D01*
X160534339Y-93548087D02*
X160438838Y-93595837D01*
X160247837Y-93595837D01*
X160152337Y-93548087D01*
X160104586Y-93452586D01*
X160104586Y-93070584D01*
X160152337Y-92975084D01*
X160247837Y-92927333D01*
X160438838Y-92927333D01*
X160534339Y-92975084D01*
X160582089Y-93070584D01*
X160582089Y-93166085D01*
X160104586Y-93261585D01*
X160868591Y-92593081D02*
X161441594Y-92593081D01*
X161155093Y-93595837D02*
X161155093Y-92593081D01*
X161775846Y-93595837D02*
X161775846Y-92927333D01*
X161775846Y-93118334D02*
X161823597Y-93022834D01*
X161871347Y-92975084D01*
X161966848Y-92927333D01*
X162062348Y-92927333D01*
X162396600Y-93595837D02*
X162396600Y-92927333D01*
X162396600Y-92593081D02*
X162348850Y-92640832D01*
X162396600Y-92688582D01*
X162444350Y-92640832D01*
X162396600Y-92593081D01*
X162396600Y-92688582D01*
X162874103Y-93595837D02*
X162874103Y-92927333D01*
X162874103Y-93022834D02*
X162921853Y-92975084D01*
X163017354Y-92927333D01*
X163160605Y-92927333D01*
X163256105Y-92975084D01*
X163303856Y-93070584D01*
X163303856Y-93595837D01*
X163303856Y-93070584D02*
X163351606Y-92975084D01*
X163447106Y-92927333D01*
X163590357Y-92927333D01*
X163685858Y-92975084D01*
X163733608Y-93070584D01*
X163733608Y-93595837D01*
X164163361Y-92688582D02*
X164211111Y-92640832D01*
X164306612Y-92593081D01*
X164545363Y-92593081D01*
X164640864Y-92640832D01*
X164688614Y-92688582D01*
X164736364Y-92784082D01*
X164736364Y-92879583D01*
X164688614Y-93022834D01*
X164115610Y-93595837D01*
X164736364Y-93595837D01*
X107442325Y-93595837D02*
X107442325Y-92927333D01*
X107442325Y-93118334D02*
X107490076Y-93022834D01*
X107537826Y-92975084D01*
X107633326Y-92927333D01*
X107728827Y-92927333D01*
X108063079Y-93595837D02*
X108063079Y-92927333D01*
X108063079Y-92593081D02*
X108015329Y-92640832D01*
X108063079Y-92688582D01*
X108110829Y-92640832D01*
X108063079Y-92593081D01*
X108063079Y-92688582D01*
X108492832Y-93548087D02*
X108588332Y-93595837D01*
X108779333Y-93595837D01*
X108874834Y-93548087D01*
X108922584Y-93452586D01*
X108922584Y-93404836D01*
X108874834Y-93309336D01*
X108779333Y-93261585D01*
X108636082Y-93261585D01*
X108540582Y-93213835D01*
X108492832Y-93118334D01*
X108492832Y-93070584D01*
X108540582Y-92975084D01*
X108636082Y-92927333D01*
X108779333Y-92927333D01*
X108874834Y-92975084D01*
X109734339Y-93548087D02*
X109638838Y-93595837D01*
X109447837Y-93595837D01*
X109352337Y-93548087D01*
X109304586Y-93452586D01*
X109304586Y-93070584D01*
X109352337Y-92975084D01*
X109447837Y-92927333D01*
X109638838Y-92927333D01*
X109734339Y-92975084D01*
X109782089Y-93070584D01*
X109782089Y-93166085D01*
X109304586Y-93261585D01*
X110068591Y-92593081D02*
X110641594Y-92593081D01*
X110355093Y-93595837D02*
X110355093Y-92593081D01*
X110975846Y-93595837D02*
X110975846Y-92927333D01*
X110975846Y-93118334D02*
X111023597Y-93022834D01*
X111071347Y-92975084D01*
X111166848Y-92927333D01*
X111262348Y-92927333D01*
X111596600Y-93595837D02*
X111596600Y-92927333D01*
X111596600Y-92593081D02*
X111548850Y-92640832D01*
X111596600Y-92688582D01*
X111644350Y-92640832D01*
X111596600Y-92593081D01*
X111596600Y-92688582D01*
X112074103Y-93595837D02*
X112074103Y-92927333D01*
X112074103Y-93022834D02*
X112121853Y-92975084D01*
X112217354Y-92927333D01*
X112360605Y-92927333D01*
X112456105Y-92975084D01*
X112503856Y-93070584D01*
X112503856Y-93595837D01*
X112503856Y-93070584D02*
X112551606Y-92975084D01*
X112647106Y-92927333D01*
X112790357Y-92927333D01*
X112885858Y-92975084D01*
X112933608Y-93070584D01*
X112933608Y-93595837D01*
X113936364Y-93595837D02*
X113363361Y-93595837D01*
X113649862Y-93595837D02*
X113649862Y-92593081D01*
X113554362Y-92736332D01*
X113458861Y-92831833D01*
X113363361Y-92879583D01*
X178538450Y-92927333D02*
X178920452Y-92927333D01*
X178681701Y-93595837D02*
X178681701Y-92736332D01*
X178729451Y-92640832D01*
X178824952Y-92593081D01*
X178920452Y-92593081D01*
X179684457Y-93595837D02*
X179684457Y-93070584D01*
X179636707Y-92975084D01*
X179541206Y-92927333D01*
X179350205Y-92927333D01*
X179254704Y-92975084D01*
X179684457Y-93548087D02*
X179588956Y-93595837D01*
X179350205Y-93595837D01*
X179254704Y-93548087D01*
X179206954Y-93452586D01*
X179206954Y-93357086D01*
X179254704Y-93261585D01*
X179350205Y-93213835D01*
X179588956Y-93213835D01*
X179684457Y-93166085D01*
X180305211Y-93595837D02*
X180209710Y-93548087D01*
X180161960Y-93452586D01*
X180161960Y-92593081D01*
X180830464Y-93595837D02*
X180734963Y-93548087D01*
X180687213Y-93452586D01*
X180687213Y-92593081D01*
X181069215Y-92593081D02*
X181642219Y-92593081D01*
X181355717Y-93595837D02*
X181355717Y-92593081D01*
X181976471Y-93595837D02*
X181976471Y-92927333D01*
X181976471Y-93118334D02*
X182024221Y-93022834D01*
X182071971Y-92975084D01*
X182167472Y-92927333D01*
X182262972Y-92927333D01*
X182597224Y-93595837D02*
X182597224Y-92927333D01*
X182597224Y-92593081D02*
X182549474Y-92640832D01*
X182597224Y-92688582D01*
X182644975Y-92640832D01*
X182597224Y-92593081D01*
X182597224Y-92688582D01*
X183074727Y-93595837D02*
X183074727Y-92927333D01*
X183074727Y-93022834D02*
X183122478Y-92975084D01*
X183217978Y-92927333D01*
X183361229Y-92927333D01*
X183456730Y-92975084D01*
X183504480Y-93070584D01*
X183504480Y-93595837D01*
X183504480Y-93070584D02*
X183552230Y-92975084D01*
X183647731Y-92927333D01*
X183790982Y-92927333D01*
X183886482Y-92975084D01*
X183934232Y-93070584D01*
X183934232Y-93595837D01*
X184363985Y-92688582D02*
X184411735Y-92640832D01*
X184507236Y-92593081D01*
X184745987Y-92593081D01*
X184841488Y-92640832D01*
X184889238Y-92688582D01*
X184936988Y-92784082D01*
X184936988Y-92879583D01*
X184889238Y-93022834D01*
X184316235Y-93595837D01*
X184936988Y-93595837D01*
X127738450Y-92927333D02*
X128120452Y-92927333D01*
X127881701Y-93595837D02*
X127881701Y-92736332D01*
X127929451Y-92640832D01*
X128024952Y-92593081D01*
X128120452Y-92593081D01*
X128884457Y-93595837D02*
X128884457Y-93070584D01*
X128836707Y-92975084D01*
X128741206Y-92927333D01*
X128550205Y-92927333D01*
X128454704Y-92975084D01*
X128884457Y-93548087D02*
X128788956Y-93595837D01*
X128550205Y-93595837D01*
X128454704Y-93548087D01*
X128406954Y-93452586D01*
X128406954Y-93357086D01*
X128454704Y-93261585D01*
X128550205Y-93213835D01*
X128788956Y-93213835D01*
X128884457Y-93166085D01*
X129505211Y-93595837D02*
X129409710Y-93548087D01*
X129361960Y-93452586D01*
X129361960Y-92593081D01*
X130030464Y-93595837D02*
X129934963Y-93548087D01*
X129887213Y-93452586D01*
X129887213Y-92593081D01*
X130269215Y-92593081D02*
X130842219Y-92593081D01*
X130555717Y-93595837D02*
X130555717Y-92593081D01*
X131176471Y-93595837D02*
X131176471Y-92927333D01*
X131176471Y-93118334D02*
X131224221Y-93022834D01*
X131271971Y-92975084D01*
X131367472Y-92927333D01*
X131462972Y-92927333D01*
X131797224Y-93595837D02*
X131797224Y-92927333D01*
X131797224Y-92593081D02*
X131749474Y-92640832D01*
X131797224Y-92688582D01*
X131844975Y-92640832D01*
X131797224Y-92593081D01*
X131797224Y-92688582D01*
X132274727Y-93595837D02*
X132274727Y-92927333D01*
X132274727Y-93022834D02*
X132322478Y-92975084D01*
X132417978Y-92927333D01*
X132561229Y-92927333D01*
X132656730Y-92975084D01*
X132704480Y-93070584D01*
X132704480Y-93595837D01*
X132704480Y-93070584D02*
X132752230Y-92975084D01*
X132847731Y-92927333D01*
X132990982Y-92927333D01*
X133086482Y-92975084D01*
X133134232Y-93070584D01*
X133134232Y-93595837D01*
X134136988Y-93595837D02*
X133563985Y-93595837D01*
X133850487Y-93595837D02*
X133850487Y-92593081D01*
X133754986Y-92736332D01*
X133659486Y-92831833D01*
X133563985Y-92879583D01*
D15*
X194388014Y-133082211D02*
X194388014Y-132622592D01*
X193985847Y-132909854D02*
X195019990Y-132909854D01*
X195134895Y-132852401D01*
X195192347Y-132737497D01*
X195192347Y-132622592D01*
X195192347Y-132220425D02*
X194388014Y-132220425D01*
X194617823Y-132220425D02*
X194502919Y-132162973D01*
X194445466Y-132105520D01*
X194388014Y-131990616D01*
X194388014Y-131875711D01*
X195192347Y-131473544D02*
X194388014Y-131473544D01*
X193985847Y-131473544D02*
X194043300Y-131530997D01*
X194100752Y-131473544D01*
X194043300Y-131416092D01*
X193985847Y-131473544D01*
X194100752Y-131473544D01*
X194388014Y-130381949D02*
X195364704Y-130381949D01*
X195479609Y-130439401D01*
X195537061Y-130496854D01*
X195594514Y-130611759D01*
X195594514Y-130784116D01*
X195537061Y-130899020D01*
X195134895Y-130381949D02*
X195192347Y-130496854D01*
X195192347Y-130726663D01*
X195134895Y-130841568D01*
X195077442Y-130899020D01*
X194962538Y-130956473D01*
X194617823Y-130956473D01*
X194502919Y-130899020D01*
X194445466Y-130841568D01*
X194388014Y-130726663D01*
X194388014Y-130496854D01*
X194445466Y-130381949D01*
X194100752Y-129864878D02*
X194043300Y-129807425D01*
X193985847Y-129692520D01*
X193985847Y-129405259D01*
X194043300Y-129290354D01*
X194100752Y-129232901D01*
X194215657Y-129175449D01*
X194330561Y-129175449D01*
X194502919Y-129232901D01*
X195192347Y-129922330D01*
X195192347Y-129175449D01*
X105488014Y-133082211D02*
X105488014Y-132622592D01*
X105085847Y-132909854D02*
X106119990Y-132909854D01*
X106234895Y-132852401D01*
X106292347Y-132737497D01*
X106292347Y-132622592D01*
X106292347Y-132220425D02*
X105488014Y-132220425D01*
X105717823Y-132220425D02*
X105602919Y-132162973D01*
X105545466Y-132105520D01*
X105488014Y-131990616D01*
X105488014Y-131875711D01*
X106292347Y-131473544D02*
X105488014Y-131473544D01*
X105085847Y-131473544D02*
X105143300Y-131530997D01*
X105200752Y-131473544D01*
X105143300Y-131416092D01*
X105085847Y-131473544D01*
X105200752Y-131473544D01*
X105488014Y-130381949D02*
X106464704Y-130381949D01*
X106579609Y-130439401D01*
X106637061Y-130496854D01*
X106694514Y-130611759D01*
X106694514Y-130784116D01*
X106637061Y-130899020D01*
X106234895Y-130381949D02*
X106292347Y-130496854D01*
X106292347Y-130726663D01*
X106234895Y-130841568D01*
X106177442Y-130899020D01*
X106062538Y-130956473D01*
X105717823Y-130956473D01*
X105602919Y-130899020D01*
X105545466Y-130841568D01*
X105488014Y-130726663D01*
X105488014Y-130496854D01*
X105545466Y-130381949D01*
X106292347Y-129175449D02*
X106292347Y-129864878D01*
X106292347Y-129520163D02*
X105085847Y-129520163D01*
X105258204Y-129635068D01*
X105373109Y-129749973D01*
X105430561Y-129864878D01*
X169792347Y-120140306D02*
X168988014Y-120140306D01*
X169217823Y-120140306D02*
X169102919Y-120082854D01*
X169045466Y-120025401D01*
X168988014Y-119910497D01*
X168988014Y-119795592D01*
X169792347Y-119393425D02*
X168988014Y-119393425D01*
X168585847Y-119393425D02*
X168643300Y-119450878D01*
X168700752Y-119393425D01*
X168643300Y-119335973D01*
X168585847Y-119393425D01*
X168700752Y-119393425D01*
X169734895Y-118876354D02*
X169792347Y-118761449D01*
X169792347Y-118531640D01*
X169734895Y-118416735D01*
X169619990Y-118359282D01*
X169562538Y-118359282D01*
X169447633Y-118416735D01*
X169390180Y-118531640D01*
X169390180Y-118703997D01*
X169332728Y-118818901D01*
X169217823Y-118876354D01*
X169160371Y-118876354D01*
X169045466Y-118818901D01*
X168988014Y-118703997D01*
X168988014Y-118531640D01*
X169045466Y-118416735D01*
X169734895Y-117382592D02*
X169792347Y-117497497D01*
X169792347Y-117727306D01*
X169734895Y-117842211D01*
X169619990Y-117899663D01*
X169160371Y-117899663D01*
X169045466Y-117842211D01*
X168988014Y-117727306D01*
X168988014Y-117497497D01*
X169045466Y-117382592D01*
X169160371Y-117325140D01*
X169275276Y-117325140D01*
X169390180Y-117899663D01*
X169677442Y-116118640D02*
X169734895Y-116176092D01*
X169792347Y-116348449D01*
X169792347Y-116463354D01*
X169734895Y-116635711D01*
X169619990Y-116750616D01*
X169505085Y-116808068D01*
X169275276Y-116865520D01*
X169102919Y-116865520D01*
X168873109Y-116808068D01*
X168758204Y-116750616D01*
X168643300Y-116635711D01*
X168585847Y-116463354D01*
X168585847Y-116348449D01*
X168643300Y-116176092D01*
X168700752Y-116118640D01*
X168585847Y-115773925D02*
X169792347Y-115371759D01*
X168585847Y-114969592D01*
X168700752Y-114624878D02*
X168643300Y-114567425D01*
X168585847Y-114452520D01*
X168585847Y-114165259D01*
X168643300Y-114050354D01*
X168700752Y-113992901D01*
X168815657Y-113935449D01*
X168930561Y-113935449D01*
X169102919Y-113992901D01*
X169792347Y-114682330D01*
X169792347Y-113935449D01*
X118992347Y-120140306D02*
X118188014Y-120140306D01*
X118417823Y-120140306D02*
X118302919Y-120082854D01*
X118245466Y-120025401D01*
X118188014Y-119910497D01*
X118188014Y-119795592D01*
X118992347Y-119393425D02*
X118188014Y-119393425D01*
X117785847Y-119393425D02*
X117843300Y-119450878D01*
X117900752Y-119393425D01*
X117843300Y-119335973D01*
X117785847Y-119393425D01*
X117900752Y-119393425D01*
X118934895Y-118876354D02*
X118992347Y-118761449D01*
X118992347Y-118531640D01*
X118934895Y-118416735D01*
X118819990Y-118359282D01*
X118762538Y-118359282D01*
X118647633Y-118416735D01*
X118590180Y-118531640D01*
X118590180Y-118703997D01*
X118532728Y-118818901D01*
X118417823Y-118876354D01*
X118360371Y-118876354D01*
X118245466Y-118818901D01*
X118188014Y-118703997D01*
X118188014Y-118531640D01*
X118245466Y-118416735D01*
X118934895Y-117382592D02*
X118992347Y-117497497D01*
X118992347Y-117727306D01*
X118934895Y-117842211D01*
X118819990Y-117899663D01*
X118360371Y-117899663D01*
X118245466Y-117842211D01*
X118188014Y-117727306D01*
X118188014Y-117497497D01*
X118245466Y-117382592D01*
X118360371Y-117325140D01*
X118475276Y-117325140D01*
X118590180Y-117899663D01*
X118877442Y-116118640D02*
X118934895Y-116176092D01*
X118992347Y-116348449D01*
X118992347Y-116463354D01*
X118934895Y-116635711D01*
X118819990Y-116750616D01*
X118705085Y-116808068D01*
X118475276Y-116865520D01*
X118302919Y-116865520D01*
X118073109Y-116808068D01*
X117958204Y-116750616D01*
X117843300Y-116635711D01*
X117785847Y-116463354D01*
X117785847Y-116348449D01*
X117843300Y-116176092D01*
X117900752Y-116118640D01*
X117785847Y-115773925D02*
X118992347Y-115371759D01*
X117785847Y-114969592D01*
X118992347Y-113935449D02*
X118992347Y-114624878D01*
X118992347Y-114280163D02*
X117785847Y-114280163D01*
X117958204Y-114395068D01*
X118073109Y-114509973D01*
X118130561Y-114624878D01*
X169792347Y-148379663D02*
X168988014Y-148379663D01*
X169217823Y-148379663D02*
X169102919Y-148322211D01*
X169045466Y-148264759D01*
X168988014Y-148149854D01*
X168988014Y-148034949D01*
X169792347Y-147632782D02*
X168988014Y-147632782D01*
X168585847Y-147632782D02*
X168643300Y-147690235D01*
X168700752Y-147632782D01*
X168643300Y-147575330D01*
X168585847Y-147632782D01*
X168700752Y-147632782D01*
X169734895Y-147115711D02*
X169792347Y-147000806D01*
X169792347Y-146770997D01*
X169734895Y-146656092D01*
X169619990Y-146598640D01*
X169562538Y-146598640D01*
X169447633Y-146656092D01*
X169390180Y-146770997D01*
X169390180Y-146943354D01*
X169332728Y-147058259D01*
X169217823Y-147115711D01*
X169160371Y-147115711D01*
X169045466Y-147058259D01*
X168988014Y-146943354D01*
X168988014Y-146770997D01*
X169045466Y-146656092D01*
X169734895Y-145621949D02*
X169792347Y-145736854D01*
X169792347Y-145966663D01*
X169734895Y-146081568D01*
X169619990Y-146139020D01*
X169160371Y-146139020D01*
X169045466Y-146081568D01*
X168988014Y-145966663D01*
X168988014Y-145736854D01*
X169045466Y-145621949D01*
X169160371Y-145564497D01*
X169275276Y-145564497D01*
X169390180Y-146139020D01*
X168700752Y-145104878D02*
X168643300Y-145047425D01*
X168585847Y-144932520D01*
X168585847Y-144645259D01*
X168643300Y-144530354D01*
X168700752Y-144472901D01*
X168815657Y-144415449D01*
X168930561Y-144415449D01*
X169102919Y-144472901D01*
X169792347Y-145162330D01*
X169792347Y-144415449D01*
X118992347Y-148379663D02*
X118188014Y-148379663D01*
X118417823Y-148379663D02*
X118302919Y-148322211D01*
X118245466Y-148264759D01*
X118188014Y-148149854D01*
X118188014Y-148034949D01*
X118992347Y-147632782D02*
X118188014Y-147632782D01*
X117785847Y-147632782D02*
X117843300Y-147690235D01*
X117900752Y-147632782D01*
X117843300Y-147575330D01*
X117785847Y-147632782D01*
X117900752Y-147632782D01*
X118934895Y-147115711D02*
X118992347Y-147000806D01*
X118992347Y-146770997D01*
X118934895Y-146656092D01*
X118819990Y-146598640D01*
X118762538Y-146598640D01*
X118647633Y-146656092D01*
X118590180Y-146770997D01*
X118590180Y-146943354D01*
X118532728Y-147058259D01*
X118417823Y-147115711D01*
X118360371Y-147115711D01*
X118245466Y-147058259D01*
X118188014Y-146943354D01*
X118188014Y-146770997D01*
X118245466Y-146656092D01*
X118934895Y-145621949D02*
X118992347Y-145736854D01*
X118992347Y-145966663D01*
X118934895Y-146081568D01*
X118819990Y-146139020D01*
X118360371Y-146139020D01*
X118245466Y-146081568D01*
X118188014Y-145966663D01*
X118188014Y-145736854D01*
X118245466Y-145621949D01*
X118360371Y-145564497D01*
X118475276Y-145564497D01*
X118590180Y-146139020D01*
X118992347Y-144415449D02*
X118992347Y-145104878D01*
X118992347Y-144760163D02*
X117785847Y-144760163D01*
X117958204Y-144875068D01*
X118073109Y-144989973D01*
X118130561Y-145104878D01*
X157092347Y-147747687D02*
X157034895Y-147862592D01*
X156977442Y-147920044D01*
X156862538Y-147977497D01*
X156517823Y-147977497D01*
X156402919Y-147920044D01*
X156345466Y-147862592D01*
X156288014Y-147747687D01*
X156288014Y-147575330D01*
X156345466Y-147460425D01*
X156402919Y-147402973D01*
X156517823Y-147345520D01*
X156862538Y-147345520D01*
X156977442Y-147402973D01*
X157034895Y-147460425D01*
X157092347Y-147575330D01*
X157092347Y-147747687D01*
X156288014Y-146311378D02*
X157092347Y-146311378D01*
X156288014Y-146828449D02*
X156919990Y-146828449D01*
X157034895Y-146770997D01*
X157092347Y-146656092D01*
X157092347Y-146483735D01*
X157034895Y-146368830D01*
X156977442Y-146311378D01*
X156288014Y-145909211D02*
X156288014Y-145449592D01*
X155885847Y-145736854D02*
X156919990Y-145736854D01*
X157034895Y-145679401D01*
X157092347Y-145564497D01*
X157092347Y-145449592D01*
X156000752Y-145104878D02*
X155943300Y-145047425D01*
X155885847Y-144932520D01*
X155885847Y-144645259D01*
X155943300Y-144530354D01*
X156000752Y-144472901D01*
X156115657Y-144415449D01*
X156230561Y-144415449D01*
X156402919Y-144472901D01*
X157092347Y-145162330D01*
X157092347Y-144415449D01*
X144392347Y-147747687D02*
X144334895Y-147862592D01*
X144277442Y-147920044D01*
X144162538Y-147977497D01*
X143817823Y-147977497D01*
X143702919Y-147920044D01*
X143645466Y-147862592D01*
X143588014Y-147747687D01*
X143588014Y-147575330D01*
X143645466Y-147460425D01*
X143702919Y-147402973D01*
X143817823Y-147345520D01*
X144162538Y-147345520D01*
X144277442Y-147402973D01*
X144334895Y-147460425D01*
X144392347Y-147575330D01*
X144392347Y-147747687D01*
X143588014Y-146311378D02*
X144392347Y-146311378D01*
X143588014Y-146828449D02*
X144219990Y-146828449D01*
X144334895Y-146770997D01*
X144392347Y-146656092D01*
X144392347Y-146483735D01*
X144334895Y-146368830D01*
X144277442Y-146311378D01*
X143588014Y-145909211D02*
X143588014Y-145449592D01*
X143185847Y-145736854D02*
X144219990Y-145736854D01*
X144334895Y-145679401D01*
X144392347Y-145564497D01*
X144392347Y-145449592D01*
X144392347Y-144415449D02*
X144392347Y-145104878D01*
X144392347Y-144760163D02*
X143185847Y-144760163D01*
X143358204Y-144875068D01*
X143473109Y-144989973D01*
X143530561Y-145104878D01*
X144392347Y-117842211D02*
X143588014Y-117842211D01*
X143702919Y-117842211D02*
X143645466Y-117784759D01*
X143588014Y-117669854D01*
X143588014Y-117497497D01*
X143645466Y-117382592D01*
X143760371Y-117325140D01*
X144392347Y-117325140D01*
X143760371Y-117325140D02*
X143645466Y-117267687D01*
X143588014Y-117152782D01*
X143588014Y-116980425D01*
X143645466Y-116865520D01*
X143760371Y-116808068D01*
X144392347Y-116808068D01*
X144392347Y-116233544D02*
X143588014Y-116233544D01*
X143185847Y-116233544D02*
X143243300Y-116290997D01*
X143300752Y-116233544D01*
X143243300Y-116176092D01*
X143185847Y-116233544D01*
X143300752Y-116233544D01*
X143588014Y-115659020D02*
X144392347Y-115659020D01*
X143702919Y-115659020D02*
X143645466Y-115601568D01*
X143588014Y-115486663D01*
X143588014Y-115314306D01*
X143645466Y-115199401D01*
X143760371Y-115141949D01*
X144392347Y-115141949D01*
X144392347Y-113935449D02*
X144392347Y-114624878D01*
X144392347Y-114280163D02*
X143185847Y-114280163D01*
X143358204Y-114395068D01*
X143473109Y-114509973D01*
X143530561Y-114624878D01*
X157092347Y-118244378D02*
X156288014Y-118244378D01*
X156402919Y-118244378D02*
X156345466Y-118186925D01*
X156288014Y-118072020D01*
X156288014Y-117899663D01*
X156345466Y-117784759D01*
X156460371Y-117727306D01*
X157092347Y-117727306D01*
X156460371Y-117727306D02*
X156345466Y-117669854D01*
X156288014Y-117554949D01*
X156288014Y-117382592D01*
X156345466Y-117267687D01*
X156460371Y-117210235D01*
X157092347Y-117210235D01*
X157092347Y-116118640D02*
X156460371Y-116118640D01*
X156345466Y-116176092D01*
X156288014Y-116290997D01*
X156288014Y-116520806D01*
X156345466Y-116635711D01*
X157034895Y-116118640D02*
X157092347Y-116233544D01*
X157092347Y-116520806D01*
X157034895Y-116635711D01*
X156919990Y-116693163D01*
X156805085Y-116693163D01*
X156690180Y-116635711D01*
X156632728Y-116520806D01*
X156632728Y-116233544D01*
X156575276Y-116118640D01*
X157092347Y-115659020D02*
X156288014Y-115027044D01*
X156288014Y-115659020D02*
X157092347Y-115027044D01*
X157092347Y-113935449D02*
X157092347Y-114624878D01*
X157092347Y-114280163D02*
X155885847Y-114280163D01*
X156058204Y-114395068D01*
X156173109Y-114509973D01*
X156230561Y-114624878D01*
X144392347Y-133197116D02*
X144392347Y-133771640D01*
X143185847Y-133771640D01*
X143588014Y-132277878D02*
X144564704Y-132277878D01*
X144679609Y-132335330D01*
X144737061Y-132392782D01*
X144794514Y-132507687D01*
X144794514Y-132680044D01*
X144737061Y-132794949D01*
X144334895Y-132277878D02*
X144392347Y-132392782D01*
X144392347Y-132622592D01*
X144334895Y-132737497D01*
X144277442Y-132794949D01*
X144162538Y-132852401D01*
X143817823Y-132852401D01*
X143702919Y-132794949D01*
X143645466Y-132737497D01*
X143588014Y-132622592D01*
X143588014Y-132392782D01*
X143645466Y-132277878D01*
X143588014Y-131875711D02*
X143588014Y-131416092D01*
X143185847Y-131703354D02*
X144219990Y-131703354D01*
X144334895Y-131645901D01*
X144392347Y-131530997D01*
X144392347Y-131416092D01*
X144392347Y-130324497D02*
X143817823Y-130726663D01*
X144392347Y-131013925D02*
X143185847Y-131013925D01*
X143185847Y-130554306D01*
X143243300Y-130439401D01*
X143300752Y-130381949D01*
X143415657Y-130324497D01*
X143588014Y-130324497D01*
X143702919Y-130381949D01*
X143760371Y-130439401D01*
X143817823Y-130554306D01*
X143817823Y-131013925D01*
X144392347Y-129175449D02*
X144392347Y-129864878D01*
X144392347Y-129520163D02*
X143185847Y-129520163D01*
X143358204Y-129635068D01*
X143473109Y-129749973D01*
X143530561Y-129864878D01*
X182492347Y-131473544D02*
X181688014Y-131473544D01*
X181285847Y-131473544D02*
X181343300Y-131530997D01*
X181400752Y-131473544D01*
X181343300Y-131416092D01*
X181285847Y-131473544D01*
X181400752Y-131473544D01*
X181688014Y-130899020D02*
X182492347Y-130899020D01*
X181802919Y-130899020D02*
X181745466Y-130841568D01*
X181688014Y-130726663D01*
X181688014Y-130554306D01*
X181745466Y-130439401D01*
X181860371Y-130381949D01*
X182492347Y-130381949D01*
X181400752Y-129864878D02*
X181343300Y-129807425D01*
X181285847Y-129692520D01*
X181285847Y-129405259D01*
X181343300Y-129290354D01*
X181400752Y-129232901D01*
X181515657Y-129175449D01*
X181630561Y-129175449D01*
X181802919Y-129232901D01*
X182492347Y-129922330D01*
X182492347Y-129175449D01*
X118992347Y-131473544D02*
X118188014Y-131473544D01*
X117785847Y-131473544D02*
X117843300Y-131530997D01*
X117900752Y-131473544D01*
X117843300Y-131416092D01*
X117785847Y-131473544D01*
X117900752Y-131473544D01*
X118188014Y-130899020D02*
X118992347Y-130899020D01*
X118302919Y-130899020D02*
X118245466Y-130841568D01*
X118188014Y-130726663D01*
X118188014Y-130554306D01*
X118245466Y-130439401D01*
X118360371Y-130381949D01*
X118992347Y-130381949D01*
X118992347Y-129175449D02*
X118992347Y-129864878D01*
X118992347Y-129520163D02*
X117785847Y-129520163D01*
X117958204Y-129635068D01*
X118073109Y-129749973D01*
X118130561Y-129864878D01*
X181688014Y-120025401D02*
X181688014Y-119565782D01*
X182492347Y-119853044D02*
X181458204Y-119853044D01*
X181343300Y-119795592D01*
X181285847Y-119680687D01*
X181285847Y-119565782D01*
X182492347Y-118646544D02*
X181860371Y-118646544D01*
X181745466Y-118703997D01*
X181688014Y-118818901D01*
X181688014Y-119048711D01*
X181745466Y-119163616D01*
X182434895Y-118646544D02*
X182492347Y-118761449D01*
X182492347Y-119048711D01*
X182434895Y-119163616D01*
X182319990Y-119221068D01*
X182205085Y-119221068D01*
X182090180Y-119163616D01*
X182032728Y-119048711D01*
X182032728Y-118761449D01*
X181975276Y-118646544D01*
X182492347Y-117899663D02*
X182434895Y-118014568D01*
X182319990Y-118072020D01*
X181285847Y-118072020D01*
X182492347Y-117267687D02*
X182434895Y-117382592D01*
X182319990Y-117440044D01*
X181285847Y-117440044D01*
X182377442Y-116118640D02*
X182434895Y-116176092D01*
X182492347Y-116348449D01*
X182492347Y-116463354D01*
X182434895Y-116635711D01*
X182319990Y-116750616D01*
X182205085Y-116808068D01*
X181975276Y-116865520D01*
X181802919Y-116865520D01*
X181573109Y-116808068D01*
X181458204Y-116750616D01*
X181343300Y-116635711D01*
X181285847Y-116463354D01*
X181285847Y-116348449D01*
X181343300Y-116176092D01*
X181400752Y-116118640D01*
X181285847Y-115773925D02*
X182492347Y-115371759D01*
X181285847Y-114969592D01*
X181400752Y-114624878D02*
X181343300Y-114567425D01*
X181285847Y-114452520D01*
X181285847Y-114165259D01*
X181343300Y-114050354D01*
X181400752Y-113992901D01*
X181515657Y-113935449D01*
X181630561Y-113935449D01*
X181802919Y-113992901D01*
X182492347Y-114682330D01*
X182492347Y-113935449D01*
X130888014Y-120025401D02*
X130888014Y-119565782D01*
X131692347Y-119853044D02*
X130658204Y-119853044D01*
X130543300Y-119795592D01*
X130485847Y-119680687D01*
X130485847Y-119565782D01*
X131692347Y-118646544D02*
X131060371Y-118646544D01*
X130945466Y-118703997D01*
X130888014Y-118818901D01*
X130888014Y-119048711D01*
X130945466Y-119163616D01*
X131634895Y-118646544D02*
X131692347Y-118761449D01*
X131692347Y-119048711D01*
X131634895Y-119163616D01*
X131519990Y-119221068D01*
X131405085Y-119221068D01*
X131290180Y-119163616D01*
X131232728Y-119048711D01*
X131232728Y-118761449D01*
X131175276Y-118646544D01*
X131692347Y-117899663D02*
X131634895Y-118014568D01*
X131519990Y-118072020D01*
X130485847Y-118072020D01*
X131692347Y-117267687D02*
X131634895Y-117382592D01*
X131519990Y-117440044D01*
X130485847Y-117440044D01*
X131577442Y-116118640D02*
X131634895Y-116176092D01*
X131692347Y-116348449D01*
X131692347Y-116463354D01*
X131634895Y-116635711D01*
X131519990Y-116750616D01*
X131405085Y-116808068D01*
X131175276Y-116865520D01*
X131002919Y-116865520D01*
X130773109Y-116808068D01*
X130658204Y-116750616D01*
X130543300Y-116635711D01*
X130485847Y-116463354D01*
X130485847Y-116348449D01*
X130543300Y-116176092D01*
X130600752Y-116118640D01*
X130485847Y-115773925D02*
X131692347Y-115371759D01*
X130485847Y-114969592D01*
X131692347Y-113935449D02*
X131692347Y-114624878D01*
X131692347Y-114280163D02*
X130485847Y-114280163D01*
X130658204Y-114395068D01*
X130773109Y-114509973D01*
X130830561Y-114624878D01*
X181688014Y-148264759D02*
X181688014Y-147805140D01*
X182492347Y-148092401D02*
X181458204Y-148092401D01*
X181343300Y-148034949D01*
X181285847Y-147920044D01*
X181285847Y-147805140D01*
X182492347Y-146885901D02*
X181860371Y-146885901D01*
X181745466Y-146943354D01*
X181688014Y-147058259D01*
X181688014Y-147288068D01*
X181745466Y-147402973D01*
X182434895Y-146885901D02*
X182492347Y-147000806D01*
X182492347Y-147288068D01*
X182434895Y-147402973D01*
X182319990Y-147460425D01*
X182205085Y-147460425D01*
X182090180Y-147402973D01*
X182032728Y-147288068D01*
X182032728Y-147000806D01*
X181975276Y-146885901D01*
X182492347Y-146139020D02*
X182434895Y-146253925D01*
X182319990Y-146311378D01*
X181285847Y-146311378D01*
X182492347Y-145507044D02*
X182434895Y-145621949D01*
X182319990Y-145679401D01*
X181285847Y-145679401D01*
X181400752Y-145104878D02*
X181343300Y-145047425D01*
X181285847Y-144932520D01*
X181285847Y-144645259D01*
X181343300Y-144530354D01*
X181400752Y-144472901D01*
X181515657Y-144415449D01*
X181630561Y-144415449D01*
X181802919Y-144472901D01*
X182492347Y-145162330D01*
X182492347Y-144415449D01*
X130888014Y-148264759D02*
X130888014Y-147805140D01*
X131692347Y-148092401D02*
X130658204Y-148092401D01*
X130543300Y-148034949D01*
X130485847Y-147920044D01*
X130485847Y-147805140D01*
X131692347Y-146885901D02*
X131060371Y-146885901D01*
X130945466Y-146943354D01*
X130888014Y-147058259D01*
X130888014Y-147288068D01*
X130945466Y-147402973D01*
X131634895Y-146885901D02*
X131692347Y-147000806D01*
X131692347Y-147288068D01*
X131634895Y-147402973D01*
X131519990Y-147460425D01*
X131405085Y-147460425D01*
X131290180Y-147402973D01*
X131232728Y-147288068D01*
X131232728Y-147000806D01*
X131175276Y-146885901D01*
X131692347Y-146139020D02*
X131634895Y-146253925D01*
X131519990Y-146311378D01*
X130485847Y-146311378D01*
X131692347Y-145507044D02*
X131634895Y-145621949D01*
X131519990Y-145679401D01*
X130485847Y-145679401D01*
X131692347Y-144415449D02*
X131692347Y-145104878D01*
X131692347Y-144760163D02*
X130485847Y-144760163D01*
X130658204Y-144875068D01*
X130773109Y-144989973D01*
X130830561Y-145104878D01*
X195134895Y-119450878D02*
X195192347Y-119565782D01*
X195192347Y-119795592D01*
X195134895Y-119910497D01*
X195019990Y-119967949D01*
X194560371Y-119967949D01*
X194445466Y-119910497D01*
X194388014Y-119795592D01*
X194388014Y-119565782D01*
X194445466Y-119450878D01*
X194560371Y-119393425D01*
X194675276Y-119393425D01*
X194790180Y-119967949D01*
X195192347Y-118991259D02*
X194388014Y-118359282D01*
X194388014Y-118991259D02*
X195192347Y-118359282D01*
X194388014Y-117899663D02*
X195594514Y-117899663D01*
X194445466Y-117899663D02*
X194388014Y-117784759D01*
X194388014Y-117554949D01*
X194445466Y-117440044D01*
X194502919Y-117382592D01*
X194617823Y-117325140D01*
X194962538Y-117325140D01*
X195077442Y-117382592D01*
X195134895Y-117440044D01*
X195192347Y-117554949D01*
X195192347Y-117784759D01*
X195134895Y-117899663D01*
X195077442Y-116118640D02*
X195134895Y-116176092D01*
X195192347Y-116348449D01*
X195192347Y-116463354D01*
X195134895Y-116635711D01*
X195019990Y-116750616D01*
X194905085Y-116808068D01*
X194675276Y-116865520D01*
X194502919Y-116865520D01*
X194273109Y-116808068D01*
X194158204Y-116750616D01*
X194043300Y-116635711D01*
X193985847Y-116463354D01*
X193985847Y-116348449D01*
X194043300Y-116176092D01*
X194100752Y-116118640D01*
X193985847Y-115773925D02*
X195192347Y-115371759D01*
X193985847Y-114969592D01*
X194100752Y-114624878D02*
X194043300Y-114567425D01*
X193985847Y-114452520D01*
X193985847Y-114165259D01*
X194043300Y-114050354D01*
X194100752Y-113992901D01*
X194215657Y-113935449D01*
X194330561Y-113935449D01*
X194502919Y-113992901D01*
X195192347Y-114682330D01*
X195192347Y-113935449D01*
X106234895Y-119450878D02*
X106292347Y-119565782D01*
X106292347Y-119795592D01*
X106234895Y-119910497D01*
X106119990Y-119967949D01*
X105660371Y-119967949D01*
X105545466Y-119910497D01*
X105488014Y-119795592D01*
X105488014Y-119565782D01*
X105545466Y-119450878D01*
X105660371Y-119393425D01*
X105775276Y-119393425D01*
X105890180Y-119967949D01*
X106292347Y-118991259D02*
X105488014Y-118359282D01*
X105488014Y-118991259D02*
X106292347Y-118359282D01*
X105488014Y-117899663D02*
X106694514Y-117899663D01*
X105545466Y-117899663D02*
X105488014Y-117784759D01*
X105488014Y-117554949D01*
X105545466Y-117440044D01*
X105602919Y-117382592D01*
X105717823Y-117325140D01*
X106062538Y-117325140D01*
X106177442Y-117382592D01*
X106234895Y-117440044D01*
X106292347Y-117554949D01*
X106292347Y-117784759D01*
X106234895Y-117899663D01*
X106177442Y-116118640D02*
X106234895Y-116176092D01*
X106292347Y-116348449D01*
X106292347Y-116463354D01*
X106234895Y-116635711D01*
X106119990Y-116750616D01*
X106005085Y-116808068D01*
X105775276Y-116865520D01*
X105602919Y-116865520D01*
X105373109Y-116808068D01*
X105258204Y-116750616D01*
X105143300Y-116635711D01*
X105085847Y-116463354D01*
X105085847Y-116348449D01*
X105143300Y-116176092D01*
X105200752Y-116118640D01*
X105085847Y-115773925D02*
X106292347Y-115371759D01*
X105085847Y-114969592D01*
X106292347Y-113935449D02*
X106292347Y-114624878D01*
X106292347Y-114280163D02*
X105085847Y-114280163D01*
X105258204Y-114395068D01*
X105373109Y-114509973D01*
X105430561Y-114624878D01*
X195134895Y-147747687D02*
X195192347Y-147862592D01*
X195192347Y-148092401D01*
X195134895Y-148207306D01*
X195019990Y-148264759D01*
X194560371Y-148264759D01*
X194445466Y-148207306D01*
X194388014Y-148092401D01*
X194388014Y-147862592D01*
X194445466Y-147747687D01*
X194560371Y-147690235D01*
X194675276Y-147690235D01*
X194790180Y-148264759D01*
X195192347Y-147000806D02*
X195134895Y-147115711D01*
X195077442Y-147173163D01*
X194962538Y-147230616D01*
X194617823Y-147230616D01*
X194502919Y-147173163D01*
X194445466Y-147115711D01*
X194388014Y-147000806D01*
X194388014Y-146828449D01*
X194445466Y-146713544D01*
X194502919Y-146656092D01*
X194617823Y-146598640D01*
X194962538Y-146598640D01*
X195077442Y-146656092D01*
X195134895Y-146713544D01*
X195192347Y-146828449D01*
X195192347Y-147000806D01*
X195134895Y-145564497D02*
X195192347Y-145679401D01*
X195192347Y-145909211D01*
X195134895Y-146024116D01*
X195077442Y-146081568D01*
X194962538Y-146139020D01*
X194617823Y-146139020D01*
X194502919Y-146081568D01*
X194445466Y-146024116D01*
X194388014Y-145909211D01*
X194388014Y-145679401D01*
X194445466Y-145564497D01*
X194100752Y-145104878D02*
X194043300Y-145047425D01*
X193985847Y-144932520D01*
X193985847Y-144645259D01*
X194043300Y-144530354D01*
X194100752Y-144472901D01*
X194215657Y-144415449D01*
X194330561Y-144415449D01*
X194502919Y-144472901D01*
X195192347Y-145162330D01*
X195192347Y-144415449D01*
X106234895Y-147747687D02*
X106292347Y-147862592D01*
X106292347Y-148092401D01*
X106234895Y-148207306D01*
X106119990Y-148264759D01*
X105660371Y-148264759D01*
X105545466Y-148207306D01*
X105488014Y-148092401D01*
X105488014Y-147862592D01*
X105545466Y-147747687D01*
X105660371Y-147690235D01*
X105775276Y-147690235D01*
X105890180Y-148264759D01*
X106292347Y-147000806D02*
X106234895Y-147115711D01*
X106177442Y-147173163D01*
X106062538Y-147230616D01*
X105717823Y-147230616D01*
X105602919Y-147173163D01*
X105545466Y-147115711D01*
X105488014Y-147000806D01*
X105488014Y-146828449D01*
X105545466Y-146713544D01*
X105602919Y-146656092D01*
X105717823Y-146598640D01*
X106062538Y-146598640D01*
X106177442Y-146656092D01*
X106234895Y-146713544D01*
X106292347Y-146828449D01*
X106292347Y-147000806D01*
X106234895Y-145564497D02*
X106292347Y-145679401D01*
X106292347Y-145909211D01*
X106234895Y-146024116D01*
X106177442Y-146081568D01*
X106062538Y-146139020D01*
X105717823Y-146139020D01*
X105602919Y-146081568D01*
X105545466Y-146024116D01*
X105488014Y-145909211D01*
X105488014Y-145679401D01*
X105545466Y-145564497D01*
X106292347Y-144415449D02*
X106292347Y-145104878D01*
X106292347Y-144760163D02*
X105085847Y-144760163D01*
X105258204Y-144875068D01*
X105373109Y-144989973D01*
X105430561Y-145104878D01*
X169734895Y-133943997D02*
X169792347Y-134058901D01*
X169792347Y-134288711D01*
X169734895Y-134403616D01*
X169677442Y-134461068D01*
X169562538Y-134518520D01*
X169217823Y-134518520D01*
X169102919Y-134461068D01*
X169045466Y-134403616D01*
X168988014Y-134288711D01*
X168988014Y-134058901D01*
X169045466Y-133943997D01*
X168988014Y-133541830D02*
X169792347Y-133254568D01*
X168988014Y-132967306D02*
X169792347Y-133254568D01*
X170079609Y-133369473D01*
X170137061Y-133426925D01*
X170194514Y-133541830D01*
X169734895Y-131990616D02*
X169792347Y-132105520D01*
X169792347Y-132335330D01*
X169734895Y-132450235D01*
X169677442Y-132507687D01*
X169562538Y-132565140D01*
X169217823Y-132565140D01*
X169102919Y-132507687D01*
X169045466Y-132450235D01*
X168988014Y-132335330D01*
X168988014Y-132105520D01*
X169045466Y-131990616D01*
X169792347Y-131301187D02*
X169734895Y-131416092D01*
X169619990Y-131473544D01*
X168585847Y-131473544D01*
X169734895Y-130381949D02*
X169792347Y-130496854D01*
X169792347Y-130726663D01*
X169734895Y-130841568D01*
X169619990Y-130899020D01*
X169160371Y-130899020D01*
X169045466Y-130841568D01*
X168988014Y-130726663D01*
X168988014Y-130496854D01*
X169045466Y-130381949D01*
X169160371Y-130324497D01*
X169275276Y-130324497D01*
X169390180Y-130899020D01*
X168700752Y-129864878D02*
X168643300Y-129807425D01*
X168585847Y-129692520D01*
X168585847Y-129405259D01*
X168643300Y-129290354D01*
X168700752Y-129232901D01*
X168815657Y-129175449D01*
X168930561Y-129175449D01*
X169102919Y-129232901D01*
X169792347Y-129922330D01*
X169792347Y-129175449D01*
X131634895Y-133943997D02*
X131692347Y-134058901D01*
X131692347Y-134288711D01*
X131634895Y-134403616D01*
X131577442Y-134461068D01*
X131462538Y-134518520D01*
X131117823Y-134518520D01*
X131002919Y-134461068D01*
X130945466Y-134403616D01*
X130888014Y-134288711D01*
X130888014Y-134058901D01*
X130945466Y-133943997D01*
X130888014Y-133541830D02*
X131692347Y-133254568D01*
X130888014Y-132967306D02*
X131692347Y-133254568D01*
X131979609Y-133369473D01*
X132037061Y-133426925D01*
X132094514Y-133541830D01*
X131634895Y-131990616D02*
X131692347Y-132105520D01*
X131692347Y-132335330D01*
X131634895Y-132450235D01*
X131577442Y-132507687D01*
X131462538Y-132565140D01*
X131117823Y-132565140D01*
X131002919Y-132507687D01*
X130945466Y-132450235D01*
X130888014Y-132335330D01*
X130888014Y-132105520D01*
X130945466Y-131990616D01*
X131692347Y-131301187D02*
X131634895Y-131416092D01*
X131519990Y-131473544D01*
X130485847Y-131473544D01*
X131634895Y-130381949D02*
X131692347Y-130496854D01*
X131692347Y-130726663D01*
X131634895Y-130841568D01*
X131519990Y-130899020D01*
X131060371Y-130899020D01*
X130945466Y-130841568D01*
X130888014Y-130726663D01*
X130888014Y-130496854D01*
X130945466Y-130381949D01*
X131060371Y-130324497D01*
X131175276Y-130324497D01*
X131290180Y-130899020D01*
X131692347Y-129175449D02*
X131692347Y-129864878D01*
X131692347Y-129520163D02*
X130485847Y-129520163D01*
X130658204Y-129635068D01*
X130773109Y-129749973D01*
X130830561Y-129864878D01*
X156288014Y-132852401D02*
X157092347Y-132852401D01*
X155828395Y-133139663D02*
X156690180Y-133426925D01*
X156690180Y-132680044D01*
X157207252Y-131416092D02*
X157149800Y-131530997D01*
X157034895Y-131645901D01*
X156862538Y-131818259D01*
X156805085Y-131933163D01*
X156805085Y-132048068D01*
X157092347Y-131990616D02*
X157034895Y-132105520D01*
X156919990Y-132220425D01*
X156690180Y-132277878D01*
X156288014Y-132277878D01*
X156058204Y-132220425D01*
X155943300Y-132105520D01*
X155885847Y-131990616D01*
X155885847Y-131760806D01*
X155943300Y-131645901D01*
X156058204Y-131530997D01*
X156288014Y-131473544D01*
X156690180Y-131473544D01*
X156919990Y-131530997D01*
X157034895Y-131645901D01*
X157092347Y-131760806D01*
X157092347Y-131990616D01*
X155885847Y-131071378D02*
X157092347Y-130267044D01*
X155885847Y-130267044D02*
X157092347Y-131071378D01*
X157092347Y-129175449D02*
X157092347Y-129864878D01*
X157092347Y-129520163D02*
X155885847Y-129520163D01*
X156058204Y-129635068D01*
X156173109Y-129749973D01*
X156230561Y-129864878D01*
D10*
X179454761Y-104711190D02*
X179502380Y-104615952D01*
X179502380Y-104425476D01*
X179454761Y-104330238D01*
X179359523Y-104282619D01*
X179311904Y-104282619D01*
X179216666Y-104330238D01*
X179169047Y-104425476D01*
X179169047Y-104568333D01*
X179121428Y-104663571D01*
X179026190Y-104711190D01*
X178978571Y-104711190D01*
X178883333Y-104663571D01*
X178835714Y-104568333D01*
X178835714Y-104425476D01*
X178883333Y-104330238D01*
X179502380Y-103854047D02*
X178502380Y-103854047D01*
X179502380Y-103425476D02*
X178978571Y-103425476D01*
X178883333Y-103473095D01*
X178835714Y-103568333D01*
X178835714Y-103711190D01*
X178883333Y-103806428D01*
X178930952Y-103854047D01*
X179502380Y-102520714D02*
X178978571Y-102520714D01*
X178883333Y-102568333D01*
X178835714Y-102663571D01*
X178835714Y-102854047D01*
X178883333Y-102949285D01*
X179454761Y-102520714D02*
X179502380Y-102615952D01*
X179502380Y-102854047D01*
X179454761Y-102949285D01*
X179359523Y-102996904D01*
X179264285Y-102996904D01*
X179169047Y-102949285D01*
X179121428Y-102854047D01*
X179121428Y-102615952D01*
X179073809Y-102520714D01*
X178835714Y-102044523D02*
X179835714Y-102044523D01*
X178883333Y-102044523D02*
X178835714Y-101949285D01*
X178835714Y-101758809D01*
X178883333Y-101663571D01*
X178930952Y-101615952D01*
X179026190Y-101568333D01*
X179311904Y-101568333D01*
X179407142Y-101615952D01*
X179454761Y-101663571D01*
X179502380Y-101758809D01*
X179502380Y-101949285D01*
X179454761Y-102044523D01*
X179454761Y-100758809D02*
X179502380Y-100854047D01*
X179502380Y-101044523D01*
X179454761Y-101139761D01*
X179359523Y-101187380D01*
X178978571Y-101187380D01*
X178883333Y-101139761D01*
X178835714Y-101044523D01*
X178835714Y-100854047D01*
X178883333Y-100758809D01*
X178978571Y-100711190D01*
X179073809Y-100711190D01*
X179169047Y-101187380D01*
X178597619Y-100330238D02*
X178550000Y-100282619D01*
X178502380Y-100187380D01*
X178502380Y-99949285D01*
X178550000Y-99854047D01*
X178597619Y-99806428D01*
X178692857Y-99758809D01*
X178788095Y-99758809D01*
X178930952Y-99806428D01*
X179502380Y-100377857D01*
X179502380Y-99758809D01*
X128654761Y-104711190D02*
X128702380Y-104615952D01*
X128702380Y-104425476D01*
X128654761Y-104330238D01*
X128559523Y-104282619D01*
X128511904Y-104282619D01*
X128416666Y-104330238D01*
X128369047Y-104425476D01*
X128369047Y-104568333D01*
X128321428Y-104663571D01*
X128226190Y-104711190D01*
X128178571Y-104711190D01*
X128083333Y-104663571D01*
X128035714Y-104568333D01*
X128035714Y-104425476D01*
X128083333Y-104330238D01*
X128702380Y-103854047D02*
X127702380Y-103854047D01*
X128702380Y-103425476D02*
X128178571Y-103425476D01*
X128083333Y-103473095D01*
X128035714Y-103568333D01*
X128035714Y-103711190D01*
X128083333Y-103806428D01*
X128130952Y-103854047D01*
X128702380Y-102520714D02*
X128178571Y-102520714D01*
X128083333Y-102568333D01*
X128035714Y-102663571D01*
X128035714Y-102854047D01*
X128083333Y-102949285D01*
X128654761Y-102520714D02*
X128702380Y-102615952D01*
X128702380Y-102854047D01*
X128654761Y-102949285D01*
X128559523Y-102996904D01*
X128464285Y-102996904D01*
X128369047Y-102949285D01*
X128321428Y-102854047D01*
X128321428Y-102615952D01*
X128273809Y-102520714D01*
X128035714Y-102044523D02*
X129035714Y-102044523D01*
X128083333Y-102044523D02*
X128035714Y-101949285D01*
X128035714Y-101758809D01*
X128083333Y-101663571D01*
X128130952Y-101615952D01*
X128226190Y-101568333D01*
X128511904Y-101568333D01*
X128607142Y-101615952D01*
X128654761Y-101663571D01*
X128702380Y-101758809D01*
X128702380Y-101949285D01*
X128654761Y-102044523D01*
X128654761Y-100758809D02*
X128702380Y-100854047D01*
X128702380Y-101044523D01*
X128654761Y-101139761D01*
X128559523Y-101187380D01*
X128178571Y-101187380D01*
X128083333Y-101139761D01*
X128035714Y-101044523D01*
X128035714Y-100854047D01*
X128083333Y-100758809D01*
X128178571Y-100711190D01*
X128273809Y-100711190D01*
X128369047Y-101187380D01*
X128702380Y-99758809D02*
X128702380Y-100330238D01*
X128702380Y-100044523D02*
X127702380Y-100044523D01*
X127845238Y-100139761D01*
X127940476Y-100235000D01*
X127988095Y-100330238D01*
X152022380Y-65362142D02*
X151355714Y-65362142D01*
X151546190Y-65362142D02*
X151450952Y-65314523D01*
X151403333Y-65266904D01*
X151355714Y-65171666D01*
X151355714Y-65076428D01*
X152022380Y-64743095D02*
X151355714Y-64743095D01*
X151022380Y-64743095D02*
X151070000Y-64790714D01*
X151117619Y-64743095D01*
X151070000Y-64695476D01*
X151022380Y-64743095D01*
X151117619Y-64743095D01*
X151974761Y-64314523D02*
X152022380Y-64219285D01*
X152022380Y-64028809D01*
X151974761Y-63933571D01*
X151879523Y-63885952D01*
X151831904Y-63885952D01*
X151736666Y-63933571D01*
X151689047Y-64028809D01*
X151689047Y-64171666D01*
X151641428Y-64266904D01*
X151546190Y-64314523D01*
X151498571Y-64314523D01*
X151403333Y-64266904D01*
X151355714Y-64171666D01*
X151355714Y-64028809D01*
X151403333Y-63933571D01*
X151974761Y-63076428D02*
X152022380Y-63171666D01*
X152022380Y-63362142D01*
X151974761Y-63457380D01*
X151879523Y-63505000D01*
X151498571Y-63505000D01*
X151403333Y-63457380D01*
X151355714Y-63362142D01*
X151355714Y-63171666D01*
X151403333Y-63076428D01*
X151498571Y-63028809D01*
X151593809Y-63028809D01*
X151689047Y-63505000D01*
X152022380Y-62600238D02*
X151022380Y-62600238D01*
X151022380Y-62219285D01*
X151070000Y-62124047D01*
X151117619Y-62076428D01*
X151212857Y-62028809D01*
X151355714Y-62028809D01*
X151450952Y-62076428D01*
X151498571Y-62124047D01*
X151546190Y-62219285D01*
X151546190Y-62600238D01*
X152022380Y-61457380D02*
X151974761Y-61552619D01*
X151927142Y-61600238D01*
X151831904Y-61647857D01*
X151546190Y-61647857D01*
X151450952Y-61600238D01*
X151403333Y-61552619D01*
X151355714Y-61457380D01*
X151355714Y-61314523D01*
X151403333Y-61219285D01*
X151450952Y-61171666D01*
X151546190Y-61124047D01*
X151831904Y-61124047D01*
X151927142Y-61171666D01*
X151974761Y-61219285D01*
X152022380Y-61314523D01*
X152022380Y-61457380D01*
X151355714Y-60838333D02*
X151355714Y-60457380D01*
X151022380Y-60695476D02*
X151879523Y-60695476D01*
X151974761Y-60647857D01*
X152022380Y-60552619D01*
X152022380Y-60457380D01*
X151117619Y-60171666D02*
X151070000Y-60124047D01*
X151022380Y-60028809D01*
X151022380Y-59790714D01*
X151070000Y-59695476D01*
X151117619Y-59647857D01*
X151212857Y-59600238D01*
X151308095Y-59600238D01*
X151450952Y-59647857D01*
X152022380Y-60219285D01*
X152022380Y-59600238D01*
X101222380Y-65362142D02*
X100555714Y-65362142D01*
X100746190Y-65362142D02*
X100650952Y-65314523D01*
X100603333Y-65266904D01*
X100555714Y-65171666D01*
X100555714Y-65076428D01*
X101222380Y-64743095D02*
X100555714Y-64743095D01*
X100222380Y-64743095D02*
X100270000Y-64790714D01*
X100317619Y-64743095D01*
X100270000Y-64695476D01*
X100222380Y-64743095D01*
X100317619Y-64743095D01*
X101174761Y-64314523D02*
X101222380Y-64219285D01*
X101222380Y-64028809D01*
X101174761Y-63933571D01*
X101079523Y-63885952D01*
X101031904Y-63885952D01*
X100936666Y-63933571D01*
X100889047Y-64028809D01*
X100889047Y-64171666D01*
X100841428Y-64266904D01*
X100746190Y-64314523D01*
X100698571Y-64314523D01*
X100603333Y-64266904D01*
X100555714Y-64171666D01*
X100555714Y-64028809D01*
X100603333Y-63933571D01*
X101174761Y-63076428D02*
X101222380Y-63171666D01*
X101222380Y-63362142D01*
X101174761Y-63457380D01*
X101079523Y-63505000D01*
X100698571Y-63505000D01*
X100603333Y-63457380D01*
X100555714Y-63362142D01*
X100555714Y-63171666D01*
X100603333Y-63076428D01*
X100698571Y-63028809D01*
X100793809Y-63028809D01*
X100889047Y-63505000D01*
X101222380Y-62600238D02*
X100222380Y-62600238D01*
X100222380Y-62219285D01*
X100270000Y-62124047D01*
X100317619Y-62076428D01*
X100412857Y-62028809D01*
X100555714Y-62028809D01*
X100650952Y-62076428D01*
X100698571Y-62124047D01*
X100746190Y-62219285D01*
X100746190Y-62600238D01*
X101222380Y-61457380D02*
X101174761Y-61552619D01*
X101127142Y-61600238D01*
X101031904Y-61647857D01*
X100746190Y-61647857D01*
X100650952Y-61600238D01*
X100603333Y-61552619D01*
X100555714Y-61457380D01*
X100555714Y-61314523D01*
X100603333Y-61219285D01*
X100650952Y-61171666D01*
X100746190Y-61124047D01*
X101031904Y-61124047D01*
X101127142Y-61171666D01*
X101174761Y-61219285D01*
X101222380Y-61314523D01*
X101222380Y-61457380D01*
X100555714Y-60838333D02*
X100555714Y-60457380D01*
X100222380Y-60695476D02*
X101079523Y-60695476D01*
X101174761Y-60647857D01*
X101222380Y-60552619D01*
X101222380Y-60457380D01*
X101222380Y-59600238D02*
X101222380Y-60171666D01*
X101222380Y-59885952D02*
X100222380Y-59885952D01*
X100365238Y-59981190D01*
X100460476Y-60076428D01*
X100508095Y-60171666D01*
X166382380Y-88553095D02*
X165715714Y-88553095D01*
X165906190Y-88553095D02*
X165810952Y-88505476D01*
X165763333Y-88457857D01*
X165715714Y-88362619D01*
X165715714Y-88267380D01*
X166382380Y-87934047D02*
X165715714Y-87934047D01*
X165382380Y-87934047D02*
X165430000Y-87981666D01*
X165477619Y-87934047D01*
X165430000Y-87886428D01*
X165382380Y-87934047D01*
X165477619Y-87934047D01*
X166334761Y-87505476D02*
X166382380Y-87410238D01*
X166382380Y-87219761D01*
X166334761Y-87124523D01*
X166239523Y-87076904D01*
X166191904Y-87076904D01*
X166096666Y-87124523D01*
X166049047Y-87219761D01*
X166049047Y-87362619D01*
X166001428Y-87457857D01*
X165906190Y-87505476D01*
X165858571Y-87505476D01*
X165763333Y-87457857D01*
X165715714Y-87362619D01*
X165715714Y-87219761D01*
X165763333Y-87124523D01*
X166334761Y-86267380D02*
X166382380Y-86362619D01*
X166382380Y-86553095D01*
X166334761Y-86648333D01*
X166239523Y-86695952D01*
X165858571Y-86695952D01*
X165763333Y-86648333D01*
X165715714Y-86553095D01*
X165715714Y-86362619D01*
X165763333Y-86267380D01*
X165858571Y-86219761D01*
X165953809Y-86219761D01*
X166049047Y-86695952D01*
X166287142Y-85219761D02*
X166334761Y-85267380D01*
X166382380Y-85410238D01*
X166382380Y-85505476D01*
X166334761Y-85648333D01*
X166239523Y-85743571D01*
X166144285Y-85791190D01*
X165953809Y-85838809D01*
X165810952Y-85838809D01*
X165620476Y-85791190D01*
X165525238Y-85743571D01*
X165430000Y-85648333D01*
X165382380Y-85505476D01*
X165382380Y-85410238D01*
X165430000Y-85267380D01*
X165477619Y-85219761D01*
X165715714Y-84886428D02*
X166382380Y-84648333D01*
X165715714Y-84410238D01*
X166382380Y-84029285D02*
X165382380Y-84029285D01*
X165382380Y-83648333D01*
X165430000Y-83553095D01*
X165477619Y-83505476D01*
X165572857Y-83457857D01*
X165715714Y-83457857D01*
X165810952Y-83505476D01*
X165858571Y-83553095D01*
X165906190Y-83648333D01*
X165906190Y-84029285D01*
X166382380Y-82886428D02*
X166334761Y-82981666D01*
X166287142Y-83029285D01*
X166191904Y-83076904D01*
X165906190Y-83076904D01*
X165810952Y-83029285D01*
X165763333Y-82981666D01*
X165715714Y-82886428D01*
X165715714Y-82743571D01*
X165763333Y-82648333D01*
X165810952Y-82600714D01*
X165906190Y-82553095D01*
X166191904Y-82553095D01*
X166287142Y-82600714D01*
X166334761Y-82648333D01*
X166382380Y-82743571D01*
X166382380Y-82886428D01*
X165715714Y-82267380D02*
X165715714Y-81886428D01*
X165382380Y-82124523D02*
X166239523Y-82124523D01*
X166334761Y-82076904D01*
X166382380Y-81981666D01*
X166382380Y-81886428D01*
X165477619Y-81600714D02*
X165430000Y-81553095D01*
X165382380Y-81457857D01*
X165382380Y-81219761D01*
X165430000Y-81124523D01*
X165477619Y-81076904D01*
X165572857Y-81029285D01*
X165668095Y-81029285D01*
X165810952Y-81076904D01*
X166382380Y-81648333D01*
X166382380Y-81029285D01*
X115582380Y-88553095D02*
X114915714Y-88553095D01*
X115106190Y-88553095D02*
X115010952Y-88505476D01*
X114963333Y-88457857D01*
X114915714Y-88362619D01*
X114915714Y-88267380D01*
X115582380Y-87934047D02*
X114915714Y-87934047D01*
X114582380Y-87934047D02*
X114630000Y-87981666D01*
X114677619Y-87934047D01*
X114630000Y-87886428D01*
X114582380Y-87934047D01*
X114677619Y-87934047D01*
X115534761Y-87505476D02*
X115582380Y-87410238D01*
X115582380Y-87219761D01*
X115534761Y-87124523D01*
X115439523Y-87076904D01*
X115391904Y-87076904D01*
X115296666Y-87124523D01*
X115249047Y-87219761D01*
X115249047Y-87362619D01*
X115201428Y-87457857D01*
X115106190Y-87505476D01*
X115058571Y-87505476D01*
X114963333Y-87457857D01*
X114915714Y-87362619D01*
X114915714Y-87219761D01*
X114963333Y-87124523D01*
X115534761Y-86267380D02*
X115582380Y-86362619D01*
X115582380Y-86553095D01*
X115534761Y-86648333D01*
X115439523Y-86695952D01*
X115058571Y-86695952D01*
X114963333Y-86648333D01*
X114915714Y-86553095D01*
X114915714Y-86362619D01*
X114963333Y-86267380D01*
X115058571Y-86219761D01*
X115153809Y-86219761D01*
X115249047Y-86695952D01*
X115487142Y-85219761D02*
X115534761Y-85267380D01*
X115582380Y-85410238D01*
X115582380Y-85505476D01*
X115534761Y-85648333D01*
X115439523Y-85743571D01*
X115344285Y-85791190D01*
X115153809Y-85838809D01*
X115010952Y-85838809D01*
X114820476Y-85791190D01*
X114725238Y-85743571D01*
X114630000Y-85648333D01*
X114582380Y-85505476D01*
X114582380Y-85410238D01*
X114630000Y-85267380D01*
X114677619Y-85219761D01*
X114915714Y-84886428D02*
X115582380Y-84648333D01*
X114915714Y-84410238D01*
X115582380Y-84029285D02*
X114582380Y-84029285D01*
X114582380Y-83648333D01*
X114630000Y-83553095D01*
X114677619Y-83505476D01*
X114772857Y-83457857D01*
X114915714Y-83457857D01*
X115010952Y-83505476D01*
X115058571Y-83553095D01*
X115106190Y-83648333D01*
X115106190Y-84029285D01*
X115582380Y-82886428D02*
X115534761Y-82981666D01*
X115487142Y-83029285D01*
X115391904Y-83076904D01*
X115106190Y-83076904D01*
X115010952Y-83029285D01*
X114963333Y-82981666D01*
X114915714Y-82886428D01*
X114915714Y-82743571D01*
X114963333Y-82648333D01*
X115010952Y-82600714D01*
X115106190Y-82553095D01*
X115391904Y-82553095D01*
X115487142Y-82600714D01*
X115534761Y-82648333D01*
X115582380Y-82743571D01*
X115582380Y-82886428D01*
X114915714Y-82267380D02*
X114915714Y-81886428D01*
X114582380Y-82124523D02*
X115439523Y-82124523D01*
X115534761Y-82076904D01*
X115582380Y-81981666D01*
X115582380Y-81886428D01*
X115582380Y-81029285D02*
X115582380Y-81600714D01*
X115582380Y-81315000D02*
X114582380Y-81315000D01*
X114725238Y-81410238D01*
X114820476Y-81505476D01*
X114868095Y-81600714D01*
X176755714Y-65385952D02*
X176755714Y-65005000D01*
X177422380Y-65243095D02*
X176565238Y-65243095D01*
X176470000Y-65195476D01*
X176422380Y-65100238D01*
X176422380Y-65005000D01*
X177422380Y-64243095D02*
X176898571Y-64243095D01*
X176803333Y-64290714D01*
X176755714Y-64385952D01*
X176755714Y-64576428D01*
X176803333Y-64671666D01*
X177374761Y-64243095D02*
X177422380Y-64338333D01*
X177422380Y-64576428D01*
X177374761Y-64671666D01*
X177279523Y-64719285D01*
X177184285Y-64719285D01*
X177089047Y-64671666D01*
X177041428Y-64576428D01*
X177041428Y-64338333D01*
X176993809Y-64243095D01*
X177422380Y-63624047D02*
X177374761Y-63719285D01*
X177279523Y-63766904D01*
X176422380Y-63766904D01*
X177422380Y-63100238D02*
X177374761Y-63195476D01*
X177279523Y-63243095D01*
X176422380Y-63243095D01*
X177422380Y-62719285D02*
X176422380Y-62719285D01*
X176422380Y-62338333D01*
X176470000Y-62243095D01*
X176517619Y-62195476D01*
X176612857Y-62147857D01*
X176755714Y-62147857D01*
X176850952Y-62195476D01*
X176898571Y-62243095D01*
X176946190Y-62338333D01*
X176946190Y-62719285D01*
X177422380Y-61576428D02*
X177374761Y-61671666D01*
X177327142Y-61719285D01*
X177231904Y-61766904D01*
X176946190Y-61766904D01*
X176850952Y-61719285D01*
X176803333Y-61671666D01*
X176755714Y-61576428D01*
X176755714Y-61433571D01*
X176803333Y-61338333D01*
X176850952Y-61290714D01*
X176946190Y-61243095D01*
X177231904Y-61243095D01*
X177327142Y-61290714D01*
X177374761Y-61338333D01*
X177422380Y-61433571D01*
X177422380Y-61576428D01*
X176755714Y-60957380D02*
X176755714Y-60576428D01*
X176422380Y-60814523D02*
X177279523Y-60814523D01*
X177374761Y-60766904D01*
X177422380Y-60671666D01*
X177422380Y-60576428D01*
X176517619Y-60290714D02*
X176470000Y-60243095D01*
X176422380Y-60147857D01*
X176422380Y-59909761D01*
X176470000Y-59814523D01*
X176517619Y-59766904D01*
X176612857Y-59719285D01*
X176708095Y-59719285D01*
X176850952Y-59766904D01*
X177422380Y-60338333D01*
X177422380Y-59719285D01*
X125955714Y-65385952D02*
X125955714Y-65005000D01*
X126622380Y-65243095D02*
X125765238Y-65243095D01*
X125670000Y-65195476D01*
X125622380Y-65100238D01*
X125622380Y-65005000D01*
X126622380Y-64243095D02*
X126098571Y-64243095D01*
X126003333Y-64290714D01*
X125955714Y-64385952D01*
X125955714Y-64576428D01*
X126003333Y-64671666D01*
X126574761Y-64243095D02*
X126622380Y-64338333D01*
X126622380Y-64576428D01*
X126574761Y-64671666D01*
X126479523Y-64719285D01*
X126384285Y-64719285D01*
X126289047Y-64671666D01*
X126241428Y-64576428D01*
X126241428Y-64338333D01*
X126193809Y-64243095D01*
X126622380Y-63624047D02*
X126574761Y-63719285D01*
X126479523Y-63766904D01*
X125622380Y-63766904D01*
X126622380Y-63100238D02*
X126574761Y-63195476D01*
X126479523Y-63243095D01*
X125622380Y-63243095D01*
X126622380Y-62719285D02*
X125622380Y-62719285D01*
X125622380Y-62338333D01*
X125670000Y-62243095D01*
X125717619Y-62195476D01*
X125812857Y-62147857D01*
X125955714Y-62147857D01*
X126050952Y-62195476D01*
X126098571Y-62243095D01*
X126146190Y-62338333D01*
X126146190Y-62719285D01*
X126622380Y-61576428D02*
X126574761Y-61671666D01*
X126527142Y-61719285D01*
X126431904Y-61766904D01*
X126146190Y-61766904D01*
X126050952Y-61719285D01*
X126003333Y-61671666D01*
X125955714Y-61576428D01*
X125955714Y-61433571D01*
X126003333Y-61338333D01*
X126050952Y-61290714D01*
X126146190Y-61243095D01*
X126431904Y-61243095D01*
X126527142Y-61290714D01*
X126574761Y-61338333D01*
X126622380Y-61433571D01*
X126622380Y-61576428D01*
X125955714Y-60957380D02*
X125955714Y-60576428D01*
X125622380Y-60814523D02*
X126479523Y-60814523D01*
X126574761Y-60766904D01*
X126622380Y-60671666D01*
X126622380Y-60576428D01*
X126622380Y-59719285D02*
X126622380Y-60290714D01*
X126622380Y-60005000D02*
X125622380Y-60005000D01*
X125765238Y-60100238D01*
X125860476Y-60195476D01*
X125908095Y-60290714D01*
X191115714Y-88576904D02*
X191115714Y-88195952D01*
X191782380Y-88434047D02*
X190925238Y-88434047D01*
X190830000Y-88386428D01*
X190782380Y-88291190D01*
X190782380Y-88195952D01*
X191782380Y-87434047D02*
X191258571Y-87434047D01*
X191163333Y-87481666D01*
X191115714Y-87576904D01*
X191115714Y-87767380D01*
X191163333Y-87862619D01*
X191734761Y-87434047D02*
X191782380Y-87529285D01*
X191782380Y-87767380D01*
X191734761Y-87862619D01*
X191639523Y-87910238D01*
X191544285Y-87910238D01*
X191449047Y-87862619D01*
X191401428Y-87767380D01*
X191401428Y-87529285D01*
X191353809Y-87434047D01*
X191782380Y-86815000D02*
X191734761Y-86910238D01*
X191639523Y-86957857D01*
X190782380Y-86957857D01*
X191782380Y-86291190D02*
X191734761Y-86386428D01*
X191639523Y-86434047D01*
X190782380Y-86434047D01*
X191687142Y-85338809D02*
X191734761Y-85386428D01*
X191782380Y-85529285D01*
X191782380Y-85624523D01*
X191734761Y-85767380D01*
X191639523Y-85862619D01*
X191544285Y-85910238D01*
X191353809Y-85957857D01*
X191210952Y-85957857D01*
X191020476Y-85910238D01*
X190925238Y-85862619D01*
X190830000Y-85767380D01*
X190782380Y-85624523D01*
X190782380Y-85529285D01*
X190830000Y-85386428D01*
X190877619Y-85338809D01*
X191115714Y-85005476D02*
X191782380Y-84767380D01*
X191115714Y-84529285D01*
X191782380Y-84148333D02*
X190782380Y-84148333D01*
X190782380Y-83767380D01*
X190830000Y-83672142D01*
X190877619Y-83624523D01*
X190972857Y-83576904D01*
X191115714Y-83576904D01*
X191210952Y-83624523D01*
X191258571Y-83672142D01*
X191306190Y-83767380D01*
X191306190Y-84148333D01*
X191782380Y-83005476D02*
X191734761Y-83100714D01*
X191687142Y-83148333D01*
X191591904Y-83195952D01*
X191306190Y-83195952D01*
X191210952Y-83148333D01*
X191163333Y-83100714D01*
X191115714Y-83005476D01*
X191115714Y-82862619D01*
X191163333Y-82767380D01*
X191210952Y-82719761D01*
X191306190Y-82672142D01*
X191591904Y-82672142D01*
X191687142Y-82719761D01*
X191734761Y-82767380D01*
X191782380Y-82862619D01*
X191782380Y-83005476D01*
X191115714Y-82386428D02*
X191115714Y-82005476D01*
X190782380Y-82243571D02*
X191639523Y-82243571D01*
X191734761Y-82195952D01*
X191782380Y-82100714D01*
X191782380Y-82005476D01*
X190877619Y-81719761D02*
X190830000Y-81672142D01*
X190782380Y-81576904D01*
X190782380Y-81338809D01*
X190830000Y-81243571D01*
X190877619Y-81195952D01*
X190972857Y-81148333D01*
X191068095Y-81148333D01*
X191210952Y-81195952D01*
X191782380Y-81767380D01*
X191782380Y-81148333D01*
X140315714Y-88576904D02*
X140315714Y-88195952D01*
X140982380Y-88434047D02*
X140125238Y-88434047D01*
X140030000Y-88386428D01*
X139982380Y-88291190D01*
X139982380Y-88195952D01*
X140982380Y-87434047D02*
X140458571Y-87434047D01*
X140363333Y-87481666D01*
X140315714Y-87576904D01*
X140315714Y-87767380D01*
X140363333Y-87862619D01*
X140934761Y-87434047D02*
X140982380Y-87529285D01*
X140982380Y-87767380D01*
X140934761Y-87862619D01*
X140839523Y-87910238D01*
X140744285Y-87910238D01*
X140649047Y-87862619D01*
X140601428Y-87767380D01*
X140601428Y-87529285D01*
X140553809Y-87434047D01*
X140982380Y-86815000D02*
X140934761Y-86910238D01*
X140839523Y-86957857D01*
X139982380Y-86957857D01*
X140982380Y-86291190D02*
X140934761Y-86386428D01*
X140839523Y-86434047D01*
X139982380Y-86434047D01*
X140887142Y-85338809D02*
X140934761Y-85386428D01*
X140982380Y-85529285D01*
X140982380Y-85624523D01*
X140934761Y-85767380D01*
X140839523Y-85862619D01*
X140744285Y-85910238D01*
X140553809Y-85957857D01*
X140410952Y-85957857D01*
X140220476Y-85910238D01*
X140125238Y-85862619D01*
X140030000Y-85767380D01*
X139982380Y-85624523D01*
X139982380Y-85529285D01*
X140030000Y-85386428D01*
X140077619Y-85338809D01*
X140315714Y-85005476D02*
X140982380Y-84767380D01*
X140315714Y-84529285D01*
X140982380Y-84148333D02*
X139982380Y-84148333D01*
X139982380Y-83767380D01*
X140030000Y-83672142D01*
X140077619Y-83624523D01*
X140172857Y-83576904D01*
X140315714Y-83576904D01*
X140410952Y-83624523D01*
X140458571Y-83672142D01*
X140506190Y-83767380D01*
X140506190Y-84148333D01*
X140982380Y-83005476D02*
X140934761Y-83100714D01*
X140887142Y-83148333D01*
X140791904Y-83195952D01*
X140506190Y-83195952D01*
X140410952Y-83148333D01*
X140363333Y-83100714D01*
X140315714Y-83005476D01*
X140315714Y-82862619D01*
X140363333Y-82767380D01*
X140410952Y-82719761D01*
X140506190Y-82672142D01*
X140791904Y-82672142D01*
X140887142Y-82719761D01*
X140934761Y-82767380D01*
X140982380Y-82862619D01*
X140982380Y-83005476D01*
X140315714Y-82386428D02*
X140315714Y-82005476D01*
X139982380Y-82243571D02*
X140839523Y-82243571D01*
X140934761Y-82195952D01*
X140982380Y-82100714D01*
X140982380Y-82005476D01*
X140982380Y-81148333D02*
X140982380Y-81719761D01*
X140982380Y-81434047D02*
X139982380Y-81434047D01*
X140125238Y-81529285D01*
X140220476Y-81624523D01*
X140268095Y-81719761D01*
X139402380Y-106311666D02*
X138402380Y-106311666D01*
X138783333Y-106311666D02*
X138735714Y-106216428D01*
X138735714Y-106025952D01*
X138783333Y-105930714D01*
X138830952Y-105883095D01*
X138926190Y-105835476D01*
X139211904Y-105835476D01*
X139307142Y-105883095D01*
X139354761Y-105930714D01*
X139402380Y-106025952D01*
X139402380Y-106216428D01*
X139354761Y-106311666D01*
X139402380Y-104978333D02*
X138878571Y-104978333D01*
X138783333Y-105025952D01*
X138735714Y-105121190D01*
X138735714Y-105311666D01*
X138783333Y-105406904D01*
X139354761Y-104978333D02*
X139402380Y-105073571D01*
X139402380Y-105311666D01*
X139354761Y-105406904D01*
X139259523Y-105454523D01*
X139164285Y-105454523D01*
X139069047Y-105406904D01*
X139021428Y-105311666D01*
X139021428Y-105073571D01*
X138973809Y-104978333D01*
X139402380Y-104359285D02*
X139354761Y-104454523D01*
X139259523Y-104502142D01*
X138402380Y-104502142D01*
X139402380Y-103549761D02*
X138878571Y-103549761D01*
X138783333Y-103597380D01*
X138735714Y-103692619D01*
X138735714Y-103883095D01*
X138783333Y-103978333D01*
X139354761Y-103549761D02*
X139402380Y-103645000D01*
X139402380Y-103883095D01*
X139354761Y-103978333D01*
X139259523Y-104025952D01*
X139164285Y-104025952D01*
X139069047Y-103978333D01*
X139021428Y-103883095D01*
X139021428Y-103645000D01*
X138973809Y-103549761D01*
X138735714Y-103073571D02*
X139402380Y-103073571D01*
X138830952Y-103073571D02*
X138783333Y-103025952D01*
X138735714Y-102930714D01*
X138735714Y-102787857D01*
X138783333Y-102692619D01*
X138878571Y-102645000D01*
X139402380Y-102645000D01*
X139354761Y-101740238D02*
X139402380Y-101835476D01*
X139402380Y-102025952D01*
X139354761Y-102121190D01*
X139307142Y-102168809D01*
X139211904Y-102216428D01*
X138926190Y-102216428D01*
X138830952Y-102168809D01*
X138783333Y-102121190D01*
X138735714Y-102025952D01*
X138735714Y-101835476D01*
X138783333Y-101740238D01*
X139354761Y-100930714D02*
X139402380Y-101025952D01*
X139402380Y-101216428D01*
X139354761Y-101311666D01*
X139259523Y-101359285D01*
X138878571Y-101359285D01*
X138783333Y-101311666D01*
X138735714Y-101216428D01*
X138735714Y-101025952D01*
X138783333Y-100930714D01*
X138878571Y-100883095D01*
X138973809Y-100883095D01*
X139069047Y-101359285D01*
X139402380Y-99930714D02*
X139402380Y-100502142D01*
X139402380Y-100216428D02*
X138402380Y-100216428D01*
X138545238Y-100311666D01*
X138640476Y-100406904D01*
X138688095Y-100502142D01*
X170711904Y-113252380D02*
X170711904Y-112252380D01*
X171092857Y-112252380D01*
X171188095Y-112300000D01*
X171235714Y-112347619D01*
X171283333Y-112442857D01*
X171283333Y-112585714D01*
X171235714Y-112680952D01*
X171188095Y-112728571D01*
X171092857Y-112776190D01*
X170711904Y-112776190D01*
X172140476Y-112252380D02*
X171950000Y-112252380D01*
X171854761Y-112300000D01*
X171807142Y-112347619D01*
X171711904Y-112490476D01*
X171664285Y-112680952D01*
X171664285Y-113061904D01*
X171711904Y-113157142D01*
X171759523Y-113204761D01*
X171854761Y-113252380D01*
X172045238Y-113252380D01*
X172140476Y-113204761D01*
X172188095Y-113157142D01*
X172235714Y-113061904D01*
X172235714Y-112823809D01*
X172188095Y-112728571D01*
X172140476Y-112680952D01*
X172045238Y-112633333D01*
X171854761Y-112633333D01*
X171759523Y-112680952D01*
X171711904Y-112728571D01*
X171664285Y-112823809D01*
X119911904Y-113252380D02*
X119911904Y-112252380D01*
X120292857Y-112252380D01*
X120388095Y-112300000D01*
X120435714Y-112347619D01*
X120483333Y-112442857D01*
X120483333Y-112585714D01*
X120435714Y-112680952D01*
X120388095Y-112728571D01*
X120292857Y-112776190D01*
X119911904Y-112776190D01*
X121388095Y-112252380D02*
X120911904Y-112252380D01*
X120864285Y-112728571D01*
X120911904Y-112680952D01*
X121007142Y-112633333D01*
X121245238Y-112633333D01*
X121340476Y-112680952D01*
X121388095Y-112728571D01*
X121435714Y-112823809D01*
X121435714Y-113061904D01*
X121388095Y-113157142D01*
X121340476Y-113204761D01*
X121245238Y-113252380D01*
X121007142Y-113252380D01*
X120911904Y-113204761D01*
X120864285Y-113157142D01*
X121523333Y-61412380D02*
X121428095Y-61364761D01*
X121380476Y-61269523D01*
X121380476Y-60412380D01*
X122285238Y-61364761D02*
X122190000Y-61412380D01*
X121999523Y-61412380D01*
X121904285Y-61364761D01*
X121856666Y-61269523D01*
X121856666Y-60888571D01*
X121904285Y-60793333D01*
X121999523Y-60745714D01*
X122190000Y-60745714D01*
X122285238Y-60793333D01*
X122332857Y-60888571D01*
X122332857Y-60983809D01*
X121856666Y-61079047D01*
X123190000Y-61412380D02*
X123190000Y-60412380D01*
X123190000Y-61364761D02*
X123094761Y-61412380D01*
X122904285Y-61412380D01*
X122809047Y-61364761D01*
X122761428Y-61317142D01*
X122713809Y-61221904D01*
X122713809Y-60936190D01*
X122761428Y-60840952D01*
X122809047Y-60793333D01*
X122904285Y-60745714D01*
X123094761Y-60745714D01*
X123190000Y-60793333D01*
X123999523Y-60888571D02*
X123666190Y-60888571D01*
X123666190Y-61412380D02*
X123666190Y-60412380D01*
X124142380Y-60412380D01*
X125047142Y-61412380D02*
X124475714Y-61412380D01*
X124761428Y-61412380D02*
X124761428Y-60412380D01*
X124666190Y-60555238D01*
X124570952Y-60650476D01*
X124475714Y-60698095D01*
X119968095Y-59342380D02*
X119968095Y-58342380D01*
X120539523Y-59342380D02*
X120110952Y-58770952D01*
X120539523Y-58342380D02*
X119968095Y-58913809D01*
X172323333Y-61412380D02*
X172228095Y-61364761D01*
X172180476Y-61269523D01*
X172180476Y-60412380D01*
X173085238Y-61364761D02*
X172990000Y-61412380D01*
X172799523Y-61412380D01*
X172704285Y-61364761D01*
X172656666Y-61269523D01*
X172656666Y-60888571D01*
X172704285Y-60793333D01*
X172799523Y-60745714D01*
X172990000Y-60745714D01*
X173085238Y-60793333D01*
X173132857Y-60888571D01*
X173132857Y-60983809D01*
X172656666Y-61079047D01*
X173990000Y-61412380D02*
X173990000Y-60412380D01*
X173990000Y-61364761D02*
X173894761Y-61412380D01*
X173704285Y-61412380D01*
X173609047Y-61364761D01*
X173561428Y-61317142D01*
X173513809Y-61221904D01*
X173513809Y-60936190D01*
X173561428Y-60840952D01*
X173609047Y-60793333D01*
X173704285Y-60745714D01*
X173894761Y-60745714D01*
X173990000Y-60793333D01*
X174799523Y-60888571D02*
X174466190Y-60888571D01*
X174466190Y-61412380D02*
X174466190Y-60412380D01*
X174942380Y-60412380D01*
X175275714Y-60507619D02*
X175323333Y-60460000D01*
X175418571Y-60412380D01*
X175656666Y-60412380D01*
X175751904Y-60460000D01*
X175799523Y-60507619D01*
X175847142Y-60602857D01*
X175847142Y-60698095D01*
X175799523Y-60840952D01*
X175228095Y-61412380D01*
X175847142Y-61412380D01*
X170768095Y-59342380D02*
X170768095Y-58342380D01*
X171339523Y-59342380D02*
X170910952Y-58770952D01*
X171339523Y-58342380D02*
X170768095Y-58913809D01*
X116371904Y-61412380D02*
X116276666Y-61364761D01*
X116229047Y-61269523D01*
X116229047Y-60412380D01*
X117133809Y-61364761D02*
X117038571Y-61412380D01*
X116848095Y-61412380D01*
X116752857Y-61364761D01*
X116705238Y-61269523D01*
X116705238Y-60888571D01*
X116752857Y-60793333D01*
X116848095Y-60745714D01*
X117038571Y-60745714D01*
X117133809Y-60793333D01*
X117181428Y-60888571D01*
X117181428Y-60983809D01*
X116705238Y-61079047D01*
X118038571Y-61412380D02*
X118038571Y-60412380D01*
X118038571Y-61364761D02*
X117943333Y-61412380D01*
X117752857Y-61412380D01*
X117657619Y-61364761D01*
X117610000Y-61317142D01*
X117562380Y-61221904D01*
X117562380Y-60936190D01*
X117610000Y-60840952D01*
X117657619Y-60793333D01*
X117752857Y-60745714D01*
X117943333Y-60745714D01*
X118038571Y-60793333D01*
X119086190Y-61412380D02*
X118752857Y-60936190D01*
X118514761Y-61412380D02*
X118514761Y-60412380D01*
X118895714Y-60412380D01*
X118990952Y-60460000D01*
X119038571Y-60507619D01*
X119086190Y-60602857D01*
X119086190Y-60745714D01*
X119038571Y-60840952D01*
X118990952Y-60888571D01*
X118895714Y-60936190D01*
X118514761Y-60936190D01*
X120038571Y-61412380D02*
X119467142Y-61412380D01*
X119752857Y-61412380D02*
X119752857Y-60412380D01*
X119657619Y-60555238D01*
X119562380Y-60650476D01*
X119467142Y-60698095D01*
X120808095Y-55862380D02*
X120808095Y-54862380D01*
X121379523Y-55862380D02*
X120950952Y-55290952D01*
X121379523Y-54862380D02*
X120808095Y-55433809D01*
X167171904Y-61412380D02*
X167076666Y-61364761D01*
X167029047Y-61269523D01*
X167029047Y-60412380D01*
X167933809Y-61364761D02*
X167838571Y-61412380D01*
X167648095Y-61412380D01*
X167552857Y-61364761D01*
X167505238Y-61269523D01*
X167505238Y-60888571D01*
X167552857Y-60793333D01*
X167648095Y-60745714D01*
X167838571Y-60745714D01*
X167933809Y-60793333D01*
X167981428Y-60888571D01*
X167981428Y-60983809D01*
X167505238Y-61079047D01*
X168838571Y-61412380D02*
X168838571Y-60412380D01*
X168838571Y-61364761D02*
X168743333Y-61412380D01*
X168552857Y-61412380D01*
X168457619Y-61364761D01*
X168410000Y-61317142D01*
X168362380Y-61221904D01*
X168362380Y-60936190D01*
X168410000Y-60840952D01*
X168457619Y-60793333D01*
X168552857Y-60745714D01*
X168743333Y-60745714D01*
X168838571Y-60793333D01*
X169886190Y-61412380D02*
X169552857Y-60936190D01*
X169314761Y-61412380D02*
X169314761Y-60412380D01*
X169695714Y-60412380D01*
X169790952Y-60460000D01*
X169838571Y-60507619D01*
X169886190Y-60602857D01*
X169886190Y-60745714D01*
X169838571Y-60840952D01*
X169790952Y-60888571D01*
X169695714Y-60936190D01*
X169314761Y-60936190D01*
X170267142Y-60507619D02*
X170314761Y-60460000D01*
X170410000Y-60412380D01*
X170648095Y-60412380D01*
X170743333Y-60460000D01*
X170790952Y-60507619D01*
X170838571Y-60602857D01*
X170838571Y-60698095D01*
X170790952Y-60840952D01*
X170219523Y-61412380D01*
X170838571Y-61412380D01*
X171608095Y-55862380D02*
X171608095Y-54862380D01*
X172179523Y-55862380D02*
X171750952Y-55290952D01*
X172179523Y-54862380D02*
X171608095Y-55433809D01*
X145311904Y-55522380D02*
X145311904Y-54522380D01*
X145692857Y-54522380D01*
X145788095Y-54570000D01*
X145835714Y-54617619D01*
X145883333Y-54712857D01*
X145883333Y-54855714D01*
X145835714Y-54950952D01*
X145788095Y-54998571D01*
X145692857Y-55046190D01*
X145311904Y-55046190D01*
X146216666Y-54522380D02*
X146883333Y-54522380D01*
X146454761Y-55522380D01*
%LPC*%
D16*
X101600000Y-98170000D03*
X101600000Y-107569000D03*
X101600000Y-102870000D03*
X190500000Y-98170000D03*
X190500000Y-107569000D03*
X190500000Y-102870000D03*
X120650000Y-68960000D03*
X120650000Y-78359000D03*
X120650000Y-73660000D03*
X171450000Y-68960000D03*
X171450000Y-78359000D03*
X171450000Y-73660000D03*
D17*
X150750000Y-73660000D03*
X141351000Y-73660000D03*
X146050000Y-73660000D03*
D18*
X173990000Y-86360000D03*
D19*
X171450000Y-88900000D03*
X168910000Y-86360000D03*
D18*
X123190000Y-86360000D03*
D19*
X120650000Y-88900000D03*
X118110000Y-86360000D03*
D18*
X158750000Y-97790000D03*
D19*
X161290000Y-95250000D03*
X163830000Y-97790000D03*
D18*
X107950000Y-97790000D03*
D19*
X110490000Y-95250000D03*
X113030000Y-97790000D03*
D18*
X179070000Y-97790000D03*
D19*
X181610000Y-95250000D03*
X184150000Y-97790000D03*
D18*
X128270000Y-97790000D03*
D19*
X130810000Y-95250000D03*
X133350000Y-97790000D03*
D20*
X190500000Y-126850000D03*
X190500000Y-129850000D03*
X190500000Y-138350000D03*
X101600000Y-126850000D03*
X101600000Y-129850000D03*
X101600000Y-138350000D03*
X165100000Y-111610000D03*
X165100000Y-114610000D03*
X165100000Y-123110000D03*
X114300000Y-111610000D03*
X114300000Y-114610000D03*
X114300000Y-123110000D03*
X165100000Y-142090000D03*
X165100000Y-145090000D03*
X165100000Y-153590000D03*
X114300000Y-142090000D03*
X114300000Y-145090000D03*
X114300000Y-153590000D03*
X152400000Y-142090000D03*
X152400000Y-145090000D03*
X152400000Y-153590000D03*
X139700000Y-142090000D03*
X139700000Y-145090000D03*
X139700000Y-153590000D03*
X139700000Y-111610000D03*
X139700000Y-114610000D03*
X139700000Y-123110000D03*
X152400000Y-111610000D03*
X152400000Y-114610000D03*
X152400000Y-123110000D03*
X139700000Y-126850000D03*
X139700000Y-129850000D03*
X139700000Y-138350000D03*
X177800000Y-126850000D03*
X177800000Y-129850000D03*
X177800000Y-138350000D03*
X114300000Y-126850000D03*
X114300000Y-129850000D03*
X114300000Y-138350000D03*
X177800000Y-111610000D03*
X177800000Y-114610000D03*
X177800000Y-123110000D03*
X127000000Y-111610000D03*
X127000000Y-114610000D03*
X127000000Y-123110000D03*
X177800000Y-142090000D03*
X177800000Y-145090000D03*
X177800000Y-153590000D03*
X127000000Y-142090000D03*
X127000000Y-145090000D03*
X127000000Y-153590000D03*
X190500000Y-111610000D03*
X190500000Y-114610000D03*
X190500000Y-123110000D03*
X101600000Y-111610000D03*
X101600000Y-114610000D03*
X101600000Y-123110000D03*
X190500000Y-142090000D03*
X190500000Y-145090000D03*
X190500000Y-153590000D03*
X101600000Y-142090000D03*
X101600000Y-145090000D03*
X101600000Y-153590000D03*
X165100000Y-126850000D03*
X165100000Y-129850000D03*
X165100000Y-138350000D03*
X127000000Y-126850000D03*
X127000000Y-129850000D03*
X127000000Y-138350000D03*
X152400000Y-126850000D03*
X152400000Y-129850000D03*
X152400000Y-138350000D03*
D21*
X173990000Y-93385000D03*
X171490000Y-93385000D03*
X168990000Y-93385000D03*
D22*
X176240000Y-103385000D03*
X166740000Y-103385000D03*
D21*
X168990000Y-95885000D03*
X171490000Y-95885000D03*
D23*
X173990000Y-95885000D03*
D21*
X123190000Y-93385000D03*
X120690000Y-93385000D03*
X118190000Y-93385000D03*
D22*
X125440000Y-103385000D03*
X115940000Y-103385000D03*
D21*
X118190000Y-95885000D03*
X120690000Y-95885000D03*
D23*
X123190000Y-95885000D03*
D22*
X153910000Y-61715000D03*
X163510000Y-61715000D03*
D21*
X161210000Y-69215000D03*
X158710000Y-69215000D03*
D23*
X156210000Y-69215000D03*
D22*
X103110000Y-61715000D03*
X112710000Y-61715000D03*
D21*
X110410000Y-69215000D03*
X107910000Y-69215000D03*
D23*
X105410000Y-69215000D03*
D22*
X163590000Y-85605000D03*
X153990000Y-85605000D03*
D21*
X156290000Y-78105000D03*
X158790000Y-78105000D03*
D23*
X161290000Y-78105000D03*
D22*
X112790000Y-85605000D03*
X103190000Y-85605000D03*
D21*
X105490000Y-78105000D03*
X107990000Y-78105000D03*
D23*
X110490000Y-78105000D03*
D22*
X179310000Y-61715000D03*
X188910000Y-61715000D03*
D21*
X186610000Y-69215000D03*
X184110000Y-69215000D03*
D23*
X181610000Y-69215000D03*
D22*
X128510000Y-61715000D03*
X138110000Y-61715000D03*
D21*
X135810000Y-69215000D03*
X133310000Y-69215000D03*
D23*
X130810000Y-69215000D03*
D22*
X188990000Y-85605000D03*
X179390000Y-85605000D03*
D21*
X181690000Y-78105000D03*
X184190000Y-78105000D03*
D23*
X186690000Y-78105000D03*
D22*
X138190000Y-85605000D03*
X128590000Y-85605000D03*
D21*
X130890000Y-78105000D03*
X133390000Y-78105000D03*
D23*
X135890000Y-78105000D03*
D22*
X141290000Y-102355000D03*
X150890000Y-102355000D03*
D21*
X148590000Y-109855000D03*
X146090000Y-109855000D03*
D23*
X143590000Y-109855000D03*
D24*
X171450000Y-118110000D03*
D25*
X171450000Y-115570000D03*
D24*
X120650000Y-118110000D03*
D25*
X120650000Y-115570000D03*
D24*
X193040000Y-86360000D03*
X193040000Y-83820000D03*
X193040000Y-81280000D03*
X193040000Y-78740000D03*
X193040000Y-76200000D03*
X193040000Y-73660000D03*
X193040000Y-71120000D03*
X193040000Y-68580000D03*
X193040000Y-66040000D03*
X193040000Y-63500000D03*
X193040000Y-60960000D03*
D25*
X193040000Y-58420000D03*
D24*
X158750000Y-148590000D03*
X158750000Y-146050000D03*
X158750000Y-143510000D03*
X158750000Y-140970000D03*
X158750000Y-138430000D03*
X158750000Y-135890000D03*
X158750000Y-133350000D03*
X158750000Y-130810000D03*
X158750000Y-128270000D03*
D25*
X158750000Y-125730000D03*
D24*
X133350000Y-148590000D03*
X133350000Y-146050000D03*
X133350000Y-143510000D03*
X133350000Y-140970000D03*
X133350000Y-138430000D03*
X133350000Y-135890000D03*
X133350000Y-133350000D03*
X133350000Y-130810000D03*
X133350000Y-128270000D03*
D25*
X133350000Y-125730000D03*
D24*
X99060000Y-86360000D03*
X99060000Y-83820000D03*
X99060000Y-81280000D03*
X99060000Y-78740000D03*
X99060000Y-76200000D03*
X99060000Y-73660000D03*
X99060000Y-71120000D03*
X99060000Y-68580000D03*
X99060000Y-66040000D03*
X99060000Y-63500000D03*
X99060000Y-60960000D03*
D25*
X99060000Y-58420000D03*
D26*
X121920000Y-57150000D03*
D27*
X124460000Y-57150000D03*
D26*
X172720000Y-57150000D03*
D27*
X175260000Y-57150000D03*
D26*
X119380000Y-57150000D03*
D27*
X116840000Y-57150000D03*
D26*
X170180000Y-57150000D03*
D27*
X167640000Y-57150000D03*
D28*
X146050000Y-58420000D03*
M02*
