G04 #@! TF.GenerationSoftware,KiCad,Pcbnew,(5.1.5)-3*
G04 #@! TF.CreationDate,2020-07-18T15:36:03-05:00*
G04 #@! TF.ProjectId,Miasma_IO_smd,4d696173-6d61-45f4-994f-5f736d642e6b,rev?*
G04 #@! TF.SameCoordinates,Original*
G04 #@! TF.FileFunction,Soldermask,Top*
G04 #@! TF.FilePolarity,Negative*
%FSLAX46Y46*%
G04 Gerber Fmt 4.6, Leading zero omitted, Abs format (unit mm)*
G04 Created by KiCad (PCBNEW (5.1.5)-3) date 2020-07-18 15:36:03*
%MOMM*%
%LPD*%
G04 APERTURE LIST*
%ADD10O,3.810000X1.905000*%
%ADD11O,1.905000X3.810000*%
%ADD12R,1.222000X1.222000*%
%ADD13C,1.222000*%
%ADD14C,1.853200*%
%ADD15C,1.800000*%
%ADD16O,2.720000X3.240000*%
%ADD17R,1.800000X1.800000*%
%ADD18O,1.700000X1.700000*%
%ADD19R,1.700000X1.700000*%
%ADD20R,2.000000X2.000000*%
%ADD21C,2.000000*%
%ADD22C,4.700000*%
G04 APERTURE END LIST*
D10*
X101600000Y-98170000D03*
X101600000Y-107569000D03*
X101600000Y-102870000D03*
X190500000Y-98170000D03*
X190500000Y-107569000D03*
X190500000Y-102870000D03*
X120650000Y-68960000D03*
X120650000Y-78359000D03*
X120650000Y-73660000D03*
X171450000Y-68960000D03*
X171450000Y-78359000D03*
X171450000Y-73660000D03*
D11*
X150750000Y-73660000D03*
X141351000Y-73660000D03*
X146050000Y-73660000D03*
D12*
X173990000Y-86360000D03*
D13*
X171450000Y-88900000D03*
X168910000Y-86360000D03*
D12*
X123190000Y-86360000D03*
D13*
X120650000Y-88900000D03*
X118110000Y-86360000D03*
D12*
X158750000Y-97790000D03*
D13*
X161290000Y-95250000D03*
X163830000Y-97790000D03*
D12*
X107950000Y-97790000D03*
D13*
X110490000Y-95250000D03*
X113030000Y-97790000D03*
D12*
X179070000Y-97790000D03*
D13*
X181610000Y-95250000D03*
X184150000Y-97790000D03*
D12*
X128270000Y-97790000D03*
D13*
X130810000Y-95250000D03*
X133350000Y-97790000D03*
D14*
X190500000Y-126850000D03*
X190500000Y-129850000D03*
X190500000Y-138350000D03*
X101600000Y-126850000D03*
X101600000Y-129850000D03*
X101600000Y-138350000D03*
X165100000Y-111610000D03*
X165100000Y-114610000D03*
X165100000Y-123110000D03*
X114300000Y-111610000D03*
X114300000Y-114610000D03*
X114300000Y-123110000D03*
X165100000Y-142090000D03*
X165100000Y-145090000D03*
X165100000Y-153590000D03*
X114300000Y-142090000D03*
X114300000Y-145090000D03*
X114300000Y-153590000D03*
X152400000Y-142090000D03*
X152400000Y-145090000D03*
X152400000Y-153590000D03*
X139700000Y-142090000D03*
X139700000Y-145090000D03*
X139700000Y-153590000D03*
X139700000Y-111610000D03*
X139700000Y-114610000D03*
X139700000Y-123110000D03*
X152400000Y-111610000D03*
X152400000Y-114610000D03*
X152400000Y-123110000D03*
X139700000Y-126850000D03*
X139700000Y-129850000D03*
X139700000Y-138350000D03*
X177800000Y-126850000D03*
X177800000Y-129850000D03*
X177800000Y-138350000D03*
X114300000Y-126850000D03*
X114300000Y-129850000D03*
X114300000Y-138350000D03*
X177800000Y-111610000D03*
X177800000Y-114610000D03*
X177800000Y-123110000D03*
X127000000Y-111610000D03*
X127000000Y-114610000D03*
X127000000Y-123110000D03*
X177800000Y-142090000D03*
X177800000Y-145090000D03*
X177800000Y-153590000D03*
X127000000Y-142090000D03*
X127000000Y-145090000D03*
X127000000Y-153590000D03*
X190500000Y-111610000D03*
X190500000Y-114610000D03*
X190500000Y-123110000D03*
X101600000Y-111610000D03*
X101600000Y-114610000D03*
X101600000Y-123110000D03*
X190500000Y-142090000D03*
X190500000Y-145090000D03*
X190500000Y-153590000D03*
X101600000Y-142090000D03*
X101600000Y-145090000D03*
X101600000Y-153590000D03*
X165100000Y-126850000D03*
X165100000Y-129850000D03*
X165100000Y-138350000D03*
X127000000Y-126850000D03*
X127000000Y-129850000D03*
X127000000Y-138350000D03*
X152400000Y-126850000D03*
X152400000Y-129850000D03*
X152400000Y-138350000D03*
D15*
X173990000Y-93385000D03*
X171490000Y-93385000D03*
X168990000Y-93385000D03*
D16*
X176240000Y-103385000D03*
X166740000Y-103385000D03*
D15*
X168990000Y-95885000D03*
X171490000Y-95885000D03*
D17*
X173990000Y-95885000D03*
D15*
X123190000Y-93385000D03*
X120690000Y-93385000D03*
X118190000Y-93385000D03*
D16*
X125440000Y-103385000D03*
X115940000Y-103385000D03*
D15*
X118190000Y-95885000D03*
X120690000Y-95885000D03*
D17*
X123190000Y-95885000D03*
D16*
X153910000Y-61715000D03*
X163510000Y-61715000D03*
D15*
X161210000Y-69215000D03*
X158710000Y-69215000D03*
D17*
X156210000Y-69215000D03*
D16*
X103110000Y-61715000D03*
X112710000Y-61715000D03*
D15*
X110410000Y-69215000D03*
X107910000Y-69215000D03*
D17*
X105410000Y-69215000D03*
D16*
X163590000Y-85605000D03*
X153990000Y-85605000D03*
D15*
X156290000Y-78105000D03*
X158790000Y-78105000D03*
D17*
X161290000Y-78105000D03*
D16*
X112790000Y-85605000D03*
X103190000Y-85605000D03*
D15*
X105490000Y-78105000D03*
X107990000Y-78105000D03*
D17*
X110490000Y-78105000D03*
D16*
X179310000Y-61715000D03*
X188910000Y-61715000D03*
D15*
X186610000Y-69215000D03*
X184110000Y-69215000D03*
D17*
X181610000Y-69215000D03*
D16*
X128510000Y-61715000D03*
X138110000Y-61715000D03*
D15*
X135810000Y-69215000D03*
X133310000Y-69215000D03*
D17*
X130810000Y-69215000D03*
D16*
X188990000Y-85605000D03*
X179390000Y-85605000D03*
D15*
X181690000Y-78105000D03*
X184190000Y-78105000D03*
D17*
X186690000Y-78105000D03*
D16*
X138190000Y-85605000D03*
X128590000Y-85605000D03*
D15*
X130890000Y-78105000D03*
X133390000Y-78105000D03*
D17*
X135890000Y-78105000D03*
D16*
X141290000Y-102355000D03*
X150890000Y-102355000D03*
D15*
X148590000Y-109855000D03*
X146090000Y-109855000D03*
D17*
X143590000Y-109855000D03*
D18*
X171450000Y-118110000D03*
D19*
X171450000Y-115570000D03*
D18*
X120650000Y-118110000D03*
D19*
X120650000Y-115570000D03*
D18*
X193040000Y-86360000D03*
X193040000Y-83820000D03*
X193040000Y-81280000D03*
X193040000Y-78740000D03*
X193040000Y-76200000D03*
X193040000Y-73660000D03*
X193040000Y-71120000D03*
X193040000Y-68580000D03*
X193040000Y-66040000D03*
X193040000Y-63500000D03*
X193040000Y-60960000D03*
D19*
X193040000Y-58420000D03*
D18*
X158750000Y-148590000D03*
X158750000Y-146050000D03*
X158750000Y-143510000D03*
X158750000Y-140970000D03*
X158750000Y-138430000D03*
X158750000Y-135890000D03*
X158750000Y-133350000D03*
X158750000Y-130810000D03*
X158750000Y-128270000D03*
D19*
X158750000Y-125730000D03*
D18*
X133350000Y-148590000D03*
X133350000Y-146050000D03*
X133350000Y-143510000D03*
X133350000Y-140970000D03*
X133350000Y-138430000D03*
X133350000Y-135890000D03*
X133350000Y-133350000D03*
X133350000Y-130810000D03*
X133350000Y-128270000D03*
D19*
X133350000Y-125730000D03*
D18*
X99060000Y-86360000D03*
X99060000Y-83820000D03*
X99060000Y-81280000D03*
X99060000Y-78740000D03*
X99060000Y-76200000D03*
X99060000Y-73660000D03*
X99060000Y-71120000D03*
X99060000Y-68580000D03*
X99060000Y-66040000D03*
X99060000Y-63500000D03*
X99060000Y-60960000D03*
D19*
X99060000Y-58420000D03*
D20*
X121920000Y-57150000D03*
D21*
X124460000Y-57150000D03*
D20*
X172720000Y-57150000D03*
D21*
X175260000Y-57150000D03*
D20*
X119380000Y-57150000D03*
D21*
X116840000Y-57150000D03*
D20*
X170180000Y-57150000D03*
D21*
X167640000Y-57150000D03*
D22*
X146050000Y-58420000D03*
M02*
