M48
; DRILL file {KiCad (5.1.5)-3} date 5/10/2020 2:07:50 AM
; FORMAT={-:-/ absolute / inch / decimal}
; #@! TF.CreationDate,2020-05-10T02:07:50-05:00
; #@! TF.GenerationSoftware,Kicad,Pcbnew,(5.1.5)-3
; #@! TF.FileFunction,Plated,1,2,PTH
FMAT,2
INCH
T1C0.0200
T2C0.0281
T3C0.0394
T4C0.0394
T5C0.0433
T6C0.0500
T7C0.1063
%
G90
G05
T1
X3.9Y-5.4
X4.05Y-4.9
X4.1Y-2.6
X4.1Y-2.9
X4.15Y-3.6
X4.2Y-3.35
X4.25Y-2.45
X4.25Y-3.425
X4.25Y-4.85
X4.25Y-5.85
X4.3Y-3.7
X4.3Y-4.25
X4.35Y-2.6
X4.35Y-3.85
X4.4Y-2.95
X4.45Y-4.35
X4.5Y-2.9
X4.55Y-3.2
X4.75Y-5.075
X4.75Y-5.25
X4.925Y-3.05
X4.925Y-5.35
X5.05Y-4.2
X5.1Y-3.7
X5.15Y-3.35
X5.15Y-3.55
X5.25Y-2.45
X5.25Y-3.7
X5.3Y-4.0
X5.3Y-4.15
X5.35Y-3.7
X5.5Y-4.15
X5.55Y-3.1
X5.6Y-3.85
X5.65Y-3.4
X5.7Y-3.7
X5.75Y-2.6
X5.8Y-4.15
X5.85Y-3.4
X5.9Y-3.85
X5.95Y-3.1
X6.15Y-3.35
X6.15Y-3.7
X6.15Y-4.25
X6.25Y-2.45
X6.25Y-3.7
X6.3Y-3.95
X6.4Y-3.55
X6.45Y-3.75
X6.45Y-4.2
X6.575Y-3.05
X6.575Y-5.35
X6.75Y-5.075
X6.75Y-5.25
X6.75Y-5.55
X6.9Y-3.2
X6.9Y-3.95
X7.0Y-2.9
X7.0Y-3.6
X7.05Y-3.95
X7.05Y-4.35
X7.1Y-2.95
X7.15Y-3.35
X7.15Y-3.55
X7.15Y-3.85
X7.25Y-2.45
X7.25Y-4.85
X7.25Y-5.85
X7.3Y-2.6
X7.3Y-4.25
X7.35Y-3.7
X7.4Y-2.9
X7.45Y-4.9
X7.6Y-5.4
T2
X4.25Y-3.85
X4.35Y-3.75
X4.45Y-3.85
X7.05Y-3.85
X7.15Y-3.75
X7.25Y-3.85
X5.05Y-3.85
X5.15Y-3.75
X5.25Y-3.85
X6.25Y-3.85
X6.35Y-3.75
X6.45Y-3.85
X4.65Y-3.4
X4.75Y-3.5
X4.85Y-3.4
X6.65Y-3.4
X6.75Y-3.5
X6.85Y-3.4
T3
X7.15Y-2.725
X7.2484Y-2.725
X7.3469Y-2.725
X7.6Y-2.3
X7.6Y-2.4
X7.6Y-2.5
X7.6Y-2.6
X7.6Y-2.7
X7.6Y-2.8
X7.6Y-2.9
X7.6Y-3.0
X7.6Y-3.1
X7.6Y-3.2
X7.6Y-3.3
X7.6Y-3.4
X4.1531Y-3.075
X4.2516Y-3.075
X4.35Y-3.075
X6.1531Y-3.075
X6.2516Y-3.075
X6.35Y-3.075
X4.15Y-2.725
X4.2484Y-2.725
X4.3469Y-2.725
X6.25Y-4.95
X6.25Y-5.05
X6.25Y-5.15
X6.25Y-5.25
X6.25Y-5.35
X6.25Y-5.45
X6.25Y-5.55
X6.25Y-5.65
X6.25Y-5.75
X6.25Y-5.85
X6.75Y-4.55
X6.75Y-4.65
X5.6531Y-4.325
X5.7516Y-4.325
X5.85Y-4.325
X6.15Y-2.725
X6.2484Y-2.725
X6.3469Y-2.725
X5.1531Y-3.075
X5.2516Y-3.075
X5.35Y-3.075
X4.6531Y-3.6766
X4.6531Y-3.775
X4.7516Y-3.6766
X4.7516Y-3.775
X4.85Y-3.6766
X4.85Y-3.775
X5.25Y-4.95
X5.25Y-5.05
X5.25Y-5.15
X5.25Y-5.25
X5.25Y-5.35
X5.25Y-5.45
X5.25Y-5.55
X5.25Y-5.65
X5.25Y-5.75
X5.25Y-5.85
X3.9Y-2.3
X3.9Y-2.4
X3.9Y-2.5
X3.9Y-2.6
X3.9Y-2.7
X3.9Y-2.8
X3.9Y-2.9
X3.9Y-3.0
X3.9Y-3.1
X3.9Y-3.2
X3.9Y-3.3
X3.9Y-3.4
X7.1531Y-3.075
X7.2516Y-3.075
X7.35Y-3.075
X4.75Y-4.55
X4.75Y-4.65
X5.15Y-2.725
X5.2484Y-2.725
X5.3469Y-2.725
X6.6531Y-3.6766
X6.6531Y-3.775
X6.7516Y-3.6766
X6.7516Y-3.775
X6.85Y-3.6766
X6.85Y-3.775
T4
X6.6Y-2.25
X6.7Y-2.25
X4.6Y-2.25
X4.7Y-2.25
X4.8Y-2.25
X4.9Y-2.25
X6.8Y-2.25
X6.9Y-2.25
T5
X5.0Y-4.9941
X5.0Y-5.1122
X5.0Y-5.4469
X4.5Y-4.3941
X4.5Y-4.5122
X4.5Y-4.8469
X4.0Y-4.9941
X4.0Y-5.1122
X4.0Y-5.4469
X4.0Y-5.5941
X4.0Y-5.7122
X4.0Y-6.0469
X5.5Y-4.9941
X5.5Y-5.1122
X5.5Y-5.4469
X7.0Y-5.5941
X7.0Y-5.7122
X7.0Y-6.0469
X7.5Y-5.5941
X7.5Y-5.7122
X7.5Y-6.0469
X6.5Y-4.9941
X6.5Y-5.1122
X6.5Y-5.4469
X5.0Y-4.3941
X5.0Y-4.5122
X5.0Y-4.8469
X5.5Y-5.5941
X5.5Y-5.7122
X5.5Y-6.0469
X6.0Y-5.5941
X6.0Y-5.7122
X6.0Y-6.0469
X4.0Y-4.3941
X4.0Y-4.5122
X4.0Y-4.8469
X7.0Y-4.3941
X7.0Y-4.5122
X7.0Y-4.8469
X4.5Y-4.9941
X4.5Y-5.1122
X4.5Y-5.4469
X7.0Y-4.9941
X7.0Y-5.1122
X7.0Y-5.4469
X6.0Y-4.9941
X6.0Y-5.1122
X6.0Y-5.4469
X6.5Y-4.3941
X6.5Y-4.5122
X6.5Y-4.8469
X6.0Y-4.3941
X6.0Y-4.5122
X6.0Y-4.8469
X5.5Y-4.3941
X5.5Y-4.5122
X5.5Y-4.8469
X7.5Y-4.3941
X7.5Y-4.5122
X7.5Y-4.8469
X4.5Y-5.5941
X4.5Y-5.7122
X4.5Y-6.0469
X7.5Y-4.9941
X7.5Y-5.1122
X7.5Y-5.4469
X6.5Y-5.5941
X6.5Y-5.7122
X6.5Y-6.0469
X5.0Y-5.5941
X5.0Y-5.7122
X5.0Y-6.0469
T7
X5.75Y-2.3
T5
G00X5.5626Y-4.0435
M15
G01X5.5626Y-4.0159
M16
G05
G00X5.9406Y-4.0435
M15
G01X5.9406Y-4.0159
M16
G05
G00X6.0594Y-2.4435
M15
G01X6.0594Y-2.4159
M16
G05
G00X6.4374Y-2.4435
M15
G01X6.4374Y-2.4159
M16
G05
G00X5.0626Y-3.3565
M15
G01X5.0626Y-3.3841
M16
G05
G00X5.4406Y-3.3565
M15
G01X5.4406Y-3.3841
M16
G05
G00X4.5646Y-4.0565
M15
G01X4.5646Y-4.0841
M16
G05
G00X4.9386Y-4.0565
M15
G01X4.9386Y-4.0841
M16
G05
G00X7.0626Y-3.3565
M15
G01X7.0626Y-3.3841
M16
G05
G00X7.4406Y-3.3565
M15
G01X7.4406Y-3.3841
M16
G05
G00X5.0594Y-2.4435
M15
G01X5.0594Y-2.4159
M16
G05
G00X5.4374Y-2.4435
M15
G01X5.4374Y-2.4159
M16
G05
G00X6.5646Y-4.0565
M15
G01X6.5646Y-4.0841
M16
G05
G00X6.9386Y-4.0565
M15
G01X6.9386Y-4.0841
M16
G05
G00X7.0594Y-2.4435
M15
G01X7.0594Y-2.4159
M16
G05
G00X7.4374Y-2.4435
M15
G01X7.4374Y-2.4159
M16
G05
G00X4.0626Y-3.3565
M15
G01X4.0626Y-3.3841
M16
G05
G00X4.4406Y-3.3565
M15
G01X4.4406Y-3.3841
M16
G05
G00X6.0626Y-3.3565
M15
G01X6.0626Y-3.3841
M16
G05
G00X6.4406Y-3.3565
M15
G01X6.4406Y-3.3841
M16
G05
G00X4.0594Y-2.4435
M15
G01X4.0594Y-2.4159
M16
G05
G00X4.4374Y-2.4435
M15
G01X4.4374Y-2.4159
M16
G05
T6
G00X6.7125Y-2.715
M15
G01X6.7875Y-2.715
M16
G05
G00X6.7125Y-2.9
M15
G01X6.7875Y-2.9
M16
G05
G00X6.7125Y-3.085
M15
G01X6.7875Y-3.085
M16
G05
G00X5.565Y-2.8625
M15
G01X5.565Y-2.9375
M16
G05
G00X5.75Y-2.8625
M15
G01X5.75Y-2.9375
M16
G05
G00X5.935Y-2.8625
M15
G01X5.935Y-2.9375
M16
G05
G00X4.7125Y-2.715
M15
G01X4.7875Y-2.715
M16
G05
G00X4.7125Y-2.9
M15
G01X4.7875Y-2.9
M16
G05
G00X4.7125Y-3.085
M15
G01X4.7875Y-3.085
M16
G05
G00X3.9625Y-3.865
M15
G01X4.0375Y-3.865
M16
G05
G00X3.9625Y-4.05
M15
G01X4.0375Y-4.05
M16
G05
G00X3.9625Y-4.235
M15
G01X4.0375Y-4.235
M16
G05
G00X7.4625Y-3.865
M15
G01X7.5375Y-3.865
M16
G05
G00X7.4625Y-4.05
M15
G01X7.5375Y-4.05
M16
G05
G00X7.4625Y-4.235
M15
G01X7.5375Y-4.235
M16
G05
T0
M30
