G04 #@! TF.FileFunction,Soldermask,Top*
%FSLAX46Y46*%
G04 Gerber Fmt 4.6, Leading zero omitted, Abs format (unit mm)*
G04 Created by KiCad (PCBNEW 4.0.1-stable) date 10/15/2018 9:36:44 PM*
%MOMM*%
G01*
G04 APERTURE LIST*
%ADD10C,0.100000*%
%ADD11C,4.175000*%
%ADD12C,7.350000*%
%ADD13C,8.012000*%
%ADD14C,4.210000*%
%ADD15C,7.096000*%
G04 APERTURE END LIST*
D10*
D11*
X134620000Y-92710000D03*
X129540000Y-92710000D03*
X83820000Y-92710000D03*
D12*
X81280000Y-109220000D03*
X106680000Y-109220000D03*
X132080000Y-109220000D03*
X151130000Y-138430000D03*
D13*
X132080000Y-138430000D03*
X144780000Y-120650000D03*
X119380000Y-120650000D03*
X93980000Y-120650000D03*
X68580000Y-120650000D03*
X144780000Y-97790000D03*
X119380000Y-97790000D03*
X93980000Y-97790000D03*
X68580000Y-97790000D03*
X81280000Y-138430000D03*
D14*
X63500000Y-199644000D03*
X149860000Y-199644000D03*
X149860000Y-77216000D03*
D15*
X151130000Y-184150000D03*
X138430000Y-184150000D03*
X125730000Y-184150000D03*
X113030000Y-184150000D03*
X100330000Y-184150000D03*
X87630000Y-184150000D03*
X74930000Y-184150000D03*
X62230000Y-184150000D03*
X151130000Y-168910000D03*
X138430000Y-168910000D03*
X125730000Y-168910000D03*
X113030000Y-168910000D03*
X100330000Y-168910000D03*
X87630000Y-168910000D03*
X74930000Y-168910000D03*
X62230000Y-168910000D03*
X151130000Y-153670000D03*
X138430000Y-153670000D03*
X125730000Y-153670000D03*
X113030000Y-153670000D03*
X100330000Y-153670000D03*
X87630000Y-153670000D03*
X74930000Y-153670000D03*
X62230000Y-153670000D03*
D14*
X63500000Y-77216000D03*
D13*
X106680000Y-138430000D03*
D12*
X62230000Y-138430000D03*
D11*
X78740000Y-92710000D03*
M02*
