G04 #@! TF.FileFunction,Copper,L1,Top,Signal*
%FSLAX46Y46*%
G04 Gerber Fmt 4.6, Leading zero omitted, Abs format (unit mm)*
G04 Created by KiCad (PCBNEW 4.0.1-stable) date 10/15/2018 9:36:44 PM*
%MOMM*%
G01*
G04 APERTURE LIST*
%ADD10C,0.100000*%
%ADD11C,3.775000*%
%ADD12C,6.950000*%
%ADD13C,7.612000*%
%ADD14C,3.810000*%
%ADD15C,6.696000*%
%ADD16C,0.254000*%
G04 APERTURE END LIST*
D10*
D11*
X134620000Y-92710000D03*
X129540000Y-92710000D03*
X83820000Y-92710000D03*
D12*
X81280000Y-109220000D03*
X106680000Y-109220000D03*
X132080000Y-109220000D03*
X151130000Y-138430000D03*
D13*
X132080000Y-138430000D03*
X144780000Y-120650000D03*
X119380000Y-120650000D03*
X93980000Y-120650000D03*
X68580000Y-120650000D03*
X144780000Y-97790000D03*
X119380000Y-97790000D03*
X93980000Y-97790000D03*
X68580000Y-97790000D03*
X81280000Y-138430000D03*
D14*
X63500000Y-199644000D03*
X149860000Y-199644000D03*
X149860000Y-77216000D03*
D15*
X151130000Y-184150000D03*
X138430000Y-184150000D03*
X125730000Y-184150000D03*
X113030000Y-184150000D03*
X100330000Y-184150000D03*
X87630000Y-184150000D03*
X74930000Y-184150000D03*
X62230000Y-184150000D03*
X151130000Y-168910000D03*
X138430000Y-168910000D03*
X125730000Y-168910000D03*
X113030000Y-168910000D03*
X100330000Y-168910000D03*
X87630000Y-168910000D03*
X74930000Y-168910000D03*
X62230000Y-168910000D03*
X151130000Y-153670000D03*
X138430000Y-153670000D03*
X125730000Y-153670000D03*
X113030000Y-153670000D03*
X100330000Y-153670000D03*
X87630000Y-153670000D03*
X74930000Y-153670000D03*
X62230000Y-153670000D03*
D14*
X63500000Y-77216000D03*
D13*
X106680000Y-138430000D03*
D12*
X62230000Y-138430000D03*
D11*
X78740000Y-92710000D03*
D16*
G36*
X157024000Y-202236000D02*
X56336000Y-202236000D01*
X56336000Y-200096719D01*
X61213604Y-200096719D01*
X61560894Y-200937223D01*
X62203395Y-201580846D01*
X63043292Y-201929602D01*
X63952719Y-201930396D01*
X64793223Y-201583106D01*
X65436846Y-200940605D01*
X65785602Y-200100708D01*
X65785605Y-200096719D01*
X147573604Y-200096719D01*
X147920894Y-200937223D01*
X148563395Y-201580846D01*
X149403292Y-201929602D01*
X150312719Y-201930396D01*
X151153223Y-201583106D01*
X151796846Y-200940605D01*
X152145602Y-200100708D01*
X152146396Y-199191281D01*
X151799106Y-198350777D01*
X151156605Y-197707154D01*
X150316708Y-197358398D01*
X149407281Y-197357604D01*
X148566777Y-197704894D01*
X147923154Y-198347395D01*
X147574398Y-199187292D01*
X147573604Y-200096719D01*
X65785605Y-200096719D01*
X65786396Y-199191281D01*
X65439106Y-198350777D01*
X64796605Y-197707154D01*
X63956708Y-197358398D01*
X63047281Y-197357604D01*
X62206777Y-197704894D01*
X61563154Y-198347395D01*
X61214398Y-199187292D01*
X61213604Y-200096719D01*
X56336000Y-200096719D01*
X56336000Y-184888490D01*
X58500355Y-184888490D01*
X59066865Y-186259549D01*
X60114933Y-187309449D01*
X61485002Y-187878351D01*
X62968490Y-187879645D01*
X64339549Y-187313135D01*
X65389449Y-186265067D01*
X65958351Y-184894998D01*
X65958356Y-184888490D01*
X71200355Y-184888490D01*
X71766865Y-186259549D01*
X72814933Y-187309449D01*
X74185002Y-187878351D01*
X75668490Y-187879645D01*
X77039549Y-187313135D01*
X78089449Y-186265067D01*
X78658351Y-184894998D01*
X78658356Y-184888490D01*
X83900355Y-184888490D01*
X84466865Y-186259549D01*
X85514933Y-187309449D01*
X86885002Y-187878351D01*
X88368490Y-187879645D01*
X89739549Y-187313135D01*
X90789449Y-186265067D01*
X91358351Y-184894998D01*
X91358356Y-184888490D01*
X96600355Y-184888490D01*
X97166865Y-186259549D01*
X98214933Y-187309449D01*
X99585002Y-187878351D01*
X101068490Y-187879645D01*
X102439549Y-187313135D01*
X103489449Y-186265067D01*
X104058351Y-184894998D01*
X104058356Y-184888490D01*
X109300355Y-184888490D01*
X109866865Y-186259549D01*
X110914933Y-187309449D01*
X112285002Y-187878351D01*
X113768490Y-187879645D01*
X115139549Y-187313135D01*
X116189449Y-186265067D01*
X116758351Y-184894998D01*
X116758356Y-184888490D01*
X122000355Y-184888490D01*
X122566865Y-186259549D01*
X123614933Y-187309449D01*
X124985002Y-187878351D01*
X126468490Y-187879645D01*
X127839549Y-187313135D01*
X128889449Y-186265067D01*
X129458351Y-184894998D01*
X129458356Y-184888490D01*
X134700355Y-184888490D01*
X135266865Y-186259549D01*
X136314933Y-187309449D01*
X137685002Y-187878351D01*
X139168490Y-187879645D01*
X140539549Y-187313135D01*
X141589449Y-186265067D01*
X142158351Y-184894998D01*
X142158356Y-184888490D01*
X147400355Y-184888490D01*
X147966865Y-186259549D01*
X149014933Y-187309449D01*
X150385002Y-187878351D01*
X151868490Y-187879645D01*
X153239549Y-187313135D01*
X154289449Y-186265067D01*
X154858351Y-184894998D01*
X154859645Y-183411510D01*
X154293135Y-182040451D01*
X153245067Y-180990551D01*
X151874998Y-180421649D01*
X150391510Y-180420355D01*
X149020451Y-180986865D01*
X147970551Y-182034933D01*
X147401649Y-183405002D01*
X147400355Y-184888490D01*
X142158356Y-184888490D01*
X142159645Y-183411510D01*
X141593135Y-182040451D01*
X140545067Y-180990551D01*
X139174998Y-180421649D01*
X137691510Y-180420355D01*
X136320451Y-180986865D01*
X135270551Y-182034933D01*
X134701649Y-183405002D01*
X134700355Y-184888490D01*
X129458356Y-184888490D01*
X129459645Y-183411510D01*
X128893135Y-182040451D01*
X127845067Y-180990551D01*
X126474998Y-180421649D01*
X124991510Y-180420355D01*
X123620451Y-180986865D01*
X122570551Y-182034933D01*
X122001649Y-183405002D01*
X122000355Y-184888490D01*
X116758356Y-184888490D01*
X116759645Y-183411510D01*
X116193135Y-182040451D01*
X115145067Y-180990551D01*
X113774998Y-180421649D01*
X112291510Y-180420355D01*
X110920451Y-180986865D01*
X109870551Y-182034933D01*
X109301649Y-183405002D01*
X109300355Y-184888490D01*
X104058356Y-184888490D01*
X104059645Y-183411510D01*
X103493135Y-182040451D01*
X102445067Y-180990551D01*
X101074998Y-180421649D01*
X99591510Y-180420355D01*
X98220451Y-180986865D01*
X97170551Y-182034933D01*
X96601649Y-183405002D01*
X96600355Y-184888490D01*
X91358356Y-184888490D01*
X91359645Y-183411510D01*
X90793135Y-182040451D01*
X89745067Y-180990551D01*
X88374998Y-180421649D01*
X86891510Y-180420355D01*
X85520451Y-180986865D01*
X84470551Y-182034933D01*
X83901649Y-183405002D01*
X83900355Y-184888490D01*
X78658356Y-184888490D01*
X78659645Y-183411510D01*
X78093135Y-182040451D01*
X77045067Y-180990551D01*
X75674998Y-180421649D01*
X74191510Y-180420355D01*
X72820451Y-180986865D01*
X71770551Y-182034933D01*
X71201649Y-183405002D01*
X71200355Y-184888490D01*
X65958356Y-184888490D01*
X65959645Y-183411510D01*
X65393135Y-182040451D01*
X64345067Y-180990551D01*
X62974998Y-180421649D01*
X61491510Y-180420355D01*
X60120451Y-180986865D01*
X59070551Y-182034933D01*
X58501649Y-183405002D01*
X58500355Y-184888490D01*
X56336000Y-184888490D01*
X56336000Y-169648490D01*
X58500355Y-169648490D01*
X59066865Y-171019549D01*
X60114933Y-172069449D01*
X61485002Y-172638351D01*
X62968490Y-172639645D01*
X64339549Y-172073135D01*
X65389449Y-171025067D01*
X65958351Y-169654998D01*
X65958356Y-169648490D01*
X71200355Y-169648490D01*
X71766865Y-171019549D01*
X72814933Y-172069449D01*
X74185002Y-172638351D01*
X75668490Y-172639645D01*
X77039549Y-172073135D01*
X78089449Y-171025067D01*
X78658351Y-169654998D01*
X78658356Y-169648490D01*
X83900355Y-169648490D01*
X84466865Y-171019549D01*
X85514933Y-172069449D01*
X86885002Y-172638351D01*
X88368490Y-172639645D01*
X89739549Y-172073135D01*
X90789449Y-171025067D01*
X91358351Y-169654998D01*
X91358356Y-169648490D01*
X96600355Y-169648490D01*
X97166865Y-171019549D01*
X98214933Y-172069449D01*
X99585002Y-172638351D01*
X101068490Y-172639645D01*
X102439549Y-172073135D01*
X103489449Y-171025067D01*
X104058351Y-169654998D01*
X104058356Y-169648490D01*
X109300355Y-169648490D01*
X109866865Y-171019549D01*
X110914933Y-172069449D01*
X112285002Y-172638351D01*
X113768490Y-172639645D01*
X115139549Y-172073135D01*
X116189449Y-171025067D01*
X116758351Y-169654998D01*
X116758356Y-169648490D01*
X122000355Y-169648490D01*
X122566865Y-171019549D01*
X123614933Y-172069449D01*
X124985002Y-172638351D01*
X126468490Y-172639645D01*
X127839549Y-172073135D01*
X128889449Y-171025067D01*
X129458351Y-169654998D01*
X129458356Y-169648490D01*
X134700355Y-169648490D01*
X135266865Y-171019549D01*
X136314933Y-172069449D01*
X137685002Y-172638351D01*
X139168490Y-172639645D01*
X140539549Y-172073135D01*
X141589449Y-171025067D01*
X142158351Y-169654998D01*
X142158356Y-169648490D01*
X147400355Y-169648490D01*
X147966865Y-171019549D01*
X149014933Y-172069449D01*
X150385002Y-172638351D01*
X151868490Y-172639645D01*
X153239549Y-172073135D01*
X154289449Y-171025067D01*
X154858351Y-169654998D01*
X154859645Y-168171510D01*
X154293135Y-166800451D01*
X153245067Y-165750551D01*
X151874998Y-165181649D01*
X150391510Y-165180355D01*
X149020451Y-165746865D01*
X147970551Y-166794933D01*
X147401649Y-168165002D01*
X147400355Y-169648490D01*
X142158356Y-169648490D01*
X142159645Y-168171510D01*
X141593135Y-166800451D01*
X140545067Y-165750551D01*
X139174998Y-165181649D01*
X137691510Y-165180355D01*
X136320451Y-165746865D01*
X135270551Y-166794933D01*
X134701649Y-168165002D01*
X134700355Y-169648490D01*
X129458356Y-169648490D01*
X129459645Y-168171510D01*
X128893135Y-166800451D01*
X127845067Y-165750551D01*
X126474998Y-165181649D01*
X124991510Y-165180355D01*
X123620451Y-165746865D01*
X122570551Y-166794933D01*
X122001649Y-168165002D01*
X122000355Y-169648490D01*
X116758356Y-169648490D01*
X116759645Y-168171510D01*
X116193135Y-166800451D01*
X115145067Y-165750551D01*
X113774998Y-165181649D01*
X112291510Y-165180355D01*
X110920451Y-165746865D01*
X109870551Y-166794933D01*
X109301649Y-168165002D01*
X109300355Y-169648490D01*
X104058356Y-169648490D01*
X104059645Y-168171510D01*
X103493135Y-166800451D01*
X102445067Y-165750551D01*
X101074998Y-165181649D01*
X99591510Y-165180355D01*
X98220451Y-165746865D01*
X97170551Y-166794933D01*
X96601649Y-168165002D01*
X96600355Y-169648490D01*
X91358356Y-169648490D01*
X91359645Y-168171510D01*
X90793135Y-166800451D01*
X89745067Y-165750551D01*
X88374998Y-165181649D01*
X86891510Y-165180355D01*
X85520451Y-165746865D01*
X84470551Y-166794933D01*
X83901649Y-168165002D01*
X83900355Y-169648490D01*
X78658356Y-169648490D01*
X78659645Y-168171510D01*
X78093135Y-166800451D01*
X77045067Y-165750551D01*
X75674998Y-165181649D01*
X74191510Y-165180355D01*
X72820451Y-165746865D01*
X71770551Y-166794933D01*
X71201649Y-168165002D01*
X71200355Y-169648490D01*
X65958356Y-169648490D01*
X65959645Y-168171510D01*
X65393135Y-166800451D01*
X64345067Y-165750551D01*
X62974998Y-165181649D01*
X61491510Y-165180355D01*
X60120451Y-165746865D01*
X59070551Y-166794933D01*
X58501649Y-168165002D01*
X58500355Y-169648490D01*
X56336000Y-169648490D01*
X56336000Y-154408490D01*
X58500355Y-154408490D01*
X59066865Y-155779549D01*
X60114933Y-156829449D01*
X61485002Y-157398351D01*
X62968490Y-157399645D01*
X64339549Y-156833135D01*
X65389449Y-155785067D01*
X65958351Y-154414998D01*
X65958356Y-154408490D01*
X71200355Y-154408490D01*
X71766865Y-155779549D01*
X72814933Y-156829449D01*
X74185002Y-157398351D01*
X75668490Y-157399645D01*
X77039549Y-156833135D01*
X78089449Y-155785067D01*
X78658351Y-154414998D01*
X78658356Y-154408490D01*
X83900355Y-154408490D01*
X84466865Y-155779549D01*
X85514933Y-156829449D01*
X86885002Y-157398351D01*
X88368490Y-157399645D01*
X89739549Y-156833135D01*
X90789449Y-155785067D01*
X91358351Y-154414998D01*
X91358356Y-154408490D01*
X96600355Y-154408490D01*
X97166865Y-155779549D01*
X98214933Y-156829449D01*
X99585002Y-157398351D01*
X101068490Y-157399645D01*
X102439549Y-156833135D01*
X103489449Y-155785067D01*
X104058351Y-154414998D01*
X104058356Y-154408490D01*
X109300355Y-154408490D01*
X109866865Y-155779549D01*
X110914933Y-156829449D01*
X112285002Y-157398351D01*
X113768490Y-157399645D01*
X115139549Y-156833135D01*
X116189449Y-155785067D01*
X116758351Y-154414998D01*
X116758356Y-154408490D01*
X122000355Y-154408490D01*
X122566865Y-155779549D01*
X123614933Y-156829449D01*
X124985002Y-157398351D01*
X126468490Y-157399645D01*
X127839549Y-156833135D01*
X128889449Y-155785067D01*
X129458351Y-154414998D01*
X129458356Y-154408490D01*
X134700355Y-154408490D01*
X135266865Y-155779549D01*
X136314933Y-156829449D01*
X137685002Y-157398351D01*
X139168490Y-157399645D01*
X140539549Y-156833135D01*
X141589449Y-155785067D01*
X142158351Y-154414998D01*
X142158356Y-154408490D01*
X147400355Y-154408490D01*
X147966865Y-155779549D01*
X149014933Y-156829449D01*
X150385002Y-157398351D01*
X151868490Y-157399645D01*
X153239549Y-156833135D01*
X154289449Y-155785067D01*
X154858351Y-154414998D01*
X154859645Y-152931510D01*
X154293135Y-151560451D01*
X153245067Y-150510551D01*
X151874998Y-149941649D01*
X150391510Y-149940355D01*
X149020451Y-150506865D01*
X147970551Y-151554933D01*
X147401649Y-152925002D01*
X147400355Y-154408490D01*
X142158356Y-154408490D01*
X142159645Y-152931510D01*
X141593135Y-151560451D01*
X140545067Y-150510551D01*
X139174998Y-149941649D01*
X137691510Y-149940355D01*
X136320451Y-150506865D01*
X135270551Y-151554933D01*
X134701649Y-152925002D01*
X134700355Y-154408490D01*
X129458356Y-154408490D01*
X129459645Y-152931510D01*
X128893135Y-151560451D01*
X127845067Y-150510551D01*
X126474998Y-149941649D01*
X124991510Y-149940355D01*
X123620451Y-150506865D01*
X122570551Y-151554933D01*
X122001649Y-152925002D01*
X122000355Y-154408490D01*
X116758356Y-154408490D01*
X116759645Y-152931510D01*
X116193135Y-151560451D01*
X115145067Y-150510551D01*
X113774998Y-149941649D01*
X112291510Y-149940355D01*
X110920451Y-150506865D01*
X109870551Y-151554933D01*
X109301649Y-152925002D01*
X109300355Y-154408490D01*
X104058356Y-154408490D01*
X104059645Y-152931510D01*
X103493135Y-151560451D01*
X102445067Y-150510551D01*
X101074998Y-149941649D01*
X99591510Y-149940355D01*
X98220451Y-150506865D01*
X97170551Y-151554933D01*
X96601649Y-152925002D01*
X96600355Y-154408490D01*
X91358356Y-154408490D01*
X91359645Y-152931510D01*
X90793135Y-151560451D01*
X89745067Y-150510551D01*
X88374998Y-149941649D01*
X86891510Y-149940355D01*
X85520451Y-150506865D01*
X84470551Y-151554933D01*
X83901649Y-152925002D01*
X83900355Y-154408490D01*
X78658356Y-154408490D01*
X78659645Y-152931510D01*
X78093135Y-151560451D01*
X77045067Y-150510551D01*
X75674998Y-149941649D01*
X74191510Y-149940355D01*
X72820451Y-150506865D01*
X71770551Y-151554933D01*
X71201649Y-152925002D01*
X71200355Y-154408490D01*
X65958356Y-154408490D01*
X65959645Y-152931510D01*
X65393135Y-151560451D01*
X64345067Y-150510551D01*
X62974998Y-149941649D01*
X61491510Y-149940355D01*
X60120451Y-150506865D01*
X59070551Y-151554933D01*
X58501649Y-152925002D01*
X58500355Y-154408490D01*
X56336000Y-154408490D01*
X56336000Y-139193641D01*
X58373332Y-139193641D01*
X58959136Y-140611395D01*
X60042899Y-141697052D01*
X61459629Y-142285330D01*
X62993641Y-142286668D01*
X64411395Y-141700864D01*
X65497052Y-140617101D01*
X66060905Y-139259192D01*
X77092275Y-139259192D01*
X77728365Y-140798646D01*
X78905158Y-141977496D01*
X80443500Y-142616271D01*
X82109192Y-142617725D01*
X83648646Y-141981635D01*
X84827496Y-140804842D01*
X85466271Y-139266500D01*
X85466277Y-139259192D01*
X102492275Y-139259192D01*
X103128365Y-140798646D01*
X104305158Y-141977496D01*
X105843500Y-142616271D01*
X107509192Y-142617725D01*
X109048646Y-141981635D01*
X110227496Y-140804842D01*
X110866271Y-139266500D01*
X110866277Y-139259192D01*
X127892275Y-139259192D01*
X128528365Y-140798646D01*
X129705158Y-141977496D01*
X131243500Y-142616271D01*
X132909192Y-142617725D01*
X134448646Y-141981635D01*
X135627496Y-140804842D01*
X136266271Y-139266500D01*
X136266334Y-139193641D01*
X147273332Y-139193641D01*
X147859136Y-140611395D01*
X148942899Y-141697052D01*
X150359629Y-142285330D01*
X151893641Y-142286668D01*
X153311395Y-141700864D01*
X154397052Y-140617101D01*
X154985330Y-139200371D01*
X154986668Y-137666359D01*
X154400864Y-136248605D01*
X153317101Y-135162948D01*
X151900371Y-134574670D01*
X150366359Y-134573332D01*
X148948605Y-135159136D01*
X147862948Y-136242899D01*
X147274670Y-137659629D01*
X147273332Y-139193641D01*
X136266334Y-139193641D01*
X136267725Y-137600808D01*
X135631635Y-136061354D01*
X134454842Y-134882504D01*
X132916500Y-134243729D01*
X131250808Y-134242275D01*
X129711354Y-134878365D01*
X128532504Y-136055158D01*
X127893729Y-137593500D01*
X127892275Y-139259192D01*
X110866277Y-139259192D01*
X110867725Y-137600808D01*
X110231635Y-136061354D01*
X109054842Y-134882504D01*
X107516500Y-134243729D01*
X105850808Y-134242275D01*
X104311354Y-134878365D01*
X103132504Y-136055158D01*
X102493729Y-137593500D01*
X102492275Y-139259192D01*
X85466277Y-139259192D01*
X85467725Y-137600808D01*
X84831635Y-136061354D01*
X83654842Y-134882504D01*
X82116500Y-134243729D01*
X80450808Y-134242275D01*
X78911354Y-134878365D01*
X77732504Y-136055158D01*
X77093729Y-137593500D01*
X77092275Y-139259192D01*
X66060905Y-139259192D01*
X66085330Y-139200371D01*
X66086668Y-137666359D01*
X65500864Y-136248605D01*
X64417101Y-135162948D01*
X63000371Y-134574670D01*
X61466359Y-134573332D01*
X60048605Y-135159136D01*
X58962948Y-136242899D01*
X58374670Y-137659629D01*
X58373332Y-139193641D01*
X56336000Y-139193641D01*
X56336000Y-121479192D01*
X64392275Y-121479192D01*
X65028365Y-123018646D01*
X66205158Y-124197496D01*
X67743500Y-124836271D01*
X69409192Y-124837725D01*
X70948646Y-124201635D01*
X72127496Y-123024842D01*
X72766271Y-121486500D01*
X72766277Y-121479192D01*
X89792275Y-121479192D01*
X90428365Y-123018646D01*
X91605158Y-124197496D01*
X93143500Y-124836271D01*
X94809192Y-124837725D01*
X96348646Y-124201635D01*
X97527496Y-123024842D01*
X98166271Y-121486500D01*
X98166277Y-121479192D01*
X115192275Y-121479192D01*
X115828365Y-123018646D01*
X117005158Y-124197496D01*
X118543500Y-124836271D01*
X120209192Y-124837725D01*
X121748646Y-124201635D01*
X122927496Y-123024842D01*
X123566271Y-121486500D01*
X123566277Y-121479192D01*
X140592275Y-121479192D01*
X141228365Y-123018646D01*
X142405158Y-124197496D01*
X143943500Y-124836271D01*
X145609192Y-124837725D01*
X147148646Y-124201635D01*
X148327496Y-123024842D01*
X148966271Y-121486500D01*
X148967725Y-119820808D01*
X148331635Y-118281354D01*
X147154842Y-117102504D01*
X145616500Y-116463729D01*
X143950808Y-116462275D01*
X142411354Y-117098365D01*
X141232504Y-118275158D01*
X140593729Y-119813500D01*
X140592275Y-121479192D01*
X123566277Y-121479192D01*
X123567725Y-119820808D01*
X122931635Y-118281354D01*
X121754842Y-117102504D01*
X120216500Y-116463729D01*
X118550808Y-116462275D01*
X117011354Y-117098365D01*
X115832504Y-118275158D01*
X115193729Y-119813500D01*
X115192275Y-121479192D01*
X98166277Y-121479192D01*
X98167725Y-119820808D01*
X97531635Y-118281354D01*
X96354842Y-117102504D01*
X94816500Y-116463729D01*
X93150808Y-116462275D01*
X91611354Y-117098365D01*
X90432504Y-118275158D01*
X89793729Y-119813500D01*
X89792275Y-121479192D01*
X72766277Y-121479192D01*
X72767725Y-119820808D01*
X72131635Y-118281354D01*
X70954842Y-117102504D01*
X69416500Y-116463729D01*
X67750808Y-116462275D01*
X66211354Y-117098365D01*
X65032504Y-118275158D01*
X64393729Y-119813500D01*
X64392275Y-121479192D01*
X56336000Y-121479192D01*
X56336000Y-109983641D01*
X77423332Y-109983641D01*
X78009136Y-111401395D01*
X79092899Y-112487052D01*
X80509629Y-113075330D01*
X82043641Y-113076668D01*
X83461395Y-112490864D01*
X84547052Y-111407101D01*
X85135330Y-109990371D01*
X85135335Y-109983641D01*
X102823332Y-109983641D01*
X103409136Y-111401395D01*
X104492899Y-112487052D01*
X105909629Y-113075330D01*
X107443641Y-113076668D01*
X108861395Y-112490864D01*
X109947052Y-111407101D01*
X110535330Y-109990371D01*
X110535335Y-109983641D01*
X128223332Y-109983641D01*
X128809136Y-111401395D01*
X129892899Y-112487052D01*
X131309629Y-113075330D01*
X132843641Y-113076668D01*
X134261395Y-112490864D01*
X135347052Y-111407101D01*
X135935330Y-109990371D01*
X135936668Y-108456359D01*
X135350864Y-107038605D01*
X134267101Y-105952948D01*
X132850371Y-105364670D01*
X131316359Y-105363332D01*
X129898605Y-105949136D01*
X128812948Y-107032899D01*
X128224670Y-108449629D01*
X128223332Y-109983641D01*
X110535335Y-109983641D01*
X110536668Y-108456359D01*
X109950864Y-107038605D01*
X108867101Y-105952948D01*
X107450371Y-105364670D01*
X105916359Y-105363332D01*
X104498605Y-105949136D01*
X103412948Y-107032899D01*
X102824670Y-108449629D01*
X102823332Y-109983641D01*
X85135335Y-109983641D01*
X85136668Y-108456359D01*
X84550864Y-107038605D01*
X83467101Y-105952948D01*
X82050371Y-105364670D01*
X80516359Y-105363332D01*
X79098605Y-105949136D01*
X78012948Y-107032899D01*
X77424670Y-108449629D01*
X77423332Y-109983641D01*
X56336000Y-109983641D01*
X56336000Y-98619192D01*
X64392275Y-98619192D01*
X65028365Y-100158646D01*
X66205158Y-101337496D01*
X67743500Y-101976271D01*
X69409192Y-101977725D01*
X70948646Y-101341635D01*
X72127496Y-100164842D01*
X72766271Y-98626500D01*
X72766277Y-98619192D01*
X89792275Y-98619192D01*
X90428365Y-100158646D01*
X91605158Y-101337496D01*
X93143500Y-101976271D01*
X94809192Y-101977725D01*
X96348646Y-101341635D01*
X97527496Y-100164842D01*
X98166271Y-98626500D01*
X98166277Y-98619192D01*
X115192275Y-98619192D01*
X115828365Y-100158646D01*
X117005158Y-101337496D01*
X118543500Y-101976271D01*
X120209192Y-101977725D01*
X121748646Y-101341635D01*
X122927496Y-100164842D01*
X123566271Y-98626500D01*
X123566277Y-98619192D01*
X140592275Y-98619192D01*
X141228365Y-100158646D01*
X142405158Y-101337496D01*
X143943500Y-101976271D01*
X145609192Y-101977725D01*
X147148646Y-101341635D01*
X148327496Y-100164842D01*
X148966271Y-98626500D01*
X148967725Y-96960808D01*
X148331635Y-95421354D01*
X147154842Y-94242504D01*
X145616500Y-93603729D01*
X143950808Y-93602275D01*
X142411354Y-94238365D01*
X141232504Y-95415158D01*
X140593729Y-96953500D01*
X140592275Y-98619192D01*
X123566277Y-98619192D01*
X123567725Y-96960808D01*
X122931635Y-95421354D01*
X121754842Y-94242504D01*
X120216500Y-93603729D01*
X118550808Y-93602275D01*
X117011354Y-94238365D01*
X115832504Y-95415158D01*
X115193729Y-96953500D01*
X115192275Y-98619192D01*
X98166277Y-98619192D01*
X98167725Y-96960808D01*
X97531635Y-95421354D01*
X96354842Y-94242504D01*
X94816500Y-93603729D01*
X93150808Y-93602275D01*
X91611354Y-94238365D01*
X90432504Y-95415158D01*
X89793729Y-96953500D01*
X89792275Y-98619192D01*
X72766277Y-98619192D01*
X72767725Y-96960808D01*
X72131635Y-95421354D01*
X70954842Y-94242504D01*
X69416500Y-93603729D01*
X67750808Y-93602275D01*
X66211354Y-94238365D01*
X65032504Y-95415158D01*
X64393729Y-96953500D01*
X64392275Y-98619192D01*
X56336000Y-98619192D01*
X56336000Y-93159253D01*
X76471107Y-93159253D01*
X76815738Y-93993324D01*
X77453320Y-94632020D01*
X78286788Y-94978106D01*
X79189253Y-94978893D01*
X80023324Y-94634262D01*
X80662020Y-93996680D01*
X81008106Y-93163212D01*
X81008109Y-93159253D01*
X81551107Y-93159253D01*
X81895738Y-93993324D01*
X82533320Y-94632020D01*
X83366788Y-94978106D01*
X84269253Y-94978893D01*
X85103324Y-94634262D01*
X85742020Y-93996680D01*
X86088106Y-93163212D01*
X86088109Y-93159253D01*
X127271107Y-93159253D01*
X127615738Y-93993324D01*
X128253320Y-94632020D01*
X129086788Y-94978106D01*
X129989253Y-94978893D01*
X130823324Y-94634262D01*
X131462020Y-93996680D01*
X131808106Y-93163212D01*
X131808109Y-93159253D01*
X132351107Y-93159253D01*
X132695738Y-93993324D01*
X133333320Y-94632020D01*
X134166788Y-94978106D01*
X135069253Y-94978893D01*
X135903324Y-94634262D01*
X136542020Y-93996680D01*
X136888106Y-93163212D01*
X136888893Y-92260747D01*
X136544262Y-91426676D01*
X135906680Y-90787980D01*
X135073212Y-90441894D01*
X134170747Y-90441107D01*
X133336676Y-90785738D01*
X132697980Y-91423320D01*
X132351894Y-92256788D01*
X132351107Y-93159253D01*
X131808109Y-93159253D01*
X131808893Y-92260747D01*
X131464262Y-91426676D01*
X130826680Y-90787980D01*
X129993212Y-90441894D01*
X129090747Y-90441107D01*
X128256676Y-90785738D01*
X127617980Y-91423320D01*
X127271894Y-92256788D01*
X127271107Y-93159253D01*
X86088109Y-93159253D01*
X86088893Y-92260747D01*
X85744262Y-91426676D01*
X85106680Y-90787980D01*
X84273212Y-90441894D01*
X83370747Y-90441107D01*
X82536676Y-90785738D01*
X81897980Y-91423320D01*
X81551894Y-92256788D01*
X81551107Y-93159253D01*
X81008109Y-93159253D01*
X81008893Y-92260747D01*
X80664262Y-91426676D01*
X80026680Y-90787980D01*
X79193212Y-90441894D01*
X78290747Y-90441107D01*
X77456676Y-90785738D01*
X76817980Y-91423320D01*
X76471894Y-92256788D01*
X76471107Y-93159253D01*
X56336000Y-93159253D01*
X56336000Y-77668719D01*
X61213604Y-77668719D01*
X61560894Y-78509223D01*
X62203395Y-79152846D01*
X63043292Y-79501602D01*
X63952719Y-79502396D01*
X64793223Y-79155106D01*
X65436846Y-78512605D01*
X65785602Y-77672708D01*
X65785605Y-77668719D01*
X147573604Y-77668719D01*
X147920894Y-78509223D01*
X148563395Y-79152846D01*
X149403292Y-79501602D01*
X150312719Y-79502396D01*
X151153223Y-79155106D01*
X151796846Y-78512605D01*
X152145602Y-77672708D01*
X152146396Y-76763281D01*
X151799106Y-75922777D01*
X151156605Y-75279154D01*
X150316708Y-74930398D01*
X149407281Y-74929604D01*
X148566777Y-75276894D01*
X147923154Y-75919395D01*
X147574398Y-76759292D01*
X147573604Y-77668719D01*
X65785605Y-77668719D01*
X65786396Y-76763281D01*
X65439106Y-75922777D01*
X64796605Y-75279154D01*
X63956708Y-74930398D01*
X63047281Y-74929604D01*
X62206777Y-75276894D01*
X61563154Y-75919395D01*
X61214398Y-76759292D01*
X61213604Y-77668719D01*
X56336000Y-77668719D01*
X56336000Y-74624000D01*
X157024000Y-74624000D01*
X157024000Y-202236000D01*
X157024000Y-202236000D01*
G37*
X157024000Y-202236000D02*
X56336000Y-202236000D01*
X56336000Y-200096719D01*
X61213604Y-200096719D01*
X61560894Y-200937223D01*
X62203395Y-201580846D01*
X63043292Y-201929602D01*
X63952719Y-201930396D01*
X64793223Y-201583106D01*
X65436846Y-200940605D01*
X65785602Y-200100708D01*
X65785605Y-200096719D01*
X147573604Y-200096719D01*
X147920894Y-200937223D01*
X148563395Y-201580846D01*
X149403292Y-201929602D01*
X150312719Y-201930396D01*
X151153223Y-201583106D01*
X151796846Y-200940605D01*
X152145602Y-200100708D01*
X152146396Y-199191281D01*
X151799106Y-198350777D01*
X151156605Y-197707154D01*
X150316708Y-197358398D01*
X149407281Y-197357604D01*
X148566777Y-197704894D01*
X147923154Y-198347395D01*
X147574398Y-199187292D01*
X147573604Y-200096719D01*
X65785605Y-200096719D01*
X65786396Y-199191281D01*
X65439106Y-198350777D01*
X64796605Y-197707154D01*
X63956708Y-197358398D01*
X63047281Y-197357604D01*
X62206777Y-197704894D01*
X61563154Y-198347395D01*
X61214398Y-199187292D01*
X61213604Y-200096719D01*
X56336000Y-200096719D01*
X56336000Y-184888490D01*
X58500355Y-184888490D01*
X59066865Y-186259549D01*
X60114933Y-187309449D01*
X61485002Y-187878351D01*
X62968490Y-187879645D01*
X64339549Y-187313135D01*
X65389449Y-186265067D01*
X65958351Y-184894998D01*
X65958356Y-184888490D01*
X71200355Y-184888490D01*
X71766865Y-186259549D01*
X72814933Y-187309449D01*
X74185002Y-187878351D01*
X75668490Y-187879645D01*
X77039549Y-187313135D01*
X78089449Y-186265067D01*
X78658351Y-184894998D01*
X78658356Y-184888490D01*
X83900355Y-184888490D01*
X84466865Y-186259549D01*
X85514933Y-187309449D01*
X86885002Y-187878351D01*
X88368490Y-187879645D01*
X89739549Y-187313135D01*
X90789449Y-186265067D01*
X91358351Y-184894998D01*
X91358356Y-184888490D01*
X96600355Y-184888490D01*
X97166865Y-186259549D01*
X98214933Y-187309449D01*
X99585002Y-187878351D01*
X101068490Y-187879645D01*
X102439549Y-187313135D01*
X103489449Y-186265067D01*
X104058351Y-184894998D01*
X104058356Y-184888490D01*
X109300355Y-184888490D01*
X109866865Y-186259549D01*
X110914933Y-187309449D01*
X112285002Y-187878351D01*
X113768490Y-187879645D01*
X115139549Y-187313135D01*
X116189449Y-186265067D01*
X116758351Y-184894998D01*
X116758356Y-184888490D01*
X122000355Y-184888490D01*
X122566865Y-186259549D01*
X123614933Y-187309449D01*
X124985002Y-187878351D01*
X126468490Y-187879645D01*
X127839549Y-187313135D01*
X128889449Y-186265067D01*
X129458351Y-184894998D01*
X129458356Y-184888490D01*
X134700355Y-184888490D01*
X135266865Y-186259549D01*
X136314933Y-187309449D01*
X137685002Y-187878351D01*
X139168490Y-187879645D01*
X140539549Y-187313135D01*
X141589449Y-186265067D01*
X142158351Y-184894998D01*
X142158356Y-184888490D01*
X147400355Y-184888490D01*
X147966865Y-186259549D01*
X149014933Y-187309449D01*
X150385002Y-187878351D01*
X151868490Y-187879645D01*
X153239549Y-187313135D01*
X154289449Y-186265067D01*
X154858351Y-184894998D01*
X154859645Y-183411510D01*
X154293135Y-182040451D01*
X153245067Y-180990551D01*
X151874998Y-180421649D01*
X150391510Y-180420355D01*
X149020451Y-180986865D01*
X147970551Y-182034933D01*
X147401649Y-183405002D01*
X147400355Y-184888490D01*
X142158356Y-184888490D01*
X142159645Y-183411510D01*
X141593135Y-182040451D01*
X140545067Y-180990551D01*
X139174998Y-180421649D01*
X137691510Y-180420355D01*
X136320451Y-180986865D01*
X135270551Y-182034933D01*
X134701649Y-183405002D01*
X134700355Y-184888490D01*
X129458356Y-184888490D01*
X129459645Y-183411510D01*
X128893135Y-182040451D01*
X127845067Y-180990551D01*
X126474998Y-180421649D01*
X124991510Y-180420355D01*
X123620451Y-180986865D01*
X122570551Y-182034933D01*
X122001649Y-183405002D01*
X122000355Y-184888490D01*
X116758356Y-184888490D01*
X116759645Y-183411510D01*
X116193135Y-182040451D01*
X115145067Y-180990551D01*
X113774998Y-180421649D01*
X112291510Y-180420355D01*
X110920451Y-180986865D01*
X109870551Y-182034933D01*
X109301649Y-183405002D01*
X109300355Y-184888490D01*
X104058356Y-184888490D01*
X104059645Y-183411510D01*
X103493135Y-182040451D01*
X102445067Y-180990551D01*
X101074998Y-180421649D01*
X99591510Y-180420355D01*
X98220451Y-180986865D01*
X97170551Y-182034933D01*
X96601649Y-183405002D01*
X96600355Y-184888490D01*
X91358356Y-184888490D01*
X91359645Y-183411510D01*
X90793135Y-182040451D01*
X89745067Y-180990551D01*
X88374998Y-180421649D01*
X86891510Y-180420355D01*
X85520451Y-180986865D01*
X84470551Y-182034933D01*
X83901649Y-183405002D01*
X83900355Y-184888490D01*
X78658356Y-184888490D01*
X78659645Y-183411510D01*
X78093135Y-182040451D01*
X77045067Y-180990551D01*
X75674998Y-180421649D01*
X74191510Y-180420355D01*
X72820451Y-180986865D01*
X71770551Y-182034933D01*
X71201649Y-183405002D01*
X71200355Y-184888490D01*
X65958356Y-184888490D01*
X65959645Y-183411510D01*
X65393135Y-182040451D01*
X64345067Y-180990551D01*
X62974998Y-180421649D01*
X61491510Y-180420355D01*
X60120451Y-180986865D01*
X59070551Y-182034933D01*
X58501649Y-183405002D01*
X58500355Y-184888490D01*
X56336000Y-184888490D01*
X56336000Y-169648490D01*
X58500355Y-169648490D01*
X59066865Y-171019549D01*
X60114933Y-172069449D01*
X61485002Y-172638351D01*
X62968490Y-172639645D01*
X64339549Y-172073135D01*
X65389449Y-171025067D01*
X65958351Y-169654998D01*
X65958356Y-169648490D01*
X71200355Y-169648490D01*
X71766865Y-171019549D01*
X72814933Y-172069449D01*
X74185002Y-172638351D01*
X75668490Y-172639645D01*
X77039549Y-172073135D01*
X78089449Y-171025067D01*
X78658351Y-169654998D01*
X78658356Y-169648490D01*
X83900355Y-169648490D01*
X84466865Y-171019549D01*
X85514933Y-172069449D01*
X86885002Y-172638351D01*
X88368490Y-172639645D01*
X89739549Y-172073135D01*
X90789449Y-171025067D01*
X91358351Y-169654998D01*
X91358356Y-169648490D01*
X96600355Y-169648490D01*
X97166865Y-171019549D01*
X98214933Y-172069449D01*
X99585002Y-172638351D01*
X101068490Y-172639645D01*
X102439549Y-172073135D01*
X103489449Y-171025067D01*
X104058351Y-169654998D01*
X104058356Y-169648490D01*
X109300355Y-169648490D01*
X109866865Y-171019549D01*
X110914933Y-172069449D01*
X112285002Y-172638351D01*
X113768490Y-172639645D01*
X115139549Y-172073135D01*
X116189449Y-171025067D01*
X116758351Y-169654998D01*
X116758356Y-169648490D01*
X122000355Y-169648490D01*
X122566865Y-171019549D01*
X123614933Y-172069449D01*
X124985002Y-172638351D01*
X126468490Y-172639645D01*
X127839549Y-172073135D01*
X128889449Y-171025067D01*
X129458351Y-169654998D01*
X129458356Y-169648490D01*
X134700355Y-169648490D01*
X135266865Y-171019549D01*
X136314933Y-172069449D01*
X137685002Y-172638351D01*
X139168490Y-172639645D01*
X140539549Y-172073135D01*
X141589449Y-171025067D01*
X142158351Y-169654998D01*
X142158356Y-169648490D01*
X147400355Y-169648490D01*
X147966865Y-171019549D01*
X149014933Y-172069449D01*
X150385002Y-172638351D01*
X151868490Y-172639645D01*
X153239549Y-172073135D01*
X154289449Y-171025067D01*
X154858351Y-169654998D01*
X154859645Y-168171510D01*
X154293135Y-166800451D01*
X153245067Y-165750551D01*
X151874998Y-165181649D01*
X150391510Y-165180355D01*
X149020451Y-165746865D01*
X147970551Y-166794933D01*
X147401649Y-168165002D01*
X147400355Y-169648490D01*
X142158356Y-169648490D01*
X142159645Y-168171510D01*
X141593135Y-166800451D01*
X140545067Y-165750551D01*
X139174998Y-165181649D01*
X137691510Y-165180355D01*
X136320451Y-165746865D01*
X135270551Y-166794933D01*
X134701649Y-168165002D01*
X134700355Y-169648490D01*
X129458356Y-169648490D01*
X129459645Y-168171510D01*
X128893135Y-166800451D01*
X127845067Y-165750551D01*
X126474998Y-165181649D01*
X124991510Y-165180355D01*
X123620451Y-165746865D01*
X122570551Y-166794933D01*
X122001649Y-168165002D01*
X122000355Y-169648490D01*
X116758356Y-169648490D01*
X116759645Y-168171510D01*
X116193135Y-166800451D01*
X115145067Y-165750551D01*
X113774998Y-165181649D01*
X112291510Y-165180355D01*
X110920451Y-165746865D01*
X109870551Y-166794933D01*
X109301649Y-168165002D01*
X109300355Y-169648490D01*
X104058356Y-169648490D01*
X104059645Y-168171510D01*
X103493135Y-166800451D01*
X102445067Y-165750551D01*
X101074998Y-165181649D01*
X99591510Y-165180355D01*
X98220451Y-165746865D01*
X97170551Y-166794933D01*
X96601649Y-168165002D01*
X96600355Y-169648490D01*
X91358356Y-169648490D01*
X91359645Y-168171510D01*
X90793135Y-166800451D01*
X89745067Y-165750551D01*
X88374998Y-165181649D01*
X86891510Y-165180355D01*
X85520451Y-165746865D01*
X84470551Y-166794933D01*
X83901649Y-168165002D01*
X83900355Y-169648490D01*
X78658356Y-169648490D01*
X78659645Y-168171510D01*
X78093135Y-166800451D01*
X77045067Y-165750551D01*
X75674998Y-165181649D01*
X74191510Y-165180355D01*
X72820451Y-165746865D01*
X71770551Y-166794933D01*
X71201649Y-168165002D01*
X71200355Y-169648490D01*
X65958356Y-169648490D01*
X65959645Y-168171510D01*
X65393135Y-166800451D01*
X64345067Y-165750551D01*
X62974998Y-165181649D01*
X61491510Y-165180355D01*
X60120451Y-165746865D01*
X59070551Y-166794933D01*
X58501649Y-168165002D01*
X58500355Y-169648490D01*
X56336000Y-169648490D01*
X56336000Y-154408490D01*
X58500355Y-154408490D01*
X59066865Y-155779549D01*
X60114933Y-156829449D01*
X61485002Y-157398351D01*
X62968490Y-157399645D01*
X64339549Y-156833135D01*
X65389449Y-155785067D01*
X65958351Y-154414998D01*
X65958356Y-154408490D01*
X71200355Y-154408490D01*
X71766865Y-155779549D01*
X72814933Y-156829449D01*
X74185002Y-157398351D01*
X75668490Y-157399645D01*
X77039549Y-156833135D01*
X78089449Y-155785067D01*
X78658351Y-154414998D01*
X78658356Y-154408490D01*
X83900355Y-154408490D01*
X84466865Y-155779549D01*
X85514933Y-156829449D01*
X86885002Y-157398351D01*
X88368490Y-157399645D01*
X89739549Y-156833135D01*
X90789449Y-155785067D01*
X91358351Y-154414998D01*
X91358356Y-154408490D01*
X96600355Y-154408490D01*
X97166865Y-155779549D01*
X98214933Y-156829449D01*
X99585002Y-157398351D01*
X101068490Y-157399645D01*
X102439549Y-156833135D01*
X103489449Y-155785067D01*
X104058351Y-154414998D01*
X104058356Y-154408490D01*
X109300355Y-154408490D01*
X109866865Y-155779549D01*
X110914933Y-156829449D01*
X112285002Y-157398351D01*
X113768490Y-157399645D01*
X115139549Y-156833135D01*
X116189449Y-155785067D01*
X116758351Y-154414998D01*
X116758356Y-154408490D01*
X122000355Y-154408490D01*
X122566865Y-155779549D01*
X123614933Y-156829449D01*
X124985002Y-157398351D01*
X126468490Y-157399645D01*
X127839549Y-156833135D01*
X128889449Y-155785067D01*
X129458351Y-154414998D01*
X129458356Y-154408490D01*
X134700355Y-154408490D01*
X135266865Y-155779549D01*
X136314933Y-156829449D01*
X137685002Y-157398351D01*
X139168490Y-157399645D01*
X140539549Y-156833135D01*
X141589449Y-155785067D01*
X142158351Y-154414998D01*
X142158356Y-154408490D01*
X147400355Y-154408490D01*
X147966865Y-155779549D01*
X149014933Y-156829449D01*
X150385002Y-157398351D01*
X151868490Y-157399645D01*
X153239549Y-156833135D01*
X154289449Y-155785067D01*
X154858351Y-154414998D01*
X154859645Y-152931510D01*
X154293135Y-151560451D01*
X153245067Y-150510551D01*
X151874998Y-149941649D01*
X150391510Y-149940355D01*
X149020451Y-150506865D01*
X147970551Y-151554933D01*
X147401649Y-152925002D01*
X147400355Y-154408490D01*
X142158356Y-154408490D01*
X142159645Y-152931510D01*
X141593135Y-151560451D01*
X140545067Y-150510551D01*
X139174998Y-149941649D01*
X137691510Y-149940355D01*
X136320451Y-150506865D01*
X135270551Y-151554933D01*
X134701649Y-152925002D01*
X134700355Y-154408490D01*
X129458356Y-154408490D01*
X129459645Y-152931510D01*
X128893135Y-151560451D01*
X127845067Y-150510551D01*
X126474998Y-149941649D01*
X124991510Y-149940355D01*
X123620451Y-150506865D01*
X122570551Y-151554933D01*
X122001649Y-152925002D01*
X122000355Y-154408490D01*
X116758356Y-154408490D01*
X116759645Y-152931510D01*
X116193135Y-151560451D01*
X115145067Y-150510551D01*
X113774998Y-149941649D01*
X112291510Y-149940355D01*
X110920451Y-150506865D01*
X109870551Y-151554933D01*
X109301649Y-152925002D01*
X109300355Y-154408490D01*
X104058356Y-154408490D01*
X104059645Y-152931510D01*
X103493135Y-151560451D01*
X102445067Y-150510551D01*
X101074998Y-149941649D01*
X99591510Y-149940355D01*
X98220451Y-150506865D01*
X97170551Y-151554933D01*
X96601649Y-152925002D01*
X96600355Y-154408490D01*
X91358356Y-154408490D01*
X91359645Y-152931510D01*
X90793135Y-151560451D01*
X89745067Y-150510551D01*
X88374998Y-149941649D01*
X86891510Y-149940355D01*
X85520451Y-150506865D01*
X84470551Y-151554933D01*
X83901649Y-152925002D01*
X83900355Y-154408490D01*
X78658356Y-154408490D01*
X78659645Y-152931510D01*
X78093135Y-151560451D01*
X77045067Y-150510551D01*
X75674998Y-149941649D01*
X74191510Y-149940355D01*
X72820451Y-150506865D01*
X71770551Y-151554933D01*
X71201649Y-152925002D01*
X71200355Y-154408490D01*
X65958356Y-154408490D01*
X65959645Y-152931510D01*
X65393135Y-151560451D01*
X64345067Y-150510551D01*
X62974998Y-149941649D01*
X61491510Y-149940355D01*
X60120451Y-150506865D01*
X59070551Y-151554933D01*
X58501649Y-152925002D01*
X58500355Y-154408490D01*
X56336000Y-154408490D01*
X56336000Y-139193641D01*
X58373332Y-139193641D01*
X58959136Y-140611395D01*
X60042899Y-141697052D01*
X61459629Y-142285330D01*
X62993641Y-142286668D01*
X64411395Y-141700864D01*
X65497052Y-140617101D01*
X66060905Y-139259192D01*
X77092275Y-139259192D01*
X77728365Y-140798646D01*
X78905158Y-141977496D01*
X80443500Y-142616271D01*
X82109192Y-142617725D01*
X83648646Y-141981635D01*
X84827496Y-140804842D01*
X85466271Y-139266500D01*
X85466277Y-139259192D01*
X102492275Y-139259192D01*
X103128365Y-140798646D01*
X104305158Y-141977496D01*
X105843500Y-142616271D01*
X107509192Y-142617725D01*
X109048646Y-141981635D01*
X110227496Y-140804842D01*
X110866271Y-139266500D01*
X110866277Y-139259192D01*
X127892275Y-139259192D01*
X128528365Y-140798646D01*
X129705158Y-141977496D01*
X131243500Y-142616271D01*
X132909192Y-142617725D01*
X134448646Y-141981635D01*
X135627496Y-140804842D01*
X136266271Y-139266500D01*
X136266334Y-139193641D01*
X147273332Y-139193641D01*
X147859136Y-140611395D01*
X148942899Y-141697052D01*
X150359629Y-142285330D01*
X151893641Y-142286668D01*
X153311395Y-141700864D01*
X154397052Y-140617101D01*
X154985330Y-139200371D01*
X154986668Y-137666359D01*
X154400864Y-136248605D01*
X153317101Y-135162948D01*
X151900371Y-134574670D01*
X150366359Y-134573332D01*
X148948605Y-135159136D01*
X147862948Y-136242899D01*
X147274670Y-137659629D01*
X147273332Y-139193641D01*
X136266334Y-139193641D01*
X136267725Y-137600808D01*
X135631635Y-136061354D01*
X134454842Y-134882504D01*
X132916500Y-134243729D01*
X131250808Y-134242275D01*
X129711354Y-134878365D01*
X128532504Y-136055158D01*
X127893729Y-137593500D01*
X127892275Y-139259192D01*
X110866277Y-139259192D01*
X110867725Y-137600808D01*
X110231635Y-136061354D01*
X109054842Y-134882504D01*
X107516500Y-134243729D01*
X105850808Y-134242275D01*
X104311354Y-134878365D01*
X103132504Y-136055158D01*
X102493729Y-137593500D01*
X102492275Y-139259192D01*
X85466277Y-139259192D01*
X85467725Y-137600808D01*
X84831635Y-136061354D01*
X83654842Y-134882504D01*
X82116500Y-134243729D01*
X80450808Y-134242275D01*
X78911354Y-134878365D01*
X77732504Y-136055158D01*
X77093729Y-137593500D01*
X77092275Y-139259192D01*
X66060905Y-139259192D01*
X66085330Y-139200371D01*
X66086668Y-137666359D01*
X65500864Y-136248605D01*
X64417101Y-135162948D01*
X63000371Y-134574670D01*
X61466359Y-134573332D01*
X60048605Y-135159136D01*
X58962948Y-136242899D01*
X58374670Y-137659629D01*
X58373332Y-139193641D01*
X56336000Y-139193641D01*
X56336000Y-121479192D01*
X64392275Y-121479192D01*
X65028365Y-123018646D01*
X66205158Y-124197496D01*
X67743500Y-124836271D01*
X69409192Y-124837725D01*
X70948646Y-124201635D01*
X72127496Y-123024842D01*
X72766271Y-121486500D01*
X72766277Y-121479192D01*
X89792275Y-121479192D01*
X90428365Y-123018646D01*
X91605158Y-124197496D01*
X93143500Y-124836271D01*
X94809192Y-124837725D01*
X96348646Y-124201635D01*
X97527496Y-123024842D01*
X98166271Y-121486500D01*
X98166277Y-121479192D01*
X115192275Y-121479192D01*
X115828365Y-123018646D01*
X117005158Y-124197496D01*
X118543500Y-124836271D01*
X120209192Y-124837725D01*
X121748646Y-124201635D01*
X122927496Y-123024842D01*
X123566271Y-121486500D01*
X123566277Y-121479192D01*
X140592275Y-121479192D01*
X141228365Y-123018646D01*
X142405158Y-124197496D01*
X143943500Y-124836271D01*
X145609192Y-124837725D01*
X147148646Y-124201635D01*
X148327496Y-123024842D01*
X148966271Y-121486500D01*
X148967725Y-119820808D01*
X148331635Y-118281354D01*
X147154842Y-117102504D01*
X145616500Y-116463729D01*
X143950808Y-116462275D01*
X142411354Y-117098365D01*
X141232504Y-118275158D01*
X140593729Y-119813500D01*
X140592275Y-121479192D01*
X123566277Y-121479192D01*
X123567725Y-119820808D01*
X122931635Y-118281354D01*
X121754842Y-117102504D01*
X120216500Y-116463729D01*
X118550808Y-116462275D01*
X117011354Y-117098365D01*
X115832504Y-118275158D01*
X115193729Y-119813500D01*
X115192275Y-121479192D01*
X98166277Y-121479192D01*
X98167725Y-119820808D01*
X97531635Y-118281354D01*
X96354842Y-117102504D01*
X94816500Y-116463729D01*
X93150808Y-116462275D01*
X91611354Y-117098365D01*
X90432504Y-118275158D01*
X89793729Y-119813500D01*
X89792275Y-121479192D01*
X72766277Y-121479192D01*
X72767725Y-119820808D01*
X72131635Y-118281354D01*
X70954842Y-117102504D01*
X69416500Y-116463729D01*
X67750808Y-116462275D01*
X66211354Y-117098365D01*
X65032504Y-118275158D01*
X64393729Y-119813500D01*
X64392275Y-121479192D01*
X56336000Y-121479192D01*
X56336000Y-109983641D01*
X77423332Y-109983641D01*
X78009136Y-111401395D01*
X79092899Y-112487052D01*
X80509629Y-113075330D01*
X82043641Y-113076668D01*
X83461395Y-112490864D01*
X84547052Y-111407101D01*
X85135330Y-109990371D01*
X85135335Y-109983641D01*
X102823332Y-109983641D01*
X103409136Y-111401395D01*
X104492899Y-112487052D01*
X105909629Y-113075330D01*
X107443641Y-113076668D01*
X108861395Y-112490864D01*
X109947052Y-111407101D01*
X110535330Y-109990371D01*
X110535335Y-109983641D01*
X128223332Y-109983641D01*
X128809136Y-111401395D01*
X129892899Y-112487052D01*
X131309629Y-113075330D01*
X132843641Y-113076668D01*
X134261395Y-112490864D01*
X135347052Y-111407101D01*
X135935330Y-109990371D01*
X135936668Y-108456359D01*
X135350864Y-107038605D01*
X134267101Y-105952948D01*
X132850371Y-105364670D01*
X131316359Y-105363332D01*
X129898605Y-105949136D01*
X128812948Y-107032899D01*
X128224670Y-108449629D01*
X128223332Y-109983641D01*
X110535335Y-109983641D01*
X110536668Y-108456359D01*
X109950864Y-107038605D01*
X108867101Y-105952948D01*
X107450371Y-105364670D01*
X105916359Y-105363332D01*
X104498605Y-105949136D01*
X103412948Y-107032899D01*
X102824670Y-108449629D01*
X102823332Y-109983641D01*
X85135335Y-109983641D01*
X85136668Y-108456359D01*
X84550864Y-107038605D01*
X83467101Y-105952948D01*
X82050371Y-105364670D01*
X80516359Y-105363332D01*
X79098605Y-105949136D01*
X78012948Y-107032899D01*
X77424670Y-108449629D01*
X77423332Y-109983641D01*
X56336000Y-109983641D01*
X56336000Y-98619192D01*
X64392275Y-98619192D01*
X65028365Y-100158646D01*
X66205158Y-101337496D01*
X67743500Y-101976271D01*
X69409192Y-101977725D01*
X70948646Y-101341635D01*
X72127496Y-100164842D01*
X72766271Y-98626500D01*
X72766277Y-98619192D01*
X89792275Y-98619192D01*
X90428365Y-100158646D01*
X91605158Y-101337496D01*
X93143500Y-101976271D01*
X94809192Y-101977725D01*
X96348646Y-101341635D01*
X97527496Y-100164842D01*
X98166271Y-98626500D01*
X98166277Y-98619192D01*
X115192275Y-98619192D01*
X115828365Y-100158646D01*
X117005158Y-101337496D01*
X118543500Y-101976271D01*
X120209192Y-101977725D01*
X121748646Y-101341635D01*
X122927496Y-100164842D01*
X123566271Y-98626500D01*
X123566277Y-98619192D01*
X140592275Y-98619192D01*
X141228365Y-100158646D01*
X142405158Y-101337496D01*
X143943500Y-101976271D01*
X145609192Y-101977725D01*
X147148646Y-101341635D01*
X148327496Y-100164842D01*
X148966271Y-98626500D01*
X148967725Y-96960808D01*
X148331635Y-95421354D01*
X147154842Y-94242504D01*
X145616500Y-93603729D01*
X143950808Y-93602275D01*
X142411354Y-94238365D01*
X141232504Y-95415158D01*
X140593729Y-96953500D01*
X140592275Y-98619192D01*
X123566277Y-98619192D01*
X123567725Y-96960808D01*
X122931635Y-95421354D01*
X121754842Y-94242504D01*
X120216500Y-93603729D01*
X118550808Y-93602275D01*
X117011354Y-94238365D01*
X115832504Y-95415158D01*
X115193729Y-96953500D01*
X115192275Y-98619192D01*
X98166277Y-98619192D01*
X98167725Y-96960808D01*
X97531635Y-95421354D01*
X96354842Y-94242504D01*
X94816500Y-93603729D01*
X93150808Y-93602275D01*
X91611354Y-94238365D01*
X90432504Y-95415158D01*
X89793729Y-96953500D01*
X89792275Y-98619192D01*
X72766277Y-98619192D01*
X72767725Y-96960808D01*
X72131635Y-95421354D01*
X70954842Y-94242504D01*
X69416500Y-93603729D01*
X67750808Y-93602275D01*
X66211354Y-94238365D01*
X65032504Y-95415158D01*
X64393729Y-96953500D01*
X64392275Y-98619192D01*
X56336000Y-98619192D01*
X56336000Y-93159253D01*
X76471107Y-93159253D01*
X76815738Y-93993324D01*
X77453320Y-94632020D01*
X78286788Y-94978106D01*
X79189253Y-94978893D01*
X80023324Y-94634262D01*
X80662020Y-93996680D01*
X81008106Y-93163212D01*
X81008109Y-93159253D01*
X81551107Y-93159253D01*
X81895738Y-93993324D01*
X82533320Y-94632020D01*
X83366788Y-94978106D01*
X84269253Y-94978893D01*
X85103324Y-94634262D01*
X85742020Y-93996680D01*
X86088106Y-93163212D01*
X86088109Y-93159253D01*
X127271107Y-93159253D01*
X127615738Y-93993324D01*
X128253320Y-94632020D01*
X129086788Y-94978106D01*
X129989253Y-94978893D01*
X130823324Y-94634262D01*
X131462020Y-93996680D01*
X131808106Y-93163212D01*
X131808109Y-93159253D01*
X132351107Y-93159253D01*
X132695738Y-93993324D01*
X133333320Y-94632020D01*
X134166788Y-94978106D01*
X135069253Y-94978893D01*
X135903324Y-94634262D01*
X136542020Y-93996680D01*
X136888106Y-93163212D01*
X136888893Y-92260747D01*
X136544262Y-91426676D01*
X135906680Y-90787980D01*
X135073212Y-90441894D01*
X134170747Y-90441107D01*
X133336676Y-90785738D01*
X132697980Y-91423320D01*
X132351894Y-92256788D01*
X132351107Y-93159253D01*
X131808109Y-93159253D01*
X131808893Y-92260747D01*
X131464262Y-91426676D01*
X130826680Y-90787980D01*
X129993212Y-90441894D01*
X129090747Y-90441107D01*
X128256676Y-90785738D01*
X127617980Y-91423320D01*
X127271894Y-92256788D01*
X127271107Y-93159253D01*
X86088109Y-93159253D01*
X86088893Y-92260747D01*
X85744262Y-91426676D01*
X85106680Y-90787980D01*
X84273212Y-90441894D01*
X83370747Y-90441107D01*
X82536676Y-90785738D01*
X81897980Y-91423320D01*
X81551894Y-92256788D01*
X81551107Y-93159253D01*
X81008109Y-93159253D01*
X81008893Y-92260747D01*
X80664262Y-91426676D01*
X80026680Y-90787980D01*
X79193212Y-90441894D01*
X78290747Y-90441107D01*
X77456676Y-90785738D01*
X76817980Y-91423320D01*
X76471894Y-92256788D01*
X76471107Y-93159253D01*
X56336000Y-93159253D01*
X56336000Y-77668719D01*
X61213604Y-77668719D01*
X61560894Y-78509223D01*
X62203395Y-79152846D01*
X63043292Y-79501602D01*
X63952719Y-79502396D01*
X64793223Y-79155106D01*
X65436846Y-78512605D01*
X65785602Y-77672708D01*
X65785605Y-77668719D01*
X147573604Y-77668719D01*
X147920894Y-78509223D01*
X148563395Y-79152846D01*
X149403292Y-79501602D01*
X150312719Y-79502396D01*
X151153223Y-79155106D01*
X151796846Y-78512605D01*
X152145602Y-77672708D01*
X152146396Y-76763281D01*
X151799106Y-75922777D01*
X151156605Y-75279154D01*
X150316708Y-74930398D01*
X149407281Y-74929604D01*
X148566777Y-75276894D01*
X147923154Y-75919395D01*
X147574398Y-76759292D01*
X147573604Y-77668719D01*
X65785605Y-77668719D01*
X65786396Y-76763281D01*
X65439106Y-75922777D01*
X64796605Y-75279154D01*
X63956708Y-74930398D01*
X63047281Y-74929604D01*
X62206777Y-75276894D01*
X61563154Y-75919395D01*
X61214398Y-76759292D01*
X61213604Y-77668719D01*
X56336000Y-77668719D01*
X56336000Y-74624000D01*
X157024000Y-74624000D01*
X157024000Y-202236000D01*
M02*
