M48
INCH,TZ
T1C0.125
T2C0.240
T3C0.250
T4C0.280
%
G90
G05
T1
X25000Y-30400
X25000Y-78600
X31000Y-36500
X33000Y-36500
X51000Y-36500
X53000Y-36500
X59000Y-30400
X59000Y-78600
T2
X24500Y-60500
X24500Y-66500
X24500Y-72500
X29500Y-60500
X29500Y-66500
X29500Y-72500
X34500Y-60500
X34500Y-66500
X34500Y-72500
X39500Y-60500
X39500Y-66500
X39500Y-72500
X44500Y-60500
X44500Y-66500
X44500Y-72500
X49500Y-60500
X49500Y-66500
X49500Y-72500
X54500Y-60500
X54500Y-66500
X54500Y-72500
X59500Y-60500
X59500Y-66500
X59500Y-72500
T3
X24500Y-54500
X32000Y-43000
X42000Y-43000
X52000Y-43000
X59500Y-54500
T4
X27000Y-38500
X27000Y-47500
X32000Y-54500
X37000Y-38500
X37000Y-47500
X42000Y-54500
X47000Y-38500
X47000Y-47500
X52000Y-54500
X57000Y-38500
X57000Y-47500
T0
M30
